ISO-10303-21;
HEADER;
/* Generated by software containing ST-Developer
 * from STEP Tools, Inc. (www.steptools.com) 
 */
/* OPTION: using custom renumber hook */

FILE_DESCRIPTION(
/* description */ ('STEP AP242 Edition 2',
'CAx-IF Rec.Pracs.---Representation and Presentation of Product Manufa
cturing Information (PMI)---4.0---2014-10-13',
'CAx-IF Rec.Pracs.---3D Tessellated Geometry---0.4---2014-09-14','2;1',
'CAx-IF Rec.Pracs.---User Defined Attributes---1.5---2016-08-15'),
/* implementation_level */ '2;1');

FILE_NAME(
/* name */ 'Part Studio 1 - Part 2410',
/* time_stamp */ '2026-08-31T07:21:18Z',
/* author */ (''),
/* organization */ (''),
/* preprocessor_version */ 'ST-DEVELOPER v20',
/* originating_system */ 'ONSHAPE BY PTC INC, 1.220',
/* authorisation */ '  ');

FILE_SCHEMA (('AP242_MANAGED_MODEL_BASED_3D_ENGINEERING_MIM_LF { 1 0 10303 442 3 1 4 }'));
ENDSEC;

DATA;
#10=SHAPE_REPRESENTATION_RELATIONSHIP('','',#783,#11);
#11=ADVANCED_BREP_SHAPE_REPRESENTATION('',(#781),#1349);
#12=CYLINDRICAL_SURFACE('',#790,0.0011);
#13=CYLINDRICAL_SURFACE('',#817,0.00400000042591001);
#14=CYLINDRICAL_SURFACE('',#819,0.00400000042590999);
#15=CYLINDRICAL_SURFACE('',#821,0.00400000042591001);
#16=CYLINDRICAL_SURFACE('',#823,0.00400000042590999);
#17=CYLINDRICAL_SURFACE('',#826,0.00800000042591);
#18=CYLINDRICAL_SURFACE('',#828,0.00800000042591001);
#19=CYLINDRICAL_SURFACE('',#831,0.00800000042591003);
#20=CYLINDRICAL_SURFACE('',#834,0.00800000042591003);
#21=CYLINDRICAL_SURFACE('',#837,0.001075);
#22=CYLINDRICAL_SURFACE('',#840,0.002);
#23=CYLINDRICAL_SURFACE('',#844,0.001075);
#24=CYLINDRICAL_SURFACE('',#847,0.002);
#25=CYLINDRICAL_SURFACE('',#851,0.002);
#26=CYLINDRICAL_SURFACE('',#854,0.001075);
#27=CYLINDRICAL_SURFACE('',#857,0.002);
#28=CYLINDRICAL_SURFACE('',#861,0.0011);
#29=CYLINDRICAL_SURFACE('',#864,0.002);
#30=CYLINDRICAL_SURFACE('',#868,0.001075);
#31=CYLINDRICAL_SURFACE('',#871,0.002);
#32=CYLINDRICAL_SURFACE('',#876,0.000300000000000007);
#33=CYLINDRICAL_SURFACE('',#878,0.0003);
#34=CYLINDRICAL_SURFACE('',#880,0.0003);
#35=CYLINDRICAL_SURFACE('',#882,0.0003);
#36=CIRCLE('',#786,0.000300000000000007);
#37=CIRCLE('',#787,0.0003);
#38=CIRCLE('',#788,0.0003);
#39=CIRCLE('',#789,0.0003);
#40=CIRCLE('',#791,0.0011);
#41=CIRCLE('',#792,0.0011);
#42=CIRCLE('',#794,0.002);
#43=CIRCLE('',#795,0.002);
#44=CIRCLE('',#796,0.002);
#45=CIRCLE('',#797,0.002);
#46=CIRCLE('',#798,0.002);
#47=CIRCLE('',#799,0.002);
#48=CIRCLE('',#800,0.00400000042590999);
#49=CIRCLE('',#801,0.00400000042591001);
#50=CIRCLE('',#802,0.00400000042590999);
#51=CIRCLE('',#803,0.00400000042591001);
#52=CIRCLE('',#805,0.00800000042591);
#53=CIRCLE('',#806,0.00800000042591001);
#54=CIRCLE('',#807,0.00800000042591003);
#55=CIRCLE('',#808,0.00800000042591003);
#56=CIRCLE('',#811,0.000300000000000007);
#57=CIRCLE('',#812,0.0003);
#58=CIRCLE('',#813,0.0003);
#59=CIRCLE('',#814,0.0003);
#60=CIRCLE('',#818,0.00400000042591001);
#61=CIRCLE('',#820,0.00400000042590999);
#62=CIRCLE('',#822,0.00400000042591001);
#63=CIRCLE('',#824,0.00400000042590999);
#64=CIRCLE('',#827,0.00800000042591);
#65=CIRCLE('',#829,0.00800000042591001);
#66=CIRCLE('',#832,0.00800000042591003);
#67=CIRCLE('',#835,0.00800000042591003);
#68=CIRCLE('',#838,0.001075);
#69=CIRCLE('',#839,0.001075);
#70=CIRCLE('',#841,0.002);
#71=CIRCLE('',#845,0.001075);
#72=CIRCLE('',#846,0.001075);
#73=CIRCLE('',#848,0.002);
#74=CIRCLE('',#852,0.002);
#75=CIRCLE('',#855,0.001075);
#76=CIRCLE('',#856,0.001075);
#77=CIRCLE('',#858,0.002);
#78=CIRCLE('',#862,0.0011);
#79=CIRCLE('',#863,0.0011);
#80=CIRCLE('',#865,0.002);
#81=CIRCLE('',#869,0.001075);
#82=CIRCLE('',#870,0.001075);
#83=CIRCLE('',#872,0.002);
#84=ORIENTED_EDGE('',*,*,#276,.T.);
#85=ORIENTED_EDGE('',*,*,#277,.F.);
#86=ORIENTED_EDGE('',*,*,#278,.F.);
#87=ORIENTED_EDGE('',*,*,#279,.T.);
#88=ORIENTED_EDGE('',*,*,#280,.F.);
#89=ORIENTED_EDGE('',*,*,#281,.F.);
#90=ORIENTED_EDGE('',*,*,#282,.F.);
#91=ORIENTED_EDGE('',*,*,#283,.F.);
#92=ORIENTED_EDGE('',*,*,#284,.F.);
#93=ORIENTED_EDGE('',*,*,#285,.T.);
#94=ORIENTED_EDGE('',*,*,#286,.F.);
#95=ORIENTED_EDGE('',*,*,#287,.T.);
#96=ORIENTED_EDGE('',*,*,#288,.T.);
#97=ORIENTED_EDGE('',*,*,#289,.F.);
#98=ORIENTED_EDGE('',*,*,#290,.F.);
#99=ORIENTED_EDGE('',*,*,#291,.F.);
#100=ORIENTED_EDGE('',*,*,#292,.F.);
#101=ORIENTED_EDGE('',*,*,#293,.F.);
#102=ORIENTED_EDGE('',*,*,#294,.F.);
#103=ORIENTED_EDGE('',*,*,#295,.F.);
#104=ORIENTED_EDGE('',*,*,#296,.T.);
#105=ORIENTED_EDGE('',*,*,#297,.F.);
#106=ORIENTED_EDGE('',*,*,#298,.T.);
#107=ORIENTED_EDGE('',*,*,#299,.F.);
#108=ORIENTED_EDGE('',*,*,#300,.T.);
#109=ORIENTED_EDGE('',*,*,#301,.F.);
#110=ORIENTED_EDGE('',*,*,#302,.T.);
#111=ORIENTED_EDGE('',*,*,#303,.F.);
#112=ORIENTED_EDGE('',*,*,#288,.F.);
#113=ORIENTED_EDGE('',*,*,#304,.F.);
#114=ORIENTED_EDGE('',*,*,#305,.F.);
#115=ORIENTED_EDGE('',*,*,#276,.F.);
#116=ORIENTED_EDGE('',*,*,#306,.F.);
#117=ORIENTED_EDGE('',*,*,#307,.F.);
#118=ORIENTED_EDGE('',*,*,#308,.F.);
#119=ORIENTED_EDGE('',*,*,#309,.F.);
#120=ORIENTED_EDGE('',*,*,#310,.F.);
#121=ORIENTED_EDGE('',*,*,#296,.F.);
#122=ORIENTED_EDGE('',*,*,#311,.F.);
#123=ORIENTED_EDGE('',*,*,#312,.T.);
#124=ORIENTED_EDGE('',*,*,#313,.T.);
#125=ORIENTED_EDGE('',*,*,#314,.F.);
#126=ORIENTED_EDGE('',*,*,#315,.F.);
#127=ORIENTED_EDGE('',*,*,#316,.T.);
#128=ORIENTED_EDGE('',*,*,#317,.F.);
#129=ORIENTED_EDGE('',*,*,#318,.T.);
#130=ORIENTED_EDGE('',*,*,#319,.F.);
#131=ORIENTED_EDGE('',*,*,#320,.F.);
#132=ORIENTED_EDGE('',*,*,#321,.F.);
#133=ORIENTED_EDGE('',*,*,#302,.F.);
#134=ORIENTED_EDGE('',*,*,#322,.F.);
#135=ORIENTED_EDGE('',*,*,#323,.T.);
#136=ORIENTED_EDGE('',*,*,#324,.T.);
#137=ORIENTED_EDGE('',*,*,#300,.F.);
#138=ORIENTED_EDGE('',*,*,#325,.F.);
#139=ORIENTED_EDGE('',*,*,#326,.T.);
#140=ORIENTED_EDGE('',*,*,#327,.T.);
#141=ORIENTED_EDGE('',*,*,#298,.F.);
#142=ORIENTED_EDGE('',*,*,#328,.F.);
#143=ORIENTED_EDGE('',*,*,#329,.T.);
#144=ORIENTED_EDGE('',*,*,#330,.T.);
#145=ORIENTED_EDGE('',*,*,#311,.T.);
#146=ORIENTED_EDGE('',*,*,#303,.T.);
#147=ORIENTED_EDGE('',*,*,#324,.F.);
#148=ORIENTED_EDGE('',*,*,#331,.F.);
#149=ORIENTED_EDGE('',*,*,#328,.T.);
#150=ORIENTED_EDGE('',*,*,#297,.T.);
#151=ORIENTED_EDGE('',*,*,#313,.F.);
#152=ORIENTED_EDGE('',*,*,#332,.F.);
#153=ORIENTED_EDGE('',*,*,#325,.T.);
#154=ORIENTED_EDGE('',*,*,#299,.T.);
#155=ORIENTED_EDGE('',*,*,#330,.F.);
#156=ORIENTED_EDGE('',*,*,#333,.F.);
#157=ORIENTED_EDGE('',*,*,#322,.T.);
#158=ORIENTED_EDGE('',*,*,#301,.T.);
#159=ORIENTED_EDGE('',*,*,#327,.F.);
#160=ORIENTED_EDGE('',*,*,#334,.F.);
#161=ORIENTED_EDGE('',*,*,#304,.T.);
#162=ORIENTED_EDGE('',*,*,#335,.F.);
#163=ORIENTED_EDGE('',*,*,#336,.F.);
#164=ORIENTED_EDGE('',*,*,#337,.T.);
#165=ORIENTED_EDGE('',*,*,#305,.T.);
#166=ORIENTED_EDGE('',*,*,#337,.F.);
#167=ORIENTED_EDGE('',*,*,#338,.F.);
#168=ORIENTED_EDGE('',*,*,#277,.T.);
#169=ORIENTED_EDGE('',*,*,#306,.T.);
#170=ORIENTED_EDGE('',*,*,#279,.F.);
#171=ORIENTED_EDGE('',*,*,#339,.F.);
#172=ORIENTED_EDGE('',*,*,#340,.T.);
#173=ORIENTED_EDGE('',*,*,#307,.T.);
#174=ORIENTED_EDGE('',*,*,#340,.F.);
#175=ORIENTED_EDGE('',*,*,#341,.F.);
#176=ORIENTED_EDGE('',*,*,#342,.T.);
#177=ORIENTED_EDGE('',*,*,#308,.T.);
#178=ORIENTED_EDGE('',*,*,#342,.F.);
#179=ORIENTED_EDGE('',*,*,#343,.F.);
#180=ORIENTED_EDGE('',*,*,#344,.T.);
#181=ORIENTED_EDGE('',*,*,#309,.T.);
#182=ORIENTED_EDGE('',*,*,#344,.F.);
#183=ORIENTED_EDGE('',*,*,#345,.F.);
#184=ORIENTED_EDGE('',*,*,#346,.T.);
#185=ORIENTED_EDGE('',*,*,#310,.T.);
#186=ORIENTED_EDGE('',*,*,#346,.F.);
#187=ORIENTED_EDGE('',*,*,#347,.F.);
#188=ORIENTED_EDGE('',*,*,#335,.T.);
#189=ORIENTED_EDGE('',*,*,#331,.T.);
#190=ORIENTED_EDGE('',*,*,#323,.F.);
#191=ORIENTED_EDGE('',*,*,#334,.T.);
#192=ORIENTED_EDGE('',*,*,#326,.F.);
#193=ORIENTED_EDGE('',*,*,#333,.T.);
#194=ORIENTED_EDGE('',*,*,#329,.F.);
#195=ORIENTED_EDGE('',*,*,#332,.T.);
#196=ORIENTED_EDGE('',*,*,#312,.F.);
#197=ORIENTED_EDGE('',*,*,#336,.T.);
#198=ORIENTED_EDGE('',*,*,#347,.T.);
#199=ORIENTED_EDGE('',*,*,#345,.T.);
#200=ORIENTED_EDGE('',*,*,#343,.T.);
#201=ORIENTED_EDGE('',*,*,#341,.T.);
#202=ORIENTED_EDGE('',*,*,#339,.T.);
#203=ORIENTED_EDGE('',*,*,#278,.T.);
#204=ORIENTED_EDGE('',*,*,#338,.T.);
#205=ORIENTED_EDGE('',*,*,#348,.T.);
#206=ORIENTED_EDGE('',*,*,#349,.F.);
#207=ORIENTED_EDGE('',*,*,#350,.F.);
#208=ORIENTED_EDGE('',*,*,#295,.T.);
#209=ORIENTED_EDGE('',*,*,#348,.F.);
#210=ORIENTED_EDGE('',*,*,#350,.T.);
#211=ORIENTED_EDGE('',*,*,#349,.T.);
#212=ORIENTED_EDGE('',*,*,#351,.T.);
#213=ORIENTED_EDGE('',*,*,#352,.F.);
#214=ORIENTED_EDGE('',*,*,#353,.F.);
#215=ORIENTED_EDGE('',*,*,#294,.T.);
#216=ORIENTED_EDGE('',*,*,#351,.F.);
#217=ORIENTED_EDGE('',*,*,#353,.T.);
#218=ORIENTED_EDGE('',*,*,#352,.T.);
#219=ORIENTED_EDGE('',*,*,#354,.F.);
#220=ORIENTED_EDGE('',*,*,#293,.T.);
#221=ORIENTED_EDGE('',*,*,#289,.T.);
#222=ORIENTED_EDGE('',*,*,#354,.T.);
#223=ORIENTED_EDGE('',*,*,#355,.T.);
#224=ORIENTED_EDGE('',*,*,#356,.F.);
#225=ORIENTED_EDGE('',*,*,#357,.F.);
#226=ORIENTED_EDGE('',*,*,#292,.T.);
#227=ORIENTED_EDGE('',*,*,#355,.F.);
#228=ORIENTED_EDGE('',*,*,#357,.T.);
#229=ORIENTED_EDGE('',*,*,#356,.T.);
#230=ORIENTED_EDGE('',*,*,#358,.T.);
#231=ORIENTED_EDGE('',*,*,#359,.F.);
#232=ORIENTED_EDGE('',*,*,#360,.F.);
#233=ORIENTED_EDGE('',*,*,#291,.T.);
#234=ORIENTED_EDGE('',*,*,#358,.F.);
#235=ORIENTED_EDGE('',*,*,#360,.T.);
#236=ORIENTED_EDGE('',*,*,#359,.T.);
#237=ORIENTED_EDGE('',*,*,#361,.T.);
#238=ORIENTED_EDGE('',*,*,#362,.F.);
#239=ORIENTED_EDGE('',*,*,#363,.F.);
#240=ORIENTED_EDGE('',*,*,#290,.T.);
#241=ORIENTED_EDGE('',*,*,#361,.F.);
#242=ORIENTED_EDGE('',*,*,#363,.T.);
#243=ORIENTED_EDGE('',*,*,#362,.T.);
#244=ORIENTED_EDGE('',*,*,#314,.T.);
#245=ORIENTED_EDGE('',*,*,#364,.T.);
#246=ORIENTED_EDGE('',*,*,#281,.T.);
#247=ORIENTED_EDGE('',*,*,#365,.F.);
#248=ORIENTED_EDGE('',*,*,#315,.T.);
#249=ORIENTED_EDGE('',*,*,#365,.T.);
#250=ORIENTED_EDGE('',*,*,#280,.T.);
#251=ORIENTED_EDGE('',*,*,#366,.F.);
#252=ORIENTED_EDGE('',*,*,#366,.T.);
#253=ORIENTED_EDGE('',*,*,#287,.F.);
#254=ORIENTED_EDGE('',*,*,#367,.F.);
#255=ORIENTED_EDGE('',*,*,#316,.F.);
#256=ORIENTED_EDGE('',*,*,#317,.T.);
#257=ORIENTED_EDGE('',*,*,#367,.T.);
#258=ORIENTED_EDGE('',*,*,#286,.T.);
#259=ORIENTED_EDGE('',*,*,#368,.F.);
#260=ORIENTED_EDGE('',*,*,#368,.T.);
#261=ORIENTED_EDGE('',*,*,#285,.F.);
#262=ORIENTED_EDGE('',*,*,#369,.F.);
#263=ORIENTED_EDGE('',*,*,#318,.F.);
#264=ORIENTED_EDGE('',*,*,#319,.T.);
#265=ORIENTED_EDGE('',*,*,#369,.T.);
#266=ORIENTED_EDGE('',*,*,#284,.T.);
#267=ORIENTED_EDGE('',*,*,#370,.F.);
#268=ORIENTED_EDGE('',*,*,#320,.T.);
#269=ORIENTED_EDGE('',*,*,#370,.T.);
#270=ORIENTED_EDGE('',*,*,#283,.T.);
#271=ORIENTED_EDGE('',*,*,#371,.F.);
#272=ORIENTED_EDGE('',*,*,#321,.T.);
#273=ORIENTED_EDGE('',*,*,#371,.T.);
#274=ORIENTED_EDGE('',*,*,#282,.T.);
#275=ORIENTED_EDGE('',*,*,#364,.F.);
#276=EDGE_CURVE('',#372,#373,#444,.T.);
#277=EDGE_CURVE('',#374,#373,#445,.T.);
#278=EDGE_CURVE('',#375,#374,#446,.T.);
#279=EDGE_CURVE('',#375,#372,#447,.T.);
#280=EDGE_CURVE('',#376,#377,#36,.T.);
#281=EDGE_CURVE('',#378,#376,#448,.T.);
#282=EDGE_CURVE('',#379,#378,#37,.T.);
#283=EDGE_CURVE('',#380,#379,#449,.T.);
#284=EDGE_CURVE('',#381,#380,#38,.T.);
#285=EDGE_CURVE('',#381,#382,#450,.T.);
#286=EDGE_CURVE('',#383,#382,#39,.T.);
#287=EDGE_CURVE('',#383,#377,#451,.T.);
#288=EDGE_CURVE('',#384,#384,#40,.T.);
#289=EDGE_CURVE('',#385,#385,#41,.T.);
#290=EDGE_CURVE('',#386,#386,#42,.F.);
#291=EDGE_CURVE('',#387,#387,#43,.F.);
#292=EDGE_CURVE('',#388,#388,#44,.F.);
#293=EDGE_CURVE('',#389,#389,#45,.F.);
#294=EDGE_CURVE('',#390,#390,#46,.F.);
#295=EDGE_CURVE('',#391,#391,#47,.F.);
#296=EDGE_CURVE('',#392,#393,#452,.T.);
#297=EDGE_CURVE('',#394,#393,#48,.T.);
#298=EDGE_CURVE('',#394,#395,#453,.T.);
#299=EDGE_CURVE('',#396,#395,#49,.T.);
#300=EDGE_CURVE('',#396,#397,#454,.T.);
#301=EDGE_CURVE('',#398,#397,#50,.T.);
#302=EDGE_CURVE('',#398,#399,#455,.T.);
#303=EDGE_CURVE('',#392,#399,#51,.T.);
#304=EDGE_CURVE('',#400,#401,#456,.T.);
#305=EDGE_CURVE('',#373,#400,#52,.T.);
#306=EDGE_CURVE('',#402,#372,#53,.T.);
#307=EDGE_CURVE('',#403,#402,#457,.T.);
#308=EDGE_CURVE('',#404,#403,#54,.T.);
#309=EDGE_CURVE('',#405,#404,#458,.T.);
#310=EDGE_CURVE('',#401,#405,#55,.T.);
#311=EDGE_CURVE('',#406,#392,#459,.T.);
#312=EDGE_CURVE('',#406,#407,#460,.T.);
#313=EDGE_CURVE('',#407,#393,#461,.T.);
#314=EDGE_CURVE('',#408,#409,#462,.T.);
#315=EDGE_CURVE('',#410,#408,#56,.T.);
#316=EDGE_CURVE('',#410,#411,#463,.T.);
#317=EDGE_CURVE('',#412,#411,#57,.T.);
#318=EDGE_CURVE('',#412,#413,#464,.T.);
#319=EDGE_CURVE('',#414,#413,#58,.T.);
#320=EDGE_CURVE('',#415,#414,#465,.T.);
#321=EDGE_CURVE('',#409,#415,#59,.T.);
#322=EDGE_CURVE('',#416,#398,#466,.T.);
#323=EDGE_CURVE('',#416,#417,#467,.T.);
#324=EDGE_CURVE('',#417,#399,#468,.T.);
#325=EDGE_CURVE('',#418,#396,#469,.T.);
#326=EDGE_CURVE('',#418,#419,#470,.T.);
#327=EDGE_CURVE('',#419,#397,#471,.T.);
#328=EDGE_CURVE('',#420,#394,#472,.T.);
#329=EDGE_CURVE('',#420,#421,#473,.T.);
#330=EDGE_CURVE('',#421,#395,#474,.T.);
#331=EDGE_CURVE('',#406,#417,#60,.T.);
#332=EDGE_CURVE('',#420,#407,#61,.T.);
#333=EDGE_CURVE('',#418,#421,#62,.T.);
#334=EDGE_CURVE('',#416,#419,#63,.T.);
#335=EDGE_CURVE('',#422,#401,#475,.T.);
#336=EDGE_CURVE('',#423,#422,#476,.T.);
#337=EDGE_CURVE('',#423,#400,#477,.T.);
#338=EDGE_CURVE('',#374,#423,#64,.T.);
#339=EDGE_CURVE('',#424,#375,#65,.T.);
#340=EDGE_CURVE('',#424,#402,#478,.T.);
#341=EDGE_CURVE('',#425,#424,#479,.T.);
#342=EDGE_CURVE('',#425,#403,#480,.T.);
#343=EDGE_CURVE('',#426,#425,#66,.T.);
#344=EDGE_CURVE('',#426,#404,#481,.T.);
#345=EDGE_CURVE('',#427,#426,#482,.T.);
#346=EDGE_CURVE('',#427,#405,#483,.T.);
#347=EDGE_CURVE('',#422,#427,#67,.T.);
#348=EDGE_CURVE('',#428,#428,#68,.T.);
#349=EDGE_CURVE('',#429,#429,#69,.T.);
#350=EDGE_CURVE('',#430,#430,#70,.T.);
#351=EDGE_CURVE('',#431,#431,#71,.T.);
#352=EDGE_CURVE('',#432,#432,#72,.T.);
#353=EDGE_CURVE('',#433,#433,#73,.T.);
#354=EDGE_CURVE('',#434,#434,#74,.T.);
#355=EDGE_CURVE('',#435,#435,#75,.T.);
#356=EDGE_CURVE('',#436,#436,#76,.T.);
#357=EDGE_CURVE('',#437,#437,#77,.T.);
#358=EDGE_CURVE('',#438,#438,#78,.T.);
#359=EDGE_CURVE('',#439,#439,#79,.T.);
#360=EDGE_CURVE('',#440,#440,#80,.T.);
#361=EDGE_CURVE('',#441,#441,#81,.T.);
#362=EDGE_CURVE('',#442,#442,#82,.T.);
#363=EDGE_CURVE('',#443,#443,#83,.T.);
#364=EDGE_CURVE('',#409,#378,#484,.T.);
#365=EDGE_CURVE('',#408,#376,#485,.T.);
#366=EDGE_CURVE('',#410,#377,#486,.T.);
#367=EDGE_CURVE('',#411,#383,#487,.T.);
#368=EDGE_CURVE('',#412,#382,#488,.T.);
#369=EDGE_CURVE('',#413,#381,#489,.T.);
#370=EDGE_CURVE('',#414,#380,#490,.T.);
#371=EDGE_CURVE('',#415,#379,#491,.T.);
#372=VERTEX_POINT('',#1132);
#373=VERTEX_POINT('',#1133);
#374=VERTEX_POINT('',#1135);
#375=VERTEX_POINT('',#1137);
#376=VERTEX_POINT('',#1140);
#377=VERTEX_POINT('',#1141);
#378=VERTEX_POINT('',#1143);
#379=VERTEX_POINT('',#1145);
#380=VERTEX_POINT('',#1147);
#381=VERTEX_POINT('',#1149);
#382=VERTEX_POINT('',#1151);
#383=VERTEX_POINT('',#1153);
#384=VERTEX_POINT('',#1157);
#385=VERTEX_POINT('',#1159);
#386=VERTEX_POINT('',#1162);
#387=VERTEX_POINT('',#1164);
#388=VERTEX_POINT('',#1166);
#389=VERTEX_POINT('',#1168);
#390=VERTEX_POINT('',#1170);
#391=VERTEX_POINT('',#1172);
#392=VERTEX_POINT('',#1174);
#393=VERTEX_POINT('',#1175);
#394=VERTEX_POINT('',#1177);
#395=VERTEX_POINT('',#1179);
#396=VERTEX_POINT('',#1181);
#397=VERTEX_POINT('',#1183);
#398=VERTEX_POINT('',#1185);
#399=VERTEX_POINT('',#1187);
#400=VERTEX_POINT('',#1191);
#401=VERTEX_POINT('',#1192);
#402=VERTEX_POINT('',#1195);
#403=VERTEX_POINT('',#1197);
#404=VERTEX_POINT('',#1199);
#405=VERTEX_POINT('',#1201);
#406=VERTEX_POINT('',#1205);
#407=VERTEX_POINT('',#1207);
#408=VERTEX_POINT('',#1211);
#409=VERTEX_POINT('',#1212);
#410=VERTEX_POINT('',#1214);
#411=VERTEX_POINT('',#1216);
#412=VERTEX_POINT('',#1218);
#413=VERTEX_POINT('',#1220);
#414=VERTEX_POINT('',#1222);
#415=VERTEX_POINT('',#1224);
#416=VERTEX_POINT('',#1227);
#417=VERTEX_POINT('',#1229);
#418=VERTEX_POINT('',#1233);
#419=VERTEX_POINT('',#1235);
#420=VERTEX_POINT('',#1239);
#421=VERTEX_POINT('',#1241);
#422=VERTEX_POINT('',#1253);
#423=VERTEX_POINT('',#1255);
#424=VERTEX_POINT('',#1261);
#425=VERTEX_POINT('',#1265);
#426=VERTEX_POINT('',#1269);
#427=VERTEX_POINT('',#1273);
#428=VERTEX_POINT('',#1280);
#429=VERTEX_POINT('',#1282);
#430=VERTEX_POINT('',#1285);
#431=VERTEX_POINT('',#1290);
#432=VERTEX_POINT('',#1292);
#433=VERTEX_POINT('',#1295);
#434=VERTEX_POINT('',#1300);
#435=VERTEX_POINT('',#1304);
#436=VERTEX_POINT('',#1306);
#437=VERTEX_POINT('',#1309);
#438=VERTEX_POINT('',#1314);
#439=VERTEX_POINT('',#1316);
#440=VERTEX_POINT('',#1319);
#441=VERTEX_POINT('',#1324);
#442=VERTEX_POINT('',#1326);
#443=VERTEX_POINT('',#1329);
#444=LINE('',#1131,#492);
#445=LINE('',#1134,#493);
#446=LINE('',#1136,#494);
#447=LINE('',#1138,#495);
#448=LINE('',#1142,#496);
#449=LINE('',#1146,#497);
#450=LINE('',#1150,#498);
#451=LINE('',#1154,#499);
#452=LINE('',#1173,#500);
#453=LINE('',#1178,#501);
#454=LINE('',#1182,#502);
#455=LINE('',#1186,#503);
#456=LINE('',#1190,#504);
#457=LINE('',#1196,#505);
#458=LINE('',#1200,#506);
#459=LINE('',#1204,#507);
#460=LINE('',#1206,#508);
#461=LINE('',#1208,#509);
#462=LINE('',#1210,#510);
#463=LINE('',#1215,#511);
#464=LINE('',#1219,#512);
#465=LINE('',#1223,#513);
#466=LINE('',#1226,#514);
#467=LINE('',#1228,#515);
#468=LINE('',#1230,#516);
#469=LINE('',#1232,#517);
#470=LINE('',#1234,#518);
#471=LINE('',#1236,#519);
#472=LINE('',#1238,#520);
#473=LINE('',#1240,#521);
#474=LINE('',#1242,#522);
#475=LINE('',#1252,#523);
#476=LINE('',#1254,#524);
#477=LINE('',#1256,#525);
#478=LINE('',#1262,#526);
#479=LINE('',#1264,#527);
#480=LINE('',#1266,#528);
#481=LINE('',#1270,#529);
#482=LINE('',#1272,#530);
#483=LINE('',#1274,#531);
#484=LINE('',#1333,#532);
#485=LINE('',#1334,#533);
#486=LINE('',#1336,#534);
#487=LINE('',#1338,#535);
#488=LINE('',#1340,#536);
#489=LINE('',#1342,#537);
#490=LINE('',#1344,#538);
#491=LINE('',#1346,#539);
#492=VECTOR('',#887,1.);
#493=VECTOR('',#888,1.);
#494=VECTOR('',#889,1.);
#495=VECTOR('',#890,1.);
#496=VECTOR('',#893,1.);
#497=VECTOR('',#896,1.);
#498=VECTOR('',#899,1.);
#499=VECTOR('',#902,1.);
#500=VECTOR('',#923,1.);
#501=VECTOR('',#926,1.);
#502=VECTOR('',#929,1.);
#503=VECTOR('',#932,1.);
#504=VECTOR('',#937,1.);
#505=VECTOR('',#942,1.);
#506=VECTOR('',#945,1.);
#507=VECTOR('',#950,1.);
#508=VECTOR('',#951,1.);
#509=VECTOR('',#952,1.);
#510=VECTOR('',#955,1.);
#511=VECTOR('',#958,1.);
#512=VECTOR('',#961,1.);
#513=VECTOR('',#964,1.);
#514=VECTOR('',#967,1.);
#515=VECTOR('',#968,1.);
#516=VECTOR('',#969,1.);
#517=VECTOR('',#972,1.);
#518=VECTOR('',#973,1.);
#519=VECTOR('',#974,1.);
#520=VECTOR('',#977,1.);
#521=VECTOR('',#978,1.);
#522=VECTOR('',#979,1.);
#523=VECTOR('',#998,1.);
#524=VECTOR('',#999,1.);
#525=VECTOR('',#1000,1.);
#526=VECTOR('',#1009,1.);
#527=VECTOR('',#1012,1.);
#528=VECTOR('',#1013,1.);
#529=VECTOR('',#1018,1.);
#530=VECTOR('',#1021,1.);
#531=VECTOR('',#1022,1.);
#532=VECTOR('',#1107,1.);
#533=VECTOR('',#1108,1.);
#534=VECTOR('',#1111,1.);
#535=VECTOR('',#1114,1.);
#536=VECTOR('',#1117,1.);
#537=VECTOR('',#1120,1.);
#538=VECTOR('',#1123,1.);
#539=VECTOR('',#1126,1.);
#540=EDGE_LOOP('',(#84,#85,#86,#87));
#541=EDGE_LOOP('',(#88,#89,#90,#91,#92,#93,#94,#95));
#542=EDGE_LOOP('',(#96));
#543=EDGE_LOOP('',(#97));
#544=EDGE_LOOP('',(#98));
#545=EDGE_LOOP('',(#99));
#546=EDGE_LOOP('',(#100));
#547=EDGE_LOOP('',(#101));
#548=EDGE_LOOP('',(#102));
#549=EDGE_LOOP('',(#103));
#550=EDGE_LOOP('',(#104,#105,#106,#107,#108,#109,#110,#111));
#551=EDGE_LOOP('',(#112));
#552=EDGE_LOOP('',(#113,#114,#115,#116,#117,#118,#119,#120));
#553=EDGE_LOOP('',(#121,#122,#123,#124));
#554=EDGE_LOOP('',(#125,#126,#127,#128,#129,#130,#131,#132));
#555=EDGE_LOOP('',(#133,#134,#135,#136));
#556=EDGE_LOOP('',(#137,#138,#139,#140));
#557=EDGE_LOOP('',(#141,#142,#143,#144));
#558=EDGE_LOOP('',(#145,#146,#147,#148));
#559=EDGE_LOOP('',(#149,#150,#151,#152));
#560=EDGE_LOOP('',(#153,#154,#155,#156));
#561=EDGE_LOOP('',(#157,#158,#159,#160));
#562=EDGE_LOOP('',(#161,#162,#163,#164));
#563=EDGE_LOOP('',(#165,#166,#167,#168));
#564=EDGE_LOOP('',(#169,#170,#171,#172));
#565=EDGE_LOOP('',(#173,#174,#175,#176));
#566=EDGE_LOOP('',(#177,#178,#179,#180));
#567=EDGE_LOOP('',(#181,#182,#183,#184));
#568=EDGE_LOOP('',(#185,#186,#187,#188));
#569=EDGE_LOOP('',(#189,#190,#191,#192,#193,#194,#195,#196));
#570=EDGE_LOOP('',(#197,#198,#199,#200,#201,#202,#203,#204));
#571=EDGE_LOOP('',(#205));
#572=EDGE_LOOP('',(#206));
#573=EDGE_LOOP('',(#207));
#574=EDGE_LOOP('',(#208));
#575=EDGE_LOOP('',(#209));
#576=EDGE_LOOP('',(#210));
#577=EDGE_LOOP('',(#211));
#578=EDGE_LOOP('',(#212));
#579=EDGE_LOOP('',(#213));
#580=EDGE_LOOP('',(#214));
#581=EDGE_LOOP('',(#215));
#582=EDGE_LOOP('',(#216));
#583=EDGE_LOOP('',(#217));
#584=EDGE_LOOP('',(#218));
#585=EDGE_LOOP('',(#219));
#586=EDGE_LOOP('',(#220));
#587=EDGE_LOOP('',(#221));
#588=EDGE_LOOP('',(#222));
#589=EDGE_LOOP('',(#223));
#590=EDGE_LOOP('',(#224));
#591=EDGE_LOOP('',(#225));
#592=EDGE_LOOP('',(#226));
#593=EDGE_LOOP('',(#227));
#594=EDGE_LOOP('',(#228));
#595=EDGE_LOOP('',(#229));
#596=EDGE_LOOP('',(#230));
#597=EDGE_LOOP('',(#231));
#598=EDGE_LOOP('',(#232));
#599=EDGE_LOOP('',(#233));
#600=EDGE_LOOP('',(#234));
#601=EDGE_LOOP('',(#235));
#602=EDGE_LOOP('',(#236));
#603=EDGE_LOOP('',(#237));
#604=EDGE_LOOP('',(#238));
#605=EDGE_LOOP('',(#239));
#606=EDGE_LOOP('',(#240));
#607=EDGE_LOOP('',(#241));
#608=EDGE_LOOP('',(#242));
#609=EDGE_LOOP('',(#243));
#610=EDGE_LOOP('',(#244,#245,#246,#247));
#611=EDGE_LOOP('',(#248,#249,#250,#251));
#612=EDGE_LOOP('',(#252,#253,#254,#255));
#613=EDGE_LOOP('',(#256,#257,#258,#259));
#614=EDGE_LOOP('',(#260,#261,#262,#263));
#615=EDGE_LOOP('',(#264,#265,#266,#267));
#616=EDGE_LOOP('',(#268,#269,#270,#271));
#617=EDGE_LOOP('',(#272,#273,#274,#275));
#618=FACE_BOUND('',#540,.T.);
#619=FACE_BOUND('',#541,.T.);
#620=FACE_BOUND('',#542,.T.);
#621=FACE_BOUND('',#543,.T.);
#622=FACE_BOUND('',#544,.T.);
#623=FACE_BOUND('',#545,.T.);
#624=FACE_BOUND('',#546,.T.);
#625=FACE_BOUND('',#547,.T.);
#626=FACE_BOUND('',#548,.T.);
#627=FACE_BOUND('',#549,.T.);
#628=FACE_BOUND('',#550,.T.);
#629=FACE_BOUND('',#551,.T.);
#630=FACE_BOUND('',#552,.T.);
#631=FACE_BOUND('',#553,.T.);
#632=FACE_BOUND('',#554,.T.);
#633=FACE_BOUND('',#555,.T.);
#634=FACE_BOUND('',#556,.T.);
#635=FACE_BOUND('',#557,.T.);
#636=FACE_BOUND('',#558,.T.);
#637=FACE_BOUND('',#559,.T.);
#638=FACE_BOUND('',#560,.T.);
#639=FACE_BOUND('',#561,.T.);
#640=FACE_BOUND('',#562,.T.);
#641=FACE_BOUND('',#563,.T.);
#642=FACE_BOUND('',#564,.T.);
#643=FACE_BOUND('',#565,.T.);
#644=FACE_BOUND('',#566,.T.);
#645=FACE_BOUND('',#567,.T.);
#646=FACE_BOUND('',#568,.T.);
#647=FACE_BOUND('',#569,.T.);
#648=FACE_BOUND('',#570,.T.);
#649=FACE_BOUND('',#571,.T.);
#650=FACE_BOUND('',#572,.T.);
#651=FACE_BOUND('',#573,.T.);
#652=FACE_BOUND('',#574,.T.);
#653=FACE_BOUND('',#575,.T.);
#654=FACE_BOUND('',#576,.T.);
#655=FACE_BOUND('',#577,.T.);
#656=FACE_BOUND('',#578,.T.);
#657=FACE_BOUND('',#579,.T.);
#658=FACE_BOUND('',#580,.T.);
#659=FACE_BOUND('',#581,.T.);
#660=FACE_BOUND('',#582,.T.);
#661=FACE_BOUND('',#583,.T.);
#662=FACE_BOUND('',#584,.T.);
#663=FACE_BOUND('',#585,.T.);
#664=FACE_BOUND('',#586,.T.);
#665=FACE_BOUND('',#587,.T.);
#666=FACE_BOUND('',#588,.T.);
#667=FACE_BOUND('',#589,.T.);
#668=FACE_BOUND('',#590,.T.);
#669=FACE_BOUND('',#591,.T.);
#670=FACE_BOUND('',#592,.T.);
#671=FACE_BOUND('',#593,.T.);
#672=FACE_BOUND('',#594,.T.);
#673=FACE_BOUND('',#595,.T.);
#674=FACE_BOUND('',#596,.T.);
#675=FACE_BOUND('',#597,.T.);
#676=FACE_BOUND('',#598,.T.);
#677=FACE_BOUND('',#599,.T.);
#678=FACE_BOUND('',#600,.T.);
#679=FACE_BOUND('',#601,.T.);
#680=FACE_BOUND('',#602,.T.);
#681=FACE_BOUND('',#603,.T.);
#682=FACE_BOUND('',#604,.T.);
#683=FACE_BOUND('',#605,.T.);
#684=FACE_BOUND('',#606,.T.);
#685=FACE_BOUND('',#607,.T.);
#686=FACE_BOUND('',#608,.T.);
#687=FACE_BOUND('',#609,.T.);
#688=FACE_BOUND('',#610,.T.);
#689=FACE_BOUND('',#611,.T.);
#690=FACE_BOUND('',#612,.T.);
#691=FACE_BOUND('',#613,.T.);
#692=FACE_BOUND('',#614,.T.);
#693=FACE_BOUND('',#615,.T.);
#694=FACE_BOUND('',#616,.T.);
#695=FACE_BOUND('',#617,.T.);
#696=PLANE('',#785);
#697=PLANE('',#793);
#698=PLANE('',#804);
#699=PLANE('',#809);
#700=PLANE('',#810);
#701=PLANE('',#815);
#702=PLANE('',#816);
#703=PLANE('',#825);
#704=PLANE('',#830);
#705=PLANE('',#833);
#706=PLANE('',#836);
#707=PLANE('',#842);
#708=PLANE('',#843);
#709=PLANE('',#849);
#710=PLANE('',#850);
#711=PLANE('',#853);
#712=PLANE('',#859);
#713=PLANE('',#860);
#714=PLANE('',#866);
#715=PLANE('',#867);
#716=PLANE('',#873);
#717=PLANE('',#874);
#718=PLANE('',#875);
#719=PLANE('',#877);
#720=PLANE('',#879);
#721=PLANE('',#881);
#722=ADVANCED_FACE('',(#618,#619),#696,.F.);
#723=ADVANCED_FACE('',(#620,#621),#12,.F.);
#724=ADVANCED_FACE('',(#622,#623,#624,#625,#626,#627,#628),#697,.F.);
#725=ADVANCED_FACE('',(#629,#630),#698,.T.);
#726=ADVANCED_FACE('',(#631),#699,.T.);
#727=ADVANCED_FACE('',(#632,#633),#700,.T.);
#728=ADVANCED_FACE('',(#634),#701,.T.);
#729=ADVANCED_FACE('',(#635),#702,.T.);
#730=ADVANCED_FACE('',(#636),#13,.F.);
#731=ADVANCED_FACE('',(#637),#14,.F.);
#732=ADVANCED_FACE('',(#638),#15,.F.);
#733=ADVANCED_FACE('',(#639),#16,.F.);
#734=ADVANCED_FACE('',(#640),#703,.F.);
#735=ADVANCED_FACE('',(#641),#17,.T.);
#736=ADVANCED_FACE('',(#642),#18,.T.);
#737=ADVANCED_FACE('',(#643),#704,.F.);
#738=ADVANCED_FACE('',(#644),#19,.T.);
#739=ADVANCED_FACE('',(#645),#705,.F.);
#740=ADVANCED_FACE('',(#646),#20,.T.);
#741=ADVANCED_FACE('',(#647,#648),#706,.F.);
#742=ADVANCED_FACE('',(#649,#650),#21,.F.);
#743=ADVANCED_FACE('',(#651,#652),#22,.T.);
#744=ADVANCED_FACE('',(#653,#654),#707,.T.);
#745=ADVANCED_FACE('',(#655),#708,.F.);
#746=ADVANCED_FACE('',(#656,#657),#23,.F.);
#747=ADVANCED_FACE('',(#658,#659),#24,.T.);
#748=ADVANCED_FACE('',(#660,#661),#709,.T.);
#749=ADVANCED_FACE('',(#662),#710,.F.);
#750=ADVANCED_FACE('',(#663,#664),#25,.T.);
#751=ADVANCED_FACE('',(#665,#666),#711,.T.);
#752=ADVANCED_FACE('',(#667,#668),#26,.F.);
#753=ADVANCED_FACE('',(#669,#670),#27,.T.);
#754=ADVANCED_FACE('',(#671,#672),#712,.T.);
#755=ADVANCED_FACE('',(#673),#713,.F.);
#756=ADVANCED_FACE('',(#674,#675),#28,.F.);
#757=ADVANCED_FACE('',(#676,#677),#29,.T.);
#758=ADVANCED_FACE('',(#678,#679),#714,.T.);
#759=ADVANCED_FACE('',(#680),#715,.F.);
#760=ADVANCED_FACE('',(#681,#682),#30,.F.);
#761=ADVANCED_FACE('',(#683,#684),#31,.T.);
#762=ADVANCED_FACE('',(#685,#686),#716,.T.);
#763=ADVANCED_FACE('',(#687),#717,.F.);
#764=ADVANCED_FACE('',(#688),#718,.F.);
#765=ADVANCED_FACE('',(#689),#32,.F.);
#766=ADVANCED_FACE('',(#690),#719,.T.);
#767=ADVANCED_FACE('',(#691),#33,.F.);
#768=ADVANCED_FACE('',(#692),#720,.T.);
#769=ADVANCED_FACE('',(#693),#34,.F.);
#770=ADVANCED_FACE('',(#694),#721,.F.);
#771=ADVANCED_FACE('',(#695),#35,.F.);
#772=CLOSED_SHELL('',(#722,#723,#724,#725,#726,#727,#728,#729,#730,#731,
#732,#733,#734,#735,#736,#737,#738,#739,#740,#741,#742,#743,#744,#745,#746,
#747,#748,#749,#750,#751,#752,#753,#754,#755,#756,#757,#758,#759,#760,#761,
#762,#763,#764,#765,#766,#767,#768,#769,#770,#771));
#773=STYLED_ITEM('',(#774),#781);
#774=PRESENTATION_STYLE_ASSIGNMENT((#775));
#775=SURFACE_STYLE_USAGE(.BOTH.,#776);
#776=SURFACE_SIDE_STYLE('',(#777));
#777=SURFACE_STYLE_FILL_AREA(#778);
#778=FILL_AREA_STYLE('',(#779));
#779=FILL_AREA_STYLE_COLOUR('',#780);
#780=COLOUR_RGB('',0.6,0.580392156862745,0.529411764705882);
#781=MANIFOLD_SOLID_BREP('Part 2410',#772);
#782=SHAPE_DEFINITION_REPRESENTATION(#1354,#783);
#783=SHAPE_REPRESENTATION('Part 2410',(#784),#1349);
#784=AXIS2_PLACEMENT_3D('',#1129,#883,#884);
#785=AXIS2_PLACEMENT_3D('',#1130,#885,#886);
#786=AXIS2_PLACEMENT_3D('',#1139,#891,#892);
#787=AXIS2_PLACEMENT_3D('',#1144,#894,#895);
#788=AXIS2_PLACEMENT_3D('',#1148,#897,#898);
#789=AXIS2_PLACEMENT_3D('',#1152,#900,#901);
#790=AXIS2_PLACEMENT_3D('',#1155,#903,#904);
#791=AXIS2_PLACEMENT_3D('',#1156,#905,#906);
#792=AXIS2_PLACEMENT_3D('',#1158,#907,#908);
#793=AXIS2_PLACEMENT_3D('',#1160,#909,#910);
#794=AXIS2_PLACEMENT_3D('',#1161,#911,#912);
#795=AXIS2_PLACEMENT_3D('',#1163,#913,#914);
#796=AXIS2_PLACEMENT_3D('',#1165,#915,#916);
#797=AXIS2_PLACEMENT_3D('',#1167,#917,#918);
#798=AXIS2_PLACEMENT_3D('',#1169,#919,#920);
#799=AXIS2_PLACEMENT_3D('',#1171,#921,#922);
#800=AXIS2_PLACEMENT_3D('',#1176,#924,#925);
#801=AXIS2_PLACEMENT_3D('',#1180,#927,#928);
#802=AXIS2_PLACEMENT_3D('',#1184,#930,#931);
#803=AXIS2_PLACEMENT_3D('',#1188,#933,#934);
#804=AXIS2_PLACEMENT_3D('',#1189,#935,#936);
#805=AXIS2_PLACEMENT_3D('',#1193,#938,#939);
#806=AXIS2_PLACEMENT_3D('',#1194,#940,#941);
#807=AXIS2_PLACEMENT_3D('',#1198,#943,#944);
#808=AXIS2_PLACEMENT_3D('',#1202,#946,#947);
#809=AXIS2_PLACEMENT_3D('',#1203,#948,#949);
#810=AXIS2_PLACEMENT_3D('',#1209,#953,#954);
#811=AXIS2_PLACEMENT_3D('',#1213,#956,#957);
#812=AXIS2_PLACEMENT_3D('',#1217,#959,#960);
#813=AXIS2_PLACEMENT_3D('',#1221,#962,#963);
#814=AXIS2_PLACEMENT_3D('',#1225,#965,#966);
#815=AXIS2_PLACEMENT_3D('',#1231,#970,#971);
#816=AXIS2_PLACEMENT_3D('',#1237,#975,#976);
#817=AXIS2_PLACEMENT_3D('',#1243,#980,#981);
#818=AXIS2_PLACEMENT_3D('',#1244,#982,#983);
#819=AXIS2_PLACEMENT_3D('',#1245,#984,#985);
#820=AXIS2_PLACEMENT_3D('',#1246,#986,#987);
#821=AXIS2_PLACEMENT_3D('',#1247,#988,#989);
#822=AXIS2_PLACEMENT_3D('',#1248,#990,#991);
#823=AXIS2_PLACEMENT_3D('',#1249,#992,#993);
#824=AXIS2_PLACEMENT_3D('',#1250,#994,#995);
#825=AXIS2_PLACEMENT_3D('',#1251,#996,#997);
#826=AXIS2_PLACEMENT_3D('',#1257,#1001,#1002);
#827=AXIS2_PLACEMENT_3D('',#1258,#1003,#1004);
#828=AXIS2_PLACEMENT_3D('',#1259,#1005,#1006);
#829=AXIS2_PLACEMENT_3D('',#1260,#1007,#1008);
#830=AXIS2_PLACEMENT_3D('',#1263,#1010,#1011);
#831=AXIS2_PLACEMENT_3D('',#1267,#1014,#1015);
#832=AXIS2_PLACEMENT_3D('',#1268,#1016,#1017);
#833=AXIS2_PLACEMENT_3D('',#1271,#1019,#1020);
#834=AXIS2_PLACEMENT_3D('',#1275,#1023,#1024);
#835=AXIS2_PLACEMENT_3D('',#1276,#1025,#1026);
#836=AXIS2_PLACEMENT_3D('',#1277,#1027,#1028);
#837=AXIS2_PLACEMENT_3D('',#1278,#1029,#1030);
#838=AXIS2_PLACEMENT_3D('',#1279,#1031,#1032);
#839=AXIS2_PLACEMENT_3D('',#1281,#1033,#1034);
#840=AXIS2_PLACEMENT_3D('',#1283,#1035,#1036);
#841=AXIS2_PLACEMENT_3D('',#1284,#1037,#1038);
#842=AXIS2_PLACEMENT_3D('',#1286,#1039,#1040);
#843=AXIS2_PLACEMENT_3D('',#1287,#1041,#1042);
#844=AXIS2_PLACEMENT_3D('',#1288,#1043,#1044);
#845=AXIS2_PLACEMENT_3D('',#1289,#1045,#1046);
#846=AXIS2_PLACEMENT_3D('',#1291,#1047,#1048);
#847=AXIS2_PLACEMENT_3D('',#1293,#1049,#1050);
#848=AXIS2_PLACEMENT_3D('',#1294,#1051,#1052);
#849=AXIS2_PLACEMENT_3D('',#1296,#1053,#1054);
#850=AXIS2_PLACEMENT_3D('',#1297,#1055,#1056);
#851=AXIS2_PLACEMENT_3D('',#1298,#1057,#1058);
#852=AXIS2_PLACEMENT_3D('',#1299,#1059,#1060);
#853=AXIS2_PLACEMENT_3D('',#1301,#1061,#1062);
#854=AXIS2_PLACEMENT_3D('',#1302,#1063,#1064);
#855=AXIS2_PLACEMENT_3D('',#1303,#1065,#1066);
#856=AXIS2_PLACEMENT_3D('',#1305,#1067,#1068);
#857=AXIS2_PLACEMENT_3D('',#1307,#1069,#1070);
#858=AXIS2_PLACEMENT_3D('',#1308,#1071,#1072);
#859=AXIS2_PLACEMENT_3D('',#1310,#1073,#1074);
#860=AXIS2_PLACEMENT_3D('',#1311,#1075,#1076);
#861=AXIS2_PLACEMENT_3D('',#1312,#1077,#1078);
#862=AXIS2_PLACEMENT_3D('',#1313,#1079,#1080);
#863=AXIS2_PLACEMENT_3D('',#1315,#1081,#1082);
#864=AXIS2_PLACEMENT_3D('',#1317,#1083,#1084);
#865=AXIS2_PLACEMENT_3D('',#1318,#1085,#1086);
#866=AXIS2_PLACEMENT_3D('',#1320,#1087,#1088);
#867=AXIS2_PLACEMENT_3D('',#1321,#1089,#1090);
#868=AXIS2_PLACEMENT_3D('',#1322,#1091,#1092);
#869=AXIS2_PLACEMENT_3D('',#1323,#1093,#1094);
#870=AXIS2_PLACEMENT_3D('',#1325,#1095,#1096);
#871=AXIS2_PLACEMENT_3D('',#1327,#1097,#1098);
#872=AXIS2_PLACEMENT_3D('',#1328,#1099,#1100);
#873=AXIS2_PLACEMENT_3D('',#1330,#1101,#1102);
#874=AXIS2_PLACEMENT_3D('',#1331,#1103,#1104);
#875=AXIS2_PLACEMENT_3D('',#1332,#1105,#1106);
#876=AXIS2_PLACEMENT_3D('',#1335,#1109,#1110);
#877=AXIS2_PLACEMENT_3D('',#1337,#1112,#1113);
#878=AXIS2_PLACEMENT_3D('',#1339,#1115,#1116);
#879=AXIS2_PLACEMENT_3D('',#1341,#1118,#1119);
#880=AXIS2_PLACEMENT_3D('',#1343,#1121,#1122);
#881=AXIS2_PLACEMENT_3D('',#1345,#1124,#1125);
#882=AXIS2_PLACEMENT_3D('',#1347,#1127,#1128);
#883=DIRECTION('',(0.,0.,1.));
#884=DIRECTION('',(1.,0.,0.));
#885=DIRECTION('',(-1.,0.,0.));
#886=DIRECTION('',(0.,0.,1.));
#887=DIRECTION('',(0.,1.,0.));
#888=DIRECTION('',(0.,0.,-1.));
#889=DIRECTION('',(0.,1.,0.));
#890=DIRECTION('',(0.,0.,-1.));
#891=DIRECTION('',(1.,0.,0.));
#892=DIRECTION('',(0.,0.,-1.));
#893=DIRECTION('',(0.,0.,1.));
#894=DIRECTION('',(1.,0.,0.));
#895=DIRECTION('',(0.,0.,-1.));
#896=DIRECTION('',(0.,1.,0.));
#897=DIRECTION('',(1.,0.,0.));
#898=DIRECTION('',(0.,0.,-1.));
#899=DIRECTION('',(0.,0.,1.));
#900=DIRECTION('',(1.,0.,0.));
#901=DIRECTION('',(0.,0.,-1.));
#902=DIRECTION('',(0.,1.,0.));
#903=DIRECTION('',(0.,0.,-1.));
#904=DIRECTION('',(-1.,0.,0.));
#905=DIRECTION('',(0.,0.,-1.));
#906=DIRECTION('',(-1.,0.,0.));
#907=DIRECTION('',(0.,0.,-1.));
#908=DIRECTION('',(-1.,0.,0.));
#909=DIRECTION('',(0.,0.,-1.));
#910=DIRECTION('',(1.,0.,0.));
#911=DIRECTION('',(0.,0.,-1.));
#912=DIRECTION('',(-1.,0.,0.));
#913=DIRECTION('',(0.,0.,-1.));
#914=DIRECTION('',(-1.,0.,0.));
#915=DIRECTION('',(0.,0.,-1.));
#916=DIRECTION('',(-1.,0.,0.));
#917=DIRECTION('',(0.,0.,-1.));
#918=DIRECTION('',(-1.,0.,0.));
#919=DIRECTION('',(0.,0.,-1.));
#920=DIRECTION('',(-1.,0.,0.));
#921=DIRECTION('',(0.,0.,-1.));
#922=DIRECTION('',(-1.,0.,0.));
#923=DIRECTION('',(-1.,0.,0.));
#924=DIRECTION('',(0.,0.,-1.));
#925=DIRECTION('',(-1.,0.,0.));
#926=DIRECTION('',(0.,-1.,0.));
#927=DIRECTION('',(0.,0.,-1.));
#928=DIRECTION('',(-1.,0.,0.));
#929=DIRECTION('',(1.,0.,0.));
#930=DIRECTION('',(0.,0.,-1.));
#931=DIRECTION('',(-1.,0.,0.));
#932=DIRECTION('',(0.,1.,0.));
#933=DIRECTION('',(0.,0.,-1.));
#934=DIRECTION('',(-1.,0.,0.));
#935=DIRECTION('',(0.,0.,-1.));
#936=DIRECTION('',(1.,0.,0.));
#937=DIRECTION('',(-1.,0.,0.));
#938=DIRECTION('',(0.,0.,1.));
#939=DIRECTION('',(-1.,0.,0.));
#940=DIRECTION('',(0.,0.,1.));
#941=DIRECTION('',(-1.,0.,0.));
#942=DIRECTION('',(1.,0.,0.));
#943=DIRECTION('',(0.,0.,1.));
#944=DIRECTION('',(-1.,0.,0.));
#945=DIRECTION('',(0.,-1.,0.));
#946=DIRECTION('',(0.,0.,1.));
#947=DIRECTION('',(-1.,0.,0.));
#948=DIRECTION('',(0.,-1.,0.));
#949=DIRECTION('',(0.,0.,-1.));
#950=DIRECTION('',(0.,0.,-1.));
#951=DIRECTION('',(-1.,0.,0.));
#952=DIRECTION('',(0.,0.,-1.));
#953=DIRECTION('',(-1.,0.,0.));
#954=DIRECTION('',(0.,0.,1.));
#955=DIRECTION('',(0.,0.,-1.));
#956=DIRECTION('',(-1.,0.,0.));
#957=DIRECTION('',(0.,0.,1.));
#958=DIRECTION('',(0.,-1.,0.));
#959=DIRECTION('',(-1.,0.,0.));
#960=DIRECTION('',(0.,0.,1.));
#961=DIRECTION('',(0.,0.,-1.));
#962=DIRECTION('',(-1.,0.,0.));
#963=DIRECTION('',(0.,0.,1.));
#964=DIRECTION('',(0.,-1.,0.));
#965=DIRECTION('',(-1.,0.,0.));
#966=DIRECTION('',(0.,0.,1.));
#967=DIRECTION('',(0.,0.,-1.));
#968=DIRECTION('',(0.,1.,0.));
#969=DIRECTION('',(0.,0.,-1.));
#970=DIRECTION('',(0.,1.,0.));
#971=DIRECTION('',(0.,0.,1.));
#972=DIRECTION('',(0.,0.,-1.));
#973=DIRECTION('',(1.,0.,0.));
#974=DIRECTION('',(0.,0.,-1.));
#975=DIRECTION('',(1.,0.,0.));
#976=DIRECTION('',(0.,0.,-1.));
#977=DIRECTION('',(0.,0.,-1.));
#978=DIRECTION('',(0.,-1.,0.));
#979=DIRECTION('',(0.,0.,-1.));
#980=DIRECTION('',(0.,0.,-1.));
#981=DIRECTION('',(-1.,0.,0.));
#982=DIRECTION('',(0.,0.,-1.));
#983=DIRECTION('',(-1.,0.,0.));
#984=DIRECTION('',(0.,0.,-1.));
#985=DIRECTION('',(-1.,0.,0.));
#986=DIRECTION('',(0.,0.,-1.));
#987=DIRECTION('',(-1.,0.,0.));
#988=DIRECTION('',(0.,0.,-1.));
#989=DIRECTION('',(-1.,0.,0.));
#990=DIRECTION('',(0.,0.,-1.));
#991=DIRECTION('',(-1.,0.,0.));
#992=DIRECTION('',(0.,0.,-1.));
#993=DIRECTION('',(-1.,0.,0.));
#994=DIRECTION('',(0.,0.,-1.));
#995=DIRECTION('',(-1.,0.,0.));
#996=DIRECTION('',(0.,-1.,0.));
#997=DIRECTION('',(0.,0.,-1.));
#998=DIRECTION('',(0.,0.,-1.));
#999=DIRECTION('',(-1.,0.,0.));
#1000=DIRECTION('',(0.,0.,-1.));
#1001=DIRECTION('',(0.,0.,-1.));
#1002=DIRECTION('',(-1.,0.,0.));
#1003=DIRECTION('',(0.,0.,1.));
#1004=DIRECTION('',(-1.,0.,0.));
#1005=DIRECTION('',(0.,0.,-1.));
#1006=DIRECTION('',(-1.,0.,0.));
#1007=DIRECTION('',(0.,0.,1.));
#1008=DIRECTION('',(-1.,0.,0.));
#1009=DIRECTION('',(0.,0.,-1.));
#1010=DIRECTION('',(0.,1.,0.));
#1011=DIRECTION('',(0.,0.,1.));
#1012=DIRECTION('',(1.,0.,0.));
#1013=DIRECTION('',(0.,0.,-1.));
#1014=DIRECTION('',(0.,0.,-1.));
#1015=DIRECTION('',(-1.,0.,0.));
#1016=DIRECTION('',(0.,0.,1.));
#1017=DIRECTION('',(-1.,0.,0.));
#1018=DIRECTION('',(0.,0.,-1.));
#1019=DIRECTION('',(1.,0.,0.));
#1020=DIRECTION('',(0.,0.,-1.));
#1021=DIRECTION('',(0.,-1.,0.));
#1022=DIRECTION('',(0.,0.,-1.));
#1023=DIRECTION('',(0.,0.,-1.));
#1024=DIRECTION('',(-1.,0.,0.));
#1025=DIRECTION('',(0.,0.,1.));
#1026=DIRECTION('',(-1.,0.,0.));
#1027=DIRECTION('',(0.,0.,-1.));
#1028=DIRECTION('',(1.,0.,0.));
#1029=DIRECTION('',(0.,0.,-1.));
#1030=DIRECTION('',(-1.,0.,0.));
#1031=DIRECTION('',(0.,0.,1.));
#1032=DIRECTION('',(1.,0.,0.));
#1033=DIRECTION('',(0.,0.,1.));
#1034=DIRECTION('',(1.,0.,0.));
#1035=DIRECTION('',(0.,0.,-1.));
#1036=DIRECTION('',(-1.,0.,0.));
#1037=DIRECTION('',(0.,0.,1.));
#1038=DIRECTION('',(1.,0.,0.));
#1039=DIRECTION('',(0.,0.,1.));
#1040=DIRECTION('',(1.,0.,0.));
#1041=DIRECTION('',(0.,0.,-1.));
#1042=DIRECTION('',(1.,0.,0.));
#1043=DIRECTION('',(0.,0.,-1.));
#1044=DIRECTION('',(-1.,0.,0.));
#1045=DIRECTION('',(0.,0.,1.));
#1046=DIRECTION('',(1.,0.,0.));
#1047=DIRECTION('',(0.,0.,1.));
#1048=DIRECTION('',(1.,0.,0.));
#1049=DIRECTION('',(0.,0.,-1.));
#1050=DIRECTION('',(-1.,0.,0.));
#1051=DIRECTION('',(0.,0.,1.));
#1052=DIRECTION('',(1.,0.,0.));
#1053=DIRECTION('',(0.,0.,1.));
#1054=DIRECTION('',(1.,0.,0.));
#1055=DIRECTION('',(0.,0.,-1.));
#1056=DIRECTION('',(1.,0.,0.));
#1057=DIRECTION('',(0.,0.,-1.));
#1058=DIRECTION('',(-1.,0.,0.));
#1059=DIRECTION('',(0.,0.,1.));
#1060=DIRECTION('',(1.,0.,0.));
#1061=DIRECTION('',(0.,0.,1.));
#1062=DIRECTION('',(1.,0.,0.));
#1063=DIRECTION('',(0.,0.,-1.));
#1064=DIRECTION('',(-1.,0.,0.));
#1065=DIRECTION('',(0.,0.,1.));
#1066=DIRECTION('',(1.,0.,0.));
#1067=DIRECTION('',(0.,0.,1.));
#1068=DIRECTION('',(1.,0.,0.));
#1069=DIRECTION('',(0.,0.,-1.));
#1070=DIRECTION('',(-1.,0.,0.));
#1071=DIRECTION('',(0.,0.,1.));
#1072=DIRECTION('',(1.,0.,0.));
#1073=DIRECTION('',(0.,0.,1.));
#1074=DIRECTION('',(1.,0.,0.));
#1075=DIRECTION('',(0.,0.,-1.));
#1076=DIRECTION('',(1.,0.,0.));
#1077=DIRECTION('',(0.,0.,-1.));
#1078=DIRECTION('',(-1.,0.,0.));
#1079=DIRECTION('',(0.,0.,1.));
#1080=DIRECTION('',(1.,0.,0.));
#1081=DIRECTION('',(0.,0.,1.));
#1082=DIRECTION('',(1.,0.,0.));
#1083=DIRECTION('',(0.,0.,-1.));
#1084=DIRECTION('',(-1.,0.,0.));
#1085=DIRECTION('',(0.,0.,1.));
#1086=DIRECTION('',(1.,0.,0.));
#1087=DIRECTION('',(0.,0.,1.));
#1088=DIRECTION('',(1.,0.,0.));
#1089=DIRECTION('',(0.,0.,-1.));
#1090=DIRECTION('',(1.,0.,0.));
#1091=DIRECTION('',(0.,0.,-1.));
#1092=DIRECTION('',(-1.,0.,0.));
#1093=DIRECTION('',(0.,0.,1.));
#1094=DIRECTION('',(1.,0.,0.));
#1095=DIRECTION('',(0.,0.,1.));
#1096=DIRECTION('',(1.,0.,0.));
#1097=DIRECTION('',(0.,0.,-1.));
#1098=DIRECTION('',(-1.,0.,0.));
#1099=DIRECTION('',(0.,0.,1.));
#1100=DIRECTION('',(1.,0.,0.));
#1101=DIRECTION('',(0.,0.,1.));
#1102=DIRECTION('',(1.,0.,0.));
#1103=DIRECTION('',(0.,0.,-1.));
#1104=DIRECTION('',(1.,0.,0.));
#1105=DIRECTION('',(0.,1.,0.));
#1106=DIRECTION('',(0.,0.,1.));
#1107=DIRECTION('',(1.,0.,0.));
#1108=DIRECTION('',(1.,0.,0.));
#1109=DIRECTION('',(1.,0.,0.));
#1110=DIRECTION('',(0.,0.,-1.));
#1111=DIRECTION('',(1.,0.,0.));
#1112=DIRECTION('',(0.,0.,-1.));
#1113=DIRECTION('',(-1.,0.,0.));
#1114=DIRECTION('',(1.,0.,0.));
#1115=DIRECTION('',(1.,0.,0.));
#1116=DIRECTION('',(0.,0.,-1.));
#1117=DIRECTION('',(1.,0.,0.));
#1118=DIRECTION('',(0.,1.,0.));
#1119=DIRECTION('',(0.,0.,1.));
#1120=DIRECTION('',(1.,0.,0.));
#1121=DIRECTION('',(1.,0.,0.));
#1122=DIRECTION('',(0.,0.,-1.));
#1123=DIRECTION('',(1.,0.,0.));
#1124=DIRECTION('',(0.,0.,-1.));
#1125=DIRECTION('',(-1.,0.,0.));
#1126=DIRECTION('',(1.,0.,0.));
#1127=DIRECTION('',(1.,0.,0.));
#1128=DIRECTION('',(0.,0.,-1.));
#1129=CARTESIAN_POINT('',(0.,0.,0.));
#1130=CARTESIAN_POINT('',(0.17857,0.,0.0105));
#1131=CARTESIAN_POINT('',(0.17857,0.,-0.01));
#1132=CARTESIAN_POINT('',(0.17857,-0.05858499957409,-0.01));
#1133=CARTESIAN_POINT('',(0.17857,0.05858499957409,-0.01));
#1134=CARTESIAN_POINT('',(0.17857,0.05858499957409,0.0105));
#1135=CARTESIAN_POINT('',(0.17857,0.05858499957409,0.0105));
#1136=CARTESIAN_POINT('',(0.17857,0.,0.0105));
#1137=CARTESIAN_POINT('',(0.17857,-0.05858499957409,0.0105));
#1138=CARTESIAN_POINT('',(0.17857,-0.05858499957409,0.0105));
#1139=CARTESIAN_POINT('',(0.17857,0.0494746393084526,0.00549894843391409));
#1140=CARTESIAN_POINT('',(0.17857,0.0497746393084526,0.0054989484339141));
#1141=CARTESIAN_POINT('',(0.17857,0.0494746393084526,0.0057989484339141));
#1142=CARTESIAN_POINT('',(0.17857,0.0497746393084526,0.00341934441528882));
#1143=CARTESIAN_POINT('',(0.17857,0.0497746393084526,0.00133974039666355));
#1144=CARTESIAN_POINT('',(0.17857,0.0494746393084526,0.00133974039666355));
#1145=CARTESIAN_POINT('',(0.17857,0.0494746393084526,0.00103974039666355));
#1146=CARTESIAN_POINT('',(0.17857,0.0429858639836311,0.00103974039666355));
#1147=CARTESIAN_POINT('',(0.17857,0.0364970886588096,0.00103974039666355));
#1148=CARTESIAN_POINT('',(0.17857,0.0364970886588096,0.00133974039666355));
#1149=CARTESIAN_POINT('',(0.17857,0.0361970886588097,0.00133974039666355));
#1150=CARTESIAN_POINT('',(0.17857,0.0361970886588097,0.00341934441528882));
#1151=CARTESIAN_POINT('',(0.17857,0.0361970886588097,0.00549894843391409));
#1152=CARTESIAN_POINT('',(0.17857,0.0364970886588096,0.0054989484339141));
#1153=CARTESIAN_POINT('',(0.17857,0.0364970886588096,0.0057989484339141));
#1154=CARTESIAN_POINT('',(0.17857,0.0429858639836311,0.0057989484339141));
#1155=CARTESIAN_POINT('',(-0.01387,0.057985,-0.005));
#1156=CARTESIAN_POINT('',(-0.01387,0.057985,-0.01));
#1157=CARTESIAN_POINT('',(-0.01497,0.057985,-0.01));
#1158=CARTESIAN_POINT('',(-0.01387,0.057985,0.));
#1159=CARTESIAN_POINT('',(-0.01497,0.057985,0.));
#1160=CARTESIAN_POINT('',(2.77555756156289E-17,0.,-0.005));
#1161=CARTESIAN_POINT('',(-0.16964,-0.057265,-0.005));
#1162=CARTESIAN_POINT('',(-0.17164,-0.057265,-0.005));
#1163=CARTESIAN_POINT('',(-0.16844,0.056425,-0.005));
#1164=CARTESIAN_POINT('',(-0.17044,0.056425,-0.005));
#1165=CARTESIAN_POINT('',(-0.04149,-0.059015,-0.005));
#1166=CARTESIAN_POINT('',(-0.04349,-0.059015,-0.005));
#1167=CARTESIAN_POINT('',(-0.01387,0.057985,-0.005));
#1168=CARTESIAN_POINT('',(-0.01587,0.057985,-0.005));
#1169=CARTESIAN_POINT('',(0.16877,-0.057335,-0.005));
#1170=CARTESIAN_POINT('',(0.16677,-0.057335,-0.005));
#1171=CARTESIAN_POINT('',(0.16956,0.058165,-0.005));
#1172=CARTESIAN_POINT('',(0.16756,0.058165,-0.005));
#1173=CARTESIAN_POINT('',(2.2509771824275E-14,0.062585,-0.005));
#1174=CARTESIAN_POINT('',(0.170569999787045,0.062585,-0.005));
#1175=CARTESIAN_POINT('',(-0.170569999787,0.062585,-0.005));
#1176=CARTESIAN_POINT('',(-0.170569999574,0.05858499957409,-0.005));
#1177=CARTESIAN_POINT('',(-0.17457,0.0585849997870451,-0.005));
#1178=CARTESIAN_POINT('',(-0.17457,4.16333634234433E-17,-0.005));
#1179=CARTESIAN_POINT('',(-0.17456999999991,-0.058584999787045,-0.005));
#1180=CARTESIAN_POINT('',(-0.170569999574,-0.05858499957409,-0.005));
#1181=CARTESIAN_POINT('',(-0.170569999787,-0.062585,-0.005));
#1182=CARTESIAN_POINT('',(2.2509771824275E-14,-0.062585,-0.005));
#1183=CARTESIAN_POINT('',(0.170569999787045,-0.062585,-0.005));
#1184=CARTESIAN_POINT('',(0.17056999957409,-0.05858499957409,-0.005));
#1185=CARTESIAN_POINT('',(0.17457,-0.0585849997870451,-0.005));
#1186=CARTESIAN_POINT('',(0.17457,-4.16333634234433E-17,-0.005));
#1187=CARTESIAN_POINT('',(0.17457,0.058584999787045,-0.005));
#1188=CARTESIAN_POINT('',(0.17056999957409,0.05858499957409,-0.005));
#1189=CARTESIAN_POINT('',(2.77555756156289E-17,0.,-0.01));
#1190=CARTESIAN_POINT('',(4.50195436485501E-14,0.066585,-0.01));
#1191=CARTESIAN_POINT('',(0.17056999957409,0.066585,-0.01));
#1192=CARTESIAN_POINT('',(-0.170569999574,0.066585,-0.01));
#1193=CARTESIAN_POINT('',(0.17056999957409,0.05858499957409,-0.01));
#1194=CARTESIAN_POINT('',(0.17056999957409,-0.05858499957409,-0.01));
#1195=CARTESIAN_POINT('',(0.17056999957409,-0.066585,-0.01));
#1196=CARTESIAN_POINT('',(4.50195436485501E-14,-0.066585,-0.01));
#1197=CARTESIAN_POINT('',(-0.170569999574,-0.066585,-0.01));
#1198=CARTESIAN_POINT('',(-0.170569999574,-0.05858499957409,-0.01));
#1199=CARTESIAN_POINT('',(-0.17856999999991,-0.05858499957409,-0.01));
#1200=CARTESIAN_POINT('',(-0.17857,0.,-0.01));
#1201=CARTESIAN_POINT('',(-0.17857,0.05858499957409,-0.01));
#1202=CARTESIAN_POINT('',(-0.170569999574,0.05858499957409,-0.01));
#1203=CARTESIAN_POINT('',(2.2509771824275E-14,0.062585,0.0105));
#1204=CARTESIAN_POINT('',(0.170569999787045,0.062585,0.0105));
#1205=CARTESIAN_POINT('',(0.170569999787045,0.062585,0.0105));
#1206=CARTESIAN_POINT('',(2.2509771824275E-14,0.062585,0.0105));
#1207=CARTESIAN_POINT('',(-0.170569999787,0.062585,0.0105));
#1208=CARTESIAN_POINT('',(-0.170569999787,0.062585,0.0105));
#1209=CARTESIAN_POINT('',(0.17457,-4.16333634234433E-17,0.0105));
#1210=CARTESIAN_POINT('',(0.17457,0.0497746393084526,0.0105));
#1211=CARTESIAN_POINT('',(0.17457,0.0497746393084526,0.0054989484339141));
#1212=CARTESIAN_POINT('',(0.17457,0.0497746393084526,0.00133974039666355));
#1213=CARTESIAN_POINT('',(0.17457,0.0494746393084526,0.00549894843391409));
#1214=CARTESIAN_POINT('',(0.17457,0.0494746393084526,0.0057989484339141));
#1215=CARTESIAN_POINT('',(0.17457,-4.16333634234433E-17,0.0057989484339141));
#1216=CARTESIAN_POINT('',(0.17457,0.0364970886588096,0.0057989484339141));
#1217=CARTESIAN_POINT('',(0.17457,0.0364970886588096,0.0054989484339141));
#1218=CARTESIAN_POINT('',(0.17457,0.0361970886588097,0.00549894843391409));
#1219=CARTESIAN_POINT('',(0.17457,0.0361970886588097,0.0105));
#1220=CARTESIAN_POINT('',(0.17457,0.0361970886588097,0.00133974039666355));
#1221=CARTESIAN_POINT('',(0.17457,0.0364970886588096,0.00133974039666355));
#1222=CARTESIAN_POINT('',(0.17457,0.0364970886588096,0.00103974039666355));
#1223=CARTESIAN_POINT('',(0.17457,-4.16333634234433E-17,0.00103974039666355));
#1224=CARTESIAN_POINT('',(0.17457,0.0494746393084526,0.00103974039666355));
#1225=CARTESIAN_POINT('',(0.17457,0.0494746393084526,0.00133974039666355));
#1226=CARTESIAN_POINT('',(0.17457,-0.0585849997870451,0.0105));
#1227=CARTESIAN_POINT('',(0.17457,-0.0585849997870451,0.0105));
#1228=CARTESIAN_POINT('',(0.17457,-4.16333634234433E-17,0.0105));
#1229=CARTESIAN_POINT('',(0.17457,0.058584999787045,0.0105));
#1230=CARTESIAN_POINT('',(0.17457,0.058584999787045,0.0105));
#1231=CARTESIAN_POINT('',(2.2509771824275E-14,-0.062585,0.0105));
#1232=CARTESIAN_POINT('',(-0.170569999787,-0.062585,0.0105));
#1233=CARTESIAN_POINT('',(-0.170569999787,-0.062585,0.0105));
#1234=CARTESIAN_POINT('',(2.2509771824275E-14,-0.062585,0.0105));
#1235=CARTESIAN_POINT('',(0.170569999787045,-0.062585,0.0105));
#1236=CARTESIAN_POINT('',(0.170569999787045,-0.062585,0.0105));
#1237=CARTESIAN_POINT('',(-0.17457,4.16333634234433E-17,0.0105));
#1238=CARTESIAN_POINT('',(-0.17457,0.0585849997870451,0.0105));
#1239=CARTESIAN_POINT('',(-0.17457,0.0585849997870451,0.0105));
#1240=CARTESIAN_POINT('',(-0.17457,4.16333634234433E-17,0.0105));
#1241=CARTESIAN_POINT('',(-0.17456999999991,-0.058584999787045,0.0105));
#1242=CARTESIAN_POINT('',(-0.17456999999991,-0.058584999787045,0.0105));
#1243=CARTESIAN_POINT('',(0.17056999957409,0.05858499957409,0.0105));
#1244=CARTESIAN_POINT('',(0.17056999957409,0.05858499957409,0.0105));
#1245=CARTESIAN_POINT('',(-0.170569999574,0.05858499957409,0.0105));
#1246=CARTESIAN_POINT('',(-0.170569999574,0.05858499957409,0.0105));
#1247=CARTESIAN_POINT('',(-0.170569999574,-0.05858499957409,0.0105));
#1248=CARTESIAN_POINT('',(-0.170569999574,-0.05858499957409,0.0105));
#1249=CARTESIAN_POINT('',(0.17056999957409,-0.05858499957409,0.0105));
#1250=CARTESIAN_POINT('',(0.17056999957409,-0.05858499957409,0.0105));
#1251=CARTESIAN_POINT('',(4.50195436485501E-14,0.066585,0.0105));
#1252=CARTESIAN_POINT('',(-0.170569999574,0.066585,0.0105));
#1253=CARTESIAN_POINT('',(-0.170569999574,0.066585,0.0105));
#1254=CARTESIAN_POINT('',(4.50195436485501E-14,0.066585,0.0105));
#1255=CARTESIAN_POINT('',(0.17056999957409,0.066585,0.0105));
#1256=CARTESIAN_POINT('',(0.17056999957409,0.066585,0.0105));
#1257=CARTESIAN_POINT('',(0.17056999957409,0.05858499957409,0.0105));
#1258=CARTESIAN_POINT('',(0.17056999957409,0.05858499957409,0.0105));
#1259=CARTESIAN_POINT('',(0.17056999957409,-0.05858499957409,0.0105));
#1260=CARTESIAN_POINT('',(0.17056999957409,-0.05858499957409,0.0105));
#1261=CARTESIAN_POINT('',(0.17056999957409,-0.066585,0.0105));
#1262=CARTESIAN_POINT('',(0.17056999957409,-0.066585,0.0105));
#1263=CARTESIAN_POINT('',(4.50195436485501E-14,-0.066585,0.0105));
#1264=CARTESIAN_POINT('',(4.50195436485501E-14,-0.066585,0.0105));
#1265=CARTESIAN_POINT('',(-0.170569999574,-0.066585,0.0105));
#1266=CARTESIAN_POINT('',(-0.170569999574,-0.066585,0.0105));
#1267=CARTESIAN_POINT('',(-0.170569999574,-0.05858499957409,0.0105));
#1268=CARTESIAN_POINT('',(-0.170569999574,-0.05858499957409,0.0105));
#1269=CARTESIAN_POINT('',(-0.17856999999991,-0.05858499957409,0.0105));
#1270=CARTESIAN_POINT('',(-0.17856999999991,-0.05858499957409,0.0105));
#1271=CARTESIAN_POINT('',(-0.17857,0.,0.0105));
#1272=CARTESIAN_POINT('',(-0.17857,0.,0.0105));
#1273=CARTESIAN_POINT('',(-0.17857,0.05858499957409,0.0105));
#1274=CARTESIAN_POINT('',(-0.17857,0.05858499957409,0.0105));
#1275=CARTESIAN_POINT('',(-0.170569999574,0.05858499957409,0.0105));
#1276=CARTESIAN_POINT('',(-0.170569999574,0.05858499957409,0.0105));
#1277=CARTESIAN_POINT('',(0.,0.,0.0105));
#1278=CARTESIAN_POINT('',(0.16956,0.058165,0.));
#1279=CARTESIAN_POINT('',(0.16956,0.058165,0.));
#1280=CARTESIAN_POINT('',(0.170635,0.058165,0.));
#1281=CARTESIAN_POINT('',(0.16956,0.058165,-0.005));
#1282=CARTESIAN_POINT('',(0.170635,0.058165,-0.005));
#1283=CARTESIAN_POINT('',(0.16956,0.058165,0.));
#1284=CARTESIAN_POINT('',(0.16956,0.058165,0.));
#1285=CARTESIAN_POINT('',(0.17156,0.058165,0.));
#1286=CARTESIAN_POINT('',(2.77555756156289E-17,0.,0.));
#1287=CARTESIAN_POINT('',(2.77555756156289E-17,0.,-0.005));
#1288=CARTESIAN_POINT('',(0.16877,-0.057335,0.));
#1289=CARTESIAN_POINT('',(0.16877,-0.057335,0.));
#1290=CARTESIAN_POINT('',(0.169845,-0.057335,0.));
#1291=CARTESIAN_POINT('',(0.16877,-0.057335,-0.005));
#1292=CARTESIAN_POINT('',(0.169845,-0.057335,-0.005));
#1293=CARTESIAN_POINT('',(0.16877,-0.057335,0.));
#1294=CARTESIAN_POINT('',(0.16877,-0.057335,0.));
#1295=CARTESIAN_POINT('',(0.17077,-0.057335,0.));
#1296=CARTESIAN_POINT('',(2.77555756156289E-17,0.,0.));
#1297=CARTESIAN_POINT('',(2.77555756156289E-17,0.,-0.005));
#1298=CARTESIAN_POINT('',(-0.01387,0.057985,0.));
#1299=CARTESIAN_POINT('',(-0.01387,0.057985,0.));
#1300=CARTESIAN_POINT('',(-0.01187,0.057985,0.));
#1301=CARTESIAN_POINT('',(2.77555756156289E-17,0.,0.));
#1302=CARTESIAN_POINT('',(-0.04149,-0.059015,0.));
#1303=CARTESIAN_POINT('',(-0.04149,-0.059015,0.));
#1304=CARTESIAN_POINT('',(-0.040415,-0.059015,0.));
#1305=CARTESIAN_POINT('',(-0.04149,-0.059015,-0.005));
#1306=CARTESIAN_POINT('',(-0.040415,-0.059015,-0.005));
#1307=CARTESIAN_POINT('',(-0.04149,-0.059015,0.));
#1308=CARTESIAN_POINT('',(-0.04149,-0.059015,0.));
#1309=CARTESIAN_POINT('',(-0.03949,-0.059015,0.));
#1310=CARTESIAN_POINT('',(2.77555756156289E-17,0.,0.));
#1311=CARTESIAN_POINT('',(2.77555756156289E-17,0.,-0.005));
#1312=CARTESIAN_POINT('',(-0.16844,0.056425,0.));
#1313=CARTESIAN_POINT('',(-0.16844,0.056425,0.));
#1314=CARTESIAN_POINT('',(-0.16734,0.056425,0.));
#1315=CARTESIAN_POINT('',(-0.16844,0.056425,-0.005));
#1316=CARTESIAN_POINT('',(-0.16734,0.056425,-0.005));
#1317=CARTESIAN_POINT('',(-0.16844,0.056425,0.));
#1318=CARTESIAN_POINT('',(-0.16844,0.056425,0.));
#1319=CARTESIAN_POINT('',(-0.16644,0.056425,0.));
#1320=CARTESIAN_POINT('',(2.77555756156289E-17,0.,0.));
#1321=CARTESIAN_POINT('',(2.77555756156289E-17,0.,-0.005));
#1322=CARTESIAN_POINT('',(-0.16964,-0.057265,0.));
#1323=CARTESIAN_POINT('',(-0.16964,-0.057265,0.));
#1324=CARTESIAN_POINT('',(-0.168565,-0.057265,0.));
#1325=CARTESIAN_POINT('',(-0.16964,-0.057265,-0.005));
#1326=CARTESIAN_POINT('',(-0.168565,-0.057265,-0.005));
#1327=CARTESIAN_POINT('',(-0.16964,-0.057265,0.));
#1328=CARTESIAN_POINT('',(-0.16964,-0.057265,0.));
#1329=CARTESIAN_POINT('',(-0.16764,-0.057265,0.));
#1330=CARTESIAN_POINT('',(2.77555756156289E-17,0.,0.));
#1331=CARTESIAN_POINT('',(2.77555756156289E-17,0.,-0.005));
#1332=CARTESIAN_POINT('',(0.15357,0.0497746393084526,0.00341934441528882));
#1333=CARTESIAN_POINT('',(0.15357,0.0497746393084526,0.00133974039666355));
#1334=CARTESIAN_POINT('',(0.15357,0.0497746393084526,0.0054989484339141));
#1335=CARTESIAN_POINT('',(0.15357,0.0494746393084526,0.00549894843391409));
#1336=CARTESIAN_POINT('',(0.15357,0.0494746393084526,0.0057989484339141));
#1337=CARTESIAN_POINT('',(0.15357,0.0429858639836311,0.0057989484339141));
#1338=CARTESIAN_POINT('',(0.15357,0.0364970886588096,0.0057989484339141));
#1339=CARTESIAN_POINT('',(0.15357,0.0364970886588096,0.0054989484339141));
#1340=CARTESIAN_POINT('',(0.15357,0.0361970886588097,0.00549894843391409));
#1341=CARTESIAN_POINT('',(0.15357,0.0361970886588097,0.00341934441528882));
#1342=CARTESIAN_POINT('',(0.15357,0.0361970886588097,0.00133974039666355));
#1343=CARTESIAN_POINT('',(0.15357,0.0364970886588096,0.00133974039666355));
#1344=CARTESIAN_POINT('',(0.15357,0.0364970886588096,0.00103974039666355));
#1345=CARTESIAN_POINT('',(0.15357,0.0429858639836311,0.00103974039666355));
#1346=CARTESIAN_POINT('',(0.15357,0.0494746393084526,0.00103974039666355));
#1347=CARTESIAN_POINT('',(0.15357,0.0494746393084526,0.00133974039666355));
#1348=MECHANICAL_DESIGN_GEOMETRIC_PRESENTATION_REPRESENTATION('',(#773),
#1349);
#1349=(
GEOMETRIC_REPRESENTATION_CONTEXT(3)
GLOBAL_UNCERTAINTY_ASSIGNED_CONTEXT((#1350))
GLOBAL_UNIT_ASSIGNED_CONTEXT((#1353,#1352,#1351))
REPRESENTATION_CONTEXT('Part 2410','TOP_LEVEL_ASSEMBLY_PART')
);
#1350=UNCERTAINTY_MEASURE_WITH_UNIT(LENGTH_MEASURE(1.E-8),#1353,
'DISTANCE_ACCURACY_VALUE','Maximum Tolerance applied to model');
#1351=(
NAMED_UNIT(*)
SI_UNIT($,.STERADIAN.)
SOLID_ANGLE_UNIT()
);
#1352=(
NAMED_UNIT(*)
PLANE_ANGLE_UNIT()
SI_UNIT($,.RADIAN.)
);
#1353=(
LENGTH_UNIT()
NAMED_UNIT(*)
SI_UNIT($,.METRE.)
);
#1354=PRODUCT_DEFINITION_SHAPE('','',#1355);
#1355=PRODUCT_DEFINITION('','',#1357,#1356);
#1356=PRODUCT_DEFINITION_CONTEXT('',#1363,'design');
#1357=PRODUCT_DEFINITION_FORMATION_WITH_SPECIFIED_SOURCE('','',#1359,
 .NOT_KNOWN.);
#1358=PRODUCT_RELATED_PRODUCT_CATEGORY('','',(#1359));
#1359=PRODUCT('Part 2410','Part 2410','Part 2410',(#1361));
#1360=PRODUCT_CATEGORY('','');
#1361=PRODUCT_CONTEXT('',#1363,'mechanical');
#1362=APPLICATION_PROTOCOL_DEFINITION('international standard',
'ap242_managed_model_based_3d_engineering',2020,#1363);
#1363=APPLICATION_CONTEXT('managed model based 3d engineering');
ENDSEC;
END-ISO-10303-21;
