ISO-10303-21;
HEADER;
/* Generated by software containing ST-Developer
 * from STEP Tools, Inc. (www.steptools.com) 
 */
/* OPTION: using custom renumber hook */

FILE_DESCRIPTION(
/* description */ ('STEP AP242 Edition 2',
'CAx-IF Rec.Pracs.---Representation and Presentation of Product Manufa
cturing Information (PMI)---4.0---2014-10-13',
'CAx-IF Rec.Pracs.---3D Tessellated Geometry---0.4---2014-09-14','2;1',
'CAx-IF Rec.Pracs.---User Defined Attributes---1.5---2016-08-15'),
/* implementation_level */ '2;1');

FILE_NAME(
/* name */ 'Part Studio 1 - Part 2410',
/* time_stamp */ '2026-09-08T12:40:34Z',
/* author */ (''),
/* organization */ (''),
/* preprocessor_version */ 'ST-DEVELOPER v20',
/* originating_system */ 'ONSHAPE BY PTC INC, 1.220',
/* authorisation */ '  ');

FILE_SCHEMA (('AP242_MANAGED_MODEL_BASED_3D_ENGINEERING_MIM_LF { 1 0 10303 442 3 1 4 }'));
ENDSEC;

DATA;
#10=SHAPE_REPRESENTATION_RELATIONSHIP('','',#591,#11);
#11=ADVANCED_BREP_SHAPE_REPRESENTATION('',(#589),#999);
#12=CYLINDRICAL_SURFACE('',#605,0.001075);
#13=CYLINDRICAL_SURFACE('',#607,0.0011);
#14=CYLINDRICAL_SURFACE('',#609,0.001075);
#15=CYLINDRICAL_SURFACE('',#620,0.002);
#16=CYLINDRICAL_SURFACE('',#622,0.002);
#17=CYLINDRICAL_SURFACE('',#624,0.002);
#18=CYLINDRICAL_SURFACE('',#626,0.002);
#19=CYLINDRICAL_SURFACE('',#628,0.0011);
#20=CYLINDRICAL_SURFACE('',#633,0.00400000042590999);
#21=CYLINDRICAL_SURFACE('',#636,0.00400000042591001);
#22=CYLINDRICAL_SURFACE('',#638,0.00800000042591003);
#23=CYLINDRICAL_SURFACE('',#642,0.00800000042591003);
#24=CYLINDRICAL_SURFACE('',#652,0.00155);
#25=CYLINDRICAL_SURFACE('',#654,0.00155);
#26=CYLINDRICAL_SURFACE('',#656,0.00155);
#27=CYLINDRICAL_SURFACE('',#658,0.00155);
#28=CYLINDRICAL_SURFACE('',#662,0.00155);
#29=CIRCLE('',#594,0.00155);
#30=CIRCLE('',#595,0.00155);
#31=CIRCLE('',#596,0.00155);
#32=CIRCLE('',#597,0.00155);
#33=CIRCLE('',#598,0.00155);
#34=CIRCLE('',#600,0.001075);
#35=CIRCLE('',#602,0.0011);
#36=CIRCLE('',#604,0.001075);
#37=CIRCLE('',#606,0.001075);
#38=CIRCLE('',#608,0.0011);
#39=CIRCLE('',#610,0.001075);
#40=CIRCLE('',#612,0.002);
#41=CIRCLE('',#614,0.002);
#42=CIRCLE('',#616,0.002);
#43=CIRCLE('',#618,0.0011);
#44=CIRCLE('',#619,0.002);
#45=CIRCLE('',#621,0.002);
#46=CIRCLE('',#623,0.002);
#47=CIRCLE('',#625,0.002);
#48=CIRCLE('',#627,0.002);
#49=CIRCLE('',#629,0.0011);
#50=CIRCLE('',#631,0.00400000042590999);
#51=CIRCLE('',#632,0.00400000042591001);
#52=CIRCLE('',#634,0.00400000042590999);
#53=CIRCLE('',#637,0.00400000042591001);
#54=CIRCLE('',#639,0.00800000042591003);
#55=CIRCLE('',#640,0.00800000042591003);
#56=CIRCLE('',#643,0.00800000042591003);
#57=CIRCLE('',#644,0.00800000042591003);
#58=CIRCLE('',#653,0.00155);
#59=CIRCLE('',#655,0.00155);
#60=CIRCLE('',#657,0.00155);
#61=CIRCLE('',#659,0.00155);
#62=CIRCLE('',#661,0.00155);
#63=ORIENTED_EDGE('',*,*,#199,.F.);
#64=ORIENTED_EDGE('',*,*,#200,.T.);
#65=ORIENTED_EDGE('',*,*,#201,.T.);
#66=ORIENTED_EDGE('',*,*,#202,.F.);
#67=ORIENTED_EDGE('',*,*,#203,.F.);
#68=ORIENTED_EDGE('',*,*,#204,.F.);
#69=ORIENTED_EDGE('',*,*,#205,.T.);
#70=ORIENTED_EDGE('',*,*,#206,.T.);
#71=ORIENTED_EDGE('',*,*,#207,.T.);
#72=ORIENTED_EDGE('',*,*,#208,.T.);
#73=ORIENTED_EDGE('',*,*,#209,.T.);
#74=ORIENTED_EDGE('',*,*,#210,.T.);
#75=ORIENTED_EDGE('',*,*,#211,.T.);
#76=ORIENTED_EDGE('',*,*,#212,.T.);
#77=ORIENTED_EDGE('',*,*,#213,.T.);
#78=ORIENTED_EDGE('',*,*,#214,.T.);
#79=ORIENTED_EDGE('',*,*,#215,.T.);
#80=ORIENTED_EDGE('',*,*,#212,.F.);
#81=ORIENTED_EDGE('',*,*,#216,.T.);
#82=ORIENTED_EDGE('',*,*,#213,.F.);
#83=ORIENTED_EDGE('',*,*,#217,.T.);
#84=ORIENTED_EDGE('',*,*,#214,.F.);
#85=ORIENTED_EDGE('',*,*,#215,.F.);
#86=ORIENTED_EDGE('',*,*,#218,.T.);
#87=ORIENTED_EDGE('',*,*,#216,.F.);
#88=ORIENTED_EDGE('',*,*,#219,.T.);
#89=ORIENTED_EDGE('',*,*,#217,.F.);
#90=ORIENTED_EDGE('',*,*,#220,.T.);
#91=ORIENTED_EDGE('',*,*,#221,.T.);
#92=ORIENTED_EDGE('',*,*,#222,.T.);
#93=ORIENTED_EDGE('',*,*,#222,.F.);
#94=ORIENTED_EDGE('',*,*,#223,.T.);
#95=ORIENTED_EDGE('',*,*,#218,.F.);
#96=ORIENTED_EDGE('',*,*,#224,.T.);
#97=ORIENTED_EDGE('',*,*,#219,.F.);
#98=ORIENTED_EDGE('',*,*,#225,.T.);
#99=ORIENTED_EDGE('',*,*,#220,.F.);
#100=ORIENTED_EDGE('',*,*,#226,.T.);
#101=ORIENTED_EDGE('',*,*,#227,.T.);
#102=ORIENTED_EDGE('',*,*,#221,.F.);
#103=ORIENTED_EDGE('',*,*,#226,.F.);
#104=ORIENTED_EDGE('',*,*,#225,.F.);
#105=ORIENTED_EDGE('',*,*,#224,.F.);
#106=ORIENTED_EDGE('',*,*,#223,.F.);
#107=ORIENTED_EDGE('',*,*,#228,.T.);
#108=ORIENTED_EDGE('',*,*,#229,.T.);
#109=ORIENTED_EDGE('',*,*,#230,.T.);
#110=ORIENTED_EDGE('',*,*,#231,.F.);
#111=ORIENTED_EDGE('',*,*,#232,.T.);
#112=ORIENTED_EDGE('',*,*,#233,.F.);
#113=ORIENTED_EDGE('',*,*,#234,.T.);
#114=ORIENTED_EDGE('',*,*,#231,.T.);
#115=ORIENTED_EDGE('',*,*,#235,.F.);
#116=ORIENTED_EDGE('',*,*,#236,.F.);
#117=ORIENTED_EDGE('',*,*,#232,.F.);
#118=ORIENTED_EDGE('',*,*,#234,.F.);
#119=ORIENTED_EDGE('',*,*,#237,.T.);
#120=ORIENTED_EDGE('',*,*,#238,.T.);
#121=ORIENTED_EDGE('',*,*,#239,.T.);
#122=ORIENTED_EDGE('',*,*,#233,.T.);
#123=ORIENTED_EDGE('',*,*,#238,.F.);
#124=ORIENTED_EDGE('',*,*,#240,.F.);
#125=ORIENTED_EDGE('',*,*,#241,.T.);
#126=ORIENTED_EDGE('',*,*,#242,.F.);
#127=ORIENTED_EDGE('',*,*,#243,.F.);
#128=ORIENTED_EDGE('',*,*,#244,.T.);
#129=ORIENTED_EDGE('',*,*,#245,.T.);
#130=ORIENTED_EDGE('',*,*,#244,.F.);
#131=ORIENTED_EDGE('',*,*,#246,.F.);
#132=ORIENTED_EDGE('',*,*,#247,.T.);
#133=ORIENTED_EDGE('',*,*,#248,.T.);
#134=ORIENTED_EDGE('',*,*,#247,.F.);
#135=ORIENTED_EDGE('',*,*,#249,.F.);
#136=ORIENTED_EDGE('',*,*,#250,.T.);
#137=ORIENTED_EDGE('',*,*,#251,.F.);
#138=ORIENTED_EDGE('',*,*,#203,.T.);
#139=ORIENTED_EDGE('',*,*,#252,.T.);
#140=ORIENTED_EDGE('',*,*,#253,.F.);
#141=ORIENTED_EDGE('',*,*,#201,.F.);
#142=ORIENTED_EDGE('',*,*,#254,.T.);
#143=ORIENTED_EDGE('',*,*,#249,.T.);
#144=ORIENTED_EDGE('',*,*,#246,.T.);
#145=ORIENTED_EDGE('',*,*,#243,.T.);
#146=ORIENTED_EDGE('',*,*,#255,.T.);
#147=ORIENTED_EDGE('',*,*,#205,.F.);
#148=ORIENTED_EDGE('',*,*,#256,.F.);
#149=ORIENTED_EDGE('',*,*,#240,.T.);
#150=ORIENTED_EDGE('',*,*,#237,.F.);
#151=ORIENTED_EDGE('',*,*,#236,.T.);
#152=ORIENTED_EDGE('',*,*,#257,.F.);
#153=ORIENTED_EDGE('',*,*,#206,.F.);
#154=ORIENTED_EDGE('',*,*,#255,.F.);
#155=ORIENTED_EDGE('',*,*,#242,.T.);
#156=ORIENTED_EDGE('',*,*,#258,.T.);
#157=ORIENTED_EDGE('',*,*,#200,.F.);
#158=ORIENTED_EDGE('',*,*,#259,.T.);
#159=ORIENTED_EDGE('',*,*,#250,.F.);
#160=ORIENTED_EDGE('',*,*,#254,.F.);
#161=ORIENTED_EDGE('',*,*,#256,.T.);
#162=ORIENTED_EDGE('',*,*,#204,.T.);
#163=ORIENTED_EDGE('',*,*,#251,.T.);
#164=ORIENTED_EDGE('',*,*,#260,.T.);
#165=ORIENTED_EDGE('',*,*,#228,.F.);
#166=ORIENTED_EDGE('',*,*,#239,.F.);
#167=ORIENTED_EDGE('',*,*,#252,.F.);
#168=ORIENTED_EDGE('',*,*,#202,.T.);
#169=ORIENTED_EDGE('',*,*,#257,.T.);
#170=ORIENTED_EDGE('',*,*,#235,.T.);
#171=ORIENTED_EDGE('',*,*,#230,.F.);
#172=ORIENTED_EDGE('',*,*,#261,.F.);
#173=ORIENTED_EDGE('',*,*,#227,.F.);
#174=ORIENTED_EDGE('',*,*,#259,.F.);
#175=ORIENTED_EDGE('',*,*,#199,.T.);
#176=ORIENTED_EDGE('',*,*,#258,.F.);
#177=ORIENTED_EDGE('',*,*,#241,.F.);
#178=ORIENTED_EDGE('',*,*,#245,.F.);
#179=ORIENTED_EDGE('',*,*,#248,.F.);
#180=ORIENTED_EDGE('',*,*,#262,.T.);
#181=ORIENTED_EDGE('',*,*,#211,.F.);
#182=ORIENTED_EDGE('',*,*,#263,.T.);
#183=ORIENTED_EDGE('',*,*,#207,.F.);
#184=ORIENTED_EDGE('',*,*,#264,.T.);
#185=ORIENTED_EDGE('',*,*,#210,.F.);
#186=ORIENTED_EDGE('',*,*,#265,.T.);
#187=ORIENTED_EDGE('',*,*,#208,.F.);
#188=ORIENTED_EDGE('',*,*,#266,.F.);
#189=ORIENTED_EDGE('',*,*,#265,.F.);
#190=ORIENTED_EDGE('',*,*,#264,.F.);
#191=ORIENTED_EDGE('',*,*,#263,.F.);
#192=ORIENTED_EDGE('',*,*,#262,.F.);
#193=ORIENTED_EDGE('',*,*,#229,.F.);
#194=ORIENTED_EDGE('',*,*,#260,.F.);
#195=ORIENTED_EDGE('',*,*,#253,.T.);
#196=ORIENTED_EDGE('',*,*,#261,.T.);
#197=ORIENTED_EDGE('',*,*,#266,.T.);
#198=ORIENTED_EDGE('',*,*,#209,.F.);
#199=EDGE_CURVE('',#267,#268,#321,.T.);
#200=EDGE_CURVE('',#267,#269,#322,.T.);
#201=EDGE_CURVE('',#269,#270,#323,.T.);
#202=EDGE_CURVE('',#271,#270,#324,.T.);
#203=EDGE_CURVE('',#272,#271,#325,.T.);
#204=EDGE_CURVE('',#273,#272,#326,.T.);
#205=EDGE_CURVE('',#273,#274,#327,.T.);
#206=EDGE_CURVE('',#274,#268,#328,.T.);
#207=EDGE_CURVE('',#275,#275,#29,.F.);
#208=EDGE_CURVE('',#276,#276,#30,.F.);
#209=EDGE_CURVE('',#277,#277,#31,.F.);
#210=EDGE_CURVE('',#278,#278,#32,.F.);
#211=EDGE_CURVE('',#279,#279,#33,.F.);
#212=EDGE_CURVE('',#280,#280,#34,.T.);
#213=EDGE_CURVE('',#281,#281,#35,.T.);
#214=EDGE_CURVE('',#282,#282,#36,.T.);
#215=EDGE_CURVE('',#283,#283,#37,.T.);
#216=EDGE_CURVE('',#284,#284,#38,.T.);
#217=EDGE_CURVE('',#285,#285,#39,.T.);
#218=EDGE_CURVE('',#286,#286,#40,.T.);
#219=EDGE_CURVE('',#287,#287,#41,.T.);
#220=EDGE_CURVE('',#288,#288,#42,.T.);
#221=EDGE_CURVE('',#289,#289,#43,.T.);
#222=EDGE_CURVE('',#290,#290,#44,.T.);
#223=EDGE_CURVE('',#291,#291,#45,.F.);
#224=EDGE_CURVE('',#292,#292,#46,.F.);
#225=EDGE_CURVE('',#293,#293,#47,.F.);
#226=EDGE_CURVE('',#294,#294,#48,.F.);
#227=EDGE_CURVE('',#295,#295,#49,.T.);
#228=EDGE_CURVE('',#296,#297,#329,.T.);
#229=EDGE_CURVE('',#297,#298,#330,.T.);
#230=EDGE_CURVE('',#298,#299,#331,.T.);
#231=EDGE_CURVE('',#300,#299,#50,.T.);
#232=EDGE_CURVE('',#300,#301,#332,.T.);
#233=EDGE_CURVE('',#296,#301,#51,.T.);
#234=EDGE_CURVE('',#302,#300,#333,.T.);
#235=EDGE_CURVE('',#303,#299,#334,.T.);
#236=EDGE_CURVE('',#302,#303,#52,.T.);
#237=EDGE_CURVE('',#302,#304,#335,.T.);
#238=EDGE_CURVE('',#304,#301,#336,.T.);
#239=EDGE_CURVE('',#305,#296,#337,.T.);
#240=EDGE_CURVE('',#305,#304,#53,.T.);
#241=EDGE_CURVE('',#306,#307,#54,.T.);
#242=EDGE_CURVE('',#308,#307,#338,.T.);
#243=EDGE_CURVE('',#309,#308,#55,.T.);
#244=EDGE_CURVE('',#309,#306,#339,.T.);
#245=EDGE_CURVE('',#310,#306,#340,.T.);
#246=EDGE_CURVE('',#311,#309,#341,.T.);
#247=EDGE_CURVE('',#311,#310,#342,.T.);
#248=EDGE_CURVE('',#312,#310,#56,.T.);
#249=EDGE_CURVE('',#313,#311,#57,.T.);
#250=EDGE_CURVE('',#313,#312,#343,.T.);
#251=EDGE_CURVE('',#272,#314,#344,.T.);
#252=EDGE_CURVE('',#271,#315,#345,.T.);
#253=EDGE_CURVE('',#314,#315,#346,.T.);
#254=EDGE_CURVE('',#269,#313,#347,.T.);
#255=EDGE_CURVE('',#308,#274,#348,.T.);
#256=EDGE_CURVE('',#305,#273,#349,.T.);
#257=EDGE_CURVE('',#270,#303,#350,.T.);
#258=EDGE_CURVE('',#307,#268,#351,.T.);
#259=EDGE_CURVE('',#267,#312,#352,.T.);
#260=EDGE_CURVE('',#314,#297,#353,.T.);
#261=EDGE_CURVE('',#315,#298,#354,.T.);
#262=EDGE_CURVE('',#316,#316,#58,.T.);
#263=EDGE_CURVE('',#317,#317,#59,.T.);
#264=EDGE_CURVE('',#318,#318,#60,.T.);
#265=EDGE_CURVE('',#319,#319,#61,.T.);
#266=EDGE_CURVE('',#320,#320,#62,.T.);
#267=VERTEX_POINT('',#842);
#268=VERTEX_POINT('',#843);
#269=VERTEX_POINT('',#845);
#270=VERTEX_POINT('',#847);
#271=VERTEX_POINT('',#849);
#272=VERTEX_POINT('',#851);
#273=VERTEX_POINT('',#853);
#274=VERTEX_POINT('',#855);
#275=VERTEX_POINT('',#858);
#276=VERTEX_POINT('',#860);
#277=VERTEX_POINT('',#862);
#278=VERTEX_POINT('',#864);
#279=VERTEX_POINT('',#866);
#280=VERTEX_POINT('',#869);
#281=VERTEX_POINT('',#872);
#282=VERTEX_POINT('',#875);
#283=VERTEX_POINT('',#878);
#284=VERTEX_POINT('',#881);
#285=VERTEX_POINT('',#884);
#286=VERTEX_POINT('',#887);
#287=VERTEX_POINT('',#890);
#288=VERTEX_POINT('',#893);
#289=VERTEX_POINT('',#896);
#290=VERTEX_POINT('',#898);
#291=VERTEX_POINT('',#901);
#292=VERTEX_POINT('',#904);
#293=VERTEX_POINT('',#907);
#294=VERTEX_POINT('',#910);
#295=VERTEX_POINT('',#913);
#296=VERTEX_POINT('',#916);
#297=VERTEX_POINT('',#917);
#298=VERTEX_POINT('',#919);
#299=VERTEX_POINT('',#921);
#300=VERTEX_POINT('',#923);
#301=VERTEX_POINT('',#925);
#302=VERTEX_POINT('',#929);
#303=VERTEX_POINT('',#931);
#304=VERTEX_POINT('',#935);
#305=VERTEX_POINT('',#939);
#306=VERTEX_POINT('',#943);
#307=VERTEX_POINT('',#944);
#308=VERTEX_POINT('',#946);
#309=VERTEX_POINT('',#948);
#310=VERTEX_POINT('',#952);
#311=VERTEX_POINT('',#954);
#312=VERTEX_POINT('',#958);
#313=VERTEX_POINT('',#960);
#314=VERTEX_POINT('',#964);
#315=VERTEX_POINT('',#966);
#316=VERTEX_POINT('',#984);
#317=VERTEX_POINT('',#987);
#318=VERTEX_POINT('',#990);
#319=VERTEX_POINT('',#993);
#320=VERTEX_POINT('',#996);
#321=LINE('',#841,#355);
#322=LINE('',#844,#356);
#323=LINE('',#846,#357);
#324=LINE('',#848,#358);
#325=LINE('',#850,#359);
#326=LINE('',#852,#360);
#327=LINE('',#854,#361);
#328=LINE('',#856,#362);
#329=LINE('',#915,#363);
#330=LINE('',#918,#364);
#331=LINE('',#920,#365);
#332=LINE('',#924,#366);
#333=LINE('',#928,#367);
#334=LINE('',#930,#368);
#335=LINE('',#934,#369);
#336=LINE('',#936,#370);
#337=LINE('',#938,#371);
#338=LINE('',#945,#372);
#339=LINE('',#949,#373);
#340=LINE('',#951,#374);
#341=LINE('',#953,#375);
#342=LINE('',#955,#376);
#343=LINE('',#961,#377);
#344=LINE('',#963,#378);
#345=LINE('',#965,#379);
#346=LINE('',#967,#380);
#347=LINE('',#969,#381);
#348=LINE('',#970,#382);
#349=LINE('',#971,#383);
#350=LINE('',#972,#384);
#351=LINE('',#974,#385);
#352=LINE('',#976,#386);
#353=LINE('',#978,#387);
#354=LINE('',#980,#388);
#355=VECTOR('',#667,1.);
#356=VECTOR('',#668,1.);
#357=VECTOR('',#669,1.);
#358=VECTOR('',#670,1.);
#359=VECTOR('',#671,1.);
#360=VECTOR('',#672,1.);
#361=VECTOR('',#673,1.);
#362=VECTOR('',#674,1.);
#363=VECTOR('',#749,1.);
#364=VECTOR('',#750,1.);
#365=VECTOR('',#751,1.);
#366=VECTOR('',#754,1.);
#367=VECTOR('',#759,1.);
#368=VECTOR('',#760,1.);
#369=VECTOR('',#765,1.);
#370=VECTOR('',#766,1.);
#371=VECTOR('',#769,1.);
#372=VECTOR('',#776,1.);
#373=VECTOR('',#779,1.);
#374=VECTOR('',#782,1.);
#375=VECTOR('',#783,1.);
#376=VECTOR('',#784,1.);
#377=VECTOR('',#791,1.);
#378=VECTOR('',#794,1.);
#379=VECTOR('',#795,1.);
#380=VECTOR('',#796,1.);
#381=VECTOR('',#799,1.);
#382=VECTOR('',#800,1.);
#383=VECTOR('',#801,1.);
#384=VECTOR('',#802,1.);
#385=VECTOR('',#805,1.);
#386=VECTOR('',#808,1.);
#387=VECTOR('',#811,1.);
#388=VECTOR('',#814,1.);
#389=EDGE_LOOP('',(#63,#64,#65,#66,#67,#68,#69,#70));
#390=EDGE_LOOP('',(#71));
#391=EDGE_LOOP('',(#72));
#392=EDGE_LOOP('',(#73));
#393=EDGE_LOOP('',(#74));
#394=EDGE_LOOP('',(#75));
#395=EDGE_LOOP('',(#76));
#396=EDGE_LOOP('',(#77));
#397=EDGE_LOOP('',(#78));
#398=EDGE_LOOP('',(#79));
#399=EDGE_LOOP('',(#80));
#400=EDGE_LOOP('',(#81));
#401=EDGE_LOOP('',(#82));
#402=EDGE_LOOP('',(#83));
#403=EDGE_LOOP('',(#84));
#404=EDGE_LOOP('',(#85));
#405=EDGE_LOOP('',(#86));
#406=EDGE_LOOP('',(#87));
#407=EDGE_LOOP('',(#88));
#408=EDGE_LOOP('',(#89));
#409=EDGE_LOOP('',(#90));
#410=EDGE_LOOP('',(#91));
#411=EDGE_LOOP('',(#92));
#412=EDGE_LOOP('',(#93));
#413=EDGE_LOOP('',(#94));
#414=EDGE_LOOP('',(#95));
#415=EDGE_LOOP('',(#96));
#416=EDGE_LOOP('',(#97));
#417=EDGE_LOOP('',(#98));
#418=EDGE_LOOP('',(#99));
#419=EDGE_LOOP('',(#100));
#420=EDGE_LOOP('',(#101));
#421=EDGE_LOOP('',(#102));
#422=EDGE_LOOP('',(#103));
#423=EDGE_LOOP('',(#104));
#424=EDGE_LOOP('',(#105));
#425=EDGE_LOOP('',(#106));
#426=EDGE_LOOP('',(#107,#108,#109,#110,#111,#112));
#427=EDGE_LOOP('',(#113,#114,#115,#116));
#428=EDGE_LOOP('',(#117,#118,#119,#120));
#429=EDGE_LOOP('',(#121,#122,#123,#124));
#430=EDGE_LOOP('',(#125,#126,#127,#128));
#431=EDGE_LOOP('',(#129,#130,#131,#132));
#432=EDGE_LOOP('',(#133,#134,#135,#136));
#433=EDGE_LOOP('',(#137,#138,#139,#140));
#434=EDGE_LOOP('',(#141,#142,#143,#144,#145,#146,#147,#148,#149,#150,#151,
#152));
#435=EDGE_LOOP('',(#153,#154,#155,#156));
#436=EDGE_LOOP('',(#157,#158,#159,#160));
#437=EDGE_LOOP('',(#161,#162,#163,#164,#165,#166));
#438=EDGE_LOOP('',(#167,#168,#169,#170,#171,#172));
#439=EDGE_LOOP('',(#173));
#440=EDGE_LOOP('',(#174,#175,#176,#177,#178,#179));
#441=EDGE_LOOP('',(#180));
#442=EDGE_LOOP('',(#181));
#443=EDGE_LOOP('',(#182));
#444=EDGE_LOOP('',(#183));
#445=EDGE_LOOP('',(#184));
#446=EDGE_LOOP('',(#185));
#447=EDGE_LOOP('',(#186));
#448=EDGE_LOOP('',(#187));
#449=EDGE_LOOP('',(#188));
#450=EDGE_LOOP('',(#189));
#451=EDGE_LOOP('',(#190));
#452=EDGE_LOOP('',(#191));
#453=EDGE_LOOP('',(#192));
#454=EDGE_LOOP('',(#193,#194,#195,#196));
#455=EDGE_LOOP('',(#197));
#456=EDGE_LOOP('',(#198));
#457=FACE_BOUND('',#389,.T.);
#458=FACE_BOUND('',#390,.T.);
#459=FACE_BOUND('',#391,.T.);
#460=FACE_BOUND('',#392,.T.);
#461=FACE_BOUND('',#393,.T.);
#462=FACE_BOUND('',#394,.T.);
#463=FACE_BOUND('',#395,.T.);
#464=FACE_BOUND('',#396,.T.);
#465=FACE_BOUND('',#397,.T.);
#466=FACE_BOUND('',#398,.T.);
#467=FACE_BOUND('',#399,.T.);
#468=FACE_BOUND('',#400,.T.);
#469=FACE_BOUND('',#401,.T.);
#470=FACE_BOUND('',#402,.T.);
#471=FACE_BOUND('',#403,.T.);
#472=FACE_BOUND('',#404,.T.);
#473=FACE_BOUND('',#405,.T.);
#474=FACE_BOUND('',#406,.T.);
#475=FACE_BOUND('',#407,.T.);
#476=FACE_BOUND('',#408,.T.);
#477=FACE_BOUND('',#409,.T.);
#478=FACE_BOUND('',#410,.T.);
#479=FACE_BOUND('',#411,.T.);
#480=FACE_BOUND('',#412,.T.);
#481=FACE_BOUND('',#413,.T.);
#482=FACE_BOUND('',#414,.T.);
#483=FACE_BOUND('',#415,.T.);
#484=FACE_BOUND('',#416,.T.);
#485=FACE_BOUND('',#417,.T.);
#486=FACE_BOUND('',#418,.T.);
#487=FACE_BOUND('',#419,.T.);
#488=FACE_BOUND('',#420,.T.);
#489=FACE_BOUND('',#421,.T.);
#490=FACE_BOUND('',#422,.T.);
#491=FACE_BOUND('',#423,.T.);
#492=FACE_BOUND('',#424,.T.);
#493=FACE_BOUND('',#425,.T.);
#494=FACE_BOUND('',#426,.T.);
#495=FACE_BOUND('',#427,.T.);
#496=FACE_BOUND('',#428,.T.);
#497=FACE_BOUND('',#429,.T.);
#498=FACE_BOUND('',#430,.T.);
#499=FACE_BOUND('',#431,.T.);
#500=FACE_BOUND('',#432,.T.);
#501=FACE_BOUND('',#433,.T.);
#502=FACE_BOUND('',#434,.T.);
#503=FACE_BOUND('',#435,.T.);
#504=FACE_BOUND('',#436,.T.);
#505=FACE_BOUND('',#437,.T.);
#506=FACE_BOUND('',#438,.T.);
#507=FACE_BOUND('',#439,.T.);
#508=FACE_BOUND('',#440,.T.);
#509=FACE_BOUND('',#441,.T.);
#510=FACE_BOUND('',#442,.T.);
#511=FACE_BOUND('',#443,.T.);
#512=FACE_BOUND('',#444,.T.);
#513=FACE_BOUND('',#445,.T.);
#514=FACE_BOUND('',#446,.T.);
#515=FACE_BOUND('',#447,.T.);
#516=FACE_BOUND('',#448,.T.);
#517=FACE_BOUND('',#449,.T.);
#518=FACE_BOUND('',#450,.T.);
#519=FACE_BOUND('',#451,.T.);
#520=FACE_BOUND('',#452,.T.);
#521=FACE_BOUND('',#453,.T.);
#522=FACE_BOUND('',#454,.T.);
#523=FACE_BOUND('',#455,.T.);
#524=FACE_BOUND('',#456,.T.);
#525=PLANE('',#593);
#526=PLANE('',#599);
#527=PLANE('',#601);
#528=PLANE('',#603);
#529=PLANE('',#611);
#530=PLANE('',#613);
#531=PLANE('',#615);
#532=PLANE('',#617);
#533=PLANE('',#630);
#534=PLANE('',#635);
#535=PLANE('',#641);
#536=PLANE('',#645);
#537=PLANE('',#646);
#538=PLANE('',#647);
#539=PLANE('',#648);
#540=PLANE('',#649);
#541=PLANE('',#650);
#542=PLANE('',#651);
#543=PLANE('',#660);
#544=ADVANCED_FACE('',(#457,#458,#459,#460,#461,#462),#525,.T.);
#545=ADVANCED_FACE('',(#463),#526,.F.);
#546=ADVANCED_FACE('',(#464),#527,.F.);
#547=ADVANCED_FACE('',(#465),#528,.F.);
#548=ADVANCED_FACE('',(#466,#467),#12,.F.);
#549=ADVANCED_FACE('',(#468,#469),#13,.F.);
#550=ADVANCED_FACE('',(#470,#471),#14,.F.);
#551=ADVANCED_FACE('',(#472,#473),#529,.T.);
#552=ADVANCED_FACE('',(#474,#475),#530,.T.);
#553=ADVANCED_FACE('',(#476,#477),#531,.T.);
#554=ADVANCED_FACE('',(#478,#479),#532,.T.);
#555=ADVANCED_FACE('',(#480,#481),#15,.T.);
#556=ADVANCED_FACE('',(#482,#483),#16,.T.);
#557=ADVANCED_FACE('',(#484,#485),#17,.T.);
#558=ADVANCED_FACE('',(#486,#487),#18,.T.);
#559=ADVANCED_FACE('',(#488,#489),#19,.F.);
#560=ADVANCED_FACE('',(#490,#491,#492,#493,#494),#533,.F.);
#561=ADVANCED_FACE('',(#495),#20,.F.);
#562=ADVANCED_FACE('',(#496),#534,.T.);
#563=ADVANCED_FACE('',(#497),#21,.F.);
#564=ADVANCED_FACE('',(#498),#22,.T.);
#565=ADVANCED_FACE('',(#499),#535,.F.);
#566=ADVANCED_FACE('',(#500),#23,.T.);
#567=ADVANCED_FACE('',(#501),#536,.T.);
#568=ADVANCED_FACE('',(#502),#537,.F.);
#569=ADVANCED_FACE('',(#503),#538,.F.);
#570=ADVANCED_FACE('',(#504),#539,.F.);
#571=ADVANCED_FACE('',(#505),#540,.T.);
#572=ADVANCED_FACE('',(#506),#541,.T.);
#573=ADVANCED_FACE('',(#507,#508),#542,.T.);
#574=ADVANCED_FACE('',(#509,#510),#24,.F.);
#575=ADVANCED_FACE('',(#511,#512),#25,.F.);
#576=ADVANCED_FACE('',(#513,#514),#26,.F.);
#577=ADVANCED_FACE('',(#515,#516),#27,.F.);
#578=ADVANCED_FACE('',(#517,#518,#519,#520,#521,#522),#543,.T.);
#579=ADVANCED_FACE('',(#523,#524),#28,.F.);
#580=CLOSED_SHELL('',(#544,#545,#546,#547,#548,#549,#550,#551,#552,#553,
#554,#555,#556,#557,#558,#559,#560,#561,#562,#563,#564,#565,#566,#567,#568,
#569,#570,#571,#572,#573,#574,#575,#576,#577,#578,#579));
#581=STYLED_ITEM('',(#582),#589);
#582=PRESENTATION_STYLE_ASSIGNMENT((#583));
#583=SURFACE_STYLE_USAGE(.BOTH.,#584);
#584=SURFACE_SIDE_STYLE('',(#585));
#585=SURFACE_STYLE_FILL_AREA(#586);
#586=FILL_AREA_STYLE('',(#587));
#587=FILL_AREA_STYLE_COLOUR('',#588);
#588=COLOUR_RGB('',0.6,0.580392156862745,0.529411764705882);
#589=MANIFOLD_SOLID_BREP('Part 2410',#580);
#590=SHAPE_DEFINITION_REPRESENTATION(#1004,#591);
#591=SHAPE_REPRESENTATION('Part 2410',(#592),#999);
#592=AXIS2_PLACEMENT_3D('',#839,#663,#664);
#593=AXIS2_PLACEMENT_3D('',#840,#665,#666);
#594=AXIS2_PLACEMENT_3D('',#857,#675,#676);
#595=AXIS2_PLACEMENT_3D('',#859,#677,#678);
#596=AXIS2_PLACEMENT_3D('',#861,#679,#680);
#597=AXIS2_PLACEMENT_3D('',#863,#681,#682);
#598=AXIS2_PLACEMENT_3D('',#865,#683,#684);
#599=AXIS2_PLACEMENT_3D('',#867,#685,#686);
#600=AXIS2_PLACEMENT_3D('',#868,#687,#688);
#601=AXIS2_PLACEMENT_3D('',#870,#689,#690);
#602=AXIS2_PLACEMENT_3D('',#871,#691,#692);
#603=AXIS2_PLACEMENT_3D('',#873,#693,#694);
#604=AXIS2_PLACEMENT_3D('',#874,#695,#696);
#605=AXIS2_PLACEMENT_3D('',#876,#697,#698);
#606=AXIS2_PLACEMENT_3D('',#877,#699,#700);
#607=AXIS2_PLACEMENT_3D('',#879,#701,#702);
#608=AXIS2_PLACEMENT_3D('',#880,#703,#704);
#609=AXIS2_PLACEMENT_3D('',#882,#705,#706);
#610=AXIS2_PLACEMENT_3D('',#883,#707,#708);
#611=AXIS2_PLACEMENT_3D('',#885,#709,#710);
#612=AXIS2_PLACEMENT_3D('',#886,#711,#712);
#613=AXIS2_PLACEMENT_3D('',#888,#713,#714);
#614=AXIS2_PLACEMENT_3D('',#889,#715,#716);
#615=AXIS2_PLACEMENT_3D('',#891,#717,#718);
#616=AXIS2_PLACEMENT_3D('',#892,#719,#720);
#617=AXIS2_PLACEMENT_3D('',#894,#721,#722);
#618=AXIS2_PLACEMENT_3D('',#895,#723,#724);
#619=AXIS2_PLACEMENT_3D('',#897,#725,#726);
#620=AXIS2_PLACEMENT_3D('',#899,#727,#728);
#621=AXIS2_PLACEMENT_3D('',#900,#729,#730);
#622=AXIS2_PLACEMENT_3D('',#902,#731,#732);
#623=AXIS2_PLACEMENT_3D('',#903,#733,#734);
#624=AXIS2_PLACEMENT_3D('',#905,#735,#736);
#625=AXIS2_PLACEMENT_3D('',#906,#737,#738);
#626=AXIS2_PLACEMENT_3D('',#908,#739,#740);
#627=AXIS2_PLACEMENT_3D('',#909,#741,#742);
#628=AXIS2_PLACEMENT_3D('',#911,#743,#744);
#629=AXIS2_PLACEMENT_3D('',#912,#745,#746);
#630=AXIS2_PLACEMENT_3D('',#914,#747,#748);
#631=AXIS2_PLACEMENT_3D('',#922,#752,#753);
#632=AXIS2_PLACEMENT_3D('',#926,#755,#756);
#633=AXIS2_PLACEMENT_3D('',#927,#757,#758);
#634=AXIS2_PLACEMENT_3D('',#932,#761,#762);
#635=AXIS2_PLACEMENT_3D('',#933,#763,#764);
#636=AXIS2_PLACEMENT_3D('',#937,#767,#768);
#637=AXIS2_PLACEMENT_3D('',#940,#770,#771);
#638=AXIS2_PLACEMENT_3D('',#941,#772,#773);
#639=AXIS2_PLACEMENT_3D('',#942,#774,#775);
#640=AXIS2_PLACEMENT_3D('',#947,#777,#778);
#641=AXIS2_PLACEMENT_3D('',#950,#780,#781);
#642=AXIS2_PLACEMENT_3D('',#956,#785,#786);
#643=AXIS2_PLACEMENT_3D('',#957,#787,#788);
#644=AXIS2_PLACEMENT_3D('',#959,#789,#790);
#645=AXIS2_PLACEMENT_3D('',#962,#792,#793);
#646=AXIS2_PLACEMENT_3D('',#968,#797,#798);
#647=AXIS2_PLACEMENT_3D('',#973,#803,#804);
#648=AXIS2_PLACEMENT_3D('',#975,#806,#807);
#649=AXIS2_PLACEMENT_3D('',#977,#809,#810);
#650=AXIS2_PLACEMENT_3D('',#979,#812,#813);
#651=AXIS2_PLACEMENT_3D('',#981,#815,#816);
#652=AXIS2_PLACEMENT_3D('',#982,#817,#818);
#653=AXIS2_PLACEMENT_3D('',#983,#819,#820);
#654=AXIS2_PLACEMENT_3D('',#985,#821,#822);
#655=AXIS2_PLACEMENT_3D('',#986,#823,#824);
#656=AXIS2_PLACEMENT_3D('',#988,#825,#826);
#657=AXIS2_PLACEMENT_3D('',#989,#827,#828);
#658=AXIS2_PLACEMENT_3D('',#991,#829,#830);
#659=AXIS2_PLACEMENT_3D('',#992,#831,#832);
#660=AXIS2_PLACEMENT_3D('',#994,#833,#834);
#661=AXIS2_PLACEMENT_3D('',#995,#835,#836);
#662=AXIS2_PLACEMENT_3D('',#997,#837,#838);
#663=DIRECTION('',(0.,0.,1.));
#664=DIRECTION('',(1.,0.,0.));
#665=DIRECTION('',(1.,0.,0.));
#666=DIRECTION('',(0.,1.,0.));
#667=DIRECTION('',(0.,-1.,0.));
#668=DIRECTION('',(0.,0.,1.));
#669=DIRECTION('',(0.,-1.,0.));
#670=DIRECTION('',(0.,0.,1.));
#671=DIRECTION('',(0.,1.,0.));
#672=DIRECTION('',(0.,0.,-1.));
#673=DIRECTION('',(0.,-1.,0.));
#674=DIRECTION('',(0.,0.,-1.));
#675=DIRECTION('',(1.,0.,0.));
#676=DIRECTION('',(0.,0.,-1.));
#677=DIRECTION('',(1.,0.,0.));
#678=DIRECTION('',(0.,0.,-1.));
#679=DIRECTION('',(1.,0.,0.));
#680=DIRECTION('',(0.,0.,-1.));
#681=DIRECTION('',(1.,0.,0.));
#682=DIRECTION('',(0.,0.,-1.));
#683=DIRECTION('',(1.,0.,0.));
#684=DIRECTION('',(0.,0.,-1.));
#685=DIRECTION('',(0.,0.,-1.));
#686=DIRECTION('',(1.,0.,0.));
#687=DIRECTION('',(0.,0.,1.));
#688=DIRECTION('',(1.,0.,0.));
#689=DIRECTION('',(0.,0.,-1.));
#690=DIRECTION('',(1.,0.,0.));
#691=DIRECTION('',(0.,0.,1.));
#692=DIRECTION('',(1.,0.,0.));
#693=DIRECTION('',(0.,0.,-1.));
#694=DIRECTION('',(1.,0.,0.));
#695=DIRECTION('',(0.,0.,1.));
#696=DIRECTION('',(1.,0.,0.));
#697=DIRECTION('',(0.,0.,-1.));
#698=DIRECTION('',(-1.,0.,0.));
#699=DIRECTION('',(0.,0.,1.));
#700=DIRECTION('',(1.,0.,0.));
#701=DIRECTION('',(0.,0.,-1.));
#702=DIRECTION('',(-1.,0.,0.));
#703=DIRECTION('',(0.,0.,1.));
#704=DIRECTION('',(1.,0.,0.));
#705=DIRECTION('',(0.,0.,-1.));
#706=DIRECTION('',(-1.,0.,0.));
#707=DIRECTION('',(0.,0.,1.));
#708=DIRECTION('',(1.,0.,0.));
#709=DIRECTION('',(0.,0.,1.));
#710=DIRECTION('',(1.,0.,0.));
#711=DIRECTION('',(0.,0.,1.));
#712=DIRECTION('',(1.,0.,0.));
#713=DIRECTION('',(0.,0.,1.));
#714=DIRECTION('',(1.,0.,0.));
#715=DIRECTION('',(0.,0.,1.));
#716=DIRECTION('',(1.,0.,0.));
#717=DIRECTION('',(0.,0.,1.));
#718=DIRECTION('',(1.,0.,0.));
#719=DIRECTION('',(0.,0.,1.));
#720=DIRECTION('',(1.,0.,0.));
#721=DIRECTION('',(0.,0.,1.));
#722=DIRECTION('',(1.,0.,0.));
#723=DIRECTION('',(0.,0.,-1.));
#724=DIRECTION('',(-1.,0.,0.));
#725=DIRECTION('',(0.,0.,1.));
#726=DIRECTION('',(1.,0.,0.));
#727=DIRECTION('',(0.,0.,-1.));
#728=DIRECTION('',(-1.,0.,0.));
#729=DIRECTION('',(0.,0.,-1.));
#730=DIRECTION('',(-1.,0.,0.));
#731=DIRECTION('',(0.,0.,-1.));
#732=DIRECTION('',(-1.,0.,0.));
#733=DIRECTION('',(0.,0.,-1.));
#734=DIRECTION('',(-1.,0.,0.));
#735=DIRECTION('',(0.,0.,-1.));
#736=DIRECTION('',(-1.,0.,0.));
#737=DIRECTION('',(0.,0.,-1.));
#738=DIRECTION('',(-1.,0.,0.));
#739=DIRECTION('',(0.,0.,-1.));
#740=DIRECTION('',(-1.,0.,0.));
#741=DIRECTION('',(0.,0.,-1.));
#742=DIRECTION('',(-1.,0.,0.));
#743=DIRECTION('',(0.,0.,-1.));
#744=DIRECTION('',(-1.,0.,0.));
#745=DIRECTION('',(0.,0.,-1.));
#746=DIRECTION('',(-1.,0.,0.));
#747=DIRECTION('',(0.,0.,-1.));
#748=DIRECTION('',(1.,0.,0.));
#749=DIRECTION('',(1.,0.,0.));
#750=DIRECTION('',(0.,1.,0.));
#751=DIRECTION('',(-1.,0.,0.));
#752=DIRECTION('',(0.,0.,-1.));
#753=DIRECTION('',(-1.,0.,0.));
#754=DIRECTION('',(0.,-1.,0.));
#755=DIRECTION('',(0.,0.,-1.));
#756=DIRECTION('',(-1.,0.,0.));
#757=DIRECTION('',(0.,0.,-1.));
#758=DIRECTION('',(-1.,0.,0.));
#759=DIRECTION('',(0.,0.,-1.));
#760=DIRECTION('',(0.,0.,-1.));
#761=DIRECTION('',(0.,0.,-1.));
#762=DIRECTION('',(-1.,0.,0.));
#763=DIRECTION('',(1.,0.,0.));
#764=DIRECTION('',(0.,0.,-1.));
#765=DIRECTION('',(0.,-1.,0.));
#766=DIRECTION('',(0.,0.,-1.));
#767=DIRECTION('',(0.,0.,-1.));
#768=DIRECTION('',(-1.,0.,0.));
#769=DIRECTION('',(0.,0.,-1.));
#770=DIRECTION('',(0.,0.,-1.));
#771=DIRECTION('',(-1.,0.,0.));
#772=DIRECTION('',(0.,0.,-1.));
#773=DIRECTION('',(-1.,0.,0.));
#774=DIRECTION('',(0.,0.,1.));
#775=DIRECTION('',(-1.,0.,0.));
#776=DIRECTION('',(0.,0.,-1.));
#777=DIRECTION('',(0.,0.,1.));
#778=DIRECTION('',(-1.,0.,0.));
#779=DIRECTION('',(0.,0.,-1.));
#780=DIRECTION('',(1.,0.,0.));
#781=DIRECTION('',(0.,0.,-1.));
#782=DIRECTION('',(0.,-1.,0.));
#783=DIRECTION('',(0.,-1.,0.));
#784=DIRECTION('',(0.,0.,-1.));
#785=DIRECTION('',(0.,0.,-1.));
#786=DIRECTION('',(-1.,0.,0.));
#787=DIRECTION('',(0.,0.,1.));
#788=DIRECTION('',(-1.,0.,0.));
#789=DIRECTION('',(0.,0.,1.));
#790=DIRECTION('',(-1.,0.,0.));
#791=DIRECTION('',(0.,0.,-1.));
#792=DIRECTION('',(0.,0.,1.));
#793=DIRECTION('',(1.,0.,0.));
#794=DIRECTION('',(-1.,0.,0.));
#795=DIRECTION('',(-1.,0.,0.));
#796=DIRECTION('',(0.,1.,0.));
#797=DIRECTION('',(0.,0.,-1.));
#798=DIRECTION('',(1.,0.,0.));
#799=DIRECTION('',(-1.,0.,0.));
#800=DIRECTION('',(1.,0.,0.));
#801=DIRECTION('',(1.,0.,0.));
#802=DIRECTION('',(-1.,0.,0.));
#803=DIRECTION('',(0.,1.,0.));
#804=DIRECTION('',(0.,0.,1.));
#805=DIRECTION('',(1.,0.,0.));
#806=DIRECTION('',(0.,-1.,0.));
#807=DIRECTION('',(0.,0.,-1.));
#808=DIRECTION('',(-1.,0.,0.));
#809=DIRECTION('',(0.,1.,0.));
#810=DIRECTION('',(0.,0.,1.));
#811=DIRECTION('',(0.,0.,-1.));
#812=DIRECTION('',(0.,-1.,0.));
#813=DIRECTION('',(0.,0.,-1.));
#814=DIRECTION('',(0.,0.,-1.));
#815=DIRECTION('',(0.,0.,-1.));
#816=DIRECTION('',(1.,0.,0.));
#817=DIRECTION('',(1.,0.,0.));
#818=DIRECTION('',(0.,0.,-1.));
#819=DIRECTION('',(-1.,0.,0.));
#820=DIRECTION('',(0.,0.,1.));
#821=DIRECTION('',(1.,0.,0.));
#822=DIRECTION('',(0.,0.,-1.));
#823=DIRECTION('',(-1.,0.,0.));
#824=DIRECTION('',(0.,0.,1.));
#825=DIRECTION('',(1.,0.,0.));
#826=DIRECTION('',(0.,0.,-1.));
#827=DIRECTION('',(-1.,0.,0.));
#828=DIRECTION('',(0.,0.,1.));
#829=DIRECTION('',(1.,0.,0.));
#830=DIRECTION('',(0.,0.,-1.));
#831=DIRECTION('',(-1.,0.,0.));
#832=DIRECTION('',(0.,0.,1.));
#833=DIRECTION('',(-1.,0.,0.));
#834=DIRECTION('',(0.,0.,1.));
#835=DIRECTION('',(-1.,0.,0.));
#836=DIRECTION('',(0.,0.,1.));
#837=DIRECTION('',(1.,0.,0.));
#838=DIRECTION('',(0.,0.,-1.));
#839=CARTESIAN_POINT('',(0.,0.,0.));
#840=CARTESIAN_POINT('',(0.,0.,0.));
#841=CARTESIAN_POINT('',(0.,0.,-0.01));
#842=CARTESIAN_POINT('',(0.,0.066585,-0.01));
#843=CARTESIAN_POINT('',(0.,-0.066585,-0.01));
#844=CARTESIAN_POINT('',(0.,0.066585,0.0105));
#845=CARTESIAN_POINT('',(0.,0.066585,0.0105));
#846=CARTESIAN_POINT('',(0.,0.,0.0105));
#847=CARTESIAN_POINT('',(0.,0.062585,0.0105));
#848=CARTESIAN_POINT('',(0.,0.062585,0.0105));
#849=CARTESIAN_POINT('',(0.,0.062585,-0.001));
#850=CARTESIAN_POINT('',(0.,0.,-0.001));
#851=CARTESIAN_POINT('',(0.,-0.062585,-0.001));
#852=CARTESIAN_POINT('',(0.,-0.062585,0.0105));
#853=CARTESIAN_POINT('',(0.,-0.062585,0.0105));
#854=CARTESIAN_POINT('',(0.,0.,0.0105));
#855=CARTESIAN_POINT('',(0.,-0.066585,0.0105));
#856=CARTESIAN_POINT('',(0.,-0.066585,0.0105));
#857=CARTESIAN_POINT('',(0.,0.0277420382365722,-0.003));
#858=CARTESIAN_POINT('',(0.,0.0277420382365722,-0.00455));
#859=CARTESIAN_POINT('',(0.,-0.0249210274488062,-0.003));
#860=CARTESIAN_POINT('',(0.,-0.0249210274488062,-0.00455));
#861=CARTESIAN_POINT('',(0.,-0.0499308089988868,-0.003));
#862=CARTESIAN_POINT('',(0.,-0.0499308089988868,-0.00455));
#863=CARTESIAN_POINT('',(0.,0.,-0.003));
#864=CARTESIAN_POINT('',(0.,0.,-0.00455));
#865=CARTESIAN_POINT('',(0.,0.0501570301032488,-0.003));
#866=CARTESIAN_POINT('',(0.,0.0501570301032488,-0.00455));
#867=CARTESIAN_POINT('',(2.77555756156289E-17,0.,-0.005));
#868=CARTESIAN_POINT('',(-0.04149,-0.059015,-0.005));
#869=CARTESIAN_POINT('',(-0.040415,-0.059015,-0.005));
#870=CARTESIAN_POINT('',(2.77555756156289E-17,0.,-0.005));
#871=CARTESIAN_POINT('',(-0.16844,0.056425,-0.005));
#872=CARTESIAN_POINT('',(-0.16734,0.056425,-0.005));
#873=CARTESIAN_POINT('',(2.77555756156289E-17,0.,-0.005));
#874=CARTESIAN_POINT('',(-0.16964,-0.057265,-0.005));
#875=CARTESIAN_POINT('',(-0.168565,-0.057265,-0.005));
#876=CARTESIAN_POINT('',(-0.04149,-0.059015,0.));
#877=CARTESIAN_POINT('',(-0.04149,-0.059015,0.));
#878=CARTESIAN_POINT('',(-0.040415,-0.059015,0.));
#879=CARTESIAN_POINT('',(-0.16844,0.056425,0.));
#880=CARTESIAN_POINT('',(-0.16844,0.056425,0.));
#881=CARTESIAN_POINT('',(-0.16734,0.056425,0.));
#882=CARTESIAN_POINT('',(-0.16964,-0.057265,0.));
#883=CARTESIAN_POINT('',(-0.16964,-0.057265,0.));
#884=CARTESIAN_POINT('',(-0.168565,-0.057265,0.));
#885=CARTESIAN_POINT('',(2.77555756156289E-17,0.,0.));
#886=CARTESIAN_POINT('',(-0.04149,-0.059015,0.));
#887=CARTESIAN_POINT('',(-0.03949,-0.059015,0.));
#888=CARTESIAN_POINT('',(2.77555756156289E-17,0.,0.));
#889=CARTESIAN_POINT('',(-0.16844,0.056425,0.));
#890=CARTESIAN_POINT('',(-0.16644,0.056425,0.));
#891=CARTESIAN_POINT('',(2.77555756156289E-17,0.,0.));
#892=CARTESIAN_POINT('',(-0.16964,-0.057265,0.));
#893=CARTESIAN_POINT('',(-0.16764,-0.057265,0.));
#894=CARTESIAN_POINT('',(2.77555756156289E-17,0.,0.));
#895=CARTESIAN_POINT('',(-0.01387,0.057985,0.));
#896=CARTESIAN_POINT('',(-0.01497,0.057985,0.));
#897=CARTESIAN_POINT('',(-0.01387,0.057985,0.));
#898=CARTESIAN_POINT('',(-0.01187,0.057985,0.));
#899=CARTESIAN_POINT('',(-0.01387,0.057985,0.));
#900=CARTESIAN_POINT('',(-0.01387,0.057985,-0.005));
#901=CARTESIAN_POINT('',(-0.01587,0.057985,-0.005));
#902=CARTESIAN_POINT('',(-0.04149,-0.059015,0.));
#903=CARTESIAN_POINT('',(-0.04149,-0.059015,-0.005));
#904=CARTESIAN_POINT('',(-0.04349,-0.059015,-0.005));
#905=CARTESIAN_POINT('',(-0.16844,0.056425,0.));
#906=CARTESIAN_POINT('',(-0.16844,0.056425,-0.005));
#907=CARTESIAN_POINT('',(-0.17044,0.056425,-0.005));
#908=CARTESIAN_POINT('',(-0.16964,-0.057265,0.));
#909=CARTESIAN_POINT('',(-0.16964,-0.057265,-0.005));
#910=CARTESIAN_POINT('',(-0.17164,-0.057265,-0.005));
#911=CARTESIAN_POINT('',(-0.01387,0.057985,-0.005));
#912=CARTESIAN_POINT('',(-0.01387,0.057985,-0.01));
#913=CARTESIAN_POINT('',(-0.01497,0.057985,-0.01));
#914=CARTESIAN_POINT('',(2.77555756156289E-17,0.,-0.005));
#915=CARTESIAN_POINT('',(2.2509771824275E-14,-0.062585,-0.005));
#916=CARTESIAN_POINT('',(-0.170569999787,-0.062585,-0.005));
#917=CARTESIAN_POINT('',(-0.002,-0.062585,-0.005));
#918=CARTESIAN_POINT('',(-0.002,0.,-0.005));
#919=CARTESIAN_POINT('',(-0.002,0.062585,-0.005));
#920=CARTESIAN_POINT('',(2.2509771824275E-14,0.062585,-0.005));
#921=CARTESIAN_POINT('',(-0.170569999787,0.062585,-0.005));
#922=CARTESIAN_POINT('',(-0.170569999574,0.05858499957409,-0.005));
#923=CARTESIAN_POINT('',(-0.17457,0.0585849997870451,-0.005));
#924=CARTESIAN_POINT('',(-0.17457,4.16333634234433E-17,-0.005));
#925=CARTESIAN_POINT('',(-0.17456999999991,-0.058584999787045,-0.005));
#926=CARTESIAN_POINT('',(-0.170569999574,-0.05858499957409,-0.005));
#927=CARTESIAN_POINT('',(-0.170569999574,0.05858499957409,0.0105));
#928=CARTESIAN_POINT('',(-0.17457,0.0585849997870451,0.0105));
#929=CARTESIAN_POINT('',(-0.17457,0.0585849997870451,0.0105));
#930=CARTESIAN_POINT('',(-0.170569999787,0.062585,0.0105));
#931=CARTESIAN_POINT('',(-0.170569999787,0.062585,0.0105));
#932=CARTESIAN_POINT('',(-0.170569999574,0.05858499957409,0.0105));
#933=CARTESIAN_POINT('',(-0.17457,4.16333634234433E-17,0.0105));
#934=CARTESIAN_POINT('',(-0.17457,4.16333634234433E-17,0.0105));
#935=CARTESIAN_POINT('',(-0.17456999999991,-0.058584999787045,0.0105));
#936=CARTESIAN_POINT('',(-0.17456999999991,-0.058584999787045,0.0105));
#937=CARTESIAN_POINT('',(-0.170569999574,-0.05858499957409,0.0105));
#938=CARTESIAN_POINT('',(-0.170569999787,-0.062585,0.0105));
#939=CARTESIAN_POINT('',(-0.170569999787,-0.062585,0.0105));
#940=CARTESIAN_POINT('',(-0.170569999574,-0.05858499957409,0.0105));
#941=CARTESIAN_POINT('',(-0.170569999574,-0.05858499957409,0.0105));
#942=CARTESIAN_POINT('',(-0.170569999574,-0.05858499957409,-0.01));
#943=CARTESIAN_POINT('',(-0.17856999999991,-0.05858499957409,-0.01));
#944=CARTESIAN_POINT('',(-0.170569999574,-0.066585,-0.01));
#945=CARTESIAN_POINT('',(-0.170569999574,-0.066585,0.0105));
#946=CARTESIAN_POINT('',(-0.170569999574,-0.066585,0.0105));
#947=CARTESIAN_POINT('',(-0.170569999574,-0.05858499957409,0.0105));
#948=CARTESIAN_POINT('',(-0.17856999999991,-0.05858499957409,0.0105));
#949=CARTESIAN_POINT('',(-0.17856999999991,-0.05858499957409,0.0105));
#950=CARTESIAN_POINT('',(-0.17857,0.,0.0105));
#951=CARTESIAN_POINT('',(-0.17857,0.,-0.01));
#952=CARTESIAN_POINT('',(-0.17857,0.05858499957409,-0.01));
#953=CARTESIAN_POINT('',(-0.17857,0.,0.0105));
#954=CARTESIAN_POINT('',(-0.17857,0.05858499957409,0.0105));
#955=CARTESIAN_POINT('',(-0.17857,0.05858499957409,0.0105));
#956=CARTESIAN_POINT('',(-0.170569999574,0.05858499957409,0.0105));
#957=CARTESIAN_POINT('',(-0.170569999574,0.05858499957409,-0.01));
#958=CARTESIAN_POINT('',(-0.170569999574,0.066585,-0.01));
#959=CARTESIAN_POINT('',(-0.170569999574,0.05858499957409,0.0105));
#960=CARTESIAN_POINT('',(-0.170569999574,0.066585,0.0105));
#961=CARTESIAN_POINT('',(-0.170569999574,0.066585,0.0105));
#962=CARTESIAN_POINT('',(0.,0.,-0.001));
#963=CARTESIAN_POINT('',(0.,-0.062585,-0.001));
#964=CARTESIAN_POINT('',(-0.002,-0.062585,-0.001));
#965=CARTESIAN_POINT('',(0.,0.062585,-0.001));
#966=CARTESIAN_POINT('',(-0.002,0.062585,-0.001));
#967=CARTESIAN_POINT('',(-0.002,0.,-0.001));
#968=CARTESIAN_POINT('',(0.,0.,0.0105));
#969=CARTESIAN_POINT('',(4.50195436485501E-14,0.066585,0.0105));
#970=CARTESIAN_POINT('',(4.50195436485501E-14,-0.066585,0.0105));
#971=CARTESIAN_POINT('',(2.2509771824275E-14,-0.062585,0.0105));
#972=CARTESIAN_POINT('',(2.2509771824275E-14,0.062585,0.0105));
#973=CARTESIAN_POINT('',(4.50195436485501E-14,-0.066585,0.0105));
#974=CARTESIAN_POINT('',(4.50195436485501E-14,-0.066585,-0.01));
#975=CARTESIAN_POINT('',(4.50195436485501E-14,0.066585,0.0105));
#976=CARTESIAN_POINT('',(4.50195436485501E-14,0.066585,-0.01));
#977=CARTESIAN_POINT('',(2.2509771824275E-14,-0.062585,0.0105));
#978=CARTESIAN_POINT('',(-0.002,-0.062585,-0.001));
#979=CARTESIAN_POINT('',(2.2509771824275E-14,0.062585,0.0105));
#980=CARTESIAN_POINT('',(-0.002,0.062585,-0.001));
#981=CARTESIAN_POINT('',(2.77555756156289E-17,0.,-0.01));
#982=CARTESIAN_POINT('',(-0.003,0.0501570301032488,-0.003));
#983=CARTESIAN_POINT('',(-0.002,0.0501570301032488,-0.003));
#984=CARTESIAN_POINT('',(-0.002,0.0501570301032488,-0.00145));
#985=CARTESIAN_POINT('',(-0.003,0.0277420382365722,-0.003));
#986=CARTESIAN_POINT('',(-0.002,0.0277420382365722,-0.003));
#987=CARTESIAN_POINT('',(-0.002,0.0277420382365722,-0.00145));
#988=CARTESIAN_POINT('',(-0.003,0.,-0.003));
#989=CARTESIAN_POINT('',(-0.002,0.,-0.003));
#990=CARTESIAN_POINT('',(-0.002,0.,-0.00145));
#991=CARTESIAN_POINT('',(-0.003,-0.0249210274488062,-0.003));
#992=CARTESIAN_POINT('',(-0.002,-0.0249210274488062,-0.003));
#993=CARTESIAN_POINT('',(-0.002,-0.0249210274488062,-0.00145));
#994=CARTESIAN_POINT('',(-0.002,0.,-0.001));
#995=CARTESIAN_POINT('',(-0.002,-0.0499308089988868,-0.003));
#996=CARTESIAN_POINT('',(-0.002,-0.0499308089988868,-0.00145));
#997=CARTESIAN_POINT('',(-0.003,-0.0499308089988868,-0.003));
#998=MECHANICAL_DESIGN_GEOMETRIC_PRESENTATION_REPRESENTATION('',(#581),
#999);
#999=(
GEOMETRIC_REPRESENTATION_CONTEXT(3)
GLOBAL_UNCERTAINTY_ASSIGNED_CONTEXT((#1000))
GLOBAL_UNIT_ASSIGNED_CONTEXT((#1003,#1002,#1001))
REPRESENTATION_CONTEXT('Part 2410','TOP_LEVEL_ASSEMBLY_PART')
);
#1000=UNCERTAINTY_MEASURE_WITH_UNIT(LENGTH_MEASURE(1.E-8),#1003,
'DISTANCE_ACCURACY_VALUE','Maximum Tolerance applied to model');
#1001=(
NAMED_UNIT(*)
SI_UNIT($,.STERADIAN.)
SOLID_ANGLE_UNIT()
);
#1002=(
NAMED_UNIT(*)
PLANE_ANGLE_UNIT()
SI_UNIT($,.RADIAN.)
);
#1003=(
LENGTH_UNIT()
NAMED_UNIT(*)
SI_UNIT($,.METRE.)
);
#1004=PRODUCT_DEFINITION_SHAPE('','',#1005);
#1005=PRODUCT_DEFINITION('','',#1007,#1006);
#1006=PRODUCT_DEFINITION_CONTEXT('',#1013,'design');
#1007=PRODUCT_DEFINITION_FORMATION_WITH_SPECIFIED_SOURCE('','',#1009,
 .NOT_KNOWN.);
#1008=PRODUCT_RELATED_PRODUCT_CATEGORY('','',(#1009));
#1009=PRODUCT('Part 2410','Part 2410','Part 2410',(#1011));
#1010=PRODUCT_CATEGORY('','');
#1011=PRODUCT_CONTEXT('',#1013,'mechanical');
#1012=APPLICATION_PROTOCOL_DEFINITION('international standard',
'ap242_managed_model_based_3d_engineering',2020,#1013);
#1013=APPLICATION_CONTEXT('managed model based 3d engineering');
ENDSEC;
END-ISO-10303-21;
