ISO-10303-21;
HEADER;
/* Generated by software containing ST-Developer
 * from STEP Tools, Inc. (www.steptools.com) 
 */
/* OPTION: using custom renumber hook */

FILE_DESCRIPTION(
/* description */ ('STEP AP242 Edition 2',
'CAx-IF Rec.Pracs.---Representation and Presentation of Product Manufa
cturing Information (PMI)---4.0---2014-10-13',
'CAx-IF Rec.Pracs.---3D Tessellated Geometry---0.4---2014-09-14','2;1',
'CAx-IF Rec.Pracs.---User Defined Attributes---1.5---2016-08-15'),
/* implementation_level */ '2;1');

FILE_NAME(
/* name */ 'Part Studio 1 - Part 2412',
/* time_stamp */ '2026-09-08T12:43:00Z',
/* author */ (''),
/* organization */ (''),
/* preprocessor_version */ 'ST-DEVELOPER v20',
/* originating_system */ 'ONSHAPE BY PTC INC, 1.220',
/* authorisation */ '  ');

FILE_SCHEMA (('AP242_MANAGED_MODEL_BASED_3D_ENGINEERING_MIM_LF { 1 0 10303 442 3 1 4 }'));
ENDSEC;

DATA;
#10=SHAPE_REPRESENTATION_RELATIONSHIP('','',#812,#11);
#11=ADVANCED_BREP_SHAPE_REPRESENTATION('',(#810),#1340);
#12=LINE('',#1150,#75);
#13=LINE('',#1154,#76);
#14=LINE('',#1158,#77);
#15=LINE('',#1162,#78);
#16=LINE('',#1163,#79);
#17=LINE('',#1166,#80);
#18=LINE('',#1168,#81);
#19=LINE('',#1172,#82);
#20=LINE('',#1176,#83);
#21=LINE('',#1178,#84);
#22=LINE('',#1180,#85);
#23=LINE('',#1182,#86);
#24=LINE('',#1184,#87);
#25=LINE('',#1186,#88);
#26=LINE('',#1188,#89);
#27=LINE('',#1190,#90);
#28=LINE('',#1192,#91);
#29=LINE('',#1194,#92);
#30=LINE('',#1198,#93);
#31=LINE('',#1200,#94);
#32=LINE('',#1202,#95);
#33=LINE('',#1206,#96);
#34=LINE('',#1208,#97);
#35=LINE('',#1210,#98);
#36=LINE('',#1214,#99);
#37=LINE('',#1216,#100);
#38=LINE('',#1218,#101);
#39=LINE('',#1243,#102);
#40=LINE('',#1245,#103);
#41=LINE('',#1247,#104);
#42=LINE('',#1249,#105);
#43=LINE('',#1251,#106);
#44=LINE('',#1253,#107);
#45=LINE('',#1255,#108);
#46=LINE('',#1257,#109);
#47=LINE('',#1259,#110);
#48=LINE('',#1261,#111);
#49=LINE('',#1265,#112);
#50=LINE('',#1267,#113);
#51=LINE('',#1269,#114);
#52=LINE('',#1273,#115);
#53=LINE('',#1275,#116);
#54=LINE('',#1278,#117);
#55=LINE('',#1280,#118);
#56=LINE('',#1282,#119);
#57=LINE('',#1284,#120);
#58=LINE('',#1287,#121);
#59=LINE('',#1288,#122);
#60=LINE('',#1290,#123);
#61=LINE('',#1292,#124);
#62=LINE('',#1293,#125);
#63=LINE('',#1295,#126);
#64=LINE('',#1296,#127);
#65=LINE('',#1298,#128);
#66=LINE('',#1301,#129);
#67=LINE('',#1303,#130);
#68=LINE('',#1305,#131);
#69=LINE('',#1307,#132);
#70=LINE('',#1308,#133);
#71=LINE('',#1310,#134);
#72=LINE('',#1311,#135);
#73=LINE('',#1313,#136);
#74=LINE('',#1314,#137);
#75=VECTOR('',#930,1.);
#76=VECTOR('',#933,1.);
#77=VECTOR('',#936,1.);
#78=VECTOR('',#939,1.);
#79=VECTOR('',#940,1.);
#80=VECTOR('',#941,1.);
#81=VECTOR('',#942,1.);
#82=VECTOR('',#945,1.);
#83=VECTOR('',#948,1.);
#84=VECTOR('',#949,1.);
#85=VECTOR('',#950,1.);
#86=VECTOR('',#951,1.);
#87=VECTOR('',#952,1.);
#88=VECTOR('',#953,1.);
#89=VECTOR('',#954,1.);
#90=VECTOR('',#957,1.);
#91=VECTOR('',#958,1.);
#92=VECTOR('',#959,1.);
#93=VECTOR('',#964,1.);
#94=VECTOR('',#967,1.);
#95=VECTOR('',#968,1.);
#96=VECTOR('',#973,1.);
#97=VECTOR('',#976,1.);
#98=VECTOR('',#977,1.);
#99=VECTOR('',#982,1.);
#100=VECTOR('',#985,1.);
#101=VECTOR('',#986,1.);
#102=VECTOR('',#1021,1.);
#103=VECTOR('',#1022,1.);
#104=VECTOR('',#1023,1.);
#105=VECTOR('',#1026,1.);
#106=VECTOR('',#1027,1.);
#107=VECTOR('',#1030,1.);
#108=VECTOR('',#1031,1.);
#109=VECTOR('',#1034,1.);
#110=VECTOR('',#1035,1.);
#111=VECTOR('',#1038,1.);
#112=VECTOR('',#1041,1.);
#113=VECTOR('',#1044,1.);
#114=VECTOR('',#1045,1.);
#115=VECTOR('',#1050,1.);
#116=VECTOR('',#1053,1.);
#117=VECTOR('',#1054,1.);
#118=VECTOR('',#1055,1.);
#119=VECTOR('',#1056,1.);
#120=VECTOR('',#1059,1.);
#121=VECTOR('',#1060,1.);
#122=VECTOR('',#1061,1.);
#123=VECTOR('',#1062,1.);
#124=VECTOR('',#1063,1.);
#125=VECTOR('',#1064,1.);
#126=VECTOR('',#1067,1.);
#127=VECTOR('',#1068,1.);
#128=VECTOR('',#1071,1.);
#129=VECTOR('',#1072,1.);
#130=VECTOR('',#1073,1.);
#131=VECTOR('',#1074,1.);
#132=VECTOR('',#1077,1.);
#133=VECTOR('',#1078,1.);
#134=VECTOR('',#1081,1.);
#135=VECTOR('',#1082,1.);
#136=VECTOR('',#1085,1.);
#137=VECTOR('',#1086,1.);
#138=PLANE('',#820);
#139=PLANE('',#822);
#140=PLANE('',#824);
#141=PLANE('',#836);
#142=PLANE('',#839);
#143=PLANE('',#842);
#144=PLANE('',#845);
#145=PLANE('',#862);
#146=PLANE('',#863);
#147=PLANE('',#864);
#148=PLANE('',#865);
#149=PLANE('',#868);
#150=PLANE('',#871);
#151=PLANE('',#872);
#152=PLANE('',#873);
#153=PLANE('',#874);
#154=PLANE('',#875);
#155=PLANE('',#876);
#156=PLANE('',#877);
#157=PLANE('',#878);
#158=PLANE('',#888);
#159=PLANE('',#892);
#160=PLANE('',#893);
#161=ORIENTED_EDGE('',*,*,#363,.F.);
#162=ORIENTED_EDGE('',*,*,#364,.T.);
#163=ORIENTED_EDGE('',*,*,#365,.F.);
#164=ORIENTED_EDGE('',*,*,#366,.T.);
#165=ORIENTED_EDGE('',*,*,#367,.F.);
#166=ORIENTED_EDGE('',*,*,#363,.T.);
#167=ORIENTED_EDGE('',*,*,#368,.F.);
#168=ORIENTED_EDGE('',*,*,#365,.T.);
#169=ORIENTED_EDGE('',*,*,#366,.F.);
#170=ORIENTED_EDGE('',*,*,#364,.F.);
#171=ORIENTED_EDGE('',*,*,#369,.T.);
#172=ORIENTED_EDGE('',*,*,#370,.T.);
#173=ORIENTED_EDGE('',*,*,#371,.T.);
#174=ORIENTED_EDGE('',*,*,#372,.T.);
#175=ORIENTED_EDGE('',*,*,#373,.T.);
#176=ORIENTED_EDGE('',*,*,#374,.T.);
#177=ORIENTED_EDGE('',*,*,#375,.T.);
#178=ORIENTED_EDGE('',*,*,#376,.T.);
#179=ORIENTED_EDGE('',*,*,#377,.T.);
#180=ORIENTED_EDGE('',*,*,#378,.T.);
#181=ORIENTED_EDGE('',*,*,#379,.T.);
#182=ORIENTED_EDGE('',*,*,#380,.T.);
#183=ORIENTED_EDGE('',*,*,#381,.T.);
#184=ORIENTED_EDGE('',*,*,#382,.T.);
#185=ORIENTED_EDGE('',*,*,#383,.T.);
#186=ORIENTED_EDGE('',*,*,#384,.F.);
#187=ORIENTED_EDGE('',*,*,#385,.F.);
#188=ORIENTED_EDGE('',*,*,#386,.F.);
#189=ORIENTED_EDGE('',*,*,#387,.F.);
#190=ORIENTED_EDGE('',*,*,#388,.F.);
#191=ORIENTED_EDGE('',*,*,#389,.T.);
#192=ORIENTED_EDGE('',*,*,#390,.T.);
#193=ORIENTED_EDGE('',*,*,#391,.T.);
#194=ORIENTED_EDGE('',*,*,#392,.F.);
#195=ORIENTED_EDGE('',*,*,#393,.F.);
#196=ORIENTED_EDGE('',*,*,#394,.F.);
#197=ORIENTED_EDGE('',*,*,#375,.F.);
#198=ORIENTED_EDGE('',*,*,#395,.F.);
#199=ORIENTED_EDGE('',*,*,#396,.T.);
#200=ORIENTED_EDGE('',*,*,#397,.T.);
#201=ORIENTED_EDGE('',*,*,#376,.F.);
#202=ORIENTED_EDGE('',*,*,#397,.F.);
#203=ORIENTED_EDGE('',*,*,#398,.T.);
#204=ORIENTED_EDGE('',*,*,#399,.T.);
#205=ORIENTED_EDGE('',*,*,#377,.F.);
#206=ORIENTED_EDGE('',*,*,#399,.F.);
#207=ORIENTED_EDGE('',*,*,#400,.T.);
#208=ORIENTED_EDGE('',*,*,#401,.T.);
#209=ORIENTED_EDGE('',*,*,#378,.F.);
#210=ORIENTED_EDGE('',*,*,#401,.F.);
#211=ORIENTED_EDGE('',*,*,#402,.T.);
#212=ORIENTED_EDGE('',*,*,#403,.T.);
#213=ORIENTED_EDGE('',*,*,#379,.F.);
#214=ORIENTED_EDGE('',*,*,#403,.F.);
#215=ORIENTED_EDGE('',*,*,#404,.T.);
#216=ORIENTED_EDGE('',*,*,#405,.T.);
#217=ORIENTED_EDGE('',*,*,#380,.F.);
#218=ORIENTED_EDGE('',*,*,#405,.F.);
#219=ORIENTED_EDGE('',*,*,#406,.T.);
#220=ORIENTED_EDGE('',*,*,#407,.T.);
#221=ORIENTED_EDGE('',*,*,#381,.F.);
#222=ORIENTED_EDGE('',*,*,#407,.F.);
#223=ORIENTED_EDGE('',*,*,#408,.T.);
#224=ORIENTED_EDGE('',*,*,#409,.T.);
#225=ORIENTED_EDGE('',*,*,#374,.F.);
#226=ORIENTED_EDGE('',*,*,#409,.F.);
#227=ORIENTED_EDGE('',*,*,#410,.T.);
#228=ORIENTED_EDGE('',*,*,#395,.T.);
#229=ORIENTED_EDGE('',*,*,#411,.T.);
#230=ORIENTED_EDGE('',*,*,#373,.F.);
#231=ORIENTED_EDGE('',*,*,#412,.T.);
#232=ORIENTED_EDGE('',*,*,#372,.F.);
#233=ORIENTED_EDGE('',*,*,#413,.T.);
#234=ORIENTED_EDGE('',*,*,#371,.F.);
#235=ORIENTED_EDGE('',*,*,#414,.T.);
#236=ORIENTED_EDGE('',*,*,#370,.F.);
#237=ORIENTED_EDGE('',*,*,#415,.T.);
#238=ORIENTED_EDGE('',*,*,#369,.F.);
#239=ORIENTED_EDGE('',*,*,#416,.T.);
#240=ORIENTED_EDGE('',*,*,#367,.T.);
#241=ORIENTED_EDGE('',*,*,#417,.T.);
#242=ORIENTED_EDGE('',*,*,#368,.T.);
#243=ORIENTED_EDGE('',*,*,#391,.F.);
#244=ORIENTED_EDGE('',*,*,#418,.F.);
#245=ORIENTED_EDGE('',*,*,#419,.T.);
#246=ORIENTED_EDGE('',*,*,#420,.T.);
#247=ORIENTED_EDGE('',*,*,#392,.T.);
#248=ORIENTED_EDGE('',*,*,#420,.F.);
#249=ORIENTED_EDGE('',*,*,#421,.F.);
#250=ORIENTED_EDGE('',*,*,#422,.T.);
#251=ORIENTED_EDGE('',*,*,#393,.T.);
#252=ORIENTED_EDGE('',*,*,#422,.F.);
#253=ORIENTED_EDGE('',*,*,#423,.F.);
#254=ORIENTED_EDGE('',*,*,#424,.T.);
#255=ORIENTED_EDGE('',*,*,#394,.T.);
#256=ORIENTED_EDGE('',*,*,#424,.F.);
#257=ORIENTED_EDGE('',*,*,#425,.F.);
#258=ORIENTED_EDGE('',*,*,#426,.T.);
#259=ORIENTED_EDGE('',*,*,#385,.T.);
#260=ORIENTED_EDGE('',*,*,#427,.F.);
#261=ORIENTED_EDGE('',*,*,#428,.F.);
#262=ORIENTED_EDGE('',*,*,#429,.T.);
#263=ORIENTED_EDGE('',*,*,#386,.T.);
#264=ORIENTED_EDGE('',*,*,#429,.F.);
#265=ORIENTED_EDGE('',*,*,#430,.F.);
#266=ORIENTED_EDGE('',*,*,#431,.T.);
#267=ORIENTED_EDGE('',*,*,#387,.T.);
#268=ORIENTED_EDGE('',*,*,#431,.F.);
#269=ORIENTED_EDGE('',*,*,#432,.F.);
#270=ORIENTED_EDGE('',*,*,#433,.T.);
#271=ORIENTED_EDGE('',*,*,#434,.F.);
#272=ORIENTED_EDGE('',*,*,#435,.F.);
#273=ORIENTED_EDGE('',*,*,#436,.F.);
#274=ORIENTED_EDGE('',*,*,#437,.T.);
#275=ORIENTED_EDGE('',*,*,#438,.F.);
#276=ORIENTED_EDGE('',*,*,#439,.T.);
#277=ORIENTED_EDGE('',*,*,#432,.T.);
#278=ORIENTED_EDGE('',*,*,#430,.T.);
#279=ORIENTED_EDGE('',*,*,#428,.T.);
#280=ORIENTED_EDGE('',*,*,#440,.T.);
#281=ORIENTED_EDGE('',*,*,#441,.F.);
#282=ORIENTED_EDGE('',*,*,#442,.F.);
#283=ORIENTED_EDGE('',*,*,#425,.T.);
#284=ORIENTED_EDGE('',*,*,#423,.T.);
#285=ORIENTED_EDGE('',*,*,#421,.T.);
#286=ORIENTED_EDGE('',*,*,#419,.F.);
#287=ORIENTED_EDGE('',*,*,#443,.F.);
#288=ORIENTED_EDGE('',*,*,#417,.F.);
#289=ORIENTED_EDGE('',*,*,#416,.F.);
#290=ORIENTED_EDGE('',*,*,#415,.F.);
#291=ORIENTED_EDGE('',*,*,#414,.F.);
#292=ORIENTED_EDGE('',*,*,#413,.F.);
#293=ORIENTED_EDGE('',*,*,#412,.F.);
#294=ORIENTED_EDGE('',*,*,#411,.F.);
#295=ORIENTED_EDGE('',*,*,#410,.F.);
#296=ORIENTED_EDGE('',*,*,#408,.F.);
#297=ORIENTED_EDGE('',*,*,#406,.F.);
#298=ORIENTED_EDGE('',*,*,#404,.F.);
#299=ORIENTED_EDGE('',*,*,#402,.F.);
#300=ORIENTED_EDGE('',*,*,#400,.F.);
#301=ORIENTED_EDGE('',*,*,#398,.F.);
#302=ORIENTED_EDGE('',*,*,#396,.F.);
#303=ORIENTED_EDGE('',*,*,#439,.F.);
#304=ORIENTED_EDGE('',*,*,#444,.T.);
#305=ORIENTED_EDGE('',*,*,#437,.F.);
#306=ORIENTED_EDGE('',*,*,#445,.T.);
#307=ORIENTED_EDGE('',*,*,#388,.T.);
#308=ORIENTED_EDGE('',*,*,#433,.F.);
#309=ORIENTED_EDGE('',*,*,#446,.F.);
#310=ORIENTED_EDGE('',*,*,#447,.F.);
#311=ORIENTED_EDGE('',*,*,#448,.F.);
#312=ORIENTED_EDGE('',*,*,#449,.F.);
#313=ORIENTED_EDGE('',*,*,#447,.T.);
#314=ORIENTED_EDGE('',*,*,#450,.T.);
#315=ORIENTED_EDGE('',*,*,#440,.F.);
#316=ORIENTED_EDGE('',*,*,#427,.T.);
#317=ORIENTED_EDGE('',*,*,#384,.T.);
#318=ORIENTED_EDGE('',*,*,#451,.F.);
#319=ORIENTED_EDGE('',*,*,#452,.F.);
#320=ORIENTED_EDGE('',*,*,#443,.T.);
#321=ORIENTED_EDGE('',*,*,#418,.T.);
#322=ORIENTED_EDGE('',*,*,#390,.F.);
#323=ORIENTED_EDGE('',*,*,#453,.F.);
#324=ORIENTED_EDGE('',*,*,#435,.T.);
#325=ORIENTED_EDGE('',*,*,#454,.F.);
#326=ORIENTED_EDGE('',*,*,#449,.T.);
#327=ORIENTED_EDGE('',*,*,#455,.T.);
#328=ORIENTED_EDGE('',*,*,#382,.F.);
#329=ORIENTED_EDGE('',*,*,#426,.F.);
#330=ORIENTED_EDGE('',*,*,#442,.T.);
#331=ORIENTED_EDGE('',*,*,#456,.F.);
#332=ORIENTED_EDGE('',*,*,#389,.F.);
#333=ORIENTED_EDGE('',*,*,#445,.F.);
#334=ORIENTED_EDGE('',*,*,#436,.T.);
#335=ORIENTED_EDGE('',*,*,#453,.T.);
#336=ORIENTED_EDGE('',*,*,#457,.T.);
#337=ORIENTED_EDGE('',*,*,#456,.T.);
#338=ORIENTED_EDGE('',*,*,#458,.T.);
#339=ORIENTED_EDGE('',*,*,#459,.T.);
#340=ORIENTED_EDGE('',*,*,#460,.T.);
#341=ORIENTED_EDGE('',*,*,#461,.T.);
#342=ORIENTED_EDGE('',*,*,#462,.F.);
#343=ORIENTED_EDGE('',*,*,#461,.F.);
#344=ORIENTED_EDGE('',*,*,#459,.F.);
#345=ORIENTED_EDGE('',*,*,#383,.F.);
#346=ORIENTED_EDGE('',*,*,#455,.F.);
#347=ORIENTED_EDGE('',*,*,#448,.T.);
#348=ORIENTED_EDGE('',*,*,#451,.T.);
#349=ORIENTED_EDGE('',*,*,#463,.T.);
#350=ORIENTED_EDGE('',*,*,#462,.T.);
#351=ORIENTED_EDGE('',*,*,#438,.T.);
#352=ORIENTED_EDGE('',*,*,#452,.T.);
#353=ORIENTED_EDGE('',*,*,#434,.T.);
#354=ORIENTED_EDGE('',*,*,#444,.F.);
#355=ORIENTED_EDGE('',*,*,#457,.F.);
#356=ORIENTED_EDGE('',*,*,#441,.T.);
#357=ORIENTED_EDGE('',*,*,#450,.F.);
#358=ORIENTED_EDGE('',*,*,#446,.T.);
#359=ORIENTED_EDGE('',*,*,#454,.T.);
#360=ORIENTED_EDGE('',*,*,#460,.F.);
#361=ORIENTED_EDGE('',*,*,#463,.F.);
#362=ORIENTED_EDGE('',*,*,#458,.F.);
#363=EDGE_CURVE('',#464,#464,#540,.T.);
#364=EDGE_CURVE('',#465,#465,#541,.F.);
#365=EDGE_CURVE('',#466,#466,#542,.T.);
#366=EDGE_CURVE('',#467,#467,#543,.F.);
#367=EDGE_CURVE('',#468,#468,#544,.T.);
#368=EDGE_CURVE('',#469,#469,#545,.T.);
#369=EDGE_CURVE('',#470,#470,#546,.T.);
#370=EDGE_CURVE('',#471,#471,#547,.T.);
#371=EDGE_CURVE('',#472,#472,#548,.T.);
#372=EDGE_CURVE('',#473,#473,#549,.T.);
#373=EDGE_CURVE('',#474,#474,#550,.T.);
#374=EDGE_CURVE('',#475,#476,#551,.T.);
#375=EDGE_CURVE('',#476,#477,#12,.T.);
#376=EDGE_CURVE('',#477,#478,#552,.T.);
#377=EDGE_CURVE('',#478,#479,#13,.T.);
#378=EDGE_CURVE('',#479,#480,#553,.T.);
#379=EDGE_CURVE('',#480,#481,#14,.T.);
#380=EDGE_CURVE('',#481,#482,#554,.T.);
#381=EDGE_CURVE('',#482,#475,#15,.T.);
#382=EDGE_CURVE('',#483,#484,#16,.T.);
#383=EDGE_CURVE('',#484,#485,#17,.T.);
#384=EDGE_CURVE('',#486,#485,#18,.T.);
#385=EDGE_CURVE('',#487,#486,#555,.T.);
#386=EDGE_CURVE('',#488,#487,#19,.T.);
#387=EDGE_CURVE('',#489,#488,#556,.T.);
#388=EDGE_CURVE('',#490,#489,#20,.T.);
#389=EDGE_CURVE('',#490,#491,#21,.T.);
#390=EDGE_CURVE('',#491,#492,#22,.T.);
#391=EDGE_CURVE('',#492,#493,#23,.T.);
#392=EDGE_CURVE('',#494,#493,#24,.T.);
#393=EDGE_CURVE('',#495,#494,#25,.T.);
#394=EDGE_CURVE('',#483,#495,#26,.T.);
#395=EDGE_CURVE('',#496,#476,#27,.T.);
#396=EDGE_CURVE('',#496,#497,#28,.T.);
#397=EDGE_CURVE('',#497,#477,#29,.T.);
#398=EDGE_CURVE('',#497,#498,#557,.T.);
#399=EDGE_CURVE('',#498,#478,#30,.T.);
#400=EDGE_CURVE('',#498,#499,#31,.T.);
#401=EDGE_CURVE('',#499,#479,#32,.T.);
#402=EDGE_CURVE('',#499,#500,#558,.T.);
#403=EDGE_CURVE('',#500,#480,#33,.T.);
#404=EDGE_CURVE('',#500,#501,#34,.T.);
#405=EDGE_CURVE('',#501,#481,#35,.T.);
#406=EDGE_CURVE('',#501,#502,#559,.T.);
#407=EDGE_CURVE('',#502,#482,#36,.T.);
#408=EDGE_CURVE('',#502,#503,#37,.T.);
#409=EDGE_CURVE('',#503,#475,#38,.T.);
#410=EDGE_CURVE('',#503,#496,#560,.T.);
#411=EDGE_CURVE('',#504,#504,#561,.T.);
#412=EDGE_CURVE('',#505,#505,#562,.T.);
#413=EDGE_CURVE('',#506,#506,#563,.T.);
#414=EDGE_CURVE('',#507,#507,#564,.T.);
#415=EDGE_CURVE('',#508,#508,#565,.T.);
#416=EDGE_CURVE('',#509,#509,#566,.T.);
#417=EDGE_CURVE('',#510,#510,#567,.T.);
#418=EDGE_CURVE('',#511,#492,#39,.T.);
#419=EDGE_CURVE('',#511,#512,#40,.T.);
#420=EDGE_CURVE('',#512,#493,#41,.T.);
#421=EDGE_CURVE('',#513,#512,#42,.T.);
#422=EDGE_CURVE('',#513,#494,#43,.T.);
#423=EDGE_CURVE('',#514,#513,#44,.T.);
#424=EDGE_CURVE('',#514,#495,#45,.T.);
#425=EDGE_CURVE('',#515,#514,#46,.T.);
#426=EDGE_CURVE('',#515,#483,#47,.T.);
#427=EDGE_CURVE('',#516,#486,#48,.T.);
#428=EDGE_CURVE('',#517,#516,#568,.T.);
#429=EDGE_CURVE('',#517,#487,#49,.T.);
#430=EDGE_CURVE('',#518,#517,#50,.T.);
#431=EDGE_CURVE('',#518,#488,#51,.T.);
#432=EDGE_CURVE('',#519,#518,#569,.T.);
#433=EDGE_CURVE('',#519,#489,#52,.T.);
#434=EDGE_CURVE('',#520,#521,#53,.T.);
#435=EDGE_CURVE('',#522,#520,#54,.T.);
#436=EDGE_CURVE('',#523,#522,#55,.T.);
#437=EDGE_CURVE('',#523,#521,#56,.T.);
#438=EDGE_CURVE('',#524,#525,#57,.T.);
#439=EDGE_CURVE('',#524,#519,#58,.T.);
#440=EDGE_CURVE('',#516,#526,#59,.T.);
#441=EDGE_CURVE('',#527,#526,#60,.T.);
#442=EDGE_CURVE('',#515,#527,#61,.T.);
#443=EDGE_CURVE('',#525,#511,#62,.T.);
#444=EDGE_CURVE('',#524,#521,#63,.T.);
#445=EDGE_CURVE('',#523,#490,#64,.T.);
#446=EDGE_CURVE('',#528,#529,#65,.T.);
#447=EDGE_CURVE('',#530,#528,#66,.T.);
#448=EDGE_CURVE('',#531,#530,#67,.T.);
#449=EDGE_CURVE('',#529,#531,#68,.T.);
#450=EDGE_CURVE('',#528,#526,#69,.T.);
#451=EDGE_CURVE('',#530,#485,#70,.T.);
#452=EDGE_CURVE('',#525,#520,#71,.T.);
#453=EDGE_CURVE('',#522,#491,#72,.T.);
#454=EDGE_CURVE('',#529,#527,#73,.T.);
#455=EDGE_CURVE('',#531,#484,#74,.T.);
#456=EDGE_CURVE('',#532,#532,#570,.T.);
#457=EDGE_CURVE('',#533,#533,#571,.F.);
#458=EDGE_CURVE('',#534,#534,#572,.F.);
#459=EDGE_CURVE('',#535,#535,#573,.T.);
#460=EDGE_CURVE('',#536,#536,#574,.F.);
#461=EDGE_CURVE('',#537,#537,#575,.T.);
#462=EDGE_CURVE('',#538,#538,#576,.T.);
#463=EDGE_CURVE('',#539,#539,#577,.F.);
#464=VERTEX_POINT('',#1122);
#465=VERTEX_POINT('',#1124);
#466=VERTEX_POINT('',#1127);
#467=VERTEX_POINT('',#1129);
#468=VERTEX_POINT('',#1132);
#469=VERTEX_POINT('',#1135);
#470=VERTEX_POINT('',#1138);
#471=VERTEX_POINT('',#1140);
#472=VERTEX_POINT('',#1142);
#473=VERTEX_POINT('',#1144);
#474=VERTEX_POINT('',#1146);
#475=VERTEX_POINT('',#1148);
#476=VERTEX_POINT('',#1149);
#477=VERTEX_POINT('',#1151);
#478=VERTEX_POINT('',#1153);
#479=VERTEX_POINT('',#1155);
#480=VERTEX_POINT('',#1157);
#481=VERTEX_POINT('',#1159);
#482=VERTEX_POINT('',#1161);
#483=VERTEX_POINT('',#1164);
#484=VERTEX_POINT('',#1165);
#485=VERTEX_POINT('',#1167);
#486=VERTEX_POINT('',#1169);
#487=VERTEX_POINT('',#1171);
#488=VERTEX_POINT('',#1173);
#489=VERTEX_POINT('',#1175);
#490=VERTEX_POINT('',#1177);
#491=VERTEX_POINT('',#1179);
#492=VERTEX_POINT('',#1181);
#493=VERTEX_POINT('',#1183);
#494=VERTEX_POINT('',#1185);
#495=VERTEX_POINT('',#1187);
#496=VERTEX_POINT('',#1191);
#497=VERTEX_POINT('',#1193);
#498=VERTEX_POINT('',#1197);
#499=VERTEX_POINT('',#1201);
#500=VERTEX_POINT('',#1205);
#501=VERTEX_POINT('',#1209);
#502=VERTEX_POINT('',#1213);
#503=VERTEX_POINT('',#1217);
#504=VERTEX_POINT('',#1223);
#505=VERTEX_POINT('',#1226);
#506=VERTEX_POINT('',#1229);
#507=VERTEX_POINT('',#1232);
#508=VERTEX_POINT('',#1235);
#509=VERTEX_POINT('',#1238);
#510=VERTEX_POINT('',#1241);
#511=VERTEX_POINT('',#1244);
#512=VERTEX_POINT('',#1246);
#513=VERTEX_POINT('',#1250);
#514=VERTEX_POINT('',#1254);
#515=VERTEX_POINT('',#1258);
#516=VERTEX_POINT('',#1262);
#517=VERTEX_POINT('',#1264);
#518=VERTEX_POINT('',#1268);
#519=VERTEX_POINT('',#1272);
#520=VERTEX_POINT('',#1276);
#521=VERTEX_POINT('',#1277);
#522=VERTEX_POINT('',#1279);
#523=VERTEX_POINT('',#1281);
#524=VERTEX_POINT('',#1285);
#525=VERTEX_POINT('',#1286);
#526=VERTEX_POINT('',#1289);
#527=VERTEX_POINT('',#1291);
#528=VERTEX_POINT('',#1299);
#529=VERTEX_POINT('',#1300);
#530=VERTEX_POINT('',#1302);
#531=VERTEX_POINT('',#1304);
#532=VERTEX_POINT('',#1317);
#533=VERTEX_POINT('',#1320);
#534=VERTEX_POINT('',#1323);
#535=VERTEX_POINT('',#1325);
#536=VERTEX_POINT('',#1328);
#537=VERTEX_POINT('',#1330);
#538=VERTEX_POINT('',#1333);
#539=VERTEX_POINT('',#1336);
#540=CIRCLE('',#815,0.002);
#541=CIRCLE('',#816,0.002);
#542=CIRCLE('',#818,0.002);
#543=CIRCLE('',#819,0.002);
#544=CIRCLE('',#821,0.0011);
#545=CIRCLE('',#823,0.0011);
#546=CIRCLE('',#825,0.0015);
#547=CIRCLE('',#826,0.0015);
#548=CIRCLE('',#827,0.0015);
#549=CIRCLE('',#828,0.0015);
#550=CIRCLE('',#829,0.0034);
#551=CIRCLE('',#830,0.000500000000000024);
#552=CIRCLE('',#831,0.0005);
#553=CIRCLE('',#832,0.0005);
#554=CIRCLE('',#833,0.000500000000000025);
#555=CIRCLE('',#834,0.00400000042591001);
#556=CIRCLE('',#835,0.00400000042590999);
#557=CIRCLE('',#838,0.0005);
#558=CIRCLE('',#841,0.0005);
#559=CIRCLE('',#844,0.000500000000000025);
#560=CIRCLE('',#847,0.000500000000000024);
#561=CIRCLE('',#849,0.0034);
#562=CIRCLE('',#851,0.0015);
#563=CIRCLE('',#853,0.0015);
#564=CIRCLE('',#855,0.0015);
#565=CIRCLE('',#857,0.0015);
#566=CIRCLE('',#859,0.0011);
#567=CIRCLE('',#861,0.0011);
#568=CIRCLE('',#867,0.00400000042591001);
#569=CIRCLE('',#870,0.00400000042590999);
#570=CIRCLE('',#879,0.00155);
#571=CIRCLE('',#881,0.00155);
#572=CIRCLE('',#883,0.00155);
#573=CIRCLE('',#884,0.00155);
#574=CIRCLE('',#886,0.00155);
#575=CIRCLE('',#887,0.00155);
#576=CIRCLE('',#889,0.00155);
#577=CIRCLE('',#891,0.00155);
#578=EDGE_LOOP('',(#161));
#579=EDGE_LOOP('',(#162));
#580=EDGE_LOOP('',(#163));
#581=EDGE_LOOP('',(#164));
#582=EDGE_LOOP('',(#165));
#583=EDGE_LOOP('',(#166));
#584=EDGE_LOOP('',(#167));
#585=EDGE_LOOP('',(#168));
#586=EDGE_LOOP('',(#169));
#587=EDGE_LOOP('',(#170));
#588=EDGE_LOOP('',(#171));
#589=EDGE_LOOP('',(#172));
#590=EDGE_LOOP('',(#173));
#591=EDGE_LOOP('',(#174));
#592=EDGE_LOOP('',(#175));
#593=EDGE_LOOP('',(#176,#177,#178,#179,#180,#181,#182,#183));
#594=EDGE_LOOP('',(#184,#185,#186,#187,#188,#189,#190,#191,#192,#193,#194,
#195,#196));
#595=EDGE_LOOP('',(#197,#198,#199,#200));
#596=EDGE_LOOP('',(#201,#202,#203,#204));
#597=EDGE_LOOP('',(#205,#206,#207,#208));
#598=EDGE_LOOP('',(#209,#210,#211,#212));
#599=EDGE_LOOP('',(#213,#214,#215,#216));
#600=EDGE_LOOP('',(#217,#218,#219,#220));
#601=EDGE_LOOP('',(#221,#222,#223,#224));
#602=EDGE_LOOP('',(#225,#226,#227,#228));
#603=EDGE_LOOP('',(#229));
#604=EDGE_LOOP('',(#230));
#605=EDGE_LOOP('',(#231));
#606=EDGE_LOOP('',(#232));
#607=EDGE_LOOP('',(#233));
#608=EDGE_LOOP('',(#234));
#609=EDGE_LOOP('',(#235));
#610=EDGE_LOOP('',(#236));
#611=EDGE_LOOP('',(#237));
#612=EDGE_LOOP('',(#238));
#613=EDGE_LOOP('',(#239));
#614=EDGE_LOOP('',(#240));
#615=EDGE_LOOP('',(#241));
#616=EDGE_LOOP('',(#242));
#617=EDGE_LOOP('',(#243,#244,#245,#246));
#618=EDGE_LOOP('',(#247,#248,#249,#250));
#619=EDGE_LOOP('',(#251,#252,#253,#254));
#620=EDGE_LOOP('',(#255,#256,#257,#258));
#621=EDGE_LOOP('',(#259,#260,#261,#262));
#622=EDGE_LOOP('',(#263,#264,#265,#266));
#623=EDGE_LOOP('',(#267,#268,#269,#270));
#624=EDGE_LOOP('',(#271,#272,#273,#274));
#625=EDGE_LOOP('',(#275,#276,#277,#278,#279,#280,#281,#282,#283,#284,#285,
#286,#287));
#626=EDGE_LOOP('',(#288));
#627=EDGE_LOOP('',(#289));
#628=EDGE_LOOP('',(#290));
#629=EDGE_LOOP('',(#291));
#630=EDGE_LOOP('',(#292));
#631=EDGE_LOOP('',(#293));
#632=EDGE_LOOP('',(#294));
#633=EDGE_LOOP('',(#295,#296,#297,#298,#299,#300,#301,#302));
#634=EDGE_LOOP('',(#303,#304,#305,#306,#307,#308));
#635=EDGE_LOOP('',(#309,#310,#311,#312));
#636=EDGE_LOOP('',(#313,#314,#315,#316,#317,#318));
#637=EDGE_LOOP('',(#319,#320,#321,#322,#323,#324));
#638=EDGE_LOOP('',(#325,#326,#327,#328,#329,#330));
#639=EDGE_LOOP('',(#331));
#640=EDGE_LOOP('',(#332,#333,#334,#335));
#641=EDGE_LOOP('',(#336));
#642=EDGE_LOOP('',(#337));
#643=EDGE_LOOP('',(#338));
#644=EDGE_LOOP('',(#339));
#645=EDGE_LOOP('',(#340));
#646=EDGE_LOOP('',(#341));
#647=EDGE_LOOP('',(#342));
#648=EDGE_LOOP('',(#343));
#649=EDGE_LOOP('',(#344));
#650=EDGE_LOOP('',(#345,#346,#347,#348));
#651=EDGE_LOOP('',(#349));
#652=EDGE_LOOP('',(#350));
#653=EDGE_LOOP('',(#351,#352,#353,#354));
#654=EDGE_LOOP('',(#355));
#655=EDGE_LOOP('',(#356,#357,#358,#359));
#656=EDGE_LOOP('',(#360));
#657=EDGE_LOOP('',(#361));
#658=EDGE_LOOP('',(#362));
#659=FACE_BOUND('',#578,.T.);
#660=FACE_BOUND('',#579,.T.);
#661=FACE_BOUND('',#580,.T.);
#662=FACE_BOUND('',#581,.T.);
#663=FACE_BOUND('',#582,.T.);
#664=FACE_BOUND('',#583,.T.);
#665=FACE_BOUND('',#584,.T.);
#666=FACE_BOUND('',#585,.T.);
#667=FACE_BOUND('',#586,.T.);
#668=FACE_BOUND('',#587,.T.);
#669=FACE_BOUND('',#588,.T.);
#670=FACE_BOUND('',#589,.T.);
#671=FACE_BOUND('',#590,.T.);
#672=FACE_BOUND('',#591,.T.);
#673=FACE_BOUND('',#592,.T.);
#674=FACE_BOUND('',#593,.T.);
#675=FACE_BOUND('',#594,.T.);
#676=FACE_BOUND('',#595,.T.);
#677=FACE_BOUND('',#596,.T.);
#678=FACE_BOUND('',#597,.T.);
#679=FACE_BOUND('',#598,.T.);
#680=FACE_BOUND('',#599,.T.);
#681=FACE_BOUND('',#600,.T.);
#682=FACE_BOUND('',#601,.T.);
#683=FACE_BOUND('',#602,.T.);
#684=FACE_BOUND('',#603,.T.);
#685=FACE_BOUND('',#604,.T.);
#686=FACE_BOUND('',#605,.T.);
#687=FACE_BOUND('',#606,.T.);
#688=FACE_BOUND('',#607,.T.);
#689=FACE_BOUND('',#608,.T.);
#690=FACE_BOUND('',#609,.T.);
#691=FACE_BOUND('',#610,.T.);
#692=FACE_BOUND('',#611,.T.);
#693=FACE_BOUND('',#612,.T.);
#694=FACE_BOUND('',#613,.T.);
#695=FACE_BOUND('',#614,.T.);
#696=FACE_BOUND('',#615,.T.);
#697=FACE_BOUND('',#616,.T.);
#698=FACE_BOUND('',#617,.T.);
#699=FACE_BOUND('',#618,.T.);
#700=FACE_BOUND('',#619,.T.);
#701=FACE_BOUND('',#620,.T.);
#702=FACE_BOUND('',#621,.T.);
#703=FACE_BOUND('',#622,.T.);
#704=FACE_BOUND('',#623,.T.);
#705=FACE_BOUND('',#624,.T.);
#706=FACE_BOUND('',#625,.T.);
#707=FACE_BOUND('',#626,.T.);
#708=FACE_BOUND('',#627,.T.);
#709=FACE_BOUND('',#628,.T.);
#710=FACE_BOUND('',#629,.T.);
#711=FACE_BOUND('',#630,.T.);
#712=FACE_BOUND('',#631,.T.);
#713=FACE_BOUND('',#632,.T.);
#714=FACE_BOUND('',#633,.T.);
#715=FACE_BOUND('',#634,.T.);
#716=FACE_BOUND('',#635,.T.);
#717=FACE_BOUND('',#636,.T.);
#718=FACE_BOUND('',#637,.T.);
#719=FACE_BOUND('',#638,.T.);
#720=FACE_BOUND('',#639,.T.);
#721=FACE_BOUND('',#640,.T.);
#722=FACE_BOUND('',#641,.T.);
#723=FACE_BOUND('',#642,.T.);
#724=FACE_BOUND('',#643,.T.);
#725=FACE_BOUND('',#644,.T.);
#726=FACE_BOUND('',#645,.T.);
#727=FACE_BOUND('',#646,.T.);
#728=FACE_BOUND('',#647,.T.);
#729=FACE_BOUND('',#648,.T.);
#730=FACE_BOUND('',#649,.T.);
#731=FACE_BOUND('',#650,.T.);
#732=FACE_BOUND('',#651,.T.);
#733=FACE_BOUND('',#652,.T.);
#734=FACE_BOUND('',#653,.T.);
#735=FACE_BOUND('',#654,.T.);
#736=FACE_BOUND('',#655,.T.);
#737=FACE_BOUND('',#656,.T.);
#738=FACE_BOUND('',#657,.T.);
#739=FACE_BOUND('',#658,.T.);
#740=CYLINDRICAL_SURFACE('',#814,0.002);
#741=CYLINDRICAL_SURFACE('',#817,0.002);
#742=CYLINDRICAL_SURFACE('',#837,0.0005);
#743=CYLINDRICAL_SURFACE('',#840,0.0005);
#744=CYLINDRICAL_SURFACE('',#843,0.000500000000000025);
#745=CYLINDRICAL_SURFACE('',#846,0.000500000000000024);
#746=CYLINDRICAL_SURFACE('',#848,0.0034);
#747=CYLINDRICAL_SURFACE('',#850,0.0015);
#748=CYLINDRICAL_SURFACE('',#852,0.0015);
#749=CYLINDRICAL_SURFACE('',#854,0.0015);
#750=CYLINDRICAL_SURFACE('',#856,0.0015);
#751=CYLINDRICAL_SURFACE('',#858,0.0011);
#752=CYLINDRICAL_SURFACE('',#860,0.0011);
#753=CYLINDRICAL_SURFACE('',#866,0.00400000042591001);
#754=CYLINDRICAL_SURFACE('',#869,0.00400000042590999);
#755=CYLINDRICAL_SURFACE('',#880,0.00155);
#756=CYLINDRICAL_SURFACE('',#882,0.00155);
#757=CYLINDRICAL_SURFACE('',#885,0.00155);
#758=CYLINDRICAL_SURFACE('',#890,0.00155);
#759=ADVANCED_FACE('',(#659,#660),#740,.T.);
#760=ADVANCED_FACE('',(#661,#662),#741,.T.);
#761=ADVANCED_FACE('',(#663,#664),#138,.T.);
#762=ADVANCED_FACE('',(#665,#666),#139,.T.);
#763=ADVANCED_FACE('',(#667,#668,#669,#670,#671,#672,#673,#674,#675),#140,
 .F.);
#764=ADVANCED_FACE('',(#676),#141,.T.);
#765=ADVANCED_FACE('',(#677),#742,.F.);
#766=ADVANCED_FACE('',(#678),#142,.T.);
#767=ADVANCED_FACE('',(#679),#743,.F.);
#768=ADVANCED_FACE('',(#680),#143,.T.);
#769=ADVANCED_FACE('',(#681),#744,.F.);
#770=ADVANCED_FACE('',(#682),#144,.T.);
#771=ADVANCED_FACE('',(#683),#745,.F.);
#772=ADVANCED_FACE('',(#684,#685),#746,.F.);
#773=ADVANCED_FACE('',(#686,#687),#747,.F.);
#774=ADVANCED_FACE('',(#688,#689),#748,.F.);
#775=ADVANCED_FACE('',(#690,#691),#749,.F.);
#776=ADVANCED_FACE('',(#692,#693),#750,.F.);
#777=ADVANCED_FACE('',(#694,#695),#751,.F.);
#778=ADVANCED_FACE('',(#696,#697),#752,.F.);
#779=ADVANCED_FACE('',(#698),#145,.T.);
#780=ADVANCED_FACE('',(#699),#146,.F.);
#781=ADVANCED_FACE('',(#700),#147,.F.);
#782=ADVANCED_FACE('',(#701),#148,.F.);
#783=ADVANCED_FACE('',(#702),#753,.T.);
#784=ADVANCED_FACE('',(#703),#149,.F.);
#785=ADVANCED_FACE('',(#704),#754,.T.);
#786=ADVANCED_FACE('',(#705),#150,.T.);
#787=ADVANCED_FACE('',(#706,#707,#708,#709,#710,#711,#712,#713,#714),#151,
 .T.);
#788=ADVANCED_FACE('',(#715),#152,.F.);
#789=ADVANCED_FACE('',(#716),#153,.T.);
#790=ADVANCED_FACE('',(#717),#154,.F.);
#791=ADVANCED_FACE('',(#718),#155,.T.);
#792=ADVANCED_FACE('',(#719),#156,.T.);
#793=ADVANCED_FACE('',(#720,#721),#157,.T.);
#794=ADVANCED_FACE('',(#722,#723),#755,.F.);
#795=ADVANCED_FACE('',(#724,#725),#756,.F.);
#796=ADVANCED_FACE('',(#726,#727),#757,.F.);
#797=ADVANCED_FACE('',(#728,#729,#730,#731),#158,.T.);
#798=ADVANCED_FACE('',(#732,#733),#758,.F.);
#799=ADVANCED_FACE('',(#734,#735),#159,.F.);
#800=ADVANCED_FACE('',(#736,#737,#738,#739),#160,.F.);
#801=CLOSED_SHELL('',(#759,#760,#761,#762,#763,#764,#765,#766,#767,#768,
#769,#770,#771,#772,#773,#774,#775,#776,#777,#778,#779,#780,#781,#782,#783,
#784,#785,#786,#787,#788,#789,#790,#791,#792,#793,#794,#795,#796,#797,#798,
#799,#800));
#802=STYLED_ITEM('',(#803),#810);
#803=PRESENTATION_STYLE_ASSIGNMENT((#804));
#804=SURFACE_STYLE_USAGE(.BOTH.,#805);
#805=SURFACE_SIDE_STYLE('',(#806));
#806=SURFACE_STYLE_FILL_AREA(#807);
#807=FILL_AREA_STYLE('',(#808));
#808=FILL_AREA_STYLE_COLOUR('',#809);
#809=COLOUR_RGB('',0.6,0.580392156862745,0.529411764705882);
#810=MANIFOLD_SOLID_BREP('Part 2412',#801);
#811=SHAPE_DEFINITION_REPRESENTATION(#1345,#812);
#812=SHAPE_REPRESENTATION('Part 2412',(#813),#1340);
#813=AXIS2_PLACEMENT_3D('',#1119,#894,#895);
#814=AXIS2_PLACEMENT_3D('',#1120,#896,#897);
#815=AXIS2_PLACEMENT_3D('',#1121,#898,#899);
#816=AXIS2_PLACEMENT_3D('',#1123,#900,#901);
#817=AXIS2_PLACEMENT_3D('',#1125,#902,#903);
#818=AXIS2_PLACEMENT_3D('',#1126,#904,#905);
#819=AXIS2_PLACEMENT_3D('',#1128,#906,#907);
#820=AXIS2_PLACEMENT_3D('',#1130,#908,#909);
#821=AXIS2_PLACEMENT_3D('',#1131,#910,#911);
#822=AXIS2_PLACEMENT_3D('',#1133,#912,#913);
#823=AXIS2_PLACEMENT_3D('',#1134,#914,#915);
#824=AXIS2_PLACEMENT_3D('',#1136,#916,#917);
#825=AXIS2_PLACEMENT_3D('',#1137,#918,#919);
#826=AXIS2_PLACEMENT_3D('',#1139,#920,#921);
#827=AXIS2_PLACEMENT_3D('',#1141,#922,#923);
#828=AXIS2_PLACEMENT_3D('',#1143,#924,#925);
#829=AXIS2_PLACEMENT_3D('',#1145,#926,#927);
#830=AXIS2_PLACEMENT_3D('',#1147,#928,#929);
#831=AXIS2_PLACEMENT_3D('',#1152,#931,#932);
#832=AXIS2_PLACEMENT_3D('',#1156,#934,#935);
#833=AXIS2_PLACEMENT_3D('',#1160,#937,#938);
#834=AXIS2_PLACEMENT_3D('',#1170,#943,#944);
#835=AXIS2_PLACEMENT_3D('',#1174,#946,#947);
#836=AXIS2_PLACEMENT_3D('',#1189,#955,#956);
#837=AXIS2_PLACEMENT_3D('',#1195,#960,#961);
#838=AXIS2_PLACEMENT_3D('',#1196,#962,#963);
#839=AXIS2_PLACEMENT_3D('',#1199,#965,#966);
#840=AXIS2_PLACEMENT_3D('',#1203,#969,#970);
#841=AXIS2_PLACEMENT_3D('',#1204,#971,#972);
#842=AXIS2_PLACEMENT_3D('',#1207,#974,#975);
#843=AXIS2_PLACEMENT_3D('',#1211,#978,#979);
#844=AXIS2_PLACEMENT_3D('',#1212,#980,#981);
#845=AXIS2_PLACEMENT_3D('',#1215,#983,#984);
#846=AXIS2_PLACEMENT_3D('',#1219,#987,#988);
#847=AXIS2_PLACEMENT_3D('',#1220,#989,#990);
#848=AXIS2_PLACEMENT_3D('',#1221,#991,#992);
#849=AXIS2_PLACEMENT_3D('',#1222,#993,#994);
#850=AXIS2_PLACEMENT_3D('',#1224,#995,#996);
#851=AXIS2_PLACEMENT_3D('',#1225,#997,#998);
#852=AXIS2_PLACEMENT_3D('',#1227,#999,#1000);
#853=AXIS2_PLACEMENT_3D('',#1228,#1001,#1002);
#854=AXIS2_PLACEMENT_3D('',#1230,#1003,#1004);
#855=AXIS2_PLACEMENT_3D('',#1231,#1005,#1006);
#856=AXIS2_PLACEMENT_3D('',#1233,#1007,#1008);
#857=AXIS2_PLACEMENT_3D('',#1234,#1009,#1010);
#858=AXIS2_PLACEMENT_3D('',#1236,#1011,#1012);
#859=AXIS2_PLACEMENT_3D('',#1237,#1013,#1014);
#860=AXIS2_PLACEMENT_3D('',#1239,#1015,#1016);
#861=AXIS2_PLACEMENT_3D('',#1240,#1017,#1018);
#862=AXIS2_PLACEMENT_3D('',#1242,#1019,#1020);
#863=AXIS2_PLACEMENT_3D('',#1248,#1024,#1025);
#864=AXIS2_PLACEMENT_3D('',#1252,#1028,#1029);
#865=AXIS2_PLACEMENT_3D('',#1256,#1032,#1033);
#866=AXIS2_PLACEMENT_3D('',#1260,#1036,#1037);
#867=AXIS2_PLACEMENT_3D('',#1263,#1039,#1040);
#868=AXIS2_PLACEMENT_3D('',#1266,#1042,#1043);
#869=AXIS2_PLACEMENT_3D('',#1270,#1046,#1047);
#870=AXIS2_PLACEMENT_3D('',#1271,#1048,#1049);
#871=AXIS2_PLACEMENT_3D('',#1274,#1051,#1052);
#872=AXIS2_PLACEMENT_3D('',#1283,#1057,#1058);
#873=AXIS2_PLACEMENT_3D('',#1294,#1065,#1066);
#874=AXIS2_PLACEMENT_3D('',#1297,#1069,#1070);
#875=AXIS2_PLACEMENT_3D('',#1306,#1075,#1076);
#876=AXIS2_PLACEMENT_3D('',#1309,#1079,#1080);
#877=AXIS2_PLACEMENT_3D('',#1312,#1083,#1084);
#878=AXIS2_PLACEMENT_3D('',#1315,#1087,#1088);
#879=AXIS2_PLACEMENT_3D('',#1316,#1089,#1090);
#880=AXIS2_PLACEMENT_3D('',#1318,#1091,#1092);
#881=AXIS2_PLACEMENT_3D('',#1319,#1093,#1094);
#882=AXIS2_PLACEMENT_3D('',#1321,#1095,#1096);
#883=AXIS2_PLACEMENT_3D('',#1322,#1097,#1098);
#884=AXIS2_PLACEMENT_3D('',#1324,#1099,#1100);
#885=AXIS2_PLACEMENT_3D('',#1326,#1101,#1102);
#886=AXIS2_PLACEMENT_3D('',#1327,#1103,#1104);
#887=AXIS2_PLACEMENT_3D('',#1329,#1105,#1106);
#888=AXIS2_PLACEMENT_3D('',#1331,#1107,#1108);
#889=AXIS2_PLACEMENT_3D('',#1332,#1109,#1110);
#890=AXIS2_PLACEMENT_3D('',#1334,#1111,#1112);
#891=AXIS2_PLACEMENT_3D('',#1335,#1113,#1114);
#892=AXIS2_PLACEMENT_3D('',#1337,#1115,#1116);
#893=AXIS2_PLACEMENT_3D('',#1338,#1117,#1118);
#894=DIRECTION('',(0.,0.,1.));
#895=DIRECTION('',(1.,0.,0.));
#896=DIRECTION('',(0.,0.,1.));
#897=DIRECTION('',(1.,0.,0.));
#898=DIRECTION('',(0.,0.,-1.));
#899=DIRECTION('',(-1.,0.,0.));
#900=DIRECTION('',(0.,0.,1.));
#901=DIRECTION('',(1.,0.,0.));
#902=DIRECTION('',(0.,0.,1.));
#903=DIRECTION('',(1.,0.,0.));
#904=DIRECTION('',(0.,0.,-1.));
#905=DIRECTION('',(-1.,0.,0.));
#906=DIRECTION('',(0.,0.,1.));
#907=DIRECTION('',(1.,0.,0.));
#908=DIRECTION('',(0.,0.,-1.));
#909=DIRECTION('',(1.,0.,0.));
#910=DIRECTION('',(0.,0.,-1.));
#911=DIRECTION('',(-1.,0.,0.));
#912=DIRECTION('',(0.,0.,-1.));
#913=DIRECTION('',(1.,0.,0.));
#914=DIRECTION('',(0.,0.,-1.));
#915=DIRECTION('',(-1.,0.,0.));
#916=DIRECTION('',(0.,0.,1.));
#917=DIRECTION('',(1.,0.,0.));
#918=DIRECTION('',(0.,0.,1.));
#919=DIRECTION('',(1.,0.,0.));
#920=DIRECTION('',(0.,0.,1.));
#921=DIRECTION('',(1.,0.,0.));
#922=DIRECTION('',(0.,0.,1.));
#923=DIRECTION('',(1.,0.,0.));
#924=DIRECTION('',(0.,0.,1.));
#925=DIRECTION('',(1.,0.,0.));
#926=DIRECTION('',(0.,0.,1.));
#927=DIRECTION('',(1.,0.,0.));
#928=DIRECTION('',(0.,0.,1.));
#929=DIRECTION('',(1.,0.,0.));
#930=DIRECTION('',(-1.,0.,0.));
#931=DIRECTION('',(0.,0.,1.));
#932=DIRECTION('',(1.,0.,0.));
#933=DIRECTION('',(0.,-1.,0.));
#934=DIRECTION('',(0.,0.,1.));
#935=DIRECTION('',(1.,0.,0.));
#936=DIRECTION('',(1.,0.,0.));
#937=DIRECTION('',(0.,0.,1.));
#938=DIRECTION('',(1.,0.,0.));
#939=DIRECTION('',(0.,1.,0.));
#940=DIRECTION('',(-0.999998424097973,0.00177533139727753,0.));
#941=DIRECTION('',(-1.97611102741109E-17,1.,0.));
#942=DIRECTION('',(-1.,0.,0.));
#943=DIRECTION('',(0.,0.,1.));
#944=DIRECTION('',(1.,0.,0.));
#945=DIRECTION('',(0.,1.,0.));
#946=DIRECTION('',(0.,0.,1.));
#947=DIRECTION('',(1.,0.,0.));
#948=DIRECTION('',(1.,0.,0.));
#949=DIRECTION('',(9.89561609794416E-17,1.,0.));
#950=DIRECTION('',(1.,0.,0.));
#951=DIRECTION('',(0.,1.,0.));
#952=DIRECTION('',(0.000348713927961672,-0.999999939199296,0.));
#953=DIRECTION('',(0.,-1.,0.));
#954=DIRECTION('',(1.,0.,0.));
#955=DIRECTION('',(0.,-1.,0.));
#956=DIRECTION('',(0.,0.,-1.));
#957=DIRECTION('',(0.,0.,-1.));
#958=DIRECTION('',(-1.,0.,0.));
#959=DIRECTION('',(0.,0.,-1.));
#960=DIRECTION('',(0.,0.,-1.));
#961=DIRECTION('',(-1.,0.,0.));
#962=DIRECTION('',(0.,0.,1.));
#963=DIRECTION('',(1.,0.,0.));
#964=DIRECTION('',(0.,0.,-1.));
#965=DIRECTION('',(1.,0.,0.));
#966=DIRECTION('',(0.,0.,-1.));
#967=DIRECTION('',(0.,-1.,0.));
#968=DIRECTION('',(0.,0.,-1.));
#969=DIRECTION('',(0.,0.,-1.));
#970=DIRECTION('',(-1.,0.,0.));
#971=DIRECTION('',(0.,0.,1.));
#972=DIRECTION('',(1.,0.,0.));
#973=DIRECTION('',(0.,0.,-1.));
#974=DIRECTION('',(0.,1.,0.));
#975=DIRECTION('',(0.,0.,1.));
#976=DIRECTION('',(1.,0.,0.));
#977=DIRECTION('',(0.,0.,-1.));
#978=DIRECTION('',(0.,0.,-1.));
#979=DIRECTION('',(-1.,0.,0.));
#980=DIRECTION('',(0.,0.,1.));
#981=DIRECTION('',(1.,0.,0.));
#982=DIRECTION('',(0.,0.,-1.));
#983=DIRECTION('',(-1.,0.,0.));
#984=DIRECTION('',(0.,0.,1.));
#985=DIRECTION('',(0.,1.,0.));
#986=DIRECTION('',(0.,0.,-1.));
#987=DIRECTION('',(0.,0.,-1.));
#988=DIRECTION('',(-1.,0.,0.));
#989=DIRECTION('',(0.,0.,1.));
#990=DIRECTION('',(1.,0.,0.));
#991=DIRECTION('',(0.,0.,-1.));
#992=DIRECTION('',(-1.,0.,0.));
#993=DIRECTION('',(0.,0.,1.));
#994=DIRECTION('',(1.,0.,0.));
#995=DIRECTION('',(0.,0.,-1.));
#996=DIRECTION('',(-1.,0.,0.));
#997=DIRECTION('',(0.,0.,1.));
#998=DIRECTION('',(1.,0.,0.));
#999=DIRECTION('',(0.,0.,-1.));
#1000=DIRECTION('',(-1.,0.,0.));
#1001=DIRECTION('',(0.,0.,1.));
#1002=DIRECTION('',(1.,0.,0.));
#1003=DIRECTION('',(0.,0.,-1.));
#1004=DIRECTION('',(-1.,0.,0.));
#1005=DIRECTION('',(0.,0.,1.));
#1006=DIRECTION('',(1.,0.,0.));
#1007=DIRECTION('',(0.,0.,-1.));
#1008=DIRECTION('',(-1.,0.,0.));
#1009=DIRECTION('',(0.,0.,1.));
#1010=DIRECTION('',(1.,0.,0.));
#1011=DIRECTION('',(0.,0.,-1.));
#1012=DIRECTION('',(-1.,0.,0.));
#1013=DIRECTION('',(0.,0.,1.));
#1014=DIRECTION('',(1.,0.,0.));
#1015=DIRECTION('',(0.,0.,-1.));
#1016=DIRECTION('',(-1.,0.,0.));
#1017=DIRECTION('',(0.,0.,1.));
#1018=DIRECTION('',(1.,0.,0.));
#1019=DIRECTION('',(-1.,0.,0.));
#1020=DIRECTION('',(0.,0.,1.));
#1021=DIRECTION('',(0.,0.,-1.));
#1022=DIRECTION('',(0.,1.,0.));
#1023=DIRECTION('',(0.,0.,-1.));
#1024=DIRECTION('',(0.999999939199296,0.000348713927961672,0.));
#1025=DIRECTION('',(-0.000348713927961672,0.999999939199296,0.));
#1026=DIRECTION('',(0.000348713927961672,-0.999999939199296,0.));
#1027=DIRECTION('',(0.,0.,-1.));
#1028=DIRECTION('',(1.,0.,0.));
#1029=DIRECTION('',(0.,0.,-1.));
#1030=DIRECTION('',(0.,-1.,0.));
#1031=DIRECTION('',(0.,0.,-1.));
#1032=DIRECTION('',(0.,1.,0.));
#1033=DIRECTION('',(0.,0.,1.));
#1034=DIRECTION('',(1.,0.,0.));
#1035=DIRECTION('',(0.,0.,-1.));
#1036=DIRECTION('',(0.,0.,-1.));
#1037=DIRECTION('',(-1.,0.,0.));
#1038=DIRECTION('',(0.,0.,-1.));
#1039=DIRECTION('',(0.,0.,1.));
#1040=DIRECTION('',(1.,0.,0.));
#1041=DIRECTION('',(0.,0.,-1.));
#1042=DIRECTION('',(-1.,0.,0.));
#1043=DIRECTION('',(0.,0.,1.));
#1044=DIRECTION('',(0.,1.,0.));
#1045=DIRECTION('',(0.,0.,-1.));
#1046=DIRECTION('',(0.,0.,-1.));
#1047=DIRECTION('',(-1.,0.,0.));
#1048=DIRECTION('',(0.,0.,1.));
#1049=DIRECTION('',(1.,0.,0.));
#1050=DIRECTION('',(0.,0.,-1.));
#1051=DIRECTION('',(0.,0.,-1.));
#1052=DIRECTION('',(1.,0.,0.));
#1053=DIRECTION('',(0.,-1.,0.));
#1054=DIRECTION('',(-1.,0.,0.));
#1055=DIRECTION('',(9.89561609794416E-17,1.,0.));
#1056=DIRECTION('',(-1.,0.,0.));
#1057=DIRECTION('',(0.,0.,1.));
#1058=DIRECTION('',(1.,0.,0.));
#1059=DIRECTION('',(0.,1.,0.));
#1060=DIRECTION('',(1.,0.,0.));
#1061=DIRECTION('',(-1.,0.,0.));
#1062=DIRECTION('',(0.,1.,0.));
#1063=DIRECTION('',(-0.999998424097973,0.00177533139727753,0.));
#1064=DIRECTION('',(1.,0.,0.));
#1065=DIRECTION('',(0.,1.,0.));
#1066=DIRECTION('',(0.,0.,1.));
#1067=DIRECTION('',(0.,0.,-1.));
#1068=DIRECTION('',(0.,0.,1.));
#1069=DIRECTION('',(0.,0.,-1.));
#1070=DIRECTION('',(1.,0.,0.));
#1071=DIRECTION('',(0.,-1.,0.));
#1072=DIRECTION('',(-1.,0.,0.));
#1073=DIRECTION('',(-1.97611102741109E-17,1.,0.));
#1074=DIRECTION('',(0.999998424097973,-0.001775331397279,0.));
#1075=DIRECTION('',(0.,-1.,0.));
#1076=DIRECTION('',(0.,0.,-1.));
#1077=DIRECTION('',(0.,0.,1.));
#1078=DIRECTION('',(0.,0.,1.));
#1079=DIRECTION('',(0.,1.,0.));
#1080=DIRECTION('',(0.,0.,1.));
#1081=DIRECTION('',(0.,0.,-1.));
#1082=DIRECTION('',(0.,0.,1.));
#1083=DIRECTION('',(-0.00177533139727753,-0.999998424097973,0.));
#1084=DIRECTION('',(0.999998424097973,-0.00177533139727753,0.));
#1085=DIRECTION('',(0.,0.,1.));
#1086=DIRECTION('',(0.,0.,1.));
#1087=DIRECTION('',(1.,-9.89561609794416E-17,0.));
#1088=DIRECTION('',(9.89561609794416E-17,1.,0.));
#1089=DIRECTION('',(1.,-9.89561609794416E-17,0.));
#1090=DIRECTION('',(9.89561609794416E-17,1.,0.));
#1091=DIRECTION('',(1.,-9.89561609794416E-17,0.));
#1092=DIRECTION('',(9.89561609794416E-17,1.,0.));
#1093=DIRECTION('',(1.,0.,0.));
#1094=DIRECTION('',(0.,0.,-1.));
#1095=DIRECTION('',(1.,-9.89561609794416E-17,0.));
#1096=DIRECTION('',(9.89561609794416E-17,1.,0.));
#1097=DIRECTION('',(1.,0.,0.));
#1098=DIRECTION('',(0.,0.,-1.));
#1099=DIRECTION('',(1.,-9.89561609794416E-17,0.));
#1100=DIRECTION('',(9.89561609794416E-17,1.,0.));
#1101=DIRECTION('',(1.,-9.89561609794416E-17,0.));
#1102=DIRECTION('',(9.89561609794416E-17,1.,0.));
#1103=DIRECTION('',(1.,0.,0.));
#1104=DIRECTION('',(0.,0.,-1.));
#1105=DIRECTION('',(1.,-9.89561609794416E-17,0.));
#1106=DIRECTION('',(9.89561609794416E-17,1.,0.));
#1107=DIRECTION('',(1.,1.97611102741109E-17,0.));
#1108=DIRECTION('',(-1.97611102741109E-17,1.,0.));
#1109=DIRECTION('',(1.,-9.89561609794416E-17,0.));
#1110=DIRECTION('',(9.89561609794416E-17,1.,0.));
#1111=DIRECTION('',(1.,-9.89561609794416E-17,0.));
#1112=DIRECTION('',(9.89561609794416E-17,1.,0.));
#1113=DIRECTION('',(1.,0.,0.));
#1114=DIRECTION('',(0.,0.,-1.));
#1115=DIRECTION('',(1.,0.,0.));
#1116=DIRECTION('',(0.,1.,0.));
#1117=DIRECTION('',(1.,0.,0.));
#1118=DIRECTION('',(0.,1.,0.));
#1119=CARTESIAN_POINT('',(0.,0.,0.));
#1120=CARTESIAN_POINT('',(0.16877,-0.057335,0.00151));
#1121=CARTESIAN_POINT('',(0.16877,-0.057335,0.00151));
#1122=CARTESIAN_POINT('',(0.16677,-0.057335,0.00151));
#1123=CARTESIAN_POINT('',(0.16877,-0.057335,0.00751));
#1124=CARTESIAN_POINT('',(0.17077,-0.057335,0.00751));
#1125=CARTESIAN_POINT('',(0.16956,0.058165,0.00151));
#1126=CARTESIAN_POINT('',(0.16956,0.058165,0.00151));
#1127=CARTESIAN_POINT('',(0.16756,0.058165,0.00151));
#1128=CARTESIAN_POINT('',(0.16956,0.058165,0.00751));
#1129=CARTESIAN_POINT('',(0.17156,0.058165,0.00751));
#1130=CARTESIAN_POINT('',(-4.00000000000123E-5,-0.000424999999999995,0.00151));
#1131=CARTESIAN_POINT('',(0.16877,-0.057335,0.00151));
#1132=CARTESIAN_POINT('',(0.16767,-0.057335,0.00151));
#1133=CARTESIAN_POINT('',(-4.00000000000123E-5,-0.000424999999999995,0.00151));
#1134=CARTESIAN_POINT('',(0.16956,0.058165,0.00151));
#1135=CARTESIAN_POINT('',(0.16846,0.058165,0.00151));
#1136=CARTESIAN_POINT('',(2.77555756156289E-17,0.,0.00751));
#1137=CARTESIAN_POINT('',(0.16619375,0.0010475,0.00751));
#1138=CARTESIAN_POINT('',(0.16769375,0.0010475,0.00751));
#1139=CARTESIAN_POINT('',(0.13579375,0.0010475,0.00751));
#1140=CARTESIAN_POINT('',(0.13729375,0.0010475,0.00751));
#1141=CARTESIAN_POINT('',(0.16619375,-0.0275784599674,0.00751));
#1142=CARTESIAN_POINT('',(0.16769375,-0.0275784599674,0.00751));
#1143=CARTESIAN_POINT('',(0.13579375,-0.0275784599674,0.00751));
#1144=CARTESIAN_POINT('',(0.13729375,-0.0275784599674,0.00751));
#1145=CARTESIAN_POINT('',(0.15092375,0.019695,0.00751));
#1146=CARTESIAN_POINT('',(0.15432375,0.019695,0.00751));
#1147=CARTESIAN_POINT('',(0.16520375,-0.00430250000000005,0.00751));
#1148=CARTESIAN_POINT('',(0.16570375,-0.0043025,0.00751));
#1149=CARTESIAN_POINT('',(0.16520375,-0.0038025,0.00751));
#1150=CARTESIAN_POINT('',(0.15099375,-0.0038025,0.00751));
#1151=CARTESIAN_POINT('',(0.13678375,-0.0038025,0.00751));
#1152=CARTESIAN_POINT('',(0.13678375,-0.0043025,0.00751));
#1153=CARTESIAN_POINT('',(0.13628375,-0.0043025,0.00751));
#1154=CARTESIAN_POINT('',(0.13628375,-0.0111525,0.00751));
#1155=CARTESIAN_POINT('',(0.13628375,-0.0180025,0.00751));
#1156=CARTESIAN_POINT('',(0.13678375,-0.0180025,0.00751));
#1157=CARTESIAN_POINT('',(0.13678375,-0.0185025,0.00751));
#1158=CARTESIAN_POINT('',(0.15099375,-0.0185025,0.00751));
#1159=CARTESIAN_POINT('',(0.16520375,-0.0185025,0.00751));
#1160=CARTESIAN_POINT('',(0.16520375,-0.0180025,0.00751));
#1161=CARTESIAN_POINT('',(0.16570375,-0.0180025,0.00751));
#1162=CARTESIAN_POINT('',(0.16570375,-0.0111525,0.00751));
#1163=CARTESIAN_POINT('',(-0.162751247602279,0.0409313092361178,0.00751));
#1164=CARTESIAN_POINT('',(0.1195669984615,0.0404301,0.00751));
#1165=CARTESIAN_POINT('',(0.00200000000000003,0.0406388207125756,0.00751));
#1166=CARTESIAN_POINT('',(0.002,0.0516119103562878,0.00751));
#1167=CARTESIAN_POINT('',(0.002,0.062585,0.00751));
#1168=CARTESIAN_POINT('',(2.2509771824275E-14,0.062585,0.00751));
#1169=CARTESIAN_POINT('',(0.170569999787045,0.062585,0.00751));
#1170=CARTESIAN_POINT('',(0.17056999957409,0.05858499957409,0.00751));
#1171=CARTESIAN_POINT('',(0.17457,0.058584999787045,0.00751));
#1172=CARTESIAN_POINT('',(0.17457,-4.16333634234433E-17,0.00751));
#1173=CARTESIAN_POINT('',(0.17457,-0.0585849997870451,0.00751));
#1174=CARTESIAN_POINT('',(0.17056999957409,-0.05858499957409,0.00751));
#1175=CARTESIAN_POINT('',(0.170569999787045,-0.062585,0.00751));
#1176=CARTESIAN_POINT('',(2.2509771824275E-14,-0.062585,0.00751));
#1177=CARTESIAN_POINT('',(0.002,-0.062585,0.00751));
#1178=CARTESIAN_POINT('',(0.002,-0.0582024444855,0.00751));
#1179=CARTESIAN_POINT('',(0.002,-0.053819888971,0.00751));
#1180=CARTESIAN_POINT('',(0.120398748863119,-0.053819888971,0.00751));
#1181=CARTESIAN_POINT('',(0.121198748863238,-0.053819888971,0.00751));
#1182=CARTESIAN_POINT('',(0.121198748863238,-0.0530198889492,0.00751));
#1183=CARTESIAN_POINT('',(0.121198748863238,-0.0522198889274,0.00751));
#1184=CARTESIAN_POINT('',(0.121182873662625,-0.00669489444215002,0.00751));
#1185=CARTESIAN_POINT('',(0.121166998462013,0.0388301000431,0.00751));
#1186=CARTESIAN_POINT('',(0.121166998462013,0.03963010002155,0.00751));
#1187=CARTESIAN_POINT('',(0.121166998462013,0.0404301,0.00751));
#1188=CARTESIAN_POINT('',(0.120366998461756,0.0404301,0.00751));
#1189=CARTESIAN_POINT('',(0.15099375,-0.0038025,0.01051));
#1190=CARTESIAN_POINT('',(0.16520375,-0.0038025,0.01051));
#1191=CARTESIAN_POINT('',(0.16520375,-0.0038025,0.01051));
#1192=CARTESIAN_POINT('',(0.15099375,-0.0038025,0.01051));
#1193=CARTESIAN_POINT('',(0.13678375,-0.0038025,0.01051));
#1194=CARTESIAN_POINT('',(0.13678375,-0.0038025,0.01051));
#1195=CARTESIAN_POINT('',(0.13678375,-0.0043025,0.01051));
#1196=CARTESIAN_POINT('',(0.13678375,-0.0043025,0.01051));
#1197=CARTESIAN_POINT('',(0.13628375,-0.0043025,0.01051));
#1198=CARTESIAN_POINT('',(0.13628375,-0.0043025,0.01051));
#1199=CARTESIAN_POINT('',(0.13628375,-0.0111525,0.01051));
#1200=CARTESIAN_POINT('',(0.13628375,-0.0111525,0.01051));
#1201=CARTESIAN_POINT('',(0.13628375,-0.0180025,0.01051));
#1202=CARTESIAN_POINT('',(0.13628375,-0.0180025,0.01051));
#1203=CARTESIAN_POINT('',(0.13678375,-0.0180025,0.01051));
#1204=CARTESIAN_POINT('',(0.13678375,-0.0180025,0.01051));
#1205=CARTESIAN_POINT('',(0.13678375,-0.0185025,0.01051));
#1206=CARTESIAN_POINT('',(0.13678375,-0.0185025,0.01051));
#1207=CARTESIAN_POINT('',(0.15099375,-0.0185025,0.01051));
#1208=CARTESIAN_POINT('',(0.15099375,-0.0185025,0.01051));
#1209=CARTESIAN_POINT('',(0.16520375,-0.0185025,0.01051));
#1210=CARTESIAN_POINT('',(0.16520375,-0.0185025,0.01051));
#1211=CARTESIAN_POINT('',(0.16520375,-0.0180025,0.01051));
#1212=CARTESIAN_POINT('',(0.16520375,-0.0180025,0.01051));
#1213=CARTESIAN_POINT('',(0.16570375,-0.0180025,0.01051));
#1214=CARTESIAN_POINT('',(0.16570375,-0.0180025,0.01051));
#1215=CARTESIAN_POINT('',(0.16570375,-0.0111525,0.01051));
#1216=CARTESIAN_POINT('',(0.16570375,-0.0111525,0.01051));
#1217=CARTESIAN_POINT('',(0.16570375,-0.0043025,0.01051));
#1218=CARTESIAN_POINT('',(0.16570375,-0.0043025,0.01051));
#1219=CARTESIAN_POINT('',(0.16520375,-0.00430250000000005,0.01051));
#1220=CARTESIAN_POINT('',(0.16520375,-0.00430250000000005,0.01051));
#1221=CARTESIAN_POINT('',(0.15092375,0.019695,0.01051));
#1222=CARTESIAN_POINT('',(0.15092375,0.019695,0.01051));
#1223=CARTESIAN_POINT('',(0.15432375,0.019695,0.01051));
#1224=CARTESIAN_POINT('',(0.13579375,-0.0275784599674,0.01051));
#1225=CARTESIAN_POINT('',(0.13579375,-0.0275784599674,0.01051));
#1226=CARTESIAN_POINT('',(0.13729375,-0.0275784599674,0.01051));
#1227=CARTESIAN_POINT('',(0.16619375,-0.0275784599674,0.01051));
#1228=CARTESIAN_POINT('',(0.16619375,-0.0275784599674,0.01051));
#1229=CARTESIAN_POINT('',(0.16769375,-0.0275784599674,0.01051));
#1230=CARTESIAN_POINT('',(0.13579375,0.0010475,0.01051));
#1231=CARTESIAN_POINT('',(0.13579375,0.0010475,0.01051));
#1232=CARTESIAN_POINT('',(0.13729375,0.0010475,0.01051));
#1233=CARTESIAN_POINT('',(0.16619375,0.0010475,0.01051));
#1234=CARTESIAN_POINT('',(0.16619375,0.0010475,0.01051));
#1235=CARTESIAN_POINT('',(0.16769375,0.0010475,0.01051));
#1236=CARTESIAN_POINT('',(0.16877,-0.057335,0.01051));
#1237=CARTESIAN_POINT('',(0.16877,-0.057335,0.01051));
#1238=CARTESIAN_POINT('',(0.16987,-0.057335,0.01051));
#1239=CARTESIAN_POINT('',(0.16956,0.058165,0.01051));
#1240=CARTESIAN_POINT('',(0.16956,0.058165,0.01051));
#1241=CARTESIAN_POINT('',(0.17066,0.058165,0.01051));
#1242=CARTESIAN_POINT('',(0.121198748863238,-0.0530198889492,0.01051));
#1243=CARTESIAN_POINT('',(0.121198748863238,-0.053819888971,0.01051));
#1244=CARTESIAN_POINT('',(0.121198748863238,-0.053819888971,0.01051));
#1245=CARTESIAN_POINT('',(0.121198748863238,-0.0530198889492,0.01051));
#1246=CARTESIAN_POINT('',(0.121198748863238,-0.0522198889274,0.01051));
#1247=CARTESIAN_POINT('',(0.121198748863238,-0.0522198889274,0.01051));
#1248=CARTESIAN_POINT('',(0.121182873662625,-0.00669489444215002,0.01051));
#1249=CARTESIAN_POINT('',(0.121182873662625,-0.00669489444215002,0.01051));
#1250=CARTESIAN_POINT('',(0.121166998462013,0.0388301000431,0.01051));
#1251=CARTESIAN_POINT('',(0.121166998462013,0.0388301000431,0.01051));
#1252=CARTESIAN_POINT('',(0.121166998462013,0.03963010002155,0.01051));
#1253=CARTESIAN_POINT('',(0.121166998462013,0.03963010002155,0.01051));
#1254=CARTESIAN_POINT('',(0.121166998462013,0.0404301,0.01051));
#1255=CARTESIAN_POINT('',(0.121166998462013,0.0404301,0.01051));
#1256=CARTESIAN_POINT('',(0.120366998461756,0.0404301,0.01051));
#1257=CARTESIAN_POINT('',(0.120366998461756,0.0404301,0.01051));
#1258=CARTESIAN_POINT('',(0.1195669984615,0.0404301,0.01051));
#1259=CARTESIAN_POINT('',(0.1195669984615,0.0404301,0.01051));
#1260=CARTESIAN_POINT('',(0.17056999957409,0.05858499957409,0.01051));
#1261=CARTESIAN_POINT('',(0.170569999787045,0.062585,0.01051));
#1262=CARTESIAN_POINT('',(0.170569999787045,0.062585,0.01051));
#1263=CARTESIAN_POINT('',(0.17056999957409,0.05858499957409,0.01051));
#1264=CARTESIAN_POINT('',(0.17457,0.058584999787045,0.01051));
#1265=CARTESIAN_POINT('',(0.17457,0.058584999787045,0.01051));
#1266=CARTESIAN_POINT('',(0.17457,-4.16333634234433E-17,0.01051));
#1267=CARTESIAN_POINT('',(0.17457,-4.16333634234433E-17,0.01051));
#1268=CARTESIAN_POINT('',(0.17457,-0.0585849997870451,0.01051));
#1269=CARTESIAN_POINT('',(0.17457,-0.0585849997870451,0.01051));
#1270=CARTESIAN_POINT('',(0.17056999957409,-0.05858499957409,0.01051));
#1271=CARTESIAN_POINT('',(0.17056999957409,-0.05858499957409,0.01051));
#1272=CARTESIAN_POINT('',(0.170569999787045,-0.062585,0.01051));
#1273=CARTESIAN_POINT('',(0.170569999787045,-0.062585,0.01051));
#1274=CARTESIAN_POINT('',(-8.67361737988404E-19,0.,0.00251));
#1275=CARTESIAN_POINT('',(0.,0.,0.00251));
#1276=CARTESIAN_POINT('',(0.,-0.053819888971,0.00251));
#1277=CARTESIAN_POINT('',(0.,-0.062585,0.00251));
#1278=CARTESIAN_POINT('',(0.,-0.053819888971,0.00251));
#1279=CARTESIAN_POINT('',(0.002,-0.053819888971,0.00251));
#1280=CARTESIAN_POINT('',(0.002,-0.0582024444855,0.00251));
#1281=CARTESIAN_POINT('',(0.002,-0.062585,0.00251));
#1282=CARTESIAN_POINT('',(0.,-0.062585,0.00251));
#1283=CARTESIAN_POINT('',(2.77555756156289E-17,0.,0.01051));
#1284=CARTESIAN_POINT('',(0.,0.,0.01051));
#1285=CARTESIAN_POINT('',(0.,-0.062585,0.01051));
#1286=CARTESIAN_POINT('',(0.,-0.053819888971,0.01051));
#1287=CARTESIAN_POINT('',(2.2509771824275E-14,-0.062585,0.01051));
#1288=CARTESIAN_POINT('',(2.2509771824275E-14,0.062585,0.01051));
#1289=CARTESIAN_POINT('',(0.,0.062585,0.01051));
#1290=CARTESIAN_POINT('',(0.,0.,0.01051));
#1291=CARTESIAN_POINT('',(0.,0.0406423713809657,0.01051));
#1292=CARTESIAN_POINT('',(-0.162751247602279,0.0409313092361178,0.01051));
#1293=CARTESIAN_POINT('',(0.120398748863119,-0.053819888971,0.01051));
#1294=CARTESIAN_POINT('',(2.2509771824275E-14,-0.062585,0.01051));
#1295=CARTESIAN_POINT('',(0.,-0.062585,0.01051));
#1296=CARTESIAN_POINT('',(0.002,-0.062585,0.00251));
#1297=CARTESIAN_POINT('',(-8.67361737988404E-19,0.,0.00251));
#1298=CARTESIAN_POINT('',(0.,0.,0.00251));
#1299=CARTESIAN_POINT('',(0.,0.062585,0.00251));
#1300=CARTESIAN_POINT('',(3.41719818722129E-25,0.0406423713809657,0.00251));
#1301=CARTESIAN_POINT('',(0.,0.062585,0.00251));
#1302=CARTESIAN_POINT('',(0.002,0.062585,0.00251));
#1303=CARTESIAN_POINT('',(0.002,0.0516119103562878,0.00251));
#1304=CARTESIAN_POINT('',(0.002,0.0406388207125756,0.00251));
#1305=CARTESIAN_POINT('',(-4.33680868994202E-19,0.0406423713809657,0.00251));
#1306=CARTESIAN_POINT('',(2.2509771824275E-14,0.062585,0.01051));
#1307=CARTESIAN_POINT('',(0.,0.062585,0.01051));
#1308=CARTESIAN_POINT('',(0.002,0.062585,0.00251));
#1309=CARTESIAN_POINT('',(0.120398748863119,-0.053819888971,0.01051));
#1310=CARTESIAN_POINT('',(0.,-0.053819888971,0.01051));
#1311=CARTESIAN_POINT('',(0.002,-0.053819888971,0.00251));
#1312=CARTESIAN_POINT('',(-0.162751247602279,0.0409313092361178,0.01051));
#1313=CARTESIAN_POINT('',(0.,0.0406423713809657,0.01051));
#1314=CARTESIAN_POINT('',(0.002,0.0406388207125756,0.00251));
#1315=CARTESIAN_POINT('',(0.002,-0.0582024444855,0.00251));
#1316=CARTESIAN_POINT('',(0.002,-0.0582024444855,0.00501));
#1317=CARTESIAN_POINT('',(0.002,-0.0566524444855,0.00501));
#1318=CARTESIAN_POINT('',(-0.003,-0.0582024444855,0.00501));
#1319=CARTESIAN_POINT('',(0.,-0.0582024444855,0.00501));
#1320=CARTESIAN_POINT('',(0.,-0.0582024444855,0.00346));
#1321=CARTESIAN_POINT('',(-0.003,0.0451213423339296,0.00501));
#1322=CARTESIAN_POINT('',(0.,0.0451213423339296,0.00501));
#1323=CARTESIAN_POINT('',(0.,0.0451213423339296,0.00346));
#1324=CARTESIAN_POINT('',(0.002,0.0451213423339296,0.00501));
#1325=CARTESIAN_POINT('',(0.002,0.0466713423339296,0.00501));
#1326=CARTESIAN_POINT('',(-0.003,0.0592673652757156,0.00501));
#1327=CARTESIAN_POINT('',(0.,0.0592673652757156,0.00501));
#1328=CARTESIAN_POINT('',(0.,0.0592673652757156,0.00346));
#1329=CARTESIAN_POINT('',(0.002,0.0592673652757156,0.00501));
#1330=CARTESIAN_POINT('',(0.002,0.0608173652757156,0.00501));
#1331=CARTESIAN_POINT('',(0.002,0.0516119103562878,0.00251));
#1332=CARTESIAN_POINT('',(0.002,0.0523022844265426,0.00501));
#1333=CARTESIAN_POINT('',(0.002,0.0538522844265426,0.00501));
#1334=CARTESIAN_POINT('',(-0.003,0.0523022844265426,0.00501));
#1335=CARTESIAN_POINT('',(0.,0.0523022844265426,0.00501));
#1336=CARTESIAN_POINT('',(0.,0.0523022844265426,0.00346));
#1337=CARTESIAN_POINT('',(0.,0.,0.));
#1338=CARTESIAN_POINT('',(0.,0.,0.));
#1339=MECHANICAL_DESIGN_GEOMETRIC_PRESENTATION_REPRESENTATION('',(#802),
#1340);
#1340=(
GEOMETRIC_REPRESENTATION_CONTEXT(3)
GLOBAL_UNCERTAINTY_ASSIGNED_CONTEXT((#1341))
GLOBAL_UNIT_ASSIGNED_CONTEXT((#1344,#1343,#1342))
REPRESENTATION_CONTEXT('Part 2412','TOP_LEVEL_ASSEMBLY_PART')
);
#1341=UNCERTAINTY_MEASURE_WITH_UNIT(LENGTH_MEASURE(1.E-8),#1344,
'DISTANCE_ACCURACY_VALUE','Maximum Tolerance applied to model');
#1342=(
NAMED_UNIT(*)
SI_UNIT($,.STERADIAN.)
SOLID_ANGLE_UNIT()
);
#1343=(
NAMED_UNIT(*)
PLANE_ANGLE_UNIT()
SI_UNIT($,.RADIAN.)
);
#1344=(
LENGTH_UNIT()
NAMED_UNIT(*)
SI_UNIT($,.METRE.)
);
#1345=PRODUCT_DEFINITION_SHAPE('','',#1346);
#1346=PRODUCT_DEFINITION('','',#1348,#1347);
#1347=PRODUCT_DEFINITION_CONTEXT('',#1354,'design');
#1348=PRODUCT_DEFINITION_FORMATION_WITH_SPECIFIED_SOURCE('','',#1350,
 .NOT_KNOWN.);
#1349=PRODUCT_RELATED_PRODUCT_CATEGORY('','',(#1350));
#1350=PRODUCT('Part 2412','Part 2412','Part 2412',(#1352));
#1351=PRODUCT_CATEGORY('','');
#1352=PRODUCT_CONTEXT('',#1354,'mechanical');
#1353=APPLICATION_PROTOCOL_DEFINITION('international standard',
'ap242_managed_model_based_3d_engineering',2020,#1354);
#1354=APPLICATION_CONTEXT('managed model based 3d engineering');
ENDSEC;
END-ISO-10303-21;
