ISO-10303-21;
HEADER;
/* Generated by software containing ST-Developer
 * from STEP Tools, Inc. (www.steptools.com) 
 */
/* OPTION: using custom renumber hook */

FILE_DESCRIPTION(
/* description */ ('STEP AP242 Edition 2',
'CAx-IF Rec.Pracs.---Representation and Presentation of Product Manufa
cturing Information (PMI)---4.0---2014-10-13',
'CAx-IF Rec.Pracs.---3D Tessellated Geometry---0.4---2014-09-14','2;1',
'CAx-IF Rec.Pracs.---User Defined Attributes---1.5---2016-08-15'),
/* implementation_level */ '2;1');

FILE_NAME(
/* name */ 'Part Studio 1 - Part 2413',
/* time_stamp */ '2026-09-08T12:42:26Z',
/* author */ (''),
/* organization */ (''),
/* preprocessor_version */ 'ST-DEVELOPER v20',
/* originating_system */ 'ONSHAPE BY PTC INC, 1.220',
/* authorisation */ '  ');

FILE_SCHEMA (('AP242_MANAGED_MODEL_BASED_3D_ENGINEERING_MIM_LF { 1 0 10303 442 3 1 4 }'));
ENDSEC;

DATA;
#10=SHAPE_REPRESENTATION_RELATIONSHIP('','',#635,#11);
#11=ADVANCED_BREP_SHAPE_REPRESENTATION('',(#633),#1055);
#12=CYLINDRICAL_SURFACE('',#650,0.00155);
#13=CYLINDRICAL_SURFACE('',#653,0.00155);
#14=CYLINDRICAL_SURFACE('',#656,0.00155);
#15=CYLINDRICAL_SURFACE('',#659,0.00155);
#16=CYLINDRICAL_SURFACE('',#672,0.00400000042590999);
#17=CYLINDRICAL_SURFACE('',#674,0.00400000042591001);
#18=CYLINDRICAL_SURFACE('',#675,0.001075);
#19=CYLINDRICAL_SURFACE('',#677,0.0011);
#20=CYLINDRICAL_SURFACE('',#682,0.002);
#21=CYLINDRICAL_SURFACE('',#683,0.0011);
#22=CYLINDRICAL_SURFACE('',#685,0.002);
#23=CYLINDRICAL_SURFACE('',#690,0.002);
#24=CYLINDRICAL_SURFACE('',#691,0.0011);
#25=CYLINDRICAL_SURFACE('',#693,0.002);
#26=CYLINDRICAL_SURFACE('',#697,0.00345);
#27=CIRCLE('',#642,0.001075);
#28=CIRCLE('',#643,0.0011);
#29=CIRCLE('',#644,0.0011);
#30=CIRCLE('',#645,0.0011);
#31=CIRCLE('',#646,0.00400000042590999);
#32=CIRCLE('',#647,0.00400000042591001);
#33=CIRCLE('',#651,0.00155);
#34=CIRCLE('',#652,0.00155);
#35=CIRCLE('',#654,0.00155);
#36=CIRCLE('',#655,0.00155);
#37=CIRCLE('',#657,0.00155);
#38=CIRCLE('',#658,0.00155);
#39=CIRCLE('',#660,0.00155);
#40=CIRCLE('',#661,0.00155);
#41=CIRCLE('',#663,0.002);
#42=CIRCLE('',#664,0.002);
#43=CIRCLE('',#665,0.002);
#44=CIRCLE('',#666,0.002);
#45=CIRCLE('',#667,0.00345);
#46=CIRCLE('',#668,0.00400000042591001);
#47=CIRCLE('',#669,0.00400000042590999);
#48=CIRCLE('',#676,0.001075);
#49=CIRCLE('',#678,0.0011);
#50=CIRCLE('',#681,0.002);
#51=CIRCLE('',#684,0.0011);
#52=CIRCLE('',#686,0.002);
#53=CIRCLE('',#689,0.002);
#54=CIRCLE('',#692,0.0011);
#55=CIRCLE('',#694,0.002);
#56=CIRCLE('',#698,0.00345);
#57=ORIENTED_EDGE('',*,*,#205,.T.);
#58=ORIENTED_EDGE('',*,*,#206,.T.);
#59=ORIENTED_EDGE('',*,*,#207,.T.);
#60=ORIENTED_EDGE('',*,*,#208,.T.);
#61=ORIENTED_EDGE('',*,*,#209,.F.);
#62=ORIENTED_EDGE('',*,*,#210,.F.);
#63=ORIENTED_EDGE('',*,*,#211,.T.);
#64=ORIENTED_EDGE('',*,*,#212,.T.);
#65=ORIENTED_EDGE('',*,*,#213,.T.);
#66=ORIENTED_EDGE('',*,*,#214,.T.);
#67=ORIENTED_EDGE('',*,*,#215,.F.);
#68=ORIENTED_EDGE('',*,*,#216,.F.);
#69=ORIENTED_EDGE('',*,*,#217,.F.);
#70=ORIENTED_EDGE('',*,*,#218,.T.);
#71=ORIENTED_EDGE('',*,*,#219,.T.);
#72=ORIENTED_EDGE('',*,*,#220,.T.);
#73=ORIENTED_EDGE('',*,*,#221,.F.);
#74=ORIENTED_EDGE('',*,*,#222,.F.);
#75=ORIENTED_EDGE('',*,*,#223,.F.);
#76=ORIENTED_EDGE('',*,*,#224,.F.);
#77=ORIENTED_EDGE('',*,*,#225,.T.);
#78=ORIENTED_EDGE('',*,*,#226,.T.);
#79=ORIENTED_EDGE('',*,*,#227,.F.);
#80=ORIENTED_EDGE('',*,*,#228,.F.);
#81=ORIENTED_EDGE('',*,*,#229,.F.);
#82=ORIENTED_EDGE('',*,*,#230,.F.);
#83=ORIENTED_EDGE('',*,*,#231,.F.);
#84=ORIENTED_EDGE('',*,*,#232,.F.);
#85=ORIENTED_EDGE('',*,*,#224,.T.);
#86=ORIENTED_EDGE('',*,*,#233,.T.);
#87=ORIENTED_EDGE('',*,*,#211,.F.);
#88=ORIENTED_EDGE('',*,*,#234,.F.);
#89=ORIENTED_EDGE('',*,*,#235,.T.);
#90=ORIENTED_EDGE('',*,*,#236,.T.);
#91=ORIENTED_EDGE('',*,*,#207,.F.);
#92=ORIENTED_EDGE('',*,*,#237,.T.);
#93=ORIENTED_EDGE('',*,*,#222,.T.);
#94=ORIENTED_EDGE('',*,*,#238,.T.);
#95=ORIENTED_EDGE('',*,*,#239,.T.);
#96=ORIENTED_EDGE('',*,*,#240,.T.);
#97=ORIENTED_EDGE('',*,*,#213,.F.);
#98=ORIENTED_EDGE('',*,*,#241,.T.);
#99=ORIENTED_EDGE('',*,*,#228,.T.);
#100=ORIENTED_EDGE('',*,*,#242,.T.);
#101=ORIENTED_EDGE('',*,*,#218,.F.);
#102=ORIENTED_EDGE('',*,*,#243,.T.);
#103=ORIENTED_EDGE('',*,*,#205,.F.);
#104=ORIENTED_EDGE('',*,*,#244,.T.);
#105=ORIENTED_EDGE('',*,*,#245,.F.);
#106=ORIENTED_EDGE('',*,*,#246,.F.);
#107=ORIENTED_EDGE('',*,*,#247,.F.);
#108=ORIENTED_EDGE('',*,*,#248,.F.);
#109=ORIENTED_EDGE('',*,*,#249,.F.);
#110=ORIENTED_EDGE('',*,*,#250,.F.);
#111=ORIENTED_EDGE('',*,*,#251,.F.);
#112=ORIENTED_EDGE('',*,*,#252,.F.);
#113=ORIENTED_EDGE('',*,*,#253,.F.);
#114=ORIENTED_EDGE('',*,*,#254,.F.);
#115=ORIENTED_EDGE('',*,*,#255,.F.);
#116=ORIENTED_EDGE('',*,*,#256,.F.);
#117=ORIENTED_EDGE('',*,*,#257,.T.);
#118=ORIENTED_EDGE('',*,*,#258,.F.);
#119=ORIENTED_EDGE('',*,*,#209,.T.);
#120=ORIENTED_EDGE('',*,*,#259,.F.);
#121=ORIENTED_EDGE('',*,*,#260,.F.);
#122=ORIENTED_EDGE('',*,*,#261,.T.);
#123=ORIENTED_EDGE('',*,*,#215,.T.);
#124=ORIENTED_EDGE('',*,*,#262,.F.);
#125=ORIENTED_EDGE('',*,*,#226,.F.);
#126=ORIENTED_EDGE('',*,*,#263,.F.);
#127=ORIENTED_EDGE('',*,*,#264,.F.);
#128=ORIENTED_EDGE('',*,*,#265,.F.);
#129=ORIENTED_EDGE('',*,*,#220,.F.);
#130=ORIENTED_EDGE('',*,*,#260,.T.);
#131=ORIENTED_EDGE('',*,*,#266,.F.);
#132=ORIENTED_EDGE('',*,*,#235,.F.);
#133=ORIENTED_EDGE('',*,*,#267,.T.);
#134=ORIENTED_EDGE('',*,*,#259,.T.);
#135=ORIENTED_EDGE('',*,*,#208,.F.);
#136=ORIENTED_EDGE('',*,*,#236,.F.);
#137=ORIENTED_EDGE('',*,*,#266,.T.);
#138=ORIENTED_EDGE('',*,*,#265,.T.);
#139=ORIENTED_EDGE('',*,*,#268,.F.);
#140=ORIENTED_EDGE('',*,*,#238,.F.);
#141=ORIENTED_EDGE('',*,*,#221,.T.);
#142=ORIENTED_EDGE('',*,*,#264,.T.);
#143=ORIENTED_EDGE('',*,*,#269,.F.);
#144=ORIENTED_EDGE('',*,*,#239,.F.);
#145=ORIENTED_EDGE('',*,*,#268,.T.);
#146=ORIENTED_EDGE('',*,*,#263,.T.);
#147=ORIENTED_EDGE('',*,*,#225,.F.);
#148=ORIENTED_EDGE('',*,*,#240,.F.);
#149=ORIENTED_EDGE('',*,*,#269,.T.);
#150=ORIENTED_EDGE('',*,*,#229,.T.);
#151=ORIENTED_EDGE('',*,*,#270,.F.);
#152=ORIENTED_EDGE('',*,*,#230,.T.);
#153=ORIENTED_EDGE('',*,*,#271,.T.);
#154=ORIENTED_EDGE('',*,*,#261,.F.);
#155=ORIENTED_EDGE('',*,*,#267,.F.);
#156=ORIENTED_EDGE('',*,*,#234,.T.);
#157=ORIENTED_EDGE('',*,*,#216,.T.);
#158=ORIENTED_EDGE('',*,*,#272,.T.);
#159=ORIENTED_EDGE('',*,*,#272,.F.);
#160=ORIENTED_EDGE('',*,*,#253,.T.);
#161=ORIENTED_EDGE('',*,*,#273,.T.);
#162=ORIENTED_EDGE('',*,*,#231,.T.);
#163=ORIENTED_EDGE('',*,*,#274,.F.);
#164=ORIENTED_EDGE('',*,*,#254,.T.);
#165=ORIENTED_EDGE('',*,*,#273,.F.);
#166=ORIENTED_EDGE('',*,*,#274,.T.);
#167=ORIENTED_EDGE('',*,*,#271,.F.);
#168=ORIENTED_EDGE('',*,*,#275,.T.);
#169=ORIENTED_EDGE('',*,*,#275,.F.);
#170=ORIENTED_EDGE('',*,*,#255,.T.);
#171=ORIENTED_EDGE('',*,*,#276,.T.);
#172=ORIENTED_EDGE('',*,*,#232,.T.);
#173=ORIENTED_EDGE('',*,*,#277,.F.);
#174=ORIENTED_EDGE('',*,*,#256,.T.);
#175=ORIENTED_EDGE('',*,*,#276,.F.);
#176=ORIENTED_EDGE('',*,*,#277,.T.);
#177=ORIENTED_EDGE('',*,*,#270,.T.);
#178=ORIENTED_EDGE('',*,*,#278,.T.);
#179=ORIENTED_EDGE('',*,*,#257,.F.);
#180=ORIENTED_EDGE('',*,*,#278,.F.);
#181=ORIENTED_EDGE('',*,*,#251,.T.);
#182=ORIENTED_EDGE('',*,*,#262,.T.);
#183=ORIENTED_EDGE('',*,*,#214,.F.);
#184=ORIENTED_EDGE('',*,*,#242,.F.);
#185=ORIENTED_EDGE('',*,*,#227,.T.);
#186=ORIENTED_EDGE('',*,*,#249,.T.);
#187=ORIENTED_EDGE('',*,*,#247,.T.);
#188=ORIENTED_EDGE('',*,*,#245,.T.);
#189=ORIENTED_EDGE('',*,*,#258,.T.);
#190=ORIENTED_EDGE('',*,*,#219,.F.);
#191=ORIENTED_EDGE('',*,*,#244,.F.);
#192=ORIENTED_EDGE('',*,*,#210,.T.);
#193=ORIENTED_EDGE('',*,*,#233,.F.);
#194=ORIENTED_EDGE('',*,*,#223,.T.);
#195=ORIENTED_EDGE('',*,*,#241,.F.);
#196=ORIENTED_EDGE('',*,*,#212,.F.);
#197=ORIENTED_EDGE('',*,*,#252,.T.);
#198=ORIENTED_EDGE('',*,*,#237,.F.);
#199=ORIENTED_EDGE('',*,*,#206,.F.);
#200=ORIENTED_EDGE('',*,*,#243,.F.);
#201=ORIENTED_EDGE('',*,*,#217,.T.);
#202=ORIENTED_EDGE('',*,*,#248,.T.);
#203=ORIENTED_EDGE('',*,*,#250,.T.);
#204=ORIENTED_EDGE('',*,*,#246,.T.);
#205=EDGE_CURVE('',#279,#280,#337,.T.);
#206=EDGE_CURVE('',#280,#281,#338,.T.);
#207=EDGE_CURVE('',#281,#282,#339,.T.);
#208=EDGE_CURVE('',#282,#283,#340,.T.);
#209=EDGE_CURVE('',#284,#283,#341,.T.);
#210=EDGE_CURVE('',#279,#284,#342,.T.);
#211=EDGE_CURVE('',#285,#286,#343,.T.);
#212=EDGE_CURVE('',#286,#287,#344,.T.);
#213=EDGE_CURVE('',#287,#288,#345,.T.);
#214=EDGE_CURVE('',#288,#289,#346,.T.);
#215=EDGE_CURVE('',#290,#289,#347,.T.);
#216=EDGE_CURVE('',#285,#290,#348,.T.);
#217=EDGE_CURVE('',#291,#292,#349,.T.);
#218=EDGE_CURVE('',#291,#293,#350,.T.);
#219=EDGE_CURVE('',#293,#294,#351,.T.);
#220=EDGE_CURVE('',#294,#295,#352,.T.);
#221=EDGE_CURVE('',#296,#295,#353,.T.);
#222=EDGE_CURVE('',#292,#296,#354,.T.);
#223=EDGE_CURVE('',#297,#298,#355,.T.);
#224=EDGE_CURVE('',#299,#297,#356,.T.);
#225=EDGE_CURVE('',#299,#300,#357,.T.);
#226=EDGE_CURVE('',#300,#301,#358,.T.);
#227=EDGE_CURVE('',#302,#301,#359,.T.);
#228=EDGE_CURVE('',#298,#302,#360,.T.);
#229=EDGE_CURVE('',#303,#303,#27,.T.);
#230=EDGE_CURVE('',#304,#304,#28,.T.);
#231=EDGE_CURVE('',#305,#305,#29,.T.);
#232=EDGE_CURVE('',#306,#306,#30,.T.);
#233=EDGE_CURVE('',#297,#286,#361,.T.);
#234=EDGE_CURVE('',#307,#285,#362,.T.);
#235=EDGE_CURVE('',#307,#308,#363,.T.);
#236=EDGE_CURVE('',#308,#282,#364,.T.);
#237=EDGE_CURVE('',#281,#292,#365,.T.);
#238=EDGE_CURVE('',#296,#309,#31,.T.);
#239=EDGE_CURVE('',#309,#310,#366,.T.);
#240=EDGE_CURVE('',#310,#299,#32,.T.);
#241=EDGE_CURVE('',#287,#298,#367,.T.);
#242=EDGE_CURVE('',#302,#288,#368,.T.);
#243=EDGE_CURVE('',#291,#280,#369,.T.);
#244=EDGE_CURVE('',#279,#293,#370,.T.);
#245=EDGE_CURVE('',#311,#311,#33,.T.);
#246=EDGE_CURVE('',#312,#312,#34,.F.);
#247=EDGE_CURVE('',#313,#313,#35,.T.);
#248=EDGE_CURVE('',#314,#314,#36,.F.);
#249=EDGE_CURVE('',#315,#315,#37,.T.);
#250=EDGE_CURVE('',#316,#316,#38,.F.);
#251=EDGE_CURVE('',#317,#317,#39,.T.);
#252=EDGE_CURVE('',#318,#318,#40,.F.);
#253=EDGE_CURVE('',#319,#319,#41,.F.);
#254=EDGE_CURVE('',#320,#320,#42,.F.);
#255=EDGE_CURVE('',#321,#321,#43,.F.);
#256=EDGE_CURVE('',#322,#322,#44,.F.);
#257=EDGE_CURVE('',#323,#323,#45,.T.);
#258=EDGE_CURVE('',#284,#294,#371,.T.);
#259=EDGE_CURVE('',#324,#283,#372,.T.);
#260=EDGE_CURVE('',#325,#324,#373,.T.);
#261=EDGE_CURVE('',#325,#290,#374,.T.);
#262=EDGE_CURVE('',#301,#289,#375,.T.);
#263=EDGE_CURVE('',#326,#300,#46,.T.);
#264=EDGE_CURVE('',#327,#326,#376,.T.);
#265=EDGE_CURVE('',#295,#327,#47,.T.);
#266=EDGE_CURVE('',#308,#324,#377,.T.);
#267=EDGE_CURVE('',#307,#325,#378,.T.);
#268=EDGE_CURVE('',#309,#327,#379,.T.);
#269=EDGE_CURVE('',#310,#326,#380,.T.);
#270=EDGE_CURVE('',#328,#328,#48,.T.);
#271=EDGE_CURVE('',#329,#329,#49,.T.);
#272=EDGE_CURVE('',#330,#330,#50,.T.);
#273=EDGE_CURVE('',#331,#331,#51,.T.);
#274=EDGE_CURVE('',#332,#332,#52,.T.);
#275=EDGE_CURVE('',#333,#333,#53,.T.);
#276=EDGE_CURVE('',#334,#334,#54,.T.);
#277=EDGE_CURVE('',#335,#335,#55,.T.);
#278=EDGE_CURVE('',#336,#336,#56,.T.);
#279=VERTEX_POINT('',#887);
#280=VERTEX_POINT('',#888);
#281=VERTEX_POINT('',#890);
#282=VERTEX_POINT('',#892);
#283=VERTEX_POINT('',#894);
#284=VERTEX_POINT('',#896);
#285=VERTEX_POINT('',#900);
#286=VERTEX_POINT('',#901);
#287=VERTEX_POINT('',#903);
#288=VERTEX_POINT('',#905);
#289=VERTEX_POINT('',#907);
#290=VERTEX_POINT('',#909);
#291=VERTEX_POINT('',#913);
#292=VERTEX_POINT('',#914);
#293=VERTEX_POINT('',#916);
#294=VERTEX_POINT('',#918);
#295=VERTEX_POINT('',#920);
#296=VERTEX_POINT('',#922);
#297=VERTEX_POINT('',#926);
#298=VERTEX_POINT('',#927);
#299=VERTEX_POINT('',#929);
#300=VERTEX_POINT('',#931);
#301=VERTEX_POINT('',#933);
#302=VERTEX_POINT('',#935);
#303=VERTEX_POINT('',#939);
#304=VERTEX_POINT('',#941);
#305=VERTEX_POINT('',#943);
#306=VERTEX_POINT('',#945);
#307=VERTEX_POINT('',#948);
#308=VERTEX_POINT('',#950);
#309=VERTEX_POINT('',#954);
#310=VERTEX_POINT('',#956);
#311=VERTEX_POINT('',#966);
#312=VERTEX_POINT('',#968);
#313=VERTEX_POINT('',#971);
#314=VERTEX_POINT('',#973);
#315=VERTEX_POINT('',#976);
#316=VERTEX_POINT('',#978);
#317=VERTEX_POINT('',#981);
#318=VERTEX_POINT('',#983);
#319=VERTEX_POINT('',#986);
#320=VERTEX_POINT('',#988);
#321=VERTEX_POINT('',#990);
#322=VERTEX_POINT('',#992);
#323=VERTEX_POINT('',#994);
#324=VERTEX_POINT('',#997);
#325=VERTEX_POINT('',#999);
#326=VERTEX_POINT('',#1003);
#327=VERTEX_POINT('',#1005);
#328=VERTEX_POINT('',#1018);
#329=VERTEX_POINT('',#1021);
#330=VERTEX_POINT('',#1025);
#331=VERTEX_POINT('',#1029);
#332=VERTEX_POINT('',#1032);
#333=VERTEX_POINT('',#1036);
#334=VERTEX_POINT('',#1040);
#335=VERTEX_POINT('',#1043);
#336=VERTEX_POINT('',#1048);
#337=LINE('',#886,#381);
#338=LINE('',#889,#382);
#339=LINE('',#891,#383);
#340=LINE('',#893,#384);
#341=LINE('',#895,#385);
#342=LINE('',#897,#386);
#343=LINE('',#899,#387);
#344=LINE('',#902,#388);
#345=LINE('',#904,#389);
#346=LINE('',#906,#390);
#347=LINE('',#908,#391);
#348=LINE('',#910,#392);
#349=LINE('',#912,#393);
#350=LINE('',#915,#394);
#351=LINE('',#917,#395);
#352=LINE('',#919,#396);
#353=LINE('',#921,#397);
#354=LINE('',#923,#398);
#355=LINE('',#925,#399);
#356=LINE('',#928,#400);
#357=LINE('',#930,#401);
#358=LINE('',#932,#402);
#359=LINE('',#934,#403);
#360=LINE('',#936,#404);
#361=LINE('',#946,#405);
#362=LINE('',#947,#406);
#363=LINE('',#949,#407);
#364=LINE('',#951,#408);
#365=LINE('',#952,#409);
#366=LINE('',#955,#410);
#367=LINE('',#959,#411);
#368=LINE('',#960,#412);
#369=LINE('',#962,#413);
#370=LINE('',#963,#414);
#371=LINE('',#995,#415);
#372=LINE('',#996,#416);
#373=LINE('',#998,#417);
#374=LINE('',#1000,#418);
#375=LINE('',#1001,#419);
#376=LINE('',#1004,#420);
#377=LINE('',#1008,#421);
#378=LINE('',#1009,#422);
#379=LINE('',#1012,#423);
#380=LINE('',#1014,#424);
#381=VECTOR('',#708,1.);
#382=VECTOR('',#709,1.);
#383=VECTOR('',#710,1.);
#384=VECTOR('',#711,1.);
#385=VECTOR('',#712,1.);
#386=VECTOR('',#713,1.);
#387=VECTOR('',#716,1.);
#388=VECTOR('',#717,1.);
#389=VECTOR('',#718,1.);
#390=VECTOR('',#719,1.);
#391=VECTOR('',#720,1.);
#392=VECTOR('',#721,1.);
#393=VECTOR('',#724,1.);
#394=VECTOR('',#725,1.);
#395=VECTOR('',#726,1.);
#396=VECTOR('',#727,1.);
#397=VECTOR('',#728,1.);
#398=VECTOR('',#729,1.);
#399=VECTOR('',#732,1.);
#400=VECTOR('',#733,1.);
#401=VECTOR('',#734,1.);
#402=VECTOR('',#735,1.);
#403=VECTOR('',#736,1.);
#404=VECTOR('',#737,1.);
#405=VECTOR('',#748,1.);
#406=VECTOR('',#749,1.);
#407=VECTOR('',#750,1.);
#408=VECTOR('',#751,1.);
#409=VECTOR('',#752,1.);
#410=VECTOR('',#755,1.);
#411=VECTOR('',#760,1.);
#412=VECTOR('',#761,1.);
#413=VECTOR('',#764,1.);
#414=VECTOR('',#765,1.);
#415=VECTOR('',#802,1.);
#416=VECTOR('',#803,1.);
#417=VECTOR('',#804,1.);
#418=VECTOR('',#805,1.);
#419=VECTOR('',#806,1.);
#420=VECTOR('',#809,1.);
#421=VECTOR('',#814,1.);
#422=VECTOR('',#815,1.);
#423=VECTOR('',#820,1.);
#424=VECTOR('',#823,1.);
#425=EDGE_LOOP('',(#57,#58,#59,#60,#61,#62));
#426=EDGE_LOOP('',(#63,#64,#65,#66,#67,#68));
#427=EDGE_LOOP('',(#69,#70,#71,#72,#73,#74));
#428=EDGE_LOOP('',(#75,#76,#77,#78,#79,#80));
#429=EDGE_LOOP('',(#81));
#430=EDGE_LOOP('',(#82));
#431=EDGE_LOOP('',(#83));
#432=EDGE_LOOP('',(#84));
#433=EDGE_LOOP('',(#85,#86,#87,#88,#89,#90,#91,#92,#93,#94,#95,#96));
#434=EDGE_LOOP('',(#97,#98,#99,#100));
#435=EDGE_LOOP('',(#101,#102,#103,#104));
#436=EDGE_LOOP('',(#105));
#437=EDGE_LOOP('',(#106));
#438=EDGE_LOOP('',(#107));
#439=EDGE_LOOP('',(#108));
#440=EDGE_LOOP('',(#109));
#441=EDGE_LOOP('',(#110));
#442=EDGE_LOOP('',(#111));
#443=EDGE_LOOP('',(#112));
#444=EDGE_LOOP('',(#113));
#445=EDGE_LOOP('',(#114));
#446=EDGE_LOOP('',(#115));
#447=EDGE_LOOP('',(#116));
#448=EDGE_LOOP('',(#117));
#449=EDGE_LOOP('',(#118,#119,#120,#121,#122,#123,#124,#125,#126,#127,#128,
#129));
#450=EDGE_LOOP('',(#130,#131,#132,#133));
#451=EDGE_LOOP('',(#134,#135,#136,#137));
#452=EDGE_LOOP('',(#138,#139,#140,#141));
#453=EDGE_LOOP('',(#142,#143,#144,#145));
#454=EDGE_LOOP('',(#146,#147,#148,#149));
#455=EDGE_LOOP('',(#150));
#456=EDGE_LOOP('',(#151));
#457=EDGE_LOOP('',(#152));
#458=EDGE_LOOP('',(#153));
#459=EDGE_LOOP('',(#154,#155,#156,#157));
#460=EDGE_LOOP('',(#158));
#461=EDGE_LOOP('',(#159));
#462=EDGE_LOOP('',(#160));
#463=EDGE_LOOP('',(#161));
#464=EDGE_LOOP('',(#162));
#465=EDGE_LOOP('',(#163));
#466=EDGE_LOOP('',(#164));
#467=EDGE_LOOP('',(#165));
#468=EDGE_LOOP('',(#166));
#469=EDGE_LOOP('',(#167));
#470=EDGE_LOOP('',(#168));
#471=EDGE_LOOP('',(#169));
#472=EDGE_LOOP('',(#170));
#473=EDGE_LOOP('',(#171));
#474=EDGE_LOOP('',(#172));
#475=EDGE_LOOP('',(#173));
#476=EDGE_LOOP('',(#174));
#477=EDGE_LOOP('',(#175));
#478=EDGE_LOOP('',(#176));
#479=EDGE_LOOP('',(#177));
#480=EDGE_LOOP('',(#178));
#481=EDGE_LOOP('',(#179));
#482=EDGE_LOOP('',(#180));
#483=EDGE_LOOP('',(#181));
#484=EDGE_LOOP('',(#182,#183,#184,#185));
#485=EDGE_LOOP('',(#186));
#486=EDGE_LOOP('',(#187));
#487=EDGE_LOOP('',(#188));
#488=EDGE_LOOP('',(#189,#190,#191,#192));
#489=EDGE_LOOP('',(#193,#194,#195,#196));
#490=EDGE_LOOP('',(#197));
#491=EDGE_LOOP('',(#198,#199,#200,#201));
#492=EDGE_LOOP('',(#202));
#493=EDGE_LOOP('',(#203));
#494=EDGE_LOOP('',(#204));
#495=FACE_BOUND('',#425,.T.);
#496=FACE_BOUND('',#426,.T.);
#497=FACE_BOUND('',#427,.T.);
#498=FACE_BOUND('',#428,.T.);
#499=FACE_BOUND('',#429,.T.);
#500=FACE_BOUND('',#430,.T.);
#501=FACE_BOUND('',#431,.T.);
#502=FACE_BOUND('',#432,.T.);
#503=FACE_BOUND('',#433,.T.);
#504=FACE_BOUND('',#434,.T.);
#505=FACE_BOUND('',#435,.T.);
#506=FACE_BOUND('',#436,.T.);
#507=FACE_BOUND('',#437,.T.);
#508=FACE_BOUND('',#438,.T.);
#509=FACE_BOUND('',#439,.T.);
#510=FACE_BOUND('',#440,.T.);
#511=FACE_BOUND('',#441,.T.);
#512=FACE_BOUND('',#442,.T.);
#513=FACE_BOUND('',#443,.T.);
#514=FACE_BOUND('',#444,.T.);
#515=FACE_BOUND('',#445,.T.);
#516=FACE_BOUND('',#446,.T.);
#517=FACE_BOUND('',#447,.T.);
#518=FACE_BOUND('',#448,.T.);
#519=FACE_BOUND('',#449,.T.);
#520=FACE_BOUND('',#450,.T.);
#521=FACE_BOUND('',#451,.T.);
#522=FACE_BOUND('',#452,.T.);
#523=FACE_BOUND('',#453,.T.);
#524=FACE_BOUND('',#454,.T.);
#525=FACE_BOUND('',#455,.T.);
#526=FACE_BOUND('',#456,.T.);
#527=FACE_BOUND('',#457,.T.);
#528=FACE_BOUND('',#458,.T.);
#529=FACE_BOUND('',#459,.T.);
#530=FACE_BOUND('',#460,.T.);
#531=FACE_BOUND('',#461,.T.);
#532=FACE_BOUND('',#462,.T.);
#533=FACE_BOUND('',#463,.T.);
#534=FACE_BOUND('',#464,.T.);
#535=FACE_BOUND('',#465,.T.);
#536=FACE_BOUND('',#466,.T.);
#537=FACE_BOUND('',#467,.T.);
#538=FACE_BOUND('',#468,.T.);
#539=FACE_BOUND('',#469,.T.);
#540=FACE_BOUND('',#470,.T.);
#541=FACE_BOUND('',#471,.T.);
#542=FACE_BOUND('',#472,.T.);
#543=FACE_BOUND('',#473,.T.);
#544=FACE_BOUND('',#474,.T.);
#545=FACE_BOUND('',#475,.T.);
#546=FACE_BOUND('',#476,.T.);
#547=FACE_BOUND('',#477,.T.);
#548=FACE_BOUND('',#478,.T.);
#549=FACE_BOUND('',#479,.T.);
#550=FACE_BOUND('',#480,.T.);
#551=FACE_BOUND('',#481,.T.);
#552=FACE_BOUND('',#482,.T.);
#553=FACE_BOUND('',#483,.T.);
#554=FACE_BOUND('',#484,.T.);
#555=FACE_BOUND('',#485,.T.);
#556=FACE_BOUND('',#486,.T.);
#557=FACE_BOUND('',#487,.T.);
#558=FACE_BOUND('',#488,.T.);
#559=FACE_BOUND('',#489,.T.);
#560=FACE_BOUND('',#490,.T.);
#561=FACE_BOUND('',#491,.T.);
#562=FACE_BOUND('',#492,.T.);
#563=FACE_BOUND('',#493,.T.);
#564=FACE_BOUND('',#494,.T.);
#565=PLANE('',#637);
#566=PLANE('',#638);
#567=PLANE('',#639);
#568=PLANE('',#640);
#569=PLANE('',#641);
#570=PLANE('',#648);
#571=PLANE('',#649);
#572=PLANE('',#662);
#573=PLANE('',#670);
#574=PLANE('',#671);
#575=PLANE('',#673);
#576=PLANE('',#679);
#577=PLANE('',#680);
#578=PLANE('',#687);
#579=PLANE('',#688);
#580=PLANE('',#695);
#581=PLANE('',#696);
#582=PLANE('',#699);
#583=PLANE('',#700);
#584=PLANE('',#701);
#585=PLANE('',#702);
#586=PLANE('',#703);
#587=ADVANCED_FACE('',(#495),#565,.T.);
#588=ADVANCED_FACE('',(#496),#566,.T.);
#589=ADVANCED_FACE('',(#497),#567,.F.);
#590=ADVANCED_FACE('',(#498),#568,.F.);
#591=ADVANCED_FACE('',(#499,#500,#501,#502,#503),#569,.T.);
#592=ADVANCED_FACE('',(#504),#570,.T.);
#593=ADVANCED_FACE('',(#505),#571,.T.);
#594=ADVANCED_FACE('',(#506,#507),#12,.F.);
#595=ADVANCED_FACE('',(#508,#509),#13,.F.);
#596=ADVANCED_FACE('',(#510,#511),#14,.F.);
#597=ADVANCED_FACE('',(#512,#513),#15,.F.);
#598=ADVANCED_FACE('',(#514,#515,#516,#517,#518,#519),#572,.F.);
#599=ADVANCED_FACE('',(#520),#573,.F.);
#600=ADVANCED_FACE('',(#521),#574,.F.);
#601=ADVANCED_FACE('',(#522),#16,.T.);
#602=ADVANCED_FACE('',(#523),#575,.F.);
#603=ADVANCED_FACE('',(#524),#17,.T.);
#604=ADVANCED_FACE('',(#525,#526),#18,.F.);
#605=ADVANCED_FACE('',(#527,#528),#19,.F.);
#606=ADVANCED_FACE('',(#529),#576,.T.);
#607=ADVANCED_FACE('',(#530),#577,.T.);
#608=ADVANCED_FACE('',(#531,#532),#20,.T.);
#609=ADVANCED_FACE('',(#533,#534),#21,.F.);
#610=ADVANCED_FACE('',(#535,#536),#22,.T.);
#611=ADVANCED_FACE('',(#537,#538),#578,.T.);
#612=ADVANCED_FACE('',(#539,#540),#579,.T.);
#613=ADVANCED_FACE('',(#541,#542),#23,.T.);
#614=ADVANCED_FACE('',(#543,#544),#24,.F.);
#615=ADVANCED_FACE('',(#545,#546),#25,.T.);
#616=ADVANCED_FACE('',(#547,#548),#580,.T.);
#617=ADVANCED_FACE('',(#549),#581,.F.);
#618=ADVANCED_FACE('',(#550,#551),#26,.F.);
#619=ADVANCED_FACE('',(#552),#582,.F.);
#620=ADVANCED_FACE('',(#553,#554),#583,.F.);
#621=ADVANCED_FACE('',(#555,#556,#557,#558),#584,.F.);
#622=ADVANCED_FACE('',(#559,#560),#585,.T.);
#623=ADVANCED_FACE('',(#561,#562,#563,#564),#586,.T.);
#624=CLOSED_SHELL('',(#587,#588,#589,#590,#591,#592,#593,#594,#595,#596,
#597,#598,#599,#600,#601,#602,#603,#604,#605,#606,#607,#608,#609,#610,#611,
#612,#613,#614,#615,#616,#617,#618,#619,#620,#621,#622,#623));
#625=STYLED_ITEM('',(#626),#633);
#626=PRESENTATION_STYLE_ASSIGNMENT((#627));
#627=SURFACE_STYLE_USAGE(.BOTH.,#628);
#628=SURFACE_SIDE_STYLE('',(#629));
#629=SURFACE_STYLE_FILL_AREA(#630);
#630=FILL_AREA_STYLE('',(#631));
#631=FILL_AREA_STYLE_COLOUR('',#632);
#632=COLOUR_RGB('',0.6,0.580392156862745,0.529411764705882);
#633=MANIFOLD_SOLID_BREP('Part 2413',#624);
#634=SHAPE_DEFINITION_REPRESENTATION(#1060,#635);
#635=SHAPE_REPRESENTATION('Part 2413',(#636),#1055);
#636=AXIS2_PLACEMENT_3D('',#884,#704,#705);
#637=AXIS2_PLACEMENT_3D('',#885,#706,#707);
#638=AXIS2_PLACEMENT_3D('',#898,#714,#715);
#639=AXIS2_PLACEMENT_3D('',#911,#722,#723);
#640=AXIS2_PLACEMENT_3D('',#924,#730,#731);
#641=AXIS2_PLACEMENT_3D('',#937,#738,#739);
#642=AXIS2_PLACEMENT_3D('',#938,#740,#741);
#643=AXIS2_PLACEMENT_3D('',#940,#742,#743);
#644=AXIS2_PLACEMENT_3D('',#942,#744,#745);
#645=AXIS2_PLACEMENT_3D('',#944,#746,#747);
#646=AXIS2_PLACEMENT_3D('',#953,#753,#754);
#647=AXIS2_PLACEMENT_3D('',#957,#756,#757);
#648=AXIS2_PLACEMENT_3D('',#958,#758,#759);
#649=AXIS2_PLACEMENT_3D('',#961,#762,#763);
#650=AXIS2_PLACEMENT_3D('',#964,#766,#767);
#651=AXIS2_PLACEMENT_3D('',#965,#768,#769);
#652=AXIS2_PLACEMENT_3D('',#967,#770,#771);
#653=AXIS2_PLACEMENT_3D('',#969,#772,#773);
#654=AXIS2_PLACEMENT_3D('',#970,#774,#775);
#655=AXIS2_PLACEMENT_3D('',#972,#776,#777);
#656=AXIS2_PLACEMENT_3D('',#974,#778,#779);
#657=AXIS2_PLACEMENT_3D('',#975,#780,#781);
#658=AXIS2_PLACEMENT_3D('',#977,#782,#783);
#659=AXIS2_PLACEMENT_3D('',#979,#784,#785);
#660=AXIS2_PLACEMENT_3D('',#980,#786,#787);
#661=AXIS2_PLACEMENT_3D('',#982,#788,#789);
#662=AXIS2_PLACEMENT_3D('',#984,#790,#791);
#663=AXIS2_PLACEMENT_3D('',#985,#792,#793);
#664=AXIS2_PLACEMENT_3D('',#987,#794,#795);
#665=AXIS2_PLACEMENT_3D('',#989,#796,#797);
#666=AXIS2_PLACEMENT_3D('',#991,#798,#799);
#667=AXIS2_PLACEMENT_3D('',#993,#800,#801);
#668=AXIS2_PLACEMENT_3D('',#1002,#807,#808);
#669=AXIS2_PLACEMENT_3D('',#1006,#810,#811);
#670=AXIS2_PLACEMENT_3D('',#1007,#812,#813);
#671=AXIS2_PLACEMENT_3D('',#1010,#816,#817);
#672=AXIS2_PLACEMENT_3D('',#1011,#818,#819);
#673=AXIS2_PLACEMENT_3D('',#1013,#821,#822);
#674=AXIS2_PLACEMENT_3D('',#1015,#824,#825);
#675=AXIS2_PLACEMENT_3D('',#1016,#826,#827);
#676=AXIS2_PLACEMENT_3D('',#1017,#828,#829);
#677=AXIS2_PLACEMENT_3D('',#1019,#830,#831);
#678=AXIS2_PLACEMENT_3D('',#1020,#832,#833);
#679=AXIS2_PLACEMENT_3D('',#1022,#834,#835);
#680=AXIS2_PLACEMENT_3D('',#1023,#836,#837);
#681=AXIS2_PLACEMENT_3D('',#1024,#838,#839);
#682=AXIS2_PLACEMENT_3D('',#1026,#840,#841);
#683=AXIS2_PLACEMENT_3D('',#1027,#842,#843);
#684=AXIS2_PLACEMENT_3D('',#1028,#844,#845);
#685=AXIS2_PLACEMENT_3D('',#1030,#846,#847);
#686=AXIS2_PLACEMENT_3D('',#1031,#848,#849);
#687=AXIS2_PLACEMENT_3D('',#1033,#850,#851);
#688=AXIS2_PLACEMENT_3D('',#1034,#852,#853);
#689=AXIS2_PLACEMENT_3D('',#1035,#854,#855);
#690=AXIS2_PLACEMENT_3D('',#1037,#856,#857);
#691=AXIS2_PLACEMENT_3D('',#1038,#858,#859);
#692=AXIS2_PLACEMENT_3D('',#1039,#860,#861);
#693=AXIS2_PLACEMENT_3D('',#1041,#862,#863);
#694=AXIS2_PLACEMENT_3D('',#1042,#864,#865);
#695=AXIS2_PLACEMENT_3D('',#1044,#866,#867);
#696=AXIS2_PLACEMENT_3D('',#1045,#868,#869);
#697=AXIS2_PLACEMENT_3D('',#1046,#870,#871);
#698=AXIS2_PLACEMENT_3D('',#1047,#872,#873);
#699=AXIS2_PLACEMENT_3D('',#1049,#874,#875);
#700=AXIS2_PLACEMENT_3D('',#1050,#876,#877);
#701=AXIS2_PLACEMENT_3D('',#1051,#878,#879);
#702=AXIS2_PLACEMENT_3D('',#1052,#880,#881);
#703=AXIS2_PLACEMENT_3D('',#1053,#882,#883);
#704=DIRECTION('',(0.,0.,1.));
#705=DIRECTION('',(1.,0.,0.));
#706=DIRECTION('',(-0.00177533139727753,-0.999998424097973,0.));
#707=DIRECTION('',(0.999998424097973,-0.00177533139727753,0.));
#708=DIRECTION('',(0.999998424097973,-0.001775331397279,0.));
#709=DIRECTION('',(0.,0.,1.));
#710=DIRECTION('',(-0.999998424097973,0.00177533139727753,0.));
#711=DIRECTION('',(0.,0.,-1.));
#712=DIRECTION('',(-0.999998424097973,0.00177533139727753,0.));
#713=DIRECTION('',(0.,0.,1.));
#714=DIRECTION('',(0.,1.,0.));
#715=DIRECTION('',(0.,0.,1.));
#716=DIRECTION('',(1.,0.,0.));
#717=DIRECTION('',(0.,0.,-1.));
#718=DIRECTION('',(-1.,0.,0.));
#719=DIRECTION('',(0.,0.,1.));
#720=DIRECTION('',(1.,0.,0.));
#721=DIRECTION('',(0.,0.,-1.));
#722=DIRECTION('',(0.,-1.,0.));
#723=DIRECTION('',(0.,0.,-1.));
#724=DIRECTION('',(0.,0.,1.));
#725=DIRECTION('',(-1.,0.,0.));
#726=DIRECTION('',(0.,0.,1.));
#727=DIRECTION('',(-1.,0.,0.));
#728=DIRECTION('',(0.,0.,-1.));
#729=DIRECTION('',(-1.,0.,0.));
#730=DIRECTION('',(0.,1.,0.));
#731=DIRECTION('',(0.,0.,1.));
#732=DIRECTION('',(0.,0.,-1.));
#733=DIRECTION('',(1.,0.,0.));
#734=DIRECTION('',(0.,0.,-1.));
#735=DIRECTION('',(1.,0.,0.));
#736=DIRECTION('',(0.,0.,1.));
#737=DIRECTION('',(-1.,0.,0.));
#738=DIRECTION('',(0.,0.,1.));
#739=DIRECTION('',(1.,0.,0.));
#740=DIRECTION('',(0.,0.,1.));
#741=DIRECTION('',(1.,0.,0.));
#742=DIRECTION('',(0.,0.,1.));
#743=DIRECTION('',(1.,0.,0.));
#744=DIRECTION('',(0.,0.,1.));
#745=DIRECTION('',(1.,0.,0.));
#746=DIRECTION('',(0.,0.,1.));
#747=DIRECTION('',(1.,0.,0.));
#748=DIRECTION('',(0.,1.,0.));
#749=DIRECTION('',(1.48631103417944E-10,-1.,0.));
#750=DIRECTION('',(1.41442178695007E-7,1.,0.));
#751=DIRECTION('',(1.5732575477649E-6,0.999999999998763,0.));
#752=DIRECTION('',(0.,1.,0.));
#753=DIRECTION('',(0.,0.,1.));
#754=DIRECTION('',(1.,0.,0.));
#755=DIRECTION('',(0.,-1.,0.));
#756=DIRECTION('',(0.,0.,1.));
#757=DIRECTION('',(1.,0.,0.));
#758=DIRECTION('',(0.,0.,-1.));
#759=DIRECTION('',(1.,0.,0.));
#760=DIRECTION('',(0.,-1.,0.));
#761=DIRECTION('',(-9.89561609794416E-17,1.,0.));
#762=DIRECTION('',(0.,0.,-1.));
#763=DIRECTION('',(1.,0.,0.));
#764=DIRECTION('',(0.,-1.,0.));
#765=DIRECTION('',(5.9302519910341E-17,1.,0.));
#766=DIRECTION('',(1.,-9.89561609794416E-17,0.));
#767=DIRECTION('',(9.89561609794416E-17,1.,0.));
#768=DIRECTION('',(1.,-5.9302519910341E-17,0.));
#769=DIRECTION('',(5.9302519910341E-17,1.,0.));
#770=DIRECTION('',(1.,0.,0.));
#771=DIRECTION('',(0.,0.,-1.));
#772=DIRECTION('',(1.,-9.89561609794416E-17,0.));
#773=DIRECTION('',(9.89561609794416E-17,1.,0.));
#774=DIRECTION('',(1.,-5.9302519910341E-17,0.));
#775=DIRECTION('',(5.9302519910341E-17,1.,0.));
#776=DIRECTION('',(1.,0.,0.));
#777=DIRECTION('',(0.,0.,-1.));
#778=DIRECTION('',(1.,-9.89561609794416E-17,0.));
#779=DIRECTION('',(9.89561609794416E-17,1.,0.));
#780=DIRECTION('',(1.,-5.9302519910341E-17,0.));
#781=DIRECTION('',(5.9302519910341E-17,1.,0.));
#782=DIRECTION('',(1.,0.,0.));
#783=DIRECTION('',(0.,0.,-1.));
#784=DIRECTION('',(1.,-9.89561609794416E-17,0.));
#785=DIRECTION('',(9.89561609794416E-17,1.,0.));
#786=DIRECTION('',(1.,9.89561609794416E-17,0.));
#787=DIRECTION('',(-9.89561609794416E-17,1.,0.));
#788=DIRECTION('',(1.,0.,0.));
#789=DIRECTION('',(0.,0.,-1.));
#790=DIRECTION('',(0.,0.,1.));
#791=DIRECTION('',(1.,0.,0.));
#792=DIRECTION('',(0.,0.,1.));
#793=DIRECTION('',(1.,0.,0.));
#794=DIRECTION('',(0.,0.,1.));
#795=DIRECTION('',(1.,0.,0.));
#796=DIRECTION('',(0.,0.,1.));
#797=DIRECTION('',(1.,0.,0.));
#798=DIRECTION('',(0.,0.,1.));
#799=DIRECTION('',(1.,0.,0.));
#800=DIRECTION('',(0.,0.,1.));
#801=DIRECTION('',(1.,0.,0.));
#802=DIRECTION('',(5.9302519910341E-17,1.,0.));
#803=DIRECTION('',(1.5732575477649E-6,0.999999999998763,0.));
#804=DIRECTION('',(1.41442178695007E-7,1.,0.));
#805=DIRECTION('',(1.48631103417944E-10,-1.,0.));
#806=DIRECTION('',(-9.89561609794416E-17,1.,0.));
#807=DIRECTION('',(0.,0.,1.));
#808=DIRECTION('',(1.,0.,0.));
#809=DIRECTION('',(0.,-1.,0.));
#810=DIRECTION('',(0.,0.,1.));
#811=DIRECTION('',(1.,0.,0.));
#812=DIRECTION('',(-1.,1.41442178695007E-7,0.));
#813=DIRECTION('',(-1.41442178695007E-7,-1.,0.));
#814=DIRECTION('',(0.,0.,-1.));
#815=DIRECTION('',(0.,0.,-1.));
#816=DIRECTION('',(-0.999999999998762,1.5732575477649E-6,0.));
#817=DIRECTION('',(-1.5732575477649E-6,-0.999999999998763,0.));
#818=DIRECTION('',(0.,0.,-1.));
#819=DIRECTION('',(-1.,0.,0.));
#820=DIRECTION('',(0.,0.,-1.));
#821=DIRECTION('',(1.,0.,0.));
#822=DIRECTION('',(0.,0.,-1.));
#823=DIRECTION('',(0.,0.,-1.));
#824=DIRECTION('',(0.,0.,-1.));
#825=DIRECTION('',(-1.,0.,0.));
#826=DIRECTION('',(0.,0.,-1.));
#827=DIRECTION('',(-1.,0.,0.));
#828=DIRECTION('',(0.,0.,1.));
#829=DIRECTION('',(1.,0.,0.));
#830=DIRECTION('',(0.,0.,-1.));
#831=DIRECTION('',(-1.,0.,0.));
#832=DIRECTION('',(0.,0.,-1.));
#833=DIRECTION('',(-1.,0.,0.));
#834=DIRECTION('',(1.,1.48631103417944E-10,0.));
#835=DIRECTION('',(-1.48631103417944E-10,1.,0.));
#836=DIRECTION('',(0.,0.,-1.));
#837=DIRECTION('',(1.,0.,0.));
#838=DIRECTION('',(0.,0.,-1.));
#839=DIRECTION('',(-1.,0.,0.));
#840=DIRECTION('',(0.,0.,1.));
#841=DIRECTION('',(1.,0.,0.));
#842=DIRECTION('',(0.,0.,1.));
#843=DIRECTION('',(1.,0.,0.));
#844=DIRECTION('',(0.,0.,-1.));
#845=DIRECTION('',(-1.,0.,0.));
#846=DIRECTION('',(0.,0.,1.));
#847=DIRECTION('',(1.,0.,0.));
#848=DIRECTION('',(0.,0.,-1.));
#849=DIRECTION('',(-1.,0.,0.));
#850=DIRECTION('',(0.,0.,-1.));
#851=DIRECTION('',(1.,0.,0.));
#852=DIRECTION('',(0.,0.,-1.));
#853=DIRECTION('',(1.,0.,0.));
#854=DIRECTION('',(0.,0.,-1.));
#855=DIRECTION('',(-1.,0.,0.));
#856=DIRECTION('',(0.,0.,1.));
#857=DIRECTION('',(1.,0.,0.));
#858=DIRECTION('',(0.,0.,1.));
#859=DIRECTION('',(1.,0.,0.));
#860=DIRECTION('',(0.,0.,-1.));
#861=DIRECTION('',(-1.,0.,0.));
#862=DIRECTION('',(0.,0.,1.));
#863=DIRECTION('',(1.,0.,0.));
#864=DIRECTION('',(0.,0.,-1.));
#865=DIRECTION('',(-1.,0.,0.));
#866=DIRECTION('',(0.,0.,-1.));
#867=DIRECTION('',(1.,0.,0.));
#868=DIRECTION('',(0.,0.,-1.));
#869=DIRECTION('',(1.,0.,0.));
#870=DIRECTION('',(0.,0.,-1.));
#871=DIRECTION('',(-1.,0.,0.));
#872=DIRECTION('',(0.,0.,1.));
#873=DIRECTION('',(1.,0.,0.));
#874=DIRECTION('',(0.,0.,1.));
#875=DIRECTION('',(1.,0.,0.));
#876=DIRECTION('',(1.,9.89561609794416E-17,0.));
#877=DIRECTION('',(-9.89561609794416E-17,1.,0.));
#878=DIRECTION('',(1.,-5.9302519910341E-17,0.));
#879=DIRECTION('',(5.9302519910341E-17,1.,0.));
#880=DIRECTION('',(1.,0.,0.));
#881=DIRECTION('',(0.,1.,0.));
#882=DIRECTION('',(1.,0.,0.));
#883=DIRECTION('',(0.,1.,0.));
#884=CARTESIAN_POINT('',(0.,0.,0.));
#885=CARTESIAN_POINT('',(-0.162751247602279,0.0409313092361178,0.01051));
#886=CARTESIAN_POINT('',(-4.33680868994202E-19,0.0406423713809657,0.00251));
#887=CARTESIAN_POINT('',(-0.002,0.0406459220493557,0.00251));
#888=CARTESIAN_POINT('',(3.41719818722129E-25,0.0406423713809657,0.00251));
#889=CARTESIAN_POINT('',(0.,0.0406423713809657,0.01051));
#890=CARTESIAN_POINT('',(0.,0.0406423713809657,0.01051));
#891=CARTESIAN_POINT('',(-0.162751247602279,0.0409313092361178,0.01051));
#892=CARTESIAN_POINT('',(-0.163551246341557,0.0409327295012357,0.01051));
#893=CARTESIAN_POINT('',(-0.163551246341557,0.0409327295012357,0.01051));
#894=CARTESIAN_POINT('',(-0.163551246341557,0.0409327295012357,0.00751));
#895=CARTESIAN_POINT('',(-0.162751247602279,0.0409313092361178,0.00751));
#896=CARTESIAN_POINT('',(-0.00199999999999997,0.0406459220493557,0.00751));
#897=CARTESIAN_POINT('',(-0.002,0.0406459220493557,0.00251));
#898=CARTESIAN_POINT('',(0.120398748863119,-0.053819888971,0.01051));
#899=CARTESIAN_POINT('',(0.120398748863119,-0.053819888971,0.01051));
#900=CARTESIAN_POINT('',(-0.163551261812,-0.053819888971,0.01051));
#901=CARTESIAN_POINT('',(0.,-0.053819888971,0.01051));
#902=CARTESIAN_POINT('',(0.,-0.053819888971,0.01051));
#903=CARTESIAN_POINT('',(0.,-0.053819888971,0.00251));
#904=CARTESIAN_POINT('',(0.,-0.053819888971,0.00251));
#905=CARTESIAN_POINT('',(-0.002,-0.053819888971,0.00251));
#906=CARTESIAN_POINT('',(-0.002,-0.053819888971,0.00251));
#907=CARTESIAN_POINT('',(-0.002,-0.053819888971,0.00751));
#908=CARTESIAN_POINT('',(0.120398748863119,-0.053819888971,0.00751));
#909=CARTESIAN_POINT('',(-0.163551261812,-0.053819888971,0.00751));
#910=CARTESIAN_POINT('',(-0.163551261812,-0.053819888971,0.01051));
#911=CARTESIAN_POINT('',(2.2509771824275E-14,0.062585,0.01051));
#912=CARTESIAN_POINT('',(0.,0.062585,0.01051));
#913=CARTESIAN_POINT('',(0.,0.062585,0.00251));
#914=CARTESIAN_POINT('',(0.,0.062585,0.01051));
#915=CARTESIAN_POINT('',(0.,0.062585,0.00251));
#916=CARTESIAN_POINT('',(-0.002,0.062585,0.00251));
#917=CARTESIAN_POINT('',(-0.002,0.062585,0.00251));
#918=CARTESIAN_POINT('',(-0.002,0.062585,0.00751));
#919=CARTESIAN_POINT('',(2.2509771824275E-14,0.062585,0.00751));
#920=CARTESIAN_POINT('',(-0.170569999787,0.062585,0.00751));
#921=CARTESIAN_POINT('',(-0.170569999787,0.062585,0.01051));
#922=CARTESIAN_POINT('',(-0.170569999787,0.062585,0.01051));
#923=CARTESIAN_POINT('',(2.2509771824275E-14,0.062585,0.01051));
#924=CARTESIAN_POINT('',(2.2509771824275E-14,-0.062585,0.01051));
#925=CARTESIAN_POINT('',(0.,-0.062585,0.01051));
#926=CARTESIAN_POINT('',(0.,-0.062585,0.01051));
#927=CARTESIAN_POINT('',(0.,-0.062585,0.00251));
#928=CARTESIAN_POINT('',(2.2509771824275E-14,-0.062585,0.01051));
#929=CARTESIAN_POINT('',(-0.170569999787,-0.062585,0.01051));
#930=CARTESIAN_POINT('',(-0.170569999787,-0.062585,0.01051));
#931=CARTESIAN_POINT('',(-0.170569999787,-0.062585,0.00751));
#932=CARTESIAN_POINT('',(2.2509771824275E-14,-0.062585,0.00751));
#933=CARTESIAN_POINT('',(-0.002,-0.062585,0.00751));
#934=CARTESIAN_POINT('',(-0.002,-0.062585,0.00251));
#935=CARTESIAN_POINT('',(-0.002,-0.062585,0.00251));
#936=CARTESIAN_POINT('',(0.,-0.062585,0.00251));
#937=CARTESIAN_POINT('',(2.77555756156289E-17,0.,0.01051));
#938=CARTESIAN_POINT('',(-0.16964,-0.057265,0.01051));
#939=CARTESIAN_POINT('',(-0.168565,-0.057265,0.01051));
#940=CARTESIAN_POINT('',(-0.16844,0.056425,0.01051));
#941=CARTESIAN_POINT('',(-0.16734,0.056425,0.01051));
#942=CARTESIAN_POINT('',(-0.04149,-0.059015,0.01051));
#943=CARTESIAN_POINT('',(-0.04039,-0.059015,0.01051));
#944=CARTESIAN_POINT('',(-0.01387,0.057985,0.01051));
#945=CARTESIAN_POINT('',(-0.01277,0.057985,0.01051));
#946=CARTESIAN_POINT('',(0.,0.,0.01051));
#947=CARTESIAN_POINT('',(-0.163551261812119,-0.05301988894945,0.01051));
#948=CARTESIAN_POINT('',(-0.163551261812238,-0.0522198889279,0.01051));
#949=CARTESIAN_POINT('',(-0.163551255337738,-0.00644500000025,0.01051));
#950=CARTESIAN_POINT('',(-0.163551248863238,0.0393298889274,0.01051));
#951=CARTESIAN_POINT('',(-0.163551247602398,0.0401313092143179,0.01051));
#952=CARTESIAN_POINT('',(0.,0.,0.01051));
#953=CARTESIAN_POINT('',(-0.170569999574,0.05858499957409,0.01051));
#954=CARTESIAN_POINT('',(-0.17457,0.0585849997870451,0.01051));
#955=CARTESIAN_POINT('',(-0.17457,4.16333634234433E-17,0.01051));
#956=CARTESIAN_POINT('',(-0.17456999999991,-0.058584999787045,0.01051));
#957=CARTESIAN_POINT('',(-0.170569999574,-0.05858499957409,0.01051));
#958=CARTESIAN_POINT('',(-8.67361737988404E-19,0.,0.00251));
#959=CARTESIAN_POINT('',(0.,0.,0.00251));
#960=CARTESIAN_POINT('',(-0.002,-0.0582024444855,0.00251));
#961=CARTESIAN_POINT('',(-8.67361737988404E-19,0.,0.00251));
#962=CARTESIAN_POINT('',(0.,0.,0.00251));
#963=CARTESIAN_POINT('',(-0.002,0.0516154610246779,0.00251));
#964=CARTESIAN_POINT('',(-0.003,0.0451213423339296,0.00501));
#965=CARTESIAN_POINT('',(-0.002,0.0451213423339296,0.00501));
#966=CARTESIAN_POINT('',(-0.002,0.0466713423339296,0.00501));
#967=CARTESIAN_POINT('',(0.,0.0451213423339296,0.00501));
#968=CARTESIAN_POINT('',(0.,0.0451213423339296,0.00346));
#969=CARTESIAN_POINT('',(-0.003,0.0592673652757156,0.00501));
#970=CARTESIAN_POINT('',(-0.002,0.0592673652757156,0.00501));
#971=CARTESIAN_POINT('',(-0.002,0.0608173652757156,0.00501));
#972=CARTESIAN_POINT('',(0.,0.0592673652757156,0.00501));
#973=CARTESIAN_POINT('',(0.,0.0592673652757156,0.00346));
#974=CARTESIAN_POINT('',(-0.003,0.0523022844265426,0.00501));
#975=CARTESIAN_POINT('',(-0.002,0.0523022844265426,0.00501));
#976=CARTESIAN_POINT('',(-0.002,0.0538522844265426,0.00501));
#977=CARTESIAN_POINT('',(0.,0.0523022844265426,0.00501));
#978=CARTESIAN_POINT('',(0.,0.0523022844265426,0.00346));
#979=CARTESIAN_POINT('',(-0.003,-0.0582024444855,0.00501));
#980=CARTESIAN_POINT('',(-0.002,-0.0582024444855,0.00501));
#981=CARTESIAN_POINT('',(-0.002,-0.0566524444855,0.00501));
#982=CARTESIAN_POINT('',(0.,-0.0582024444855,0.00501));
#983=CARTESIAN_POINT('',(0.,-0.0582024444855,0.00346));
#984=CARTESIAN_POINT('',(2.77555756156289E-17,0.,0.00751));
#985=CARTESIAN_POINT('',(-0.16964,-0.057265,0.00751));
#986=CARTESIAN_POINT('',(-0.16764,-0.057265,0.00751));
#987=CARTESIAN_POINT('',(-0.04149,-0.059015,0.00751));
#988=CARTESIAN_POINT('',(-0.03949,-0.059015,0.00751));
#989=CARTESIAN_POINT('',(-0.16844,0.056425,0.00751));
#990=CARTESIAN_POINT('',(-0.16644,0.056425,0.00751));
#991=CARTESIAN_POINT('',(-0.01387,0.057985,0.00751));
#992=CARTESIAN_POINT('',(-0.01187,0.057985,0.00751));
#993=CARTESIAN_POINT('',(-0.16069625,0.044685,0.00751));
#994=CARTESIAN_POINT('',(-0.15724625,0.044685,0.00751));
#995=CARTESIAN_POINT('',(-0.002,0.0516154610246779,0.00751));
#996=CARTESIAN_POINT('',(-0.163551247602398,0.0401313092143179,0.00751));
#997=CARTESIAN_POINT('',(-0.163551248863238,0.0393298889274,0.00751));
#998=CARTESIAN_POINT('',(-0.163551255337738,-0.00644500000025,0.00751));
#999=CARTESIAN_POINT('',(-0.163551261812238,-0.0522198889279,0.00751));
#1000=CARTESIAN_POINT('',(-0.163551261812119,-0.05301988894945,0.00751));
#1001=CARTESIAN_POINT('',(-0.002,-0.0582024444855,0.00751));
#1002=CARTESIAN_POINT('',(-0.170569999574,-0.05858499957409,0.00751));
#1003=CARTESIAN_POINT('',(-0.17456999999991,-0.058584999787045,0.00751));
#1004=CARTESIAN_POINT('',(-0.17457,4.16333634234433E-17,0.00751));
#1005=CARTESIAN_POINT('',(-0.17457,0.0585849997870451,0.00751));
#1006=CARTESIAN_POINT('',(-0.170569999574,0.05858499957409,0.00751));
#1007=CARTESIAN_POINT('',(-0.163551255337738,-0.00644500000025,0.01051));
#1008=CARTESIAN_POINT('',(-0.163551248863238,0.0393298889274,0.01051));
#1009=CARTESIAN_POINT('',(-0.163551261812238,-0.0522198889279,0.01051));
#1010=CARTESIAN_POINT('',(-0.163551247602398,0.0401313092143179,0.01051));
#1011=CARTESIAN_POINT('',(-0.170569999574,0.05858499957409,0.01051));
#1012=CARTESIAN_POINT('',(-0.17457,0.0585849997870451,0.01051));
#1013=CARTESIAN_POINT('',(-0.17457,4.16333634234433E-17,0.01051));
#1014=CARTESIAN_POINT('',(-0.17456999999991,-0.058584999787045,0.01051));
#1015=CARTESIAN_POINT('',(-0.170569999574,-0.05858499957409,0.01051));
#1016=CARTESIAN_POINT('',(-0.16964,-0.057265,0.01051));
#1017=CARTESIAN_POINT('',(-0.16964,-0.057265,0.00751));
#1018=CARTESIAN_POINT('',(-0.168565,-0.057265,0.00751));
#1019=CARTESIAN_POINT('',(-0.16844,0.056425,0.01051));
#1020=CARTESIAN_POINT('',(-0.16844,0.056425,0.00151));
#1021=CARTESIAN_POINT('',(-0.16954,0.056425,0.00151));
#1022=CARTESIAN_POINT('',(-0.163551261812119,-0.05301988894945,0.01051));
#1023=CARTESIAN_POINT('',(-4.00000000000123E-5,-0.000424999999999995,0.00151));
#1024=CARTESIAN_POINT('',(-0.16964,-0.057265,0.00151));
#1025=CARTESIAN_POINT('',(-0.17164,-0.057265,0.00151));
#1026=CARTESIAN_POINT('',(-0.16964,-0.057265,0.00151));
#1027=CARTESIAN_POINT('',(-0.04149,-0.059015,0.00151));
#1028=CARTESIAN_POINT('',(-0.04149,-0.059015,0.00151));
#1029=CARTESIAN_POINT('',(-0.04259,-0.059015,0.00151));
#1030=CARTESIAN_POINT('',(-0.04149,-0.059015,0.00151));
#1031=CARTESIAN_POINT('',(-0.04149,-0.059015,0.00151));
#1032=CARTESIAN_POINT('',(-0.04349,-0.059015,0.00151));
#1033=CARTESIAN_POINT('',(-4.00000000000123E-5,-0.000424999999999995,0.00151));
#1034=CARTESIAN_POINT('',(-4.00000000000123E-5,-0.000424999999999995,0.00151));
#1035=CARTESIAN_POINT('',(-0.16844,0.056425,0.00151));
#1036=CARTESIAN_POINT('',(-0.17044,0.056425,0.00151));
#1037=CARTESIAN_POINT('',(-0.16844,0.056425,0.00151));
#1038=CARTESIAN_POINT('',(-0.01387,0.057985,0.00151));
#1039=CARTESIAN_POINT('',(-0.01387,0.057985,0.00151));
#1040=CARTESIAN_POINT('',(-0.01497,0.057985,0.00151));
#1041=CARTESIAN_POINT('',(-0.01387,0.057985,0.00151));
#1042=CARTESIAN_POINT('',(-0.01387,0.057985,0.00151));
#1043=CARTESIAN_POINT('',(-0.01587,0.057985,0.00151));
#1044=CARTESIAN_POINT('',(-4.00000000000123E-5,-0.000424999999999995,0.00151));
#1045=CARTESIAN_POINT('',(-4.00000000000123E-5,-0.000424999999999995,0.00751));
#1046=CARTESIAN_POINT('',(-0.16069625,0.044685,0.00951));
#1047=CARTESIAN_POINT('',(-0.16069625,0.044685,0.00951));
#1048=CARTESIAN_POINT('',(-0.15724625,0.044685,0.00951));
#1049=CARTESIAN_POINT('',(2.77555756156289E-17,0.,0.00951));
#1050=CARTESIAN_POINT('',(-0.002,-0.0582024444855,0.00251));
#1051=CARTESIAN_POINT('',(-0.002,0.0516154610246779,0.00251));
#1052=CARTESIAN_POINT('',(0.,0.,0.));
#1053=CARTESIAN_POINT('',(0.,0.,0.));
#1054=MECHANICAL_DESIGN_GEOMETRIC_PRESENTATION_REPRESENTATION('',(#625),
#1055);
#1055=(
GEOMETRIC_REPRESENTATION_CONTEXT(3)
GLOBAL_UNCERTAINTY_ASSIGNED_CONTEXT((#1056))
GLOBAL_UNIT_ASSIGNED_CONTEXT((#1059,#1058,#1057))
REPRESENTATION_CONTEXT('Part 2413','TOP_LEVEL_ASSEMBLY_PART')
);
#1056=UNCERTAINTY_MEASURE_WITH_UNIT(LENGTH_MEASURE(1.E-8),#1059,
'DISTANCE_ACCURACY_VALUE','Maximum Tolerance applied to model');
#1057=(
NAMED_UNIT(*)
SI_UNIT($,.STERADIAN.)
SOLID_ANGLE_UNIT()
);
#1058=(
NAMED_UNIT(*)
PLANE_ANGLE_UNIT()
SI_UNIT($,.RADIAN.)
);
#1059=(
LENGTH_UNIT()
NAMED_UNIT(*)
SI_UNIT($,.METRE.)
);
#1060=PRODUCT_DEFINITION_SHAPE('','',#1061);
#1061=PRODUCT_DEFINITION('','',#1063,#1062);
#1062=PRODUCT_DEFINITION_CONTEXT('',#1069,'design');
#1063=PRODUCT_DEFINITION_FORMATION_WITH_SPECIFIED_SOURCE('','',#1065,
 .NOT_KNOWN.);
#1064=PRODUCT_RELATED_PRODUCT_CATEGORY('','',(#1065));
#1065=PRODUCT('Part 2413','Part 2413','Part 2413',(#1067));
#1066=PRODUCT_CATEGORY('','');
#1067=PRODUCT_CONTEXT('',#1069,'mechanical');
#1068=APPLICATION_PROTOCOL_DEFINITION('international standard',
'ap242_managed_model_based_3d_engineering',2020,#1069);
#1069=APPLICATION_CONTEXT('managed model based 3d engineering');
ENDSEC;
END-ISO-10303-21;
