ISO-10303-21;
HEADER;
/* Generated by software containing ST-Developer
 * from STEP Tools, Inc. (www.steptools.com) 
 */
/* OPTION: using custom renumber hook */

FILE_DESCRIPTION(
/* description */ ('STEP AP242 Edition 2',
'CAx-IF Rec.Pracs.---Representation and Presentation of Product Manufa
cturing Information (PMI)---4.0---2014-10-13',
'CAx-IF Rec.Pracs.---3D Tessellated Geometry---0.4---2014-09-14','2;1',
'CAx-IF Rec.Pracs.---User Defined Attributes---1.5---2016-08-15'),
/* implementation_level */ '2;1');

FILE_NAME(
/* name */ 'Part Studio 1 - Part 2411',
/* time_stamp */ '2026-09-05T06:25:00Z',
/* author */ (''),
/* organization */ (''),
/* preprocessor_version */ 'ST-DEVELOPER v20',
/* originating_system */ 'ONSHAPE BY PTC INC, 1.220',
/* authorisation */ '  ');

FILE_SCHEMA (('AP242_MANAGED_MODEL_BASED_3D_ENGINEERING_MIM_LF { 1 0 10303 442 3 1 4 }'));
ENDSEC;

DATA;
#10=SHAPE_REPRESENTATION_RELATIONSHIP('','',#924,#11);
#11=ADVANCED_BREP_SHAPE_REPRESENTATION('',(#922),#1554);
#12=CIRCLE('',#936,0.00400000042591001);
#13=CIRCLE('',#937,0.00400000042591001);
#14=CIRCLE('',#940,0.00400000042590999);
#15=CIRCLE('',#941,0.00400000042590999);
#16=CIRCLE('',#944,0.00400000042591001);
#17=CIRCLE('',#945,0.00400000042591001);
#18=CIRCLE('',#948,0.000500000000000024);
#19=CIRCLE('',#949,0.000500000000000024);
#20=CIRCLE('',#952,0.000500000000000025);
#21=CIRCLE('',#953,0.000500000000000025);
#22=CIRCLE('',#956,0.0005);
#23=CIRCLE('',#957,0.0005);
#24=CIRCLE('',#960,0.0005);
#25=CIRCLE('',#961,0.0005);
#26=CIRCLE('',#963,0.00400000042590999);
#27=CIRCLE('',#964,0.00400000042590999);
#28=CIRCLE('',#967,0.0034);
#29=CIRCLE('',#968,0.0034);
#30=CIRCLE('',#970,0.0015);
#31=CIRCLE('',#971,0.0015);
#32=CIRCLE('',#973,0.0015);
#33=CIRCLE('',#974,0.0015);
#34=CIRCLE('',#976,0.0015);
#35=CIRCLE('',#977,0.0015);
#36=CIRCLE('',#979,0.0015);
#37=CIRCLE('',#980,0.0015);
#38=CIRCLE('',#982,0.001075);
#39=CIRCLE('',#983,0.001075);
#40=CIRCLE('',#985,0.0011);
#41=CIRCLE('',#986,0.0011);
#42=CIRCLE('',#988,0.0011);
#43=CIRCLE('',#989,0.0011);
#44=CIRCLE('',#991,0.0011);
#45=CIRCLE('',#992,0.0011);
#46=CIRCLE('',#995,0.0011);
#47=CIRCLE('',#996,0.0011);
#48=CIRCLE('',#998,0.00345);
#49=CIRCLE('',#999,0.002);
#50=CIRCLE('',#1000,0.002);
#51=CIRCLE('',#1001,0.002);
#52=CIRCLE('',#1002,0.002);
#53=CIRCLE('',#1003,0.002);
#54=CIRCLE('',#1004,0.002);
#55=CIRCLE('',#1006,0.002);
#56=CIRCLE('',#1009,0.002);
#57=CIRCLE('',#1012,0.0011);
#58=CIRCLE('',#1014,0.002);
#59=CIRCLE('',#1017,0.002);
#60=CIRCLE('',#1020,0.0011);
#61=CIRCLE('',#1022,0.002);
#62=CIRCLE('',#1025,0.002);
#63=CIRCLE('',#1029,0.00345);
#64=CYLINDRICAL_SURFACE('',#935,0.00400000042591001);
#65=CYLINDRICAL_SURFACE('',#939,0.00400000042590999);
#66=CYLINDRICAL_SURFACE('',#943,0.00400000042591001);
#67=CYLINDRICAL_SURFACE('',#947,0.000500000000000024);
#68=CYLINDRICAL_SURFACE('',#951,0.000500000000000025);
#69=CYLINDRICAL_SURFACE('',#955,0.0005);
#70=CYLINDRICAL_SURFACE('',#959,0.0005);
#71=CYLINDRICAL_SURFACE('',#962,0.00400000042590999);
#72=CYLINDRICAL_SURFACE('',#966,0.0034);
#73=CYLINDRICAL_SURFACE('',#969,0.0015);
#74=CYLINDRICAL_SURFACE('',#972,0.0015);
#75=CYLINDRICAL_SURFACE('',#975,0.0015);
#76=CYLINDRICAL_SURFACE('',#978,0.0015);
#77=CYLINDRICAL_SURFACE('',#981,0.001075);
#78=CYLINDRICAL_SURFACE('',#984,0.0011);
#79=CYLINDRICAL_SURFACE('',#987,0.0011);
#80=CYLINDRICAL_SURFACE('',#990,0.0011);
#81=CYLINDRICAL_SURFACE('',#1007,0.002);
#82=CYLINDRICAL_SURFACE('',#1010,0.002);
#83=CYLINDRICAL_SURFACE('',#1011,0.0011);
#84=CYLINDRICAL_SURFACE('',#1013,0.002);
#85=CYLINDRICAL_SURFACE('',#1018,0.002);
#86=CYLINDRICAL_SURFACE('',#1019,0.0011);
#87=CYLINDRICAL_SURFACE('',#1021,0.002);
#88=CYLINDRICAL_SURFACE('',#1026,0.002);
#89=CYLINDRICAL_SURFACE('',#1028,0.00345);
#90=ORIENTED_EDGE('',*,*,#312,.T.);
#91=ORIENTED_EDGE('',*,*,#313,.F.);
#92=ORIENTED_EDGE('',*,*,#314,.F.);
#93=ORIENTED_EDGE('',*,*,#315,.T.);
#94=ORIENTED_EDGE('',*,*,#316,.T.);
#95=ORIENTED_EDGE('',*,*,#317,.F.);
#96=ORIENTED_EDGE('',*,*,#318,.F.);
#97=ORIENTED_EDGE('',*,*,#313,.T.);
#98=ORIENTED_EDGE('',*,*,#319,.F.);
#99=ORIENTED_EDGE('',*,*,#320,.F.);
#100=ORIENTED_EDGE('',*,*,#321,.T.);
#101=ORIENTED_EDGE('',*,*,#317,.T.);
#102=ORIENTED_EDGE('',*,*,#322,.T.);
#103=ORIENTED_EDGE('',*,*,#323,.F.);
#104=ORIENTED_EDGE('',*,*,#324,.F.);
#105=ORIENTED_EDGE('',*,*,#320,.T.);
#106=ORIENTED_EDGE('',*,*,#325,.T.);
#107=ORIENTED_EDGE('',*,*,#326,.F.);
#108=ORIENTED_EDGE('',*,*,#327,.F.);
#109=ORIENTED_EDGE('',*,*,#323,.T.);
#110=ORIENTED_EDGE('',*,*,#328,.T.);
#111=ORIENTED_EDGE('',*,*,#329,.F.);
#112=ORIENTED_EDGE('',*,*,#330,.F.);
#113=ORIENTED_EDGE('',*,*,#326,.T.);
#114=ORIENTED_EDGE('',*,*,#331,.F.);
#115=ORIENTED_EDGE('',*,*,#332,.F.);
#116=ORIENTED_EDGE('',*,*,#333,.T.);
#117=ORIENTED_EDGE('',*,*,#329,.T.);
#118=ORIENTED_EDGE('',*,*,#334,.F.);
#119=ORIENTED_EDGE('',*,*,#335,.F.);
#120=ORIENTED_EDGE('',*,*,#336,.T.);
#121=ORIENTED_EDGE('',*,*,#332,.T.);
#122=ORIENTED_EDGE('',*,*,#337,.T.);
#123=ORIENTED_EDGE('',*,*,#338,.F.);
#124=ORIENTED_EDGE('',*,*,#339,.F.);
#125=ORIENTED_EDGE('',*,*,#340,.T.);
#126=ORIENTED_EDGE('',*,*,#341,.T.);
#127=ORIENTED_EDGE('',*,*,#342,.F.);
#128=ORIENTED_EDGE('',*,*,#343,.F.);
#129=ORIENTED_EDGE('',*,*,#338,.T.);
#130=ORIENTED_EDGE('',*,*,#344,.T.);
#131=ORIENTED_EDGE('',*,*,#345,.F.);
#132=ORIENTED_EDGE('',*,*,#346,.F.);
#133=ORIENTED_EDGE('',*,*,#342,.T.);
#134=ORIENTED_EDGE('',*,*,#347,.T.);
#135=ORIENTED_EDGE('',*,*,#348,.F.);
#136=ORIENTED_EDGE('',*,*,#349,.F.);
#137=ORIENTED_EDGE('',*,*,#345,.T.);
#138=ORIENTED_EDGE('',*,*,#350,.T.);
#139=ORIENTED_EDGE('',*,*,#351,.F.);
#140=ORIENTED_EDGE('',*,*,#352,.F.);
#141=ORIENTED_EDGE('',*,*,#348,.T.);
#142=ORIENTED_EDGE('',*,*,#353,.T.);
#143=ORIENTED_EDGE('',*,*,#354,.F.);
#144=ORIENTED_EDGE('',*,*,#355,.F.);
#145=ORIENTED_EDGE('',*,*,#351,.T.);
#146=ORIENTED_EDGE('',*,*,#356,.T.);
#147=ORIENTED_EDGE('',*,*,#357,.F.);
#148=ORIENTED_EDGE('',*,*,#358,.F.);
#149=ORIENTED_EDGE('',*,*,#354,.T.);
#150=ORIENTED_EDGE('',*,*,#359,.F.);
#151=ORIENTED_EDGE('',*,*,#360,.F.);
#152=ORIENTED_EDGE('',*,*,#361,.T.);
#153=ORIENTED_EDGE('',*,*,#362,.T.);
#154=ORIENTED_EDGE('',*,*,#363,.F.);
#155=ORIENTED_EDGE('',*,*,#364,.F.);
#156=ORIENTED_EDGE('',*,*,#365,.T.);
#157=ORIENTED_EDGE('',*,*,#360,.T.);
#158=ORIENTED_EDGE('',*,*,#366,.F.);
#159=ORIENTED_EDGE('',*,*,#367,.F.);
#160=ORIENTED_EDGE('',*,*,#368,.T.);
#161=ORIENTED_EDGE('',*,*,#364,.T.);
#162=ORIENTED_EDGE('',*,*,#369,.F.);
#163=ORIENTED_EDGE('',*,*,#370,.F.);
#164=ORIENTED_EDGE('',*,*,#371,.T.);
#165=ORIENTED_EDGE('',*,*,#367,.T.);
#166=ORIENTED_EDGE('',*,*,#372,.F.);
#167=ORIENTED_EDGE('',*,*,#373,.F.);
#168=ORIENTED_EDGE('',*,*,#374,.T.);
#169=ORIENTED_EDGE('',*,*,#370,.T.);
#170=ORIENTED_EDGE('',*,*,#375,.F.);
#171=ORIENTED_EDGE('',*,*,#376,.F.);
#172=ORIENTED_EDGE('',*,*,#377,.T.);
#173=ORIENTED_EDGE('',*,*,#373,.T.);
#174=ORIENTED_EDGE('',*,*,#378,.F.);
#175=ORIENTED_EDGE('',*,*,#379,.F.);
#176=ORIENTED_EDGE('',*,*,#380,.T.);
#177=ORIENTED_EDGE('',*,*,#376,.T.);
#178=ORIENTED_EDGE('',*,*,#381,.T.);
#179=ORIENTED_EDGE('',*,*,#340,.F.);
#180=ORIENTED_EDGE('',*,*,#382,.F.);
#181=ORIENTED_EDGE('',*,*,#357,.T.);
#182=ORIENTED_EDGE('',*,*,#383,.F.);
#183=ORIENTED_EDGE('',*,*,#362,.F.);
#184=ORIENTED_EDGE('',*,*,#384,.T.);
#185=ORIENTED_EDGE('',*,*,#379,.T.);
#186=ORIENTED_EDGE('',*,*,#385,.T.);
#187=ORIENTED_EDGE('',*,*,#386,.F.);
#188=ORIENTED_EDGE('',*,*,#387,.T.);
#189=ORIENTED_EDGE('',*,*,#388,.F.);
#190=ORIENTED_EDGE('',*,*,#389,.T.);
#191=ORIENTED_EDGE('',*,*,#390,.F.);
#192=ORIENTED_EDGE('',*,*,#391,.T.);
#193=ORIENTED_EDGE('',*,*,#392,.F.);
#194=ORIENTED_EDGE('',*,*,#393,.T.);
#195=ORIENTED_EDGE('',*,*,#394,.F.);
#196=ORIENTED_EDGE('',*,*,#395,.T.);
#197=ORIENTED_EDGE('',*,*,#396,.F.);
#198=ORIENTED_EDGE('',*,*,#397,.T.);
#199=ORIENTED_EDGE('',*,*,#398,.T.);
#200=ORIENTED_EDGE('',*,*,#399,.T.);
#201=ORIENTED_EDGE('',*,*,#400,.T.);
#202=ORIENTED_EDGE('',*,*,#401,.T.);
#203=ORIENTED_EDGE('',*,*,#402,.T.);
#204=ORIENTED_EDGE('',*,*,#403,.F.);
#205=ORIENTED_EDGE('',*,*,#315,.F.);
#206=ORIENTED_EDGE('',*,*,#404,.T.);
#207=ORIENTED_EDGE('',*,*,#335,.T.);
#208=ORIENTED_EDGE('',*,*,#405,.F.);
#209=ORIENTED_EDGE('',*,*,#406,.F.);
#210=ORIENTED_EDGE('',*,*,#401,.F.);
#211=ORIENTED_EDGE('',*,*,#399,.F.);
#212=ORIENTED_EDGE('',*,*,#397,.F.);
#213=ORIENTED_EDGE('',*,*,#395,.F.);
#214=ORIENTED_EDGE('',*,*,#393,.F.);
#215=ORIENTED_EDGE('',*,*,#391,.F.);
#216=ORIENTED_EDGE('',*,*,#389,.F.);
#217=ORIENTED_EDGE('',*,*,#387,.F.);
#218=ORIENTED_EDGE('',*,*,#385,.F.);
#219=ORIENTED_EDGE('',*,*,#361,.F.);
#220=ORIENTED_EDGE('',*,*,#365,.F.);
#221=ORIENTED_EDGE('',*,*,#368,.F.);
#222=ORIENTED_EDGE('',*,*,#371,.F.);
#223=ORIENTED_EDGE('',*,*,#374,.F.);
#224=ORIENTED_EDGE('',*,*,#377,.F.);
#225=ORIENTED_EDGE('',*,*,#380,.F.);
#226=ORIENTED_EDGE('',*,*,#384,.F.);
#227=ORIENTED_EDGE('',*,*,#339,.T.);
#228=ORIENTED_EDGE('',*,*,#343,.T.);
#229=ORIENTED_EDGE('',*,*,#346,.T.);
#230=ORIENTED_EDGE('',*,*,#349,.T.);
#231=ORIENTED_EDGE('',*,*,#352,.T.);
#232=ORIENTED_EDGE('',*,*,#355,.T.);
#233=ORIENTED_EDGE('',*,*,#358,.T.);
#234=ORIENTED_EDGE('',*,*,#382,.T.);
#235=ORIENTED_EDGE('',*,*,#314,.T.);
#236=ORIENTED_EDGE('',*,*,#318,.T.);
#237=ORIENTED_EDGE('',*,*,#321,.F.);
#238=ORIENTED_EDGE('',*,*,#324,.T.);
#239=ORIENTED_EDGE('',*,*,#327,.T.);
#240=ORIENTED_EDGE('',*,*,#330,.T.);
#241=ORIENTED_EDGE('',*,*,#333,.F.);
#242=ORIENTED_EDGE('',*,*,#336,.F.);
#243=ORIENTED_EDGE('',*,*,#404,.F.);
#244=ORIENTED_EDGE('',*,*,#407,.T.);
#245=ORIENTED_EDGE('',*,*,#408,.F.);
#246=ORIENTED_EDGE('',*,*,#409,.F.);
#247=ORIENTED_EDGE('',*,*,#410,.F.);
#248=ORIENTED_EDGE('',*,*,#411,.F.);
#249=ORIENTED_EDGE('',*,*,#412,.F.);
#250=ORIENTED_EDGE('',*,*,#413,.F.);
#251=ORIENTED_EDGE('',*,*,#394,.T.);
#252=ORIENTED_EDGE('',*,*,#392,.T.);
#253=ORIENTED_EDGE('',*,*,#390,.T.);
#254=ORIENTED_EDGE('',*,*,#388,.T.);
#255=ORIENTED_EDGE('',*,*,#386,.T.);
#256=ORIENTED_EDGE('',*,*,#359,.T.);
#257=ORIENTED_EDGE('',*,*,#383,.T.);
#258=ORIENTED_EDGE('',*,*,#378,.T.);
#259=ORIENTED_EDGE('',*,*,#375,.T.);
#260=ORIENTED_EDGE('',*,*,#372,.T.);
#261=ORIENTED_EDGE('',*,*,#369,.T.);
#262=ORIENTED_EDGE('',*,*,#366,.T.);
#263=ORIENTED_EDGE('',*,*,#363,.T.);
#264=ORIENTED_EDGE('',*,*,#337,.F.);
#265=ORIENTED_EDGE('',*,*,#381,.F.);
#266=ORIENTED_EDGE('',*,*,#356,.F.);
#267=ORIENTED_EDGE('',*,*,#353,.F.);
#268=ORIENTED_EDGE('',*,*,#350,.F.);
#269=ORIENTED_EDGE('',*,*,#347,.F.);
#270=ORIENTED_EDGE('',*,*,#344,.F.);
#271=ORIENTED_EDGE('',*,*,#341,.F.);
#272=ORIENTED_EDGE('',*,*,#312,.F.);
#273=ORIENTED_EDGE('',*,*,#403,.T.);
#274=ORIENTED_EDGE('',*,*,#334,.T.);
#275=ORIENTED_EDGE('',*,*,#331,.T.);
#276=ORIENTED_EDGE('',*,*,#328,.F.);
#277=ORIENTED_EDGE('',*,*,#325,.F.);
#278=ORIENTED_EDGE('',*,*,#322,.F.);
#279=ORIENTED_EDGE('',*,*,#319,.T.);
#280=ORIENTED_EDGE('',*,*,#316,.F.);
#281=ORIENTED_EDGE('',*,*,#414,.T.);
#282=ORIENTED_EDGE('',*,*,#414,.F.);
#283=ORIENTED_EDGE('',*,*,#413,.T.);
#284=ORIENTED_EDGE('',*,*,#398,.F.);
#285=ORIENTED_EDGE('',*,*,#415,.T.);
#286=ORIENTED_EDGE('',*,*,#415,.F.);
#287=ORIENTED_EDGE('',*,*,#412,.T.);
#288=ORIENTED_EDGE('',*,*,#416,.T.);
#289=ORIENTED_EDGE('',*,*,#406,.T.);
#290=ORIENTED_EDGE('',*,*,#417,.F.);
#291=ORIENTED_EDGE('',*,*,#411,.T.);
#292=ORIENTED_EDGE('',*,*,#416,.F.);
#293=ORIENTED_EDGE('',*,*,#417,.T.);
#294=ORIENTED_EDGE('',*,*,#402,.F.);
#295=ORIENTED_EDGE('',*,*,#418,.T.);
#296=ORIENTED_EDGE('',*,*,#418,.F.);
#297=ORIENTED_EDGE('',*,*,#410,.T.);
#298=ORIENTED_EDGE('',*,*,#419,.T.);
#299=ORIENTED_EDGE('',*,*,#405,.T.);
#300=ORIENTED_EDGE('',*,*,#420,.F.);
#301=ORIENTED_EDGE('',*,*,#409,.T.);
#302=ORIENTED_EDGE('',*,*,#419,.F.);
#303=ORIENTED_EDGE('',*,*,#420,.T.);
#304=ORIENTED_EDGE('',*,*,#400,.F.);
#305=ORIENTED_EDGE('',*,*,#421,.T.);
#306=ORIENTED_EDGE('',*,*,#421,.F.);
#307=ORIENTED_EDGE('',*,*,#408,.T.);
#308=ORIENTED_EDGE('',*,*,#396,.T.);
#309=ORIENTED_EDGE('',*,*,#422,.T.);
#310=ORIENTED_EDGE('',*,*,#407,.F.);
#311=ORIENTED_EDGE('',*,*,#422,.F.);
#312=EDGE_CURVE('',#423,#424,#509,.T.);
#313=EDGE_CURVE('',#425,#424,#510,.T.);
#314=EDGE_CURVE('',#426,#425,#511,.T.);
#315=EDGE_CURVE('',#426,#423,#512,.T.);
#316=EDGE_CURVE('',#424,#427,#513,.T.);
#317=EDGE_CURVE('',#428,#427,#514,.T.);
#318=EDGE_CURVE('',#425,#428,#515,.T.);
#319=EDGE_CURVE('',#429,#427,#516,.T.);
#320=EDGE_CURVE('',#430,#429,#517,.T.);
#321=EDGE_CURVE('',#430,#428,#518,.T.);
#322=EDGE_CURVE('',#429,#431,#519,.T.);
#323=EDGE_CURVE('',#432,#431,#520,.T.);
#324=EDGE_CURVE('',#430,#432,#521,.T.);
#325=EDGE_CURVE('',#431,#433,#522,.T.);
#326=EDGE_CURVE('',#434,#433,#523,.T.);
#327=EDGE_CURVE('',#432,#434,#524,.T.);
#328=EDGE_CURVE('',#433,#435,#525,.T.);
#329=EDGE_CURVE('',#436,#435,#526,.T.);
#330=EDGE_CURVE('',#434,#436,#527,.T.);
#331=EDGE_CURVE('',#437,#435,#528,.T.);
#332=EDGE_CURVE('',#438,#437,#529,.T.);
#333=EDGE_CURVE('',#438,#436,#530,.T.);
#334=EDGE_CURVE('',#439,#437,#531,.T.);
#335=EDGE_CURVE('',#440,#439,#532,.T.);
#336=EDGE_CURVE('',#440,#438,#533,.T.);
#337=EDGE_CURVE('',#441,#442,#534,.T.);
#338=EDGE_CURVE('',#443,#442,#535,.T.);
#339=EDGE_CURVE('',#444,#443,#536,.T.);
#340=EDGE_CURVE('',#444,#441,#537,.T.);
#341=EDGE_CURVE('',#442,#445,#12,.T.);
#342=EDGE_CURVE('',#446,#445,#538,.T.);
#343=EDGE_CURVE('',#443,#446,#13,.T.);
#344=EDGE_CURVE('',#445,#447,#539,.T.);
#345=EDGE_CURVE('',#448,#447,#540,.T.);
#346=EDGE_CURVE('',#446,#448,#541,.T.);
#347=EDGE_CURVE('',#447,#449,#14,.T.);
#348=EDGE_CURVE('',#450,#449,#542,.T.);
#349=EDGE_CURVE('',#448,#450,#15,.T.);
#350=EDGE_CURVE('',#449,#451,#543,.T.);
#351=EDGE_CURVE('',#452,#451,#544,.T.);
#352=EDGE_CURVE('',#450,#452,#545,.T.);
#353=EDGE_CURVE('',#451,#453,#16,.T.);
#354=EDGE_CURVE('',#454,#453,#546,.T.);
#355=EDGE_CURVE('',#452,#454,#17,.T.);
#356=EDGE_CURVE('',#453,#455,#547,.T.);
#357=EDGE_CURVE('',#456,#455,#548,.T.);
#358=EDGE_CURVE('',#454,#456,#549,.T.);
#359=EDGE_CURVE('',#457,#458,#18,.T.);
#360=EDGE_CURVE('',#459,#457,#550,.T.);
#361=EDGE_CURVE('',#459,#460,#19,.T.);
#362=EDGE_CURVE('',#460,#458,#551,.T.);
#363=EDGE_CURVE('',#461,#457,#552,.T.);
#364=EDGE_CURVE('',#462,#461,#553,.T.);
#365=EDGE_CURVE('',#462,#459,#554,.T.);
#366=EDGE_CURVE('',#463,#461,#20,.T.);
#367=EDGE_CURVE('',#464,#463,#555,.T.);
#368=EDGE_CURVE('',#464,#462,#21,.T.);
#369=EDGE_CURVE('',#465,#463,#556,.T.);
#370=EDGE_CURVE('',#466,#465,#557,.T.);
#371=EDGE_CURVE('',#466,#464,#558,.T.);
#372=EDGE_CURVE('',#467,#465,#22,.T.);
#373=EDGE_CURVE('',#468,#467,#559,.T.);
#374=EDGE_CURVE('',#468,#466,#23,.T.);
#375=EDGE_CURVE('',#469,#467,#560,.T.);
#376=EDGE_CURVE('',#470,#469,#561,.T.);
#377=EDGE_CURVE('',#470,#468,#562,.T.);
#378=EDGE_CURVE('',#471,#469,#24,.T.);
#379=EDGE_CURVE('',#472,#471,#563,.T.);
#380=EDGE_CURVE('',#472,#470,#25,.T.);
#381=EDGE_CURVE('',#455,#441,#26,.T.);
#382=EDGE_CURVE('',#456,#444,#27,.T.);
#383=EDGE_CURVE('',#458,#471,#564,.T.);
#384=EDGE_CURVE('',#460,#472,#565,.T.);
#385=EDGE_CURVE('',#473,#473,#28,.T.);
#386=EDGE_CURVE('',#474,#474,#29,.T.);
#387=EDGE_CURVE('',#475,#475,#30,.T.);
#388=EDGE_CURVE('',#476,#476,#31,.T.);
#389=EDGE_CURVE('',#477,#477,#32,.T.);
#390=EDGE_CURVE('',#478,#478,#33,.T.);
#391=EDGE_CURVE('',#479,#479,#34,.T.);
#392=EDGE_CURVE('',#480,#480,#35,.T.);
#393=EDGE_CURVE('',#481,#481,#36,.T.);
#394=EDGE_CURVE('',#482,#482,#37,.T.);
#395=EDGE_CURVE('',#483,#483,#38,.T.);
#396=EDGE_CURVE('',#484,#484,#39,.T.);
#397=EDGE_CURVE('',#485,#485,#40,.T.);
#398=EDGE_CURVE('',#486,#486,#41,.T.);
#399=EDGE_CURVE('',#487,#487,#42,.T.);
#400=EDGE_CURVE('',#488,#488,#43,.T.);
#401=EDGE_CURVE('',#489,#489,#44,.T.);
#402=EDGE_CURVE('',#490,#490,#45,.T.);
#403=EDGE_CURVE('',#423,#439,#566,.T.);
#404=EDGE_CURVE('',#426,#440,#567,.T.);
#405=EDGE_CURVE('',#491,#491,#46,.T.);
#406=EDGE_CURVE('',#492,#492,#47,.T.);
#407=EDGE_CURVE('',#493,#493,#48,.T.);
#408=EDGE_CURVE('',#494,#494,#49,.F.);
#409=EDGE_CURVE('',#495,#495,#50,.F.);
#410=EDGE_CURVE('',#496,#496,#51,.F.);
#411=EDGE_CURVE('',#497,#497,#52,.F.);
#412=EDGE_CURVE('',#498,#498,#53,.F.);
#413=EDGE_CURVE('',#499,#499,#54,.F.);
#414=EDGE_CURVE('',#500,#500,#55,.T.);
#415=EDGE_CURVE('',#501,#501,#56,.T.);
#416=EDGE_CURVE('',#502,#502,#57,.T.);
#417=EDGE_CURVE('',#503,#503,#58,.T.);
#418=EDGE_CURVE('',#504,#504,#59,.T.);
#419=EDGE_CURVE('',#505,#505,#60,.T.);
#420=EDGE_CURVE('',#506,#506,#61,.T.);
#421=EDGE_CURVE('',#507,#507,#62,.T.);
#422=EDGE_CURVE('',#508,#508,#63,.T.);
#423=VERTEX_POINT('',#1305);
#424=VERTEX_POINT('',#1306);
#425=VERTEX_POINT('',#1308);
#426=VERTEX_POINT('',#1310);
#427=VERTEX_POINT('',#1314);
#428=VERTEX_POINT('',#1316);
#429=VERTEX_POINT('',#1320);
#430=VERTEX_POINT('',#1322);
#431=VERTEX_POINT('',#1326);
#432=VERTEX_POINT('',#1328);
#433=VERTEX_POINT('',#1332);
#434=VERTEX_POINT('',#1334);
#435=VERTEX_POINT('',#1338);
#436=VERTEX_POINT('',#1340);
#437=VERTEX_POINT('',#1344);
#438=VERTEX_POINT('',#1346);
#439=VERTEX_POINT('',#1350);
#440=VERTEX_POINT('',#1352);
#441=VERTEX_POINT('',#1356);
#442=VERTEX_POINT('',#1357);
#443=VERTEX_POINT('',#1359);
#444=VERTEX_POINT('',#1361);
#445=VERTEX_POINT('',#1365);
#446=VERTEX_POINT('',#1367);
#447=VERTEX_POINT('',#1371);
#448=VERTEX_POINT('',#1373);
#449=VERTEX_POINT('',#1377);
#450=VERTEX_POINT('',#1379);
#451=VERTEX_POINT('',#1383);
#452=VERTEX_POINT('',#1385);
#453=VERTEX_POINT('',#1389);
#454=VERTEX_POINT('',#1391);
#455=VERTEX_POINT('',#1395);
#456=VERTEX_POINT('',#1397);
#457=VERTEX_POINT('',#1401);
#458=VERTEX_POINT('',#1402);
#459=VERTEX_POINT('',#1404);
#460=VERTEX_POINT('',#1406);
#461=VERTEX_POINT('',#1410);
#462=VERTEX_POINT('',#1412);
#463=VERTEX_POINT('',#1416);
#464=VERTEX_POINT('',#1418);
#465=VERTEX_POINT('',#1422);
#466=VERTEX_POINT('',#1424);
#467=VERTEX_POINT('',#1428);
#468=VERTEX_POINT('',#1430);
#469=VERTEX_POINT('',#1434);
#470=VERTEX_POINT('',#1436);
#471=VERTEX_POINT('',#1440);
#472=VERTEX_POINT('',#1442);
#473=VERTEX_POINT('',#1452);
#474=VERTEX_POINT('',#1454);
#475=VERTEX_POINT('',#1457);
#476=VERTEX_POINT('',#1459);
#477=VERTEX_POINT('',#1462);
#478=VERTEX_POINT('',#1464);
#479=VERTEX_POINT('',#1467);
#480=VERTEX_POINT('',#1469);
#481=VERTEX_POINT('',#1472);
#482=VERTEX_POINT('',#1474);
#483=VERTEX_POINT('',#1477);
#484=VERTEX_POINT('',#1479);
#485=VERTEX_POINT('',#1482);
#486=VERTEX_POINT('',#1484);
#487=VERTEX_POINT('',#1487);
#488=VERTEX_POINT('',#1489);
#489=VERTEX_POINT('',#1492);
#490=VERTEX_POINT('',#1494);
#491=VERTEX_POINT('',#1500);
#492=VERTEX_POINT('',#1502);
#493=VERTEX_POINT('',#1505);
#494=VERTEX_POINT('',#1507);
#495=VERTEX_POINT('',#1509);
#496=VERTEX_POINT('',#1511);
#497=VERTEX_POINT('',#1513);
#498=VERTEX_POINT('',#1515);
#499=VERTEX_POINT('',#1517);
#500=VERTEX_POINT('',#1520);
#501=VERTEX_POINT('',#1524);
#502=VERTEX_POINT('',#1528);
#503=VERTEX_POINT('',#1531);
#504=VERTEX_POINT('',#1535);
#505=VERTEX_POINT('',#1539);
#506=VERTEX_POINT('',#1542);
#507=VERTEX_POINT('',#1546);
#508=VERTEX_POINT('',#1551);
#509=LINE('',#1304,#568);
#510=LINE('',#1307,#569);
#511=LINE('',#1309,#570);
#512=LINE('',#1311,#571);
#513=LINE('',#1313,#572);
#514=LINE('',#1315,#573);
#515=LINE('',#1317,#574);
#516=LINE('',#1319,#575);
#517=LINE('',#1321,#576);
#518=LINE('',#1323,#577);
#519=LINE('',#1325,#578);
#520=LINE('',#1327,#579);
#521=LINE('',#1329,#580);
#522=LINE('',#1331,#581);
#523=LINE('',#1333,#582);
#524=LINE('',#1335,#583);
#525=LINE('',#1337,#584);
#526=LINE('',#1339,#585);
#527=LINE('',#1341,#586);
#528=LINE('',#1343,#587);
#529=LINE('',#1345,#588);
#530=LINE('',#1347,#589);
#531=LINE('',#1349,#590);
#532=LINE('',#1351,#591);
#533=LINE('',#1353,#592);
#534=LINE('',#1355,#593);
#535=LINE('',#1358,#594);
#536=LINE('',#1360,#595);
#537=LINE('',#1362,#596);
#538=LINE('',#1366,#597);
#539=LINE('',#1370,#598);
#540=LINE('',#1372,#599);
#541=LINE('',#1374,#600);
#542=LINE('',#1378,#601);
#543=LINE('',#1382,#602);
#544=LINE('',#1384,#603);
#545=LINE('',#1386,#604);
#546=LINE('',#1390,#605);
#547=LINE('',#1394,#606);
#548=LINE('',#1396,#607);
#549=LINE('',#1398,#608);
#550=LINE('',#1403,#609);
#551=LINE('',#1407,#610);
#552=LINE('',#1409,#611);
#553=LINE('',#1411,#612);
#554=LINE('',#1413,#613);
#555=LINE('',#1417,#614);
#556=LINE('',#1421,#615);
#557=LINE('',#1423,#616);
#558=LINE('',#1425,#617);
#559=LINE('',#1429,#618);
#560=LINE('',#1433,#619);
#561=LINE('',#1435,#620);
#562=LINE('',#1437,#621);
#563=LINE('',#1441,#622);
#564=LINE('',#1448,#623);
#565=LINE('',#1449,#624);
#566=LINE('',#1496,#625);
#567=LINE('',#1497,#626);
#568=VECTOR('',#1035,1.);
#569=VECTOR('',#1036,1.);
#570=VECTOR('',#1037,1.);
#571=VECTOR('',#1038,1.);
#572=VECTOR('',#1041,1.);
#573=VECTOR('',#1042,1.);
#574=VECTOR('',#1043,1.);
#575=VECTOR('',#1046,1.);
#576=VECTOR('',#1047,1.);
#577=VECTOR('',#1048,1.);
#578=VECTOR('',#1051,1.);
#579=VECTOR('',#1052,1.);
#580=VECTOR('',#1053,1.);
#581=VECTOR('',#1056,1.);
#582=VECTOR('',#1057,1.);
#583=VECTOR('',#1058,1.);
#584=VECTOR('',#1061,1.);
#585=VECTOR('',#1062,1.);
#586=VECTOR('',#1063,1.);
#587=VECTOR('',#1066,1.);
#588=VECTOR('',#1067,1.);
#589=VECTOR('',#1068,1.);
#590=VECTOR('',#1071,1.);
#591=VECTOR('',#1072,1.);
#592=VECTOR('',#1073,1.);
#593=VECTOR('',#1076,1.);
#594=VECTOR('',#1077,1.);
#595=VECTOR('',#1078,1.);
#596=VECTOR('',#1079,1.);
#597=VECTOR('',#1084,1.);
#598=VECTOR('',#1089,1.);
#599=VECTOR('',#1090,1.);
#600=VECTOR('',#1091,1.);
#601=VECTOR('',#1096,1.);
#602=VECTOR('',#1101,1.);
#603=VECTOR('',#1102,1.);
#604=VECTOR('',#1103,1.);
#605=VECTOR('',#1108,1.);
#606=VECTOR('',#1113,1.);
#607=VECTOR('',#1114,1.);
#608=VECTOR('',#1115,1.);
#609=VECTOR('',#1120,1.);
#610=VECTOR('',#1123,1.);
#611=VECTOR('',#1126,1.);
#612=VECTOR('',#1127,1.);
#613=VECTOR('',#1128,1.);
#614=VECTOR('',#1133,1.);
#615=VECTOR('',#1138,1.);
#616=VECTOR('',#1139,1.);
#617=VECTOR('',#1140,1.);
#618=VECTOR('',#1145,1.);
#619=VECTOR('',#1150,1.);
#620=VECTOR('',#1151,1.);
#621=VECTOR('',#1152,1.);
#622=VECTOR('',#1157,1.);
#623=VECTOR('',#1168,1.);
#624=VECTOR('',#1169,1.);
#625=VECTOR('',#1226,1.);
#626=VECTOR('',#1227,1.);
#627=EDGE_LOOP('',(#90,#91,#92,#93));
#628=EDGE_LOOP('',(#94,#95,#96,#97));
#629=EDGE_LOOP('',(#98,#99,#100,#101));
#630=EDGE_LOOP('',(#102,#103,#104,#105));
#631=EDGE_LOOP('',(#106,#107,#108,#109));
#632=EDGE_LOOP('',(#110,#111,#112,#113));
#633=EDGE_LOOP('',(#114,#115,#116,#117));
#634=EDGE_LOOP('',(#118,#119,#120,#121));
#635=EDGE_LOOP('',(#122,#123,#124,#125));
#636=EDGE_LOOP('',(#126,#127,#128,#129));
#637=EDGE_LOOP('',(#130,#131,#132,#133));
#638=EDGE_LOOP('',(#134,#135,#136,#137));
#639=EDGE_LOOP('',(#138,#139,#140,#141));
#640=EDGE_LOOP('',(#142,#143,#144,#145));
#641=EDGE_LOOP('',(#146,#147,#148,#149));
#642=EDGE_LOOP('',(#150,#151,#152,#153));
#643=EDGE_LOOP('',(#154,#155,#156,#157));
#644=EDGE_LOOP('',(#158,#159,#160,#161));
#645=EDGE_LOOP('',(#162,#163,#164,#165));
#646=EDGE_LOOP('',(#166,#167,#168,#169));
#647=EDGE_LOOP('',(#170,#171,#172,#173));
#648=EDGE_LOOP('',(#174,#175,#176,#177));
#649=EDGE_LOOP('',(#178,#179,#180,#181));
#650=EDGE_LOOP('',(#182,#183,#184,#185));
#651=EDGE_LOOP('',(#186));
#652=EDGE_LOOP('',(#187));
#653=EDGE_LOOP('',(#188));
#654=EDGE_LOOP('',(#189));
#655=EDGE_LOOP('',(#190));
#656=EDGE_LOOP('',(#191));
#657=EDGE_LOOP('',(#192));
#658=EDGE_LOOP('',(#193));
#659=EDGE_LOOP('',(#194));
#660=EDGE_LOOP('',(#195));
#661=EDGE_LOOP('',(#196));
#662=EDGE_LOOP('',(#197));
#663=EDGE_LOOP('',(#198));
#664=EDGE_LOOP('',(#199));
#665=EDGE_LOOP('',(#200));
#666=EDGE_LOOP('',(#201));
#667=EDGE_LOOP('',(#202));
#668=EDGE_LOOP('',(#203));
#669=EDGE_LOOP('',(#204,#205,#206,#207));
#670=EDGE_LOOP('',(#208));
#671=EDGE_LOOP('',(#209));
#672=EDGE_LOOP('',(#210));
#673=EDGE_LOOP('',(#211));
#674=EDGE_LOOP('',(#212));
#675=EDGE_LOOP('',(#213));
#676=EDGE_LOOP('',(#214));
#677=EDGE_LOOP('',(#215));
#678=EDGE_LOOP('',(#216));
#679=EDGE_LOOP('',(#217));
#680=EDGE_LOOP('',(#218));
#681=EDGE_LOOP('',(#219,#220,#221,#222,#223,#224,#225,#226));
#682=EDGE_LOOP('',(#227,#228,#229,#230,#231,#232,#233,#234));
#683=EDGE_LOOP('',(#235,#236,#237,#238,#239,#240,#241,#242,#243));
#684=EDGE_LOOP('',(#244));
#685=EDGE_LOOP('',(#245));
#686=EDGE_LOOP('',(#246));
#687=EDGE_LOOP('',(#247));
#688=EDGE_LOOP('',(#248));
#689=EDGE_LOOP('',(#249));
#690=EDGE_LOOP('',(#250));
#691=EDGE_LOOP('',(#251));
#692=EDGE_LOOP('',(#252));
#693=EDGE_LOOP('',(#253));
#694=EDGE_LOOP('',(#254));
#695=EDGE_LOOP('',(#255));
#696=EDGE_LOOP('',(#256,#257,#258,#259,#260,#261,#262,#263));
#697=EDGE_LOOP('',(#264,#265,#266,#267,#268,#269,#270,#271));
#698=EDGE_LOOP('',(#272,#273,#274,#275,#276,#277,#278,#279,#280));
#699=EDGE_LOOP('',(#281));
#700=EDGE_LOOP('',(#282));
#701=EDGE_LOOP('',(#283));
#702=EDGE_LOOP('',(#284));
#703=EDGE_LOOP('',(#285));
#704=EDGE_LOOP('',(#286));
#705=EDGE_LOOP('',(#287));
#706=EDGE_LOOP('',(#288));
#707=EDGE_LOOP('',(#289));
#708=EDGE_LOOP('',(#290));
#709=EDGE_LOOP('',(#291));
#710=EDGE_LOOP('',(#292));
#711=EDGE_LOOP('',(#293));
#712=EDGE_LOOP('',(#294));
#713=EDGE_LOOP('',(#295));
#714=EDGE_LOOP('',(#296));
#715=EDGE_LOOP('',(#297));
#716=EDGE_LOOP('',(#298));
#717=EDGE_LOOP('',(#299));
#718=EDGE_LOOP('',(#300));
#719=EDGE_LOOP('',(#301));
#720=EDGE_LOOP('',(#302));
#721=EDGE_LOOP('',(#303));
#722=EDGE_LOOP('',(#304));
#723=EDGE_LOOP('',(#305));
#724=EDGE_LOOP('',(#306));
#725=EDGE_LOOP('',(#307));
#726=EDGE_LOOP('',(#308));
#727=EDGE_LOOP('',(#309));
#728=EDGE_LOOP('',(#310));
#729=EDGE_LOOP('',(#311));
#730=FACE_BOUND('',#627,.T.);
#731=FACE_BOUND('',#628,.T.);
#732=FACE_BOUND('',#629,.T.);
#733=FACE_BOUND('',#630,.T.);
#734=FACE_BOUND('',#631,.T.);
#735=FACE_BOUND('',#632,.T.);
#736=FACE_BOUND('',#633,.T.);
#737=FACE_BOUND('',#634,.T.);
#738=FACE_BOUND('',#635,.T.);
#739=FACE_BOUND('',#636,.T.);
#740=FACE_BOUND('',#637,.T.);
#741=FACE_BOUND('',#638,.T.);
#742=FACE_BOUND('',#639,.T.);
#743=FACE_BOUND('',#640,.T.);
#744=FACE_BOUND('',#641,.T.);
#745=FACE_BOUND('',#642,.T.);
#746=FACE_BOUND('',#643,.T.);
#747=FACE_BOUND('',#644,.T.);
#748=FACE_BOUND('',#645,.T.);
#749=FACE_BOUND('',#646,.T.);
#750=FACE_BOUND('',#647,.T.);
#751=FACE_BOUND('',#648,.T.);
#752=FACE_BOUND('',#649,.T.);
#753=FACE_BOUND('',#650,.T.);
#754=FACE_BOUND('',#651,.T.);
#755=FACE_BOUND('',#652,.T.);
#756=FACE_BOUND('',#653,.T.);
#757=FACE_BOUND('',#654,.T.);
#758=FACE_BOUND('',#655,.T.);
#759=FACE_BOUND('',#656,.T.);
#760=FACE_BOUND('',#657,.T.);
#761=FACE_BOUND('',#658,.T.);
#762=FACE_BOUND('',#659,.T.);
#763=FACE_BOUND('',#660,.T.);
#764=FACE_BOUND('',#661,.T.);
#765=FACE_BOUND('',#662,.T.);
#766=FACE_BOUND('',#663,.T.);
#767=FACE_BOUND('',#664,.T.);
#768=FACE_BOUND('',#665,.T.);
#769=FACE_BOUND('',#666,.T.);
#770=FACE_BOUND('',#667,.T.);
#771=FACE_BOUND('',#668,.T.);
#772=FACE_BOUND('',#669,.T.);
#773=FACE_BOUND('',#670,.T.);
#774=FACE_BOUND('',#671,.T.);
#775=FACE_BOUND('',#672,.T.);
#776=FACE_BOUND('',#673,.T.);
#777=FACE_BOUND('',#674,.T.);
#778=FACE_BOUND('',#675,.T.);
#779=FACE_BOUND('',#676,.T.);
#780=FACE_BOUND('',#677,.T.);
#781=FACE_BOUND('',#678,.T.);
#782=FACE_BOUND('',#679,.T.);
#783=FACE_BOUND('',#680,.T.);
#784=FACE_BOUND('',#681,.T.);
#785=FACE_BOUND('',#682,.T.);
#786=FACE_BOUND('',#683,.T.);
#787=FACE_BOUND('',#684,.T.);
#788=FACE_BOUND('',#685,.T.);
#789=FACE_BOUND('',#686,.T.);
#790=FACE_BOUND('',#687,.T.);
#791=FACE_BOUND('',#688,.T.);
#792=FACE_BOUND('',#689,.T.);
#793=FACE_BOUND('',#690,.T.);
#794=FACE_BOUND('',#691,.T.);
#795=FACE_BOUND('',#692,.T.);
#796=FACE_BOUND('',#693,.T.);
#797=FACE_BOUND('',#694,.T.);
#798=FACE_BOUND('',#695,.T.);
#799=FACE_BOUND('',#696,.T.);
#800=FACE_BOUND('',#697,.T.);
#801=FACE_BOUND('',#698,.T.);
#802=FACE_BOUND('',#699,.T.);
#803=FACE_BOUND('',#700,.T.);
#804=FACE_BOUND('',#701,.T.);
#805=FACE_BOUND('',#702,.T.);
#806=FACE_BOUND('',#703,.T.);
#807=FACE_BOUND('',#704,.T.);
#808=FACE_BOUND('',#705,.T.);
#809=FACE_BOUND('',#706,.T.);
#810=FACE_BOUND('',#707,.T.);
#811=FACE_BOUND('',#708,.T.);
#812=FACE_BOUND('',#709,.T.);
#813=FACE_BOUND('',#710,.T.);
#814=FACE_BOUND('',#711,.T.);
#815=FACE_BOUND('',#712,.T.);
#816=FACE_BOUND('',#713,.T.);
#817=FACE_BOUND('',#714,.T.);
#818=FACE_BOUND('',#715,.T.);
#819=FACE_BOUND('',#716,.T.);
#820=FACE_BOUND('',#717,.T.);
#821=FACE_BOUND('',#718,.T.);
#822=FACE_BOUND('',#719,.T.);
#823=FACE_BOUND('',#720,.T.);
#824=FACE_BOUND('',#721,.T.);
#825=FACE_BOUND('',#722,.T.);
#826=FACE_BOUND('',#723,.T.);
#827=FACE_BOUND('',#724,.T.);
#828=FACE_BOUND('',#725,.T.);
#829=FACE_BOUND('',#726,.T.);
#830=FACE_BOUND('',#727,.T.);
#831=FACE_BOUND('',#728,.T.);
#832=FACE_BOUND('',#729,.T.);
#833=PLANE('',#926);
#834=PLANE('',#927);
#835=PLANE('',#928);
#836=PLANE('',#929);
#837=PLANE('',#930);
#838=PLANE('',#931);
#839=PLANE('',#932);
#840=PLANE('',#933);
#841=PLANE('',#934);
#842=PLANE('',#938);
#843=PLANE('',#942);
#844=PLANE('',#946);
#845=PLANE('',#950);
#846=PLANE('',#954);
#847=PLANE('',#958);
#848=PLANE('',#965);
#849=PLANE('',#993);
#850=PLANE('',#994);
#851=PLANE('',#997);
#852=PLANE('',#1005);
#853=PLANE('',#1008);
#854=PLANE('',#1015);
#855=PLANE('',#1016);
#856=PLANE('',#1023);
#857=PLANE('',#1024);
#858=PLANE('',#1027);
#859=PLANE('',#1030);
#860=ADVANCED_FACE('',(#730),#833,.F.);
#861=ADVANCED_FACE('',(#731),#834,.F.);
#862=ADVANCED_FACE('',(#732),#835,.T.);
#863=ADVANCED_FACE('',(#733),#836,.F.);
#864=ADVANCED_FACE('',(#734),#837,.F.);
#865=ADVANCED_FACE('',(#735),#838,.F.);
#866=ADVANCED_FACE('',(#736),#839,.T.);
#867=ADVANCED_FACE('',(#737),#840,.T.);
#868=ADVANCED_FACE('',(#738),#841,.F.);
#869=ADVANCED_FACE('',(#739),#64,.T.);
#870=ADVANCED_FACE('',(#740),#842,.F.);
#871=ADVANCED_FACE('',(#741),#65,.T.);
#872=ADVANCED_FACE('',(#742),#843,.F.);
#873=ADVANCED_FACE('',(#743),#66,.T.);
#874=ADVANCED_FACE('',(#744),#844,.F.);
#875=ADVANCED_FACE('',(#745),#67,.F.);
#876=ADVANCED_FACE('',(#746),#845,.T.);
#877=ADVANCED_FACE('',(#747),#68,.F.);
#878=ADVANCED_FACE('',(#748),#846,.T.);
#879=ADVANCED_FACE('',(#749),#69,.F.);
#880=ADVANCED_FACE('',(#750),#847,.T.);
#881=ADVANCED_FACE('',(#751),#70,.F.);
#882=ADVANCED_FACE('',(#752),#71,.T.);
#883=ADVANCED_FACE('',(#753),#848,.T.);
#884=ADVANCED_FACE('',(#754,#755),#72,.F.);
#885=ADVANCED_FACE('',(#756,#757),#73,.F.);
#886=ADVANCED_FACE('',(#758,#759),#74,.F.);
#887=ADVANCED_FACE('',(#760,#761),#75,.F.);
#888=ADVANCED_FACE('',(#762,#763),#76,.F.);
#889=ADVANCED_FACE('',(#764,#765),#77,.F.);
#890=ADVANCED_FACE('',(#766,#767),#78,.F.);
#891=ADVANCED_FACE('',(#768,#769),#79,.F.);
#892=ADVANCED_FACE('',(#770,#771),#80,.F.);
#893=ADVANCED_FACE('',(#772),#849,.T.);
#894=ADVANCED_FACE('',(#773,#774,#775,#776,#777,#778,#779,#780,#781,#782,
#783,#784,#785,#786),#850,.T.);
#895=ADVANCED_FACE('',(#787,#788,#789,#790,#791,#792,#793,#794,#795,#796,
#797,#798,#799,#800,#801),#851,.F.);
#896=ADVANCED_FACE('',(#802),#852,.T.);
#897=ADVANCED_FACE('',(#803,#804),#81,.T.);
#898=ADVANCED_FACE('',(#805,#806),#853,.T.);
#899=ADVANCED_FACE('',(#807,#808),#82,.T.);
#900=ADVANCED_FACE('',(#809,#810),#83,.F.);
#901=ADVANCED_FACE('',(#811,#812),#84,.T.);
#902=ADVANCED_FACE('',(#813,#814),#854,.T.);
#903=ADVANCED_FACE('',(#815,#816),#855,.T.);
#904=ADVANCED_FACE('',(#817,#818),#85,.T.);
#905=ADVANCED_FACE('',(#819,#820),#86,.F.);
#906=ADVANCED_FACE('',(#821,#822),#87,.T.);
#907=ADVANCED_FACE('',(#823,#824),#856,.T.);
#908=ADVANCED_FACE('',(#825,#826),#857,.T.);
#909=ADVANCED_FACE('',(#827,#828),#88,.T.);
#910=ADVANCED_FACE('',(#829),#858,.F.);
#911=ADVANCED_FACE('',(#830,#831),#89,.F.);
#912=ADVANCED_FACE('',(#832),#859,.F.);
#913=CLOSED_SHELL('',(#860,#861,#862,#863,#864,#865,#866,#867,#868,#869,
#870,#871,#872,#873,#874,#875,#876,#877,#878,#879,#880,#881,#882,#883,#884,
#885,#886,#887,#888,#889,#890,#891,#892,#893,#894,#895,#896,#897,#898,#899,
#900,#901,#902,#903,#904,#905,#906,#907,#908,#909,#910,#911,#912));
#914=STYLED_ITEM('',(#915),#922);
#915=PRESENTATION_STYLE_ASSIGNMENT((#916));
#916=SURFACE_STYLE_USAGE(.BOTH.,#917);
#917=SURFACE_SIDE_STYLE('',(#918));
#918=SURFACE_STYLE_FILL_AREA(#919);
#919=FILL_AREA_STYLE('',(#920));
#920=FILL_AREA_STYLE_COLOUR('',#921);
#921=COLOUR_RGB('',0.6,0.580392156862745,0.529411764705882);
#922=MANIFOLD_SOLID_BREP('Part 2411',#913);
#923=SHAPE_DEFINITION_REPRESENTATION(#1559,#924);
#924=SHAPE_REPRESENTATION('Part 2411',(#925),#1554);
#925=AXIS2_PLACEMENT_3D('',#1302,#1031,#1032);
#926=AXIS2_PLACEMENT_3D('',#1303,#1033,#1034);
#927=AXIS2_PLACEMENT_3D('',#1312,#1039,#1040);
#928=AXIS2_PLACEMENT_3D('',#1318,#1044,#1045);
#929=AXIS2_PLACEMENT_3D('',#1324,#1049,#1050);
#930=AXIS2_PLACEMENT_3D('',#1330,#1054,#1055);
#931=AXIS2_PLACEMENT_3D('',#1336,#1059,#1060);
#932=AXIS2_PLACEMENT_3D('',#1342,#1064,#1065);
#933=AXIS2_PLACEMENT_3D('',#1348,#1069,#1070);
#934=AXIS2_PLACEMENT_3D('',#1354,#1074,#1075);
#935=AXIS2_PLACEMENT_3D('',#1363,#1080,#1081);
#936=AXIS2_PLACEMENT_3D('',#1364,#1082,#1083);
#937=AXIS2_PLACEMENT_3D('',#1368,#1085,#1086);
#938=AXIS2_PLACEMENT_3D('',#1369,#1087,#1088);
#939=AXIS2_PLACEMENT_3D('',#1375,#1092,#1093);
#940=AXIS2_PLACEMENT_3D('',#1376,#1094,#1095);
#941=AXIS2_PLACEMENT_3D('',#1380,#1097,#1098);
#942=AXIS2_PLACEMENT_3D('',#1381,#1099,#1100);
#943=AXIS2_PLACEMENT_3D('',#1387,#1104,#1105);
#944=AXIS2_PLACEMENT_3D('',#1388,#1106,#1107);
#945=AXIS2_PLACEMENT_3D('',#1392,#1109,#1110);
#946=AXIS2_PLACEMENT_3D('',#1393,#1111,#1112);
#947=AXIS2_PLACEMENT_3D('',#1399,#1116,#1117);
#948=AXIS2_PLACEMENT_3D('',#1400,#1118,#1119);
#949=AXIS2_PLACEMENT_3D('',#1405,#1121,#1122);
#950=AXIS2_PLACEMENT_3D('',#1408,#1124,#1125);
#951=AXIS2_PLACEMENT_3D('',#1414,#1129,#1130);
#952=AXIS2_PLACEMENT_3D('',#1415,#1131,#1132);
#953=AXIS2_PLACEMENT_3D('',#1419,#1134,#1135);
#954=AXIS2_PLACEMENT_3D('',#1420,#1136,#1137);
#955=AXIS2_PLACEMENT_3D('',#1426,#1141,#1142);
#956=AXIS2_PLACEMENT_3D('',#1427,#1143,#1144);
#957=AXIS2_PLACEMENT_3D('',#1431,#1146,#1147);
#958=AXIS2_PLACEMENT_3D('',#1432,#1148,#1149);
#959=AXIS2_PLACEMENT_3D('',#1438,#1153,#1154);
#960=AXIS2_PLACEMENT_3D('',#1439,#1155,#1156);
#961=AXIS2_PLACEMENT_3D('',#1443,#1158,#1159);
#962=AXIS2_PLACEMENT_3D('',#1444,#1160,#1161);
#963=AXIS2_PLACEMENT_3D('',#1445,#1162,#1163);
#964=AXIS2_PLACEMENT_3D('',#1446,#1164,#1165);
#965=AXIS2_PLACEMENT_3D('',#1447,#1166,#1167);
#966=AXIS2_PLACEMENT_3D('',#1450,#1170,#1171);
#967=AXIS2_PLACEMENT_3D('',#1451,#1172,#1173);
#968=AXIS2_PLACEMENT_3D('',#1453,#1174,#1175);
#969=AXIS2_PLACEMENT_3D('',#1455,#1176,#1177);
#970=AXIS2_PLACEMENT_3D('',#1456,#1178,#1179);
#971=AXIS2_PLACEMENT_3D('',#1458,#1180,#1181);
#972=AXIS2_PLACEMENT_3D('',#1460,#1182,#1183);
#973=AXIS2_PLACEMENT_3D('',#1461,#1184,#1185);
#974=AXIS2_PLACEMENT_3D('',#1463,#1186,#1187);
#975=AXIS2_PLACEMENT_3D('',#1465,#1188,#1189);
#976=AXIS2_PLACEMENT_3D('',#1466,#1190,#1191);
#977=AXIS2_PLACEMENT_3D('',#1468,#1192,#1193);
#978=AXIS2_PLACEMENT_3D('',#1470,#1194,#1195);
#979=AXIS2_PLACEMENT_3D('',#1471,#1196,#1197);
#980=AXIS2_PLACEMENT_3D('',#1473,#1198,#1199);
#981=AXIS2_PLACEMENT_3D('',#1475,#1200,#1201);
#982=AXIS2_PLACEMENT_3D('',#1476,#1202,#1203);
#983=AXIS2_PLACEMENT_3D('',#1478,#1204,#1205);
#984=AXIS2_PLACEMENT_3D('',#1480,#1206,#1207);
#985=AXIS2_PLACEMENT_3D('',#1481,#1208,#1209);
#986=AXIS2_PLACEMENT_3D('',#1483,#1210,#1211);
#987=AXIS2_PLACEMENT_3D('',#1485,#1212,#1213);
#988=AXIS2_PLACEMENT_3D('',#1486,#1214,#1215);
#989=AXIS2_PLACEMENT_3D('',#1488,#1216,#1217);
#990=AXIS2_PLACEMENT_3D('',#1490,#1218,#1219);
#991=AXIS2_PLACEMENT_3D('',#1491,#1220,#1221);
#992=AXIS2_PLACEMENT_3D('',#1493,#1222,#1223);
#993=AXIS2_PLACEMENT_3D('',#1495,#1224,#1225);
#994=AXIS2_PLACEMENT_3D('',#1498,#1228,#1229);
#995=AXIS2_PLACEMENT_3D('',#1499,#1230,#1231);
#996=AXIS2_PLACEMENT_3D('',#1501,#1232,#1233);
#997=AXIS2_PLACEMENT_3D('',#1503,#1234,#1235);
#998=AXIS2_PLACEMENT_3D('',#1504,#1236,#1237);
#999=AXIS2_PLACEMENT_3D('',#1506,#1238,#1239);
#1000=AXIS2_PLACEMENT_3D('',#1508,#1240,#1241);
#1001=AXIS2_PLACEMENT_3D('',#1510,#1242,#1243);
#1002=AXIS2_PLACEMENT_3D('',#1512,#1244,#1245);
#1003=AXIS2_PLACEMENT_3D('',#1514,#1246,#1247);
#1004=AXIS2_PLACEMENT_3D('',#1516,#1248,#1249);
#1005=AXIS2_PLACEMENT_3D('',#1518,#1250,#1251);
#1006=AXIS2_PLACEMENT_3D('',#1519,#1252,#1253);
#1007=AXIS2_PLACEMENT_3D('',#1521,#1254,#1255);
#1008=AXIS2_PLACEMENT_3D('',#1522,#1256,#1257);
#1009=AXIS2_PLACEMENT_3D('',#1523,#1258,#1259);
#1010=AXIS2_PLACEMENT_3D('',#1525,#1260,#1261);
#1011=AXIS2_PLACEMENT_3D('',#1526,#1262,#1263);
#1012=AXIS2_PLACEMENT_3D('',#1527,#1264,#1265);
#1013=AXIS2_PLACEMENT_3D('',#1529,#1266,#1267);
#1014=AXIS2_PLACEMENT_3D('',#1530,#1268,#1269);
#1015=AXIS2_PLACEMENT_3D('',#1532,#1270,#1271);
#1016=AXIS2_PLACEMENT_3D('',#1533,#1272,#1273);
#1017=AXIS2_PLACEMENT_3D('',#1534,#1274,#1275);
#1018=AXIS2_PLACEMENT_3D('',#1536,#1276,#1277);
#1019=AXIS2_PLACEMENT_3D('',#1537,#1278,#1279);
#1020=AXIS2_PLACEMENT_3D('',#1538,#1280,#1281);
#1021=AXIS2_PLACEMENT_3D('',#1540,#1282,#1283);
#1022=AXIS2_PLACEMENT_3D('',#1541,#1284,#1285);
#1023=AXIS2_PLACEMENT_3D('',#1543,#1286,#1287);
#1024=AXIS2_PLACEMENT_3D('',#1544,#1288,#1289);
#1025=AXIS2_PLACEMENT_3D('',#1545,#1290,#1291);
#1026=AXIS2_PLACEMENT_3D('',#1547,#1292,#1293);
#1027=AXIS2_PLACEMENT_3D('',#1548,#1294,#1295);
#1028=AXIS2_PLACEMENT_3D('',#1549,#1296,#1297);
#1029=AXIS2_PLACEMENT_3D('',#1550,#1298,#1299);
#1030=AXIS2_PLACEMENT_3D('',#1552,#1300,#1301);
#1031=DIRECTION('',(0.,0.,1.));
#1032=DIRECTION('',(1.,0.,0.));
#1033=DIRECTION('',(-1.,1.41442178695007E-7,0.));
#1034=DIRECTION('',(-1.41442178695007E-7,-1.,0.));
#1035=DIRECTION('',(1.41442178695007E-7,1.,0.));
#1036=DIRECTION('',(0.,0.,-1.));
#1037=DIRECTION('',(1.41442178695007E-7,1.,0.));
#1038=DIRECTION('',(0.,0.,-1.));
#1039=DIRECTION('',(-0.999999999998762,1.5732575477649E-6,0.));
#1040=DIRECTION('',(-1.5732575477649E-6,-0.999999999998763,0.));
#1041=DIRECTION('',(1.5732575477649E-6,0.999999999998763,0.));
#1042=DIRECTION('',(0.,0.,-1.));
#1043=DIRECTION('',(1.5732575477649E-6,0.999999999998763,0.));
#1044=DIRECTION('',(-0.00177533139727753,-0.999998424097973,0.));
#1045=DIRECTION('',(0.999998424097973,-0.00177533139727753,0.));
#1046=DIRECTION('',(-0.999998424097973,0.00177533139727753,0.));
#1047=DIRECTION('',(0.,0.,-1.));
#1048=DIRECTION('',(-0.999998424097973,0.00177533139727753,0.));
#1049=DIRECTION('',(0.,1.,0.));
#1050=DIRECTION('',(0.,0.,1.));
#1051=DIRECTION('',(1.,0.,0.));
#1052=DIRECTION('',(0.,0.,-1.));
#1053=DIRECTION('',(1.,0.,0.));
#1054=DIRECTION('',(1.,0.,0.));
#1055=DIRECTION('',(0.,0.,-1.));
#1056=DIRECTION('',(0.,-1.,0.));
#1057=DIRECTION('',(0.,0.,-1.));
#1058=DIRECTION('',(0.,-1.,0.));
#1059=DIRECTION('',(0.999999939199296,0.000348713927961672,0.));
#1060=DIRECTION('',(-0.000348713927961672,0.999999939199296,0.));
#1061=DIRECTION('',(0.000348713927961672,-0.999999939199296,0.));
#1062=DIRECTION('',(0.,0.,-1.));
#1063=DIRECTION('',(0.000348713927961672,-0.999999939199296,0.));
#1064=DIRECTION('',(-1.,0.,0.));
#1065=DIRECTION('',(0.,0.,1.));
#1066=DIRECTION('',(0.,1.,0.));
#1067=DIRECTION('',(0.,0.,-1.));
#1068=DIRECTION('',(0.,1.,0.));
#1069=DIRECTION('',(0.,1.,0.));
#1070=DIRECTION('',(0.,0.,1.));
#1071=DIRECTION('',(1.,0.,0.));
#1072=DIRECTION('',(0.,0.,-1.));
#1073=DIRECTION('',(1.,0.,0.));
#1074=DIRECTION('',(-1.,0.,0.));
#1075=DIRECTION('',(0.,0.,1.));
#1076=DIRECTION('',(0.,1.,0.));
#1077=DIRECTION('',(0.,0.,-1.));
#1078=DIRECTION('',(0.,1.,0.));
#1079=DIRECTION('',(0.,0.,-1.));
#1080=DIRECTION('',(0.,0.,-1.));
#1081=DIRECTION('',(-1.,0.,0.));
#1082=DIRECTION('',(0.,0.,1.));
#1083=DIRECTION('',(1.,0.,0.));
#1084=DIRECTION('',(0.,0.,-1.));
#1085=DIRECTION('',(0.,0.,1.));
#1086=DIRECTION('',(1.,0.,0.));
#1087=DIRECTION('',(0.,-1.,0.));
#1088=DIRECTION('',(0.,0.,-1.));
#1089=DIRECTION('',(-1.,0.,0.));
#1090=DIRECTION('',(0.,0.,-1.));
#1091=DIRECTION('',(-1.,0.,0.));
#1092=DIRECTION('',(0.,0.,-1.));
#1093=DIRECTION('',(-1.,0.,0.));
#1094=DIRECTION('',(0.,0.,1.));
#1095=DIRECTION('',(1.,0.,0.));
#1096=DIRECTION('',(0.,0.,-1.));
#1097=DIRECTION('',(0.,0.,1.));
#1098=DIRECTION('',(1.,0.,0.));
#1099=DIRECTION('',(1.,0.,0.));
#1100=DIRECTION('',(0.,0.,-1.));
#1101=DIRECTION('',(0.,-1.,0.));
#1102=DIRECTION('',(0.,0.,-1.));
#1103=DIRECTION('',(0.,-1.,0.));
#1104=DIRECTION('',(0.,0.,-1.));
#1105=DIRECTION('',(-1.,0.,0.));
#1106=DIRECTION('',(0.,0.,1.));
#1107=DIRECTION('',(1.,0.,0.));
#1108=DIRECTION('',(0.,0.,-1.));
#1109=DIRECTION('',(0.,0.,1.));
#1110=DIRECTION('',(1.,0.,0.));
#1111=DIRECTION('',(0.,1.,0.));
#1112=DIRECTION('',(0.,0.,1.));
#1113=DIRECTION('',(1.,0.,0.));
#1114=DIRECTION('',(0.,0.,-1.));
#1115=DIRECTION('',(1.,0.,0.));
#1116=DIRECTION('',(0.,0.,-1.));
#1117=DIRECTION('',(-1.,0.,0.));
#1118=DIRECTION('',(0.,0.,1.));
#1119=DIRECTION('',(1.,0.,0.));
#1120=DIRECTION('',(0.,0.,-1.));
#1121=DIRECTION('',(0.,0.,1.));
#1122=DIRECTION('',(1.,0.,0.));
#1123=DIRECTION('',(0.,0.,-1.));
#1124=DIRECTION('',(-1.,0.,0.));
#1125=DIRECTION('',(0.,0.,1.));
#1126=DIRECTION('',(0.,1.,0.));
#1127=DIRECTION('',(0.,0.,-1.));
#1128=DIRECTION('',(0.,1.,0.));
#1129=DIRECTION('',(0.,0.,-1.));
#1130=DIRECTION('',(-1.,0.,0.));
#1131=DIRECTION('',(0.,0.,1.));
#1132=DIRECTION('',(1.,0.,0.));
#1133=DIRECTION('',(0.,0.,-1.));
#1134=DIRECTION('',(0.,0.,1.));
#1135=DIRECTION('',(1.,0.,0.));
#1136=DIRECTION('',(0.,1.,0.));
#1137=DIRECTION('',(0.,0.,1.));
#1138=DIRECTION('',(1.,0.,0.));
#1139=DIRECTION('',(0.,0.,-1.));
#1140=DIRECTION('',(1.,0.,0.));
#1141=DIRECTION('',(0.,0.,-1.));
#1142=DIRECTION('',(-1.,0.,0.));
#1143=DIRECTION('',(0.,0.,1.));
#1144=DIRECTION('',(1.,0.,0.));
#1145=DIRECTION('',(0.,0.,-1.));
#1146=DIRECTION('',(0.,0.,1.));
#1147=DIRECTION('',(1.,0.,0.));
#1148=DIRECTION('',(1.,0.,0.));
#1149=DIRECTION('',(0.,0.,-1.));
#1150=DIRECTION('',(0.,-1.,0.));
#1151=DIRECTION('',(0.,0.,-1.));
#1152=DIRECTION('',(0.,-1.,0.));
#1153=DIRECTION('',(0.,0.,-1.));
#1154=DIRECTION('',(-1.,0.,0.));
#1155=DIRECTION('',(0.,0.,1.));
#1156=DIRECTION('',(1.,0.,0.));
#1157=DIRECTION('',(0.,0.,-1.));
#1158=DIRECTION('',(0.,0.,1.));
#1159=DIRECTION('',(1.,0.,0.));
#1160=DIRECTION('',(0.,0.,-1.));
#1161=DIRECTION('',(-1.,0.,0.));
#1162=DIRECTION('',(0.,0.,1.));
#1163=DIRECTION('',(1.,0.,0.));
#1164=DIRECTION('',(0.,0.,1.));
#1165=DIRECTION('',(1.,0.,0.));
#1166=DIRECTION('',(0.,-1.,0.));
#1167=DIRECTION('',(0.,0.,-1.));
#1168=DIRECTION('',(-1.,0.,0.));
#1169=DIRECTION('',(-1.,0.,0.));
#1170=DIRECTION('',(0.,0.,-1.));
#1171=DIRECTION('',(-1.,0.,0.));
#1172=DIRECTION('',(0.,0.,1.));
#1173=DIRECTION('',(1.,0.,0.));
#1174=DIRECTION('',(0.,0.,1.));
#1175=DIRECTION('',(1.,0.,0.));
#1176=DIRECTION('',(0.,0.,-1.));
#1177=DIRECTION('',(-1.,0.,0.));
#1178=DIRECTION('',(0.,0.,1.));
#1179=DIRECTION('',(1.,0.,0.));
#1180=DIRECTION('',(0.,0.,1.));
#1181=DIRECTION('',(1.,0.,0.));
#1182=DIRECTION('',(0.,0.,-1.));
#1183=DIRECTION('',(-1.,0.,0.));
#1184=DIRECTION('',(0.,0.,1.));
#1185=DIRECTION('',(1.,0.,0.));
#1186=DIRECTION('',(0.,0.,1.));
#1187=DIRECTION('',(1.,0.,0.));
#1188=DIRECTION('',(0.,0.,-1.));
#1189=DIRECTION('',(-1.,0.,0.));
#1190=DIRECTION('',(0.,0.,1.));
#1191=DIRECTION('',(1.,0.,0.));
#1192=DIRECTION('',(0.,0.,1.));
#1193=DIRECTION('',(1.,0.,0.));
#1194=DIRECTION('',(0.,0.,-1.));
#1195=DIRECTION('',(-1.,0.,0.));
#1196=DIRECTION('',(0.,0.,1.));
#1197=DIRECTION('',(1.,0.,0.));
#1198=DIRECTION('',(0.,0.,1.));
#1199=DIRECTION('',(1.,0.,0.));
#1200=DIRECTION('',(0.,0.,-1.));
#1201=DIRECTION('',(-1.,0.,0.));
#1202=DIRECTION('',(0.,0.,1.));
#1203=DIRECTION('',(1.,0.,0.));
#1204=DIRECTION('',(0.,0.,1.));
#1205=DIRECTION('',(1.,0.,0.));
#1206=DIRECTION('',(0.,0.,-1.));
#1207=DIRECTION('',(-1.,0.,0.));
#1208=DIRECTION('',(0.,0.,1.));
#1209=DIRECTION('',(1.,0.,0.));
#1210=DIRECTION('',(0.,0.,-1.));
#1211=DIRECTION('',(-1.,0.,0.));
#1212=DIRECTION('',(0.,0.,-1.));
#1213=DIRECTION('',(-1.,0.,0.));
#1214=DIRECTION('',(0.,0.,1.));
#1215=DIRECTION('',(1.,0.,0.));
#1216=DIRECTION('',(0.,0.,-1.));
#1217=DIRECTION('',(-1.,0.,0.));
#1218=DIRECTION('',(0.,0.,-1.));
#1219=DIRECTION('',(-1.,0.,0.));
#1220=DIRECTION('',(0.,0.,1.));
#1221=DIRECTION('',(1.,0.,0.));
#1222=DIRECTION('',(0.,0.,-1.));
#1223=DIRECTION('',(-1.,0.,0.));
#1224=DIRECTION('',(1.,1.48631103417944E-10,0.));
#1225=DIRECTION('',(-1.48631103417944E-10,1.,0.));
#1226=DIRECTION('',(1.48631103417944E-10,-1.,0.));
#1227=DIRECTION('',(1.48631103417944E-10,-1.,0.));
#1228=DIRECTION('',(0.,0.,1.));
#1229=DIRECTION('',(1.,0.,0.));
#1230=DIRECTION('',(0.,0.,1.));
#1231=DIRECTION('',(1.,0.,0.));
#1232=DIRECTION('',(0.,0.,1.));
#1233=DIRECTION('',(1.,0.,0.));
#1234=DIRECTION('',(0.,0.,1.));
#1235=DIRECTION('',(1.,0.,0.));
#1236=DIRECTION('',(0.,0.,1.));
#1237=DIRECTION('',(1.,0.,0.));
#1238=DIRECTION('',(0.,0.,1.));
#1239=DIRECTION('',(1.,0.,0.));
#1240=DIRECTION('',(0.,0.,1.));
#1241=DIRECTION('',(1.,0.,0.));
#1242=DIRECTION('',(0.,0.,1.));
#1243=DIRECTION('',(1.,0.,0.));
#1244=DIRECTION('',(0.,0.,1.));
#1245=DIRECTION('',(1.,0.,0.));
#1246=DIRECTION('',(0.,0.,1.));
#1247=DIRECTION('',(1.,0.,0.));
#1248=DIRECTION('',(0.,0.,1.));
#1249=DIRECTION('',(1.,0.,0.));
#1250=DIRECTION('',(0.,0.,-1.));
#1251=DIRECTION('',(1.,0.,0.));
#1252=DIRECTION('',(0.,0.,-1.));
#1253=DIRECTION('',(-1.,0.,0.));
#1254=DIRECTION('',(0.,0.,1.));
#1255=DIRECTION('',(1.,0.,0.));
#1256=DIRECTION('',(0.,0.,-1.));
#1257=DIRECTION('',(1.,0.,0.));
#1258=DIRECTION('',(0.,0.,-1.));
#1259=DIRECTION('',(-1.,0.,0.));
#1260=DIRECTION('',(0.,0.,1.));
#1261=DIRECTION('',(1.,0.,0.));
#1262=DIRECTION('',(0.,0.,1.));
#1263=DIRECTION('',(1.,0.,0.));
#1264=DIRECTION('',(0.,0.,-1.));
#1265=DIRECTION('',(-1.,0.,0.));
#1266=DIRECTION('',(0.,0.,1.));
#1267=DIRECTION('',(1.,0.,0.));
#1268=DIRECTION('',(0.,0.,-1.));
#1269=DIRECTION('',(-1.,0.,0.));
#1270=DIRECTION('',(0.,0.,-1.));
#1271=DIRECTION('',(1.,0.,0.));
#1272=DIRECTION('',(0.,0.,-1.));
#1273=DIRECTION('',(1.,0.,0.));
#1274=DIRECTION('',(0.,0.,-1.));
#1275=DIRECTION('',(-1.,0.,0.));
#1276=DIRECTION('',(0.,0.,1.));
#1277=DIRECTION('',(1.,0.,0.));
#1278=DIRECTION('',(0.,0.,1.));
#1279=DIRECTION('',(1.,0.,0.));
#1280=DIRECTION('',(0.,0.,-1.));
#1281=DIRECTION('',(-1.,0.,0.));
#1282=DIRECTION('',(0.,0.,1.));
#1283=DIRECTION('',(1.,0.,0.));
#1284=DIRECTION('',(0.,0.,-1.));
#1285=DIRECTION('',(-1.,0.,0.));
#1286=DIRECTION('',(0.,0.,-1.));
#1287=DIRECTION('',(1.,0.,0.));
#1288=DIRECTION('',(0.,0.,-1.));
#1289=DIRECTION('',(1.,0.,0.));
#1290=DIRECTION('',(0.,0.,-1.));
#1291=DIRECTION('',(-1.,0.,0.));
#1292=DIRECTION('',(0.,0.,1.));
#1293=DIRECTION('',(1.,0.,0.));
#1294=DIRECTION('',(0.,0.,-1.));
#1295=DIRECTION('',(1.,0.,0.));
#1296=DIRECTION('',(0.,0.,-1.));
#1297=DIRECTION('',(-1.,0.,0.));
#1298=DIRECTION('',(0.,0.,1.));
#1299=DIRECTION('',(1.,0.,0.));
#1300=DIRECTION('',(0.,0.,1.));
#1301=DIRECTION('',(1.,0.,0.));
#1302=CARTESIAN_POINT('',(0.,0.,0.));
#1303=CARTESIAN_POINT('',(-0.163551255337738,-0.00644500000025,0.01051));
#1304=CARTESIAN_POINT('',(-0.163551255337738,-0.00644500000025,0.00751));
#1305=CARTESIAN_POINT('',(-0.163551261812238,-0.0522198889279,0.00751));
#1306=CARTESIAN_POINT('',(-0.163551248863238,0.0393298889274,0.00751));
#1307=CARTESIAN_POINT('',(-0.163551248863238,0.0393298889274,0.01051));
#1308=CARTESIAN_POINT('',(-0.163551248863238,0.0393298889274,0.01051));
#1309=CARTESIAN_POINT('',(-0.163551255337738,-0.00644500000025,0.01051));
#1310=CARTESIAN_POINT('',(-0.163551261812238,-0.0522198889279,0.01051));
#1311=CARTESIAN_POINT('',(-0.163551261812238,-0.0522198889279,0.01051));
#1312=CARTESIAN_POINT('',(-0.163551247602398,0.0401313092143179,0.01051));
#1313=CARTESIAN_POINT('',(-0.163551247602398,0.0401313092143179,0.00751));
#1314=CARTESIAN_POINT('',(-0.163551246341557,0.0409327295012357,0.00751));
#1315=CARTESIAN_POINT('',(-0.163551246341557,0.0409327295012357,0.01051));
#1316=CARTESIAN_POINT('',(-0.163551246341557,0.0409327295012357,0.01051));
#1317=CARTESIAN_POINT('',(-0.163551247602398,0.0401313092143179,0.01051));
#1318=CARTESIAN_POINT('',(-0.162751247602279,0.0409313092361178,0.01051));
#1319=CARTESIAN_POINT('',(-0.162751247602279,0.0409313092361178,0.00751));
#1320=CARTESIAN_POINT('',(0.1195669984615,0.0404301,0.00751));
#1321=CARTESIAN_POINT('',(0.1195669984615,0.0404301,0.01051));
#1322=CARTESIAN_POINT('',(0.1195669984615,0.0404301,0.01051));
#1323=CARTESIAN_POINT('',(-0.162751247602279,0.0409313092361178,0.01051));
#1324=CARTESIAN_POINT('',(0.120366998461756,0.0404301,0.01051));
#1325=CARTESIAN_POINT('',(0.120366998461756,0.0404301,0.00751));
#1326=CARTESIAN_POINT('',(0.121166998462013,0.0404301,0.00751));
#1327=CARTESIAN_POINT('',(0.121166998462013,0.0404301,0.01051));
#1328=CARTESIAN_POINT('',(0.121166998462013,0.0404301,0.01051));
#1329=CARTESIAN_POINT('',(0.120366998461756,0.0404301,0.01051));
#1330=CARTESIAN_POINT('',(0.121166998462013,0.03963010002155,0.01051));
#1331=CARTESIAN_POINT('',(0.121166998462013,0.03963010002155,0.00751));
#1332=CARTESIAN_POINT('',(0.121166998462013,0.0388301000431,0.00751));
#1333=CARTESIAN_POINT('',(0.121166998462013,0.0388301000431,0.01051));
#1334=CARTESIAN_POINT('',(0.121166998462013,0.0388301000431,0.01051));
#1335=CARTESIAN_POINT('',(0.121166998462013,0.03963010002155,0.01051));
#1336=CARTESIAN_POINT('',(0.121182873662625,-0.00669489444215002,0.01051));
#1337=CARTESIAN_POINT('',(0.121182873662625,-0.00669489444215002,0.00751));
#1338=CARTESIAN_POINT('',(0.121198748863238,-0.0522198889274,0.00751));
#1339=CARTESIAN_POINT('',(0.121198748863238,-0.0522198889274,0.01051));
#1340=CARTESIAN_POINT('',(0.121198748863238,-0.0522198889274,0.01051));
#1341=CARTESIAN_POINT('',(0.121182873662625,-0.00669489444215002,0.01051));
#1342=CARTESIAN_POINT('',(0.121198748863238,-0.0530198889492,0.01051));
#1343=CARTESIAN_POINT('',(0.121198748863238,-0.0530198889492,0.00751));
#1344=CARTESIAN_POINT('',(0.121198748863238,-0.053819888971,0.00751));
#1345=CARTESIAN_POINT('',(0.121198748863238,-0.053819888971,0.01051));
#1346=CARTESIAN_POINT('',(0.121198748863238,-0.053819888971,0.01051));
#1347=CARTESIAN_POINT('',(0.121198748863238,-0.0530198889492,0.01051));
#1348=CARTESIAN_POINT('',(0.120398748863119,-0.053819888971,0.01051));
#1349=CARTESIAN_POINT('',(0.120398748863119,-0.053819888971,0.00751));
#1350=CARTESIAN_POINT('',(-0.163551261812,-0.053819888971,0.00751));
#1351=CARTESIAN_POINT('',(-0.163551261812,-0.053819888971,0.01051));
#1352=CARTESIAN_POINT('',(-0.163551261812,-0.053819888971,0.01051));
#1353=CARTESIAN_POINT('',(0.120398748863119,-0.053819888971,0.01051));
#1354=CARTESIAN_POINT('',(0.17457,-4.16333634234433E-17,0.01051));
#1355=CARTESIAN_POINT('',(0.17457,-4.16333634234433E-17,0.00751));
#1356=CARTESIAN_POINT('',(0.17457,-0.0585849997870451,0.00751));
#1357=CARTESIAN_POINT('',(0.17457,0.058584999787045,0.00751));
#1358=CARTESIAN_POINT('',(0.17457,0.058584999787045,0.01051));
#1359=CARTESIAN_POINT('',(0.17457,0.058584999787045,0.01051));
#1360=CARTESIAN_POINT('',(0.17457,-4.16333634234433E-17,0.01051));
#1361=CARTESIAN_POINT('',(0.17457,-0.0585849997870451,0.01051));
#1362=CARTESIAN_POINT('',(0.17457,-0.0585849997870451,0.01051));
#1363=CARTESIAN_POINT('',(0.17056999957409,0.05858499957409,0.01051));
#1364=CARTESIAN_POINT('',(0.17056999957409,0.05858499957409,0.00751));
#1365=CARTESIAN_POINT('',(0.170569999787045,0.062585,0.00751));
#1366=CARTESIAN_POINT('',(0.170569999787045,0.062585,0.01051));
#1367=CARTESIAN_POINT('',(0.170569999787045,0.062585,0.01051));
#1368=CARTESIAN_POINT('',(0.17056999957409,0.05858499957409,0.01051));
#1369=CARTESIAN_POINT('',(2.2509771824275E-14,0.062585,0.01051));
#1370=CARTESIAN_POINT('',(2.2509771824275E-14,0.062585,0.00751));
#1371=CARTESIAN_POINT('',(-0.170569999787,0.062585,0.00751));
#1372=CARTESIAN_POINT('',(-0.170569999787,0.062585,0.01051));
#1373=CARTESIAN_POINT('',(-0.170569999787,0.062585,0.01051));
#1374=CARTESIAN_POINT('',(2.2509771824275E-14,0.062585,0.01051));
#1375=CARTESIAN_POINT('',(-0.170569999574,0.05858499957409,0.01051));
#1376=CARTESIAN_POINT('',(-0.170569999574,0.05858499957409,0.00751));
#1377=CARTESIAN_POINT('',(-0.17457,0.0585849997870451,0.00751));
#1378=CARTESIAN_POINT('',(-0.17457,0.0585849997870451,0.01051));
#1379=CARTESIAN_POINT('',(-0.17457,0.0585849997870451,0.01051));
#1380=CARTESIAN_POINT('',(-0.170569999574,0.05858499957409,0.01051));
#1381=CARTESIAN_POINT('',(-0.17457,4.16333634234433E-17,0.01051));
#1382=CARTESIAN_POINT('',(-0.17457,4.16333634234433E-17,0.00751));
#1383=CARTESIAN_POINT('',(-0.17456999999991,-0.058584999787045,0.00751));
#1384=CARTESIAN_POINT('',(-0.17456999999991,-0.058584999787045,0.01051));
#1385=CARTESIAN_POINT('',(-0.17456999999991,-0.058584999787045,0.01051));
#1386=CARTESIAN_POINT('',(-0.17457,4.16333634234433E-17,0.01051));
#1387=CARTESIAN_POINT('',(-0.170569999574,-0.05858499957409,0.01051));
#1388=CARTESIAN_POINT('',(-0.170569999574,-0.05858499957409,0.00751));
#1389=CARTESIAN_POINT('',(-0.170569999787,-0.062585,0.00751));
#1390=CARTESIAN_POINT('',(-0.170569999787,-0.062585,0.01051));
#1391=CARTESIAN_POINT('',(-0.170569999787,-0.062585,0.01051));
#1392=CARTESIAN_POINT('',(-0.170569999574,-0.05858499957409,0.01051));
#1393=CARTESIAN_POINT('',(2.2509771824275E-14,-0.062585,0.01051));
#1394=CARTESIAN_POINT('',(2.2509771824275E-14,-0.062585,0.00751));
#1395=CARTESIAN_POINT('',(0.170569999787045,-0.062585,0.00751));
#1396=CARTESIAN_POINT('',(0.170569999787045,-0.062585,0.01051));
#1397=CARTESIAN_POINT('',(0.170569999787045,-0.062585,0.01051));
#1398=CARTESIAN_POINT('',(2.2509771824275E-14,-0.062585,0.01051));
#1399=CARTESIAN_POINT('',(0.16520375,-0.00430250000000005,0.01051));
#1400=CARTESIAN_POINT('',(0.16520375,-0.00430250000000005,0.00751));
#1401=CARTESIAN_POINT('',(0.16570375,-0.0043025,0.00751));
#1402=CARTESIAN_POINT('',(0.16520375,-0.0038025,0.00751));
#1403=CARTESIAN_POINT('',(0.16570375,-0.0043025,0.01051));
#1404=CARTESIAN_POINT('',(0.16570375,-0.0043025,0.01051));
#1405=CARTESIAN_POINT('',(0.16520375,-0.00430250000000005,0.01051));
#1406=CARTESIAN_POINT('',(0.16520375,-0.0038025,0.01051));
#1407=CARTESIAN_POINT('',(0.16520375,-0.0038025,0.01051));
#1408=CARTESIAN_POINT('',(0.16570375,-0.0111525,0.01051));
#1409=CARTESIAN_POINT('',(0.16570375,-0.0111525,0.00751));
#1410=CARTESIAN_POINT('',(0.16570375,-0.0180025,0.00751));
#1411=CARTESIAN_POINT('',(0.16570375,-0.0180025,0.01051));
#1412=CARTESIAN_POINT('',(0.16570375,-0.0180025,0.01051));
#1413=CARTESIAN_POINT('',(0.16570375,-0.0111525,0.01051));
#1414=CARTESIAN_POINT('',(0.16520375,-0.0180025,0.01051));
#1415=CARTESIAN_POINT('',(0.16520375,-0.0180025,0.00751));
#1416=CARTESIAN_POINT('',(0.16520375,-0.0185025,0.00751));
#1417=CARTESIAN_POINT('',(0.16520375,-0.0185025,0.01051));
#1418=CARTESIAN_POINT('',(0.16520375,-0.0185025,0.01051));
#1419=CARTESIAN_POINT('',(0.16520375,-0.0180025,0.01051));
#1420=CARTESIAN_POINT('',(0.15099375,-0.0185025,0.01051));
#1421=CARTESIAN_POINT('',(0.15099375,-0.0185025,0.00751));
#1422=CARTESIAN_POINT('',(0.13678375,-0.0185025,0.00751));
#1423=CARTESIAN_POINT('',(0.13678375,-0.0185025,0.01051));
#1424=CARTESIAN_POINT('',(0.13678375,-0.0185025,0.01051));
#1425=CARTESIAN_POINT('',(0.15099375,-0.0185025,0.01051));
#1426=CARTESIAN_POINT('',(0.13678375,-0.0180025,0.01051));
#1427=CARTESIAN_POINT('',(0.13678375,-0.0180025,0.00751));
#1428=CARTESIAN_POINT('',(0.13628375,-0.0180025,0.00751));
#1429=CARTESIAN_POINT('',(0.13628375,-0.0180025,0.01051));
#1430=CARTESIAN_POINT('',(0.13628375,-0.0180025,0.01051));
#1431=CARTESIAN_POINT('',(0.13678375,-0.0180025,0.01051));
#1432=CARTESIAN_POINT('',(0.13628375,-0.0111525,0.01051));
#1433=CARTESIAN_POINT('',(0.13628375,-0.0111525,0.00751));
#1434=CARTESIAN_POINT('',(0.13628375,-0.0043025,0.00751));
#1435=CARTESIAN_POINT('',(0.13628375,-0.0043025,0.01051));
#1436=CARTESIAN_POINT('',(0.13628375,-0.0043025,0.01051));
#1437=CARTESIAN_POINT('',(0.13628375,-0.0111525,0.01051));
#1438=CARTESIAN_POINT('',(0.13678375,-0.0043025,0.01051));
#1439=CARTESIAN_POINT('',(0.13678375,-0.0043025,0.00751));
#1440=CARTESIAN_POINT('',(0.13678375,-0.0038025,0.00751));
#1441=CARTESIAN_POINT('',(0.13678375,-0.0038025,0.01051));
#1442=CARTESIAN_POINT('',(0.13678375,-0.0038025,0.01051));
#1443=CARTESIAN_POINT('',(0.13678375,-0.0043025,0.01051));
#1444=CARTESIAN_POINT('',(0.17056999957409,-0.05858499957409,0.01051));
#1445=CARTESIAN_POINT('',(0.17056999957409,-0.05858499957409,0.00751));
#1446=CARTESIAN_POINT('',(0.17056999957409,-0.05858499957409,0.01051));
#1447=CARTESIAN_POINT('',(0.15099375,-0.0038025,0.01051));
#1448=CARTESIAN_POINT('',(0.15099375,-0.0038025,0.00751));
#1449=CARTESIAN_POINT('',(0.15099375,-0.0038025,0.01051));
#1450=CARTESIAN_POINT('',(0.15092375,0.019695,0.01051));
#1451=CARTESIAN_POINT('',(0.15092375,0.019695,0.01051));
#1452=CARTESIAN_POINT('',(0.15432375,0.019695,0.01051));
#1453=CARTESIAN_POINT('',(0.15092375,0.019695,0.00751));
#1454=CARTESIAN_POINT('',(0.15432375,0.019695,0.00751));
#1455=CARTESIAN_POINT('',(0.13579375,-0.0275784599674,0.01051));
#1456=CARTESIAN_POINT('',(0.13579375,-0.0275784599674,0.01051));
#1457=CARTESIAN_POINT('',(0.13729375,-0.0275784599674,0.01051));
#1458=CARTESIAN_POINT('',(0.13579375,-0.0275784599674,0.00751));
#1459=CARTESIAN_POINT('',(0.13729375,-0.0275784599674,0.00751));
#1460=CARTESIAN_POINT('',(0.16619375,-0.0275784599674,0.01051));
#1461=CARTESIAN_POINT('',(0.16619375,-0.0275784599674,0.01051));
#1462=CARTESIAN_POINT('',(0.16769375,-0.0275784599674,0.01051));
#1463=CARTESIAN_POINT('',(0.16619375,-0.0275784599674,0.00751));
#1464=CARTESIAN_POINT('',(0.16769375,-0.0275784599674,0.00751));
#1465=CARTESIAN_POINT('',(0.13579375,0.0010475,0.01051));
#1466=CARTESIAN_POINT('',(0.13579375,0.0010475,0.01051));
#1467=CARTESIAN_POINT('',(0.13729375,0.0010475,0.01051));
#1468=CARTESIAN_POINT('',(0.13579375,0.0010475,0.00751));
#1469=CARTESIAN_POINT('',(0.13729375,0.0010475,0.00751));
#1470=CARTESIAN_POINT('',(0.16619375,0.0010475,0.01051));
#1471=CARTESIAN_POINT('',(0.16619375,0.0010475,0.01051));
#1472=CARTESIAN_POINT('',(0.16769375,0.0010475,0.01051));
#1473=CARTESIAN_POINT('',(0.16619375,0.0010475,0.00751));
#1474=CARTESIAN_POINT('',(0.16769375,0.0010475,0.00751));
#1475=CARTESIAN_POINT('',(-0.16964,-0.057265,0.01051));
#1476=CARTESIAN_POINT('',(-0.16964,-0.057265,0.01051));
#1477=CARTESIAN_POINT('',(-0.168565,-0.057265,0.01051));
#1478=CARTESIAN_POINT('',(-0.16964,-0.057265,0.00751));
#1479=CARTESIAN_POINT('',(-0.168565,-0.057265,0.00751));
#1480=CARTESIAN_POINT('',(0.16877,-0.057335,0.01051));
#1481=CARTESIAN_POINT('',(0.16877,-0.057335,0.01051));
#1482=CARTESIAN_POINT('',(0.16987,-0.057335,0.01051));
#1483=CARTESIAN_POINT('',(0.16877,-0.057335,0.00151));
#1484=CARTESIAN_POINT('',(0.16767,-0.057335,0.00151));
#1485=CARTESIAN_POINT('',(0.16956,0.058165,0.01051));
#1486=CARTESIAN_POINT('',(0.16956,0.058165,0.01051));
#1487=CARTESIAN_POINT('',(0.17066,0.058165,0.01051));
#1488=CARTESIAN_POINT('',(0.16956,0.058165,0.00151));
#1489=CARTESIAN_POINT('',(0.16846,0.058165,0.00151));
#1490=CARTESIAN_POINT('',(-0.16844,0.056425,0.01051));
#1491=CARTESIAN_POINT('',(-0.16844,0.056425,0.01051));
#1492=CARTESIAN_POINT('',(-0.16734,0.056425,0.01051));
#1493=CARTESIAN_POINT('',(-0.16844,0.056425,0.00151));
#1494=CARTESIAN_POINT('',(-0.16954,0.056425,0.00151));
#1495=CARTESIAN_POINT('',(-0.163551261812119,-0.05301988894945,0.01051));
#1496=CARTESIAN_POINT('',(-0.163551261812119,-0.05301988894945,0.00751));
#1497=CARTESIAN_POINT('',(-0.163551261812119,-0.05301988894945,0.01051));
#1498=CARTESIAN_POINT('',(2.77555756156289E-17,0.,0.01051));
#1499=CARTESIAN_POINT('',(-0.01387,0.057985,0.01051));
#1500=CARTESIAN_POINT('',(-0.01277,0.057985,0.01051));
#1501=CARTESIAN_POINT('',(-0.04149,-0.059015,0.01051));
#1502=CARTESIAN_POINT('',(-0.04039,-0.059015,0.01051));
#1503=CARTESIAN_POINT('',(2.77555756156289E-17,0.,0.00751));
#1504=CARTESIAN_POINT('',(-0.16069625,0.044685,0.00751));
#1505=CARTESIAN_POINT('',(-0.15724625,0.044685,0.00751));
#1506=CARTESIAN_POINT('',(0.16956,0.058165,0.00751));
#1507=CARTESIAN_POINT('',(0.17156,0.058165,0.00751));
#1508=CARTESIAN_POINT('',(-0.01387,0.057985,0.00751));
#1509=CARTESIAN_POINT('',(-0.01187,0.057985,0.00751));
#1510=CARTESIAN_POINT('',(-0.16844,0.056425,0.00751));
#1511=CARTESIAN_POINT('',(-0.16644,0.056425,0.00751));
#1512=CARTESIAN_POINT('',(-0.04149,-0.059015,0.00751));
#1513=CARTESIAN_POINT('',(-0.03949,-0.059015,0.00751));
#1514=CARTESIAN_POINT('',(0.16877,-0.057335,0.00751));
#1515=CARTESIAN_POINT('',(0.17077,-0.057335,0.00751));
#1516=CARTESIAN_POINT('',(-0.16964,-0.057265,0.00751));
#1517=CARTESIAN_POINT('',(-0.16764,-0.057265,0.00751));
#1518=CARTESIAN_POINT('',(-4.00000000000123E-5,-0.000424999999999995,0.00151));
#1519=CARTESIAN_POINT('',(-0.16964,-0.057265,0.00151));
#1520=CARTESIAN_POINT('',(-0.17164,-0.057265,0.00151));
#1521=CARTESIAN_POINT('',(-0.16964,-0.057265,0.00151));
#1522=CARTESIAN_POINT('',(-4.00000000000123E-5,-0.000424999999999995,0.00151));
#1523=CARTESIAN_POINT('',(0.16877,-0.057335,0.00151));
#1524=CARTESIAN_POINT('',(0.16677,-0.057335,0.00151));
#1525=CARTESIAN_POINT('',(0.16877,-0.057335,0.00151));
#1526=CARTESIAN_POINT('',(-0.04149,-0.059015,0.00151));
#1527=CARTESIAN_POINT('',(-0.04149,-0.059015,0.00151));
#1528=CARTESIAN_POINT('',(-0.04259,-0.059015,0.00151));
#1529=CARTESIAN_POINT('',(-0.04149,-0.059015,0.00151));
#1530=CARTESIAN_POINT('',(-0.04149,-0.059015,0.00151));
#1531=CARTESIAN_POINT('',(-0.04349,-0.059015,0.00151));
#1532=CARTESIAN_POINT('',(-4.00000000000123E-5,-0.000424999999999995,0.00151));
#1533=CARTESIAN_POINT('',(-4.00000000000123E-5,-0.000424999999999995,0.00151));
#1534=CARTESIAN_POINT('',(-0.16844,0.056425,0.00151));
#1535=CARTESIAN_POINT('',(-0.17044,0.056425,0.00151));
#1536=CARTESIAN_POINT('',(-0.16844,0.056425,0.00151));
#1537=CARTESIAN_POINT('',(-0.01387,0.057985,0.00151));
#1538=CARTESIAN_POINT('',(-0.01387,0.057985,0.00151));
#1539=CARTESIAN_POINT('',(-0.01497,0.057985,0.00151));
#1540=CARTESIAN_POINT('',(-0.01387,0.057985,0.00151));
#1541=CARTESIAN_POINT('',(-0.01387,0.057985,0.00151));
#1542=CARTESIAN_POINT('',(-0.01587,0.057985,0.00151));
#1543=CARTESIAN_POINT('',(-4.00000000000123E-5,-0.000424999999999995,0.00151));
#1544=CARTESIAN_POINT('',(-4.00000000000123E-5,-0.000424999999999995,0.00151));
#1545=CARTESIAN_POINT('',(0.16956,0.058165,0.00151));
#1546=CARTESIAN_POINT('',(0.16756,0.058165,0.00151));
#1547=CARTESIAN_POINT('',(0.16956,0.058165,0.00151));
#1548=CARTESIAN_POINT('',(-4.00000000000123E-5,-0.000424999999999995,0.00751));
#1549=CARTESIAN_POINT('',(-0.16069625,0.044685,0.00951));
#1550=CARTESIAN_POINT('',(-0.16069625,0.044685,0.00951));
#1551=CARTESIAN_POINT('',(-0.15724625,0.044685,0.00951));
#1552=CARTESIAN_POINT('',(2.77555756156289E-17,0.,0.00951));
#1553=MECHANICAL_DESIGN_GEOMETRIC_PRESENTATION_REPRESENTATION('',(#914),
#1554);
#1554=(
GEOMETRIC_REPRESENTATION_CONTEXT(3)
GLOBAL_UNCERTAINTY_ASSIGNED_CONTEXT((#1555))
GLOBAL_UNIT_ASSIGNED_CONTEXT((#1558,#1557,#1556))
REPRESENTATION_CONTEXT('Part 2411','TOP_LEVEL_ASSEMBLY_PART')
);
#1555=UNCERTAINTY_MEASURE_WITH_UNIT(LENGTH_MEASURE(1.E-8),#1558,
'DISTANCE_ACCURACY_VALUE','Maximum Tolerance applied to model');
#1556=(
NAMED_UNIT(*)
SI_UNIT($,.STERADIAN.)
SOLID_ANGLE_UNIT()
);
#1557=(
NAMED_UNIT(*)
PLANE_ANGLE_UNIT()
SI_UNIT($,.RADIAN.)
);
#1558=(
LENGTH_UNIT()
NAMED_UNIT(*)
SI_UNIT($,.METRE.)
);
#1559=PRODUCT_DEFINITION_SHAPE('','',#1560);
#1560=PRODUCT_DEFINITION('','',#1562,#1561);
#1561=PRODUCT_DEFINITION_CONTEXT('',#1568,'design');
#1562=PRODUCT_DEFINITION_FORMATION_WITH_SPECIFIED_SOURCE('','',#1564,
 .NOT_KNOWN.);
#1563=PRODUCT_RELATED_PRODUCT_CATEGORY('','',(#1564));
#1564=PRODUCT('Part 2411','Part 2411','Part 2411',(#1566));
#1565=PRODUCT_CATEGORY('','');
#1566=PRODUCT_CONTEXT('',#1568,'mechanical');
#1567=APPLICATION_PROTOCOL_DEFINITION('international standard',
'ap242_managed_model_based_3d_engineering',2020,#1568);
#1568=APPLICATION_CONTEXT('managed model based 3d engineering');
ENDSEC;
END-ISO-10303-21;
