ISO-10303-21;
HEADER;
/* Generated by software containing ST-Developer
 * from STEP Tools, Inc. (www.steptools.com) 
 */
/* OPTION: using custom renumber hook */

FILE_DESCRIPTION(
/* description */ ('STEP AP242 Edition 2',
'CAx-IF Rec.Pracs.---Representation and Presentation of Product Manufa
cturing Information (PMI)---4.0---2014-10-13',
'CAx-IF Rec.Pracs.---3D Tessellated Geometry---0.4---2014-09-14','2;1',
'CAx-IF Rec.Pracs.---User Defined Attributes---1.5---2016-08-15'),
/* implementation_level */ '2;1');

FILE_NAME(
/* name */ 'Part Studio 1 - Part 2411',
/* time_stamp */ '2026-09-08T12:41:45Z',
/* author */ (''),
/* organization */ (''),
/* preprocessor_version */ 'ST-DEVELOPER v20',
/* originating_system */ 'ONSHAPE BY PTC INC, 1.220',
/* authorisation */ '  ');

FILE_SCHEMA (('AP242_MANAGED_MODEL_BASED_3D_ENGINEERING_MIM_LF { 1 0 10303 442 3 1 4 }'));
ENDSEC;

DATA;
#10=SHAPE_REPRESENTATION_RELATIONSHIP('','',#669,#11);
#11=ADVANCED_BREP_SHAPE_REPRESENTATION('',(#667),#1121);
#12=CYLINDRICAL_SURFACE('',#691,0.00400000042591001);
#13=CYLINDRICAL_SURFACE('',#693,0.00400000042590999);
#14=CYLINDRICAL_SURFACE('',#696,0.00800000042591);
#15=CYLINDRICAL_SURFACE('',#698,0.00800000042591001);
#16=CYLINDRICAL_SURFACE('',#702,0.001075);
#17=CYLINDRICAL_SURFACE('',#705,0.002);
#18=CYLINDRICAL_SURFACE('',#709,0.001075);
#19=CYLINDRICAL_SURFACE('',#712,0.002);
#20=CYLINDRICAL_SURFACE('',#717,0.000300000000000007);
#21=CYLINDRICAL_SURFACE('',#719,0.0003);
#22=CYLINDRICAL_SURFACE('',#721,0.0003);
#23=CYLINDRICAL_SURFACE('',#723,0.0003);
#24=CYLINDRICAL_SURFACE('',#731,0.00155);
#25=CYLINDRICAL_SURFACE('',#733,0.00155);
#26=CYLINDRICAL_SURFACE('',#735,0.00155);
#27=CYLINDRICAL_SURFACE('',#737,0.00155);
#28=CYLINDRICAL_SURFACE('',#739,0.00155);
#29=LINE('',#942,#79);
#30=LINE('',#945,#80);
#31=LINE('',#949,#81);
#32=LINE('',#953,#82);
#33=LINE('',#955,#83);
#34=LINE('',#958,#84);
#35=LINE('',#960,#85);
#36=LINE('',#962,#86);
#37=LINE('',#966,#87);
#38=LINE('',#970,#88);
#39=LINE('',#974,#89);
#40=LINE('',#978,#90);
#41=LINE('',#980,#91);
#42=LINE('',#983,#92);
#43=LINE('',#988,#93);
#44=LINE('',#990,#94);
#45=LINE('',#993,#95);
#46=LINE('',#995,#96);
#47=LINE('',#996,#97);
#48=LINE('',#998,#98);
#49=LINE('',#1000,#99);
#50=LINE('',#1005,#100);
#51=LINE('',#1009,#101);
#52=LINE('',#1013,#102);
#53=LINE('',#1016,#103);
#54=LINE('',#1018,#104);
#55=LINE('',#1020,#105);
#56=LINE('',#1022,#106);
#57=LINE('',#1025,#107);
#58=LINE('',#1027,#108);
#59=LINE('',#1028,#109);
#60=LINE('',#1030,#110);
#61=LINE('',#1036,#111);
#62=LINE('',#1038,#112);
#63=LINE('',#1040,#113);
#64=LINE('',#1046,#114);
#65=LINE('',#1048,#115);
#66=LINE('',#1050,#116);
#67=LINE('',#1052,#117);
#68=LINE('',#1053,#118);
#69=LINE('',#1075,#119);
#70=LINE('',#1076,#120);
#71=LINE('',#1078,#121);
#72=LINE('',#1080,#122);
#73=LINE('',#1082,#123);
#74=LINE('',#1084,#124);
#75=LINE('',#1086,#125);
#76=LINE('',#1088,#126);
#77=LINE('',#1101,#127);
#78=LINE('',#1103,#128);
#79=VECTOR('',#750,1.);
#80=VECTOR('',#751,1.);
#81=VECTOR('',#754,1.);
#82=VECTOR('',#757,1.);
#83=VECTOR('',#760,1.);
#84=VECTOR('',#761,1.);
#85=VECTOR('',#762,1.);
#86=VECTOR('',#763,1.);
#87=VECTOR('',#766,1.);
#88=VECTOR('',#769,1.);
#89=VECTOR('',#772,1.);
#90=VECTOR('',#775,1.);
#91=VECTOR('',#778,1.);
#92=VECTOR('',#779,1.);
#93=VECTOR('',#784,1.);
#94=VECTOR('',#787,1.);
#95=VECTOR('',#788,1.);
#96=VECTOR('',#789,1.);
#97=VECTOR('',#790,1.);
#98=VECTOR('',#791,1.);
#99=VECTOR('',#794,1.);
#100=VECTOR('',#797,1.);
#101=VECTOR('',#800,1.);
#102=VECTOR('',#803,1.);
#103=VECTOR('',#806,1.);
#104=VECTOR('',#807,1.);
#105=VECTOR('',#808,1.);
#106=VECTOR('',#811,1.);
#107=VECTOR('',#812,1.);
#108=VECTOR('',#813,1.);
#109=VECTOR('',#814,1.);
#110=VECTOR('',#815,1.);
#111=VECTOR('',#826,1.);
#112=VECTOR('',#827,1.);
#113=VECTOR('',#828,1.);
#114=VECTOR('',#837,1.);
#115=VECTOR('',#840,1.);
#116=VECTOR('',#841,1.);
#117=VECTOR('',#844,1.);
#118=VECTOR('',#845,1.);
#119=VECTOR('',#876,1.);
#120=VECTOR('',#877,1.);
#121=VECTOR('',#880,1.);
#122=VECTOR('',#883,1.);
#123=VECTOR('',#886,1.);
#124=VECTOR('',#889,1.);
#125=VECTOR('',#892,1.);
#126=VECTOR('',#895,1.);
#127=VECTOR('',#910,1.);
#128=VECTOR('',#913,1.);
#129=ORIENTED_EDGE('',*,*,#297,.F.);
#130=ORIENTED_EDGE('',*,*,#298,.F.);
#131=ORIENTED_EDGE('',*,*,#299,.F.);
#132=ORIENTED_EDGE('',*,*,#300,.T.);
#133=ORIENTED_EDGE('',*,*,#301,.F.);
#134=ORIENTED_EDGE('',*,*,#302,.T.);
#135=ORIENTED_EDGE('',*,*,#303,.F.);
#136=ORIENTED_EDGE('',*,*,#304,.T.);
#137=ORIENTED_EDGE('',*,*,#305,.T.);
#138=ORIENTED_EDGE('',*,*,#306,.F.);
#139=ORIENTED_EDGE('',*,*,#307,.F.);
#140=ORIENTED_EDGE('',*,*,#308,.T.);
#141=ORIENTED_EDGE('',*,*,#309,.F.);
#142=ORIENTED_EDGE('',*,*,#310,.F.);
#143=ORIENTED_EDGE('',*,*,#311,.F.);
#144=ORIENTED_EDGE('',*,*,#312,.F.);
#145=ORIENTED_EDGE('',*,*,#313,.F.);
#146=ORIENTED_EDGE('',*,*,#314,.T.);
#147=ORIENTED_EDGE('',*,*,#315,.F.);
#148=ORIENTED_EDGE('',*,*,#316,.T.);
#149=ORIENTED_EDGE('',*,*,#317,.F.);
#150=ORIENTED_EDGE('',*,*,#318,.F.);
#151=ORIENTED_EDGE('',*,*,#319,.F.);
#152=ORIENTED_EDGE('',*,*,#305,.F.);
#153=ORIENTED_EDGE('',*,*,#320,.F.);
#154=ORIENTED_EDGE('',*,*,#321,.F.);
#155=ORIENTED_EDGE('',*,*,#322,.F.);
#156=ORIENTED_EDGE('',*,*,#323,.F.);
#157=ORIENTED_EDGE('',*,*,#324,.T.);
#158=ORIENTED_EDGE('',*,*,#304,.F.);
#159=ORIENTED_EDGE('',*,*,#325,.F.);
#160=ORIENTED_EDGE('',*,*,#326,.T.);
#161=ORIENTED_EDGE('',*,*,#327,.F.);
#162=ORIENTED_EDGE('',*,*,#328,.F.);
#163=ORIENTED_EDGE('',*,*,#329,.T.);
#164=ORIENTED_EDGE('',*,*,#330,.F.);
#165=ORIENTED_EDGE('',*,*,#331,.T.);
#166=ORIENTED_EDGE('',*,*,#332,.F.);
#167=ORIENTED_EDGE('',*,*,#333,.F.);
#168=ORIENTED_EDGE('',*,*,#334,.F.);
#169=ORIENTED_EDGE('',*,*,#302,.F.);
#170=ORIENTED_EDGE('',*,*,#335,.F.);
#171=ORIENTED_EDGE('',*,*,#336,.T.);
#172=ORIENTED_EDGE('',*,*,#337,.T.);
#173=ORIENTED_EDGE('',*,*,#338,.F.);
#174=ORIENTED_EDGE('',*,*,#339,.T.);
#175=ORIENTED_EDGE('',*,*,#340,.T.);
#176=ORIENTED_EDGE('',*,*,#300,.F.);
#177=ORIENTED_EDGE('',*,*,#341,.F.);
#178=ORIENTED_EDGE('',*,*,#342,.T.);
#179=ORIENTED_EDGE('',*,*,#325,.T.);
#180=ORIENTED_EDGE('',*,*,#303,.T.);
#181=ORIENTED_EDGE('',*,*,#337,.F.);
#182=ORIENTED_EDGE('',*,*,#343,.F.);
#183=ORIENTED_EDGE('',*,*,#335,.T.);
#184=ORIENTED_EDGE('',*,*,#301,.T.);
#185=ORIENTED_EDGE('',*,*,#340,.F.);
#186=ORIENTED_EDGE('',*,*,#344,.F.);
#187=ORIENTED_EDGE('',*,*,#318,.T.);
#188=ORIENTED_EDGE('',*,*,#345,.T.);
#189=ORIENTED_EDGE('',*,*,#346,.F.);
#190=ORIENTED_EDGE('',*,*,#347,.T.);
#191=ORIENTED_EDGE('',*,*,#319,.T.);
#192=ORIENTED_EDGE('',*,*,#347,.F.);
#193=ORIENTED_EDGE('',*,*,#348,.F.);
#194=ORIENTED_EDGE('',*,*,#306,.T.);
#195=ORIENTED_EDGE('',*,*,#320,.T.);
#196=ORIENTED_EDGE('',*,*,#308,.F.);
#197=ORIENTED_EDGE('',*,*,#349,.F.);
#198=ORIENTED_EDGE('',*,*,#350,.T.);
#199=ORIENTED_EDGE('',*,*,#351,.F.);
#200=ORIENTED_EDGE('',*,*,#352,.T.);
#201=ORIENTED_EDGE('',*,*,#321,.T.);
#202=ORIENTED_EDGE('',*,*,#350,.F.);
#203=ORIENTED_EDGE('',*,*,#346,.T.);
#204=ORIENTED_EDGE('',*,*,#353,.T.);
#205=ORIENTED_EDGE('',*,*,#326,.F.);
#206=ORIENTED_EDGE('',*,*,#343,.T.);
#207=ORIENTED_EDGE('',*,*,#336,.F.);
#208=ORIENTED_EDGE('',*,*,#344,.T.);
#209=ORIENTED_EDGE('',*,*,#339,.F.);
#210=ORIENTED_EDGE('',*,*,#354,.T.);
#211=ORIENTED_EDGE('',*,*,#351,.T.);
#212=ORIENTED_EDGE('',*,*,#349,.T.);
#213=ORIENTED_EDGE('',*,*,#307,.T.);
#214=ORIENTED_EDGE('',*,*,#348,.T.);
#215=ORIENTED_EDGE('',*,*,#355,.T.);
#216=ORIENTED_EDGE('',*,*,#356,.F.);
#217=ORIENTED_EDGE('',*,*,#357,.F.);
#218=ORIENTED_EDGE('',*,*,#297,.T.);
#219=ORIENTED_EDGE('',*,*,#355,.F.);
#220=ORIENTED_EDGE('',*,*,#357,.T.);
#221=ORIENTED_EDGE('',*,*,#356,.T.);
#222=ORIENTED_EDGE('',*,*,#358,.T.);
#223=ORIENTED_EDGE('',*,*,#359,.F.);
#224=ORIENTED_EDGE('',*,*,#360,.F.);
#225=ORIENTED_EDGE('',*,*,#298,.T.);
#226=ORIENTED_EDGE('',*,*,#358,.F.);
#227=ORIENTED_EDGE('',*,*,#360,.T.);
#228=ORIENTED_EDGE('',*,*,#359,.T.);
#229=ORIENTED_EDGE('',*,*,#327,.T.);
#230=ORIENTED_EDGE('',*,*,#361,.T.);
#231=ORIENTED_EDGE('',*,*,#310,.T.);
#232=ORIENTED_EDGE('',*,*,#362,.F.);
#233=ORIENTED_EDGE('',*,*,#328,.T.);
#234=ORIENTED_EDGE('',*,*,#362,.T.);
#235=ORIENTED_EDGE('',*,*,#309,.T.);
#236=ORIENTED_EDGE('',*,*,#363,.F.);
#237=ORIENTED_EDGE('',*,*,#363,.T.);
#238=ORIENTED_EDGE('',*,*,#316,.F.);
#239=ORIENTED_EDGE('',*,*,#364,.F.);
#240=ORIENTED_EDGE('',*,*,#329,.F.);
#241=ORIENTED_EDGE('',*,*,#330,.T.);
#242=ORIENTED_EDGE('',*,*,#364,.T.);
#243=ORIENTED_EDGE('',*,*,#315,.T.);
#244=ORIENTED_EDGE('',*,*,#365,.F.);
#245=ORIENTED_EDGE('',*,*,#365,.T.);
#246=ORIENTED_EDGE('',*,*,#314,.F.);
#247=ORIENTED_EDGE('',*,*,#366,.F.);
#248=ORIENTED_EDGE('',*,*,#331,.F.);
#249=ORIENTED_EDGE('',*,*,#332,.T.);
#250=ORIENTED_EDGE('',*,*,#366,.T.);
#251=ORIENTED_EDGE('',*,*,#313,.T.);
#252=ORIENTED_EDGE('',*,*,#367,.F.);
#253=ORIENTED_EDGE('',*,*,#333,.T.);
#254=ORIENTED_EDGE('',*,*,#367,.T.);
#255=ORIENTED_EDGE('',*,*,#312,.T.);
#256=ORIENTED_EDGE('',*,*,#368,.F.);
#257=ORIENTED_EDGE('',*,*,#334,.T.);
#258=ORIENTED_EDGE('',*,*,#368,.T.);
#259=ORIENTED_EDGE('',*,*,#311,.T.);
#260=ORIENTED_EDGE('',*,*,#361,.F.);
#261=ORIENTED_EDGE('',*,*,#369,.F.);
#262=ORIENTED_EDGE('',*,*,#370,.F.);
#263=ORIENTED_EDGE('',*,*,#371,.F.);
#264=ORIENTED_EDGE('',*,*,#372,.F.);
#265=ORIENTED_EDGE('',*,*,#373,.F.);
#266=ORIENTED_EDGE('',*,*,#299,.T.);
#267=ORIENTED_EDGE('',*,*,#324,.F.);
#268=ORIENTED_EDGE('',*,*,#374,.F.);
#269=ORIENTED_EDGE('',*,*,#341,.T.);
#270=ORIENTED_EDGE('',*,*,#375,.F.);
#271=ORIENTED_EDGE('',*,*,#342,.F.);
#272=ORIENTED_EDGE('',*,*,#374,.T.);
#273=ORIENTED_EDGE('',*,*,#323,.T.);
#274=ORIENTED_EDGE('',*,*,#376,.T.);
#275=ORIENTED_EDGE('',*,*,#373,.T.);
#276=ORIENTED_EDGE('',*,*,#377,.T.);
#277=ORIENTED_EDGE('',*,*,#372,.T.);
#278=ORIENTED_EDGE('',*,*,#378,.T.);
#279=ORIENTED_EDGE('',*,*,#371,.T.);
#280=ORIENTED_EDGE('',*,*,#379,.T.);
#281=ORIENTED_EDGE('',*,*,#370,.T.);
#282=ORIENTED_EDGE('',*,*,#380,.T.);
#283=ORIENTED_EDGE('',*,*,#369,.T.);
#284=ORIENTED_EDGE('',*,*,#317,.T.);
#285=ORIENTED_EDGE('',*,*,#352,.F.);
#286=ORIENTED_EDGE('',*,*,#354,.F.);
#287=ORIENTED_EDGE('',*,*,#338,.T.);
#288=ORIENTED_EDGE('',*,*,#375,.T.);
#289=ORIENTED_EDGE('',*,*,#322,.T.);
#290=ORIENTED_EDGE('',*,*,#353,.F.);
#291=ORIENTED_EDGE('',*,*,#345,.F.);
#292=ORIENTED_EDGE('',*,*,#377,.F.);
#293=ORIENTED_EDGE('',*,*,#379,.F.);
#294=ORIENTED_EDGE('',*,*,#380,.F.);
#295=ORIENTED_EDGE('',*,*,#378,.F.);
#296=ORIENTED_EDGE('',*,*,#376,.F.);
#297=EDGE_CURVE('',#381,#381,#443,.F.);
#298=EDGE_CURVE('',#382,#382,#444,.F.);
#299=EDGE_CURVE('',#383,#384,#29,.T.);
#300=EDGE_CURVE('',#383,#385,#30,.T.);
#301=EDGE_CURVE('',#386,#385,#445,.T.);
#302=EDGE_CURVE('',#386,#387,#31,.T.);
#303=EDGE_CURVE('',#388,#387,#446,.T.);
#304=EDGE_CURVE('',#388,#384,#32,.T.);
#305=EDGE_CURVE('',#389,#390,#33,.T.);
#306=EDGE_CURVE('',#391,#390,#34,.T.);
#307=EDGE_CURVE('',#392,#391,#35,.T.);
#308=EDGE_CURVE('',#392,#389,#36,.T.);
#309=EDGE_CURVE('',#393,#394,#447,.T.);
#310=EDGE_CURVE('',#395,#393,#37,.T.);
#311=EDGE_CURVE('',#396,#395,#448,.T.);
#312=EDGE_CURVE('',#397,#396,#38,.T.);
#313=EDGE_CURVE('',#398,#397,#449,.T.);
#314=EDGE_CURVE('',#398,#399,#39,.T.);
#315=EDGE_CURVE('',#400,#399,#450,.T.);
#316=EDGE_CURVE('',#400,#394,#40,.T.);
#317=EDGE_CURVE('',#401,#402,#41,.T.);
#318=EDGE_CURVE('',#403,#401,#42,.T.);
#319=EDGE_CURVE('',#390,#403,#451,.T.);
#320=EDGE_CURVE('',#404,#389,#452,.T.);
#321=EDGE_CURVE('',#402,#404,#43,.T.);
#322=EDGE_CURVE('',#405,#406,#44,.T.);
#323=EDGE_CURVE('',#407,#405,#45,.T.);
#324=EDGE_CURVE('',#407,#384,#46,.T.);
#325=EDGE_CURVE('',#408,#388,#47,.T.);
#326=EDGE_CURVE('',#408,#406,#48,.T.);
#327=EDGE_CURVE('',#409,#410,#49,.T.);
#328=EDGE_CURVE('',#411,#409,#453,.T.);
#329=EDGE_CURVE('',#411,#412,#50,.T.);
#330=EDGE_CURVE('',#413,#412,#454,.T.);
#331=EDGE_CURVE('',#413,#414,#51,.T.);
#332=EDGE_CURVE('',#415,#414,#455,.T.);
#333=EDGE_CURVE('',#416,#415,#52,.T.);
#334=EDGE_CURVE('',#410,#416,#456,.T.);
#335=EDGE_CURVE('',#417,#386,#53,.T.);
#336=EDGE_CURVE('',#417,#418,#54,.T.);
#337=EDGE_CURVE('',#418,#387,#55,.T.);
#338=EDGE_CURVE('',#419,#420,#56,.T.);
#339=EDGE_CURVE('',#419,#421,#57,.T.);
#340=EDGE_CURVE('',#421,#385,#58,.T.);
#341=EDGE_CURVE('',#422,#383,#59,.T.);
#342=EDGE_CURVE('',#422,#420,#60,.T.);
#343=EDGE_CURVE('',#408,#418,#457,.T.);
#344=EDGE_CURVE('',#417,#421,#458,.T.);
#345=EDGE_CURVE('',#401,#423,#61,.T.);
#346=EDGE_CURVE('',#424,#423,#62,.T.);
#347=EDGE_CURVE('',#424,#403,#63,.T.);
#348=EDGE_CURVE('',#391,#424,#459,.T.);
#349=EDGE_CURVE('',#425,#392,#460,.T.);
#350=EDGE_CURVE('',#425,#404,#64,.T.);
#351=EDGE_CURVE('',#426,#425,#65,.T.);
#352=EDGE_CURVE('',#426,#402,#66,.T.);
#353=EDGE_CURVE('',#423,#406,#67,.T.);
#354=EDGE_CURVE('',#419,#426,#68,.T.);
#355=EDGE_CURVE('',#427,#427,#461,.T.);
#356=EDGE_CURVE('',#428,#428,#462,.T.);
#357=EDGE_CURVE('',#429,#429,#463,.T.);
#358=EDGE_CURVE('',#430,#430,#464,.T.);
#359=EDGE_CURVE('',#431,#431,#465,.T.);
#360=EDGE_CURVE('',#432,#432,#466,.T.);
#361=EDGE_CURVE('',#410,#395,#69,.T.);
#362=EDGE_CURVE('',#409,#393,#70,.T.);
#363=EDGE_CURVE('',#411,#394,#71,.T.);
#364=EDGE_CURVE('',#412,#400,#72,.T.);
#365=EDGE_CURVE('',#413,#399,#73,.T.);
#366=EDGE_CURVE('',#414,#398,#74,.T.);
#367=EDGE_CURVE('',#415,#397,#75,.T.);
#368=EDGE_CURVE('',#416,#396,#76,.T.);
#369=EDGE_CURVE('',#433,#433,#467,.T.);
#370=EDGE_CURVE('',#434,#434,#468,.T.);
#371=EDGE_CURVE('',#435,#435,#469,.T.);
#372=EDGE_CURVE('',#436,#436,#470,.T.);
#373=EDGE_CURVE('',#437,#437,#471,.T.);
#374=EDGE_CURVE('',#422,#407,#77,.T.);
#375=EDGE_CURVE('',#420,#405,#78,.T.);
#376=EDGE_CURVE('',#438,#438,#472,.F.);
#377=EDGE_CURVE('',#439,#439,#473,.F.);
#378=EDGE_CURVE('',#440,#440,#474,.F.);
#379=EDGE_CURVE('',#441,#441,#475,.F.);
#380=EDGE_CURVE('',#442,#442,#476,.F.);
#381=VERTEX_POINT('',#939);
#382=VERTEX_POINT('',#941);
#383=VERTEX_POINT('',#943);
#384=VERTEX_POINT('',#944);
#385=VERTEX_POINT('',#946);
#386=VERTEX_POINT('',#948);
#387=VERTEX_POINT('',#950);
#388=VERTEX_POINT('',#952);
#389=VERTEX_POINT('',#956);
#390=VERTEX_POINT('',#957);
#391=VERTEX_POINT('',#959);
#392=VERTEX_POINT('',#961);
#393=VERTEX_POINT('',#964);
#394=VERTEX_POINT('',#965);
#395=VERTEX_POINT('',#967);
#396=VERTEX_POINT('',#969);
#397=VERTEX_POINT('',#971);
#398=VERTEX_POINT('',#973);
#399=VERTEX_POINT('',#975);
#400=VERTEX_POINT('',#977);
#401=VERTEX_POINT('',#981);
#402=VERTEX_POINT('',#982);
#403=VERTEX_POINT('',#984);
#404=VERTEX_POINT('',#987);
#405=VERTEX_POINT('',#991);
#406=VERTEX_POINT('',#992);
#407=VERTEX_POINT('',#994);
#408=VERTEX_POINT('',#997);
#409=VERTEX_POINT('',#1001);
#410=VERTEX_POINT('',#1002);
#411=VERTEX_POINT('',#1004);
#412=VERTEX_POINT('',#1006);
#413=VERTEX_POINT('',#1008);
#414=VERTEX_POINT('',#1010);
#415=VERTEX_POINT('',#1012);
#416=VERTEX_POINT('',#1014);
#417=VERTEX_POINT('',#1017);
#418=VERTEX_POINT('',#1019);
#419=VERTEX_POINT('',#1023);
#420=VERTEX_POINT('',#1024);
#421=VERTEX_POINT('',#1026);
#422=VERTEX_POINT('',#1029);
#423=VERTEX_POINT('',#1037);
#424=VERTEX_POINT('',#1039);
#425=VERTEX_POINT('',#1045);
#426=VERTEX_POINT('',#1049);
#427=VERTEX_POINT('',#1056);
#428=VERTEX_POINT('',#1058);
#429=VERTEX_POINT('',#1061);
#430=VERTEX_POINT('',#1066);
#431=VERTEX_POINT('',#1068);
#432=VERTEX_POINT('',#1071);
#433=VERTEX_POINT('',#1092);
#434=VERTEX_POINT('',#1094);
#435=VERTEX_POINT('',#1096);
#436=VERTEX_POINT('',#1098);
#437=VERTEX_POINT('',#1100);
#438=VERTEX_POINT('',#1106);
#439=VERTEX_POINT('',#1109);
#440=VERTEX_POINT('',#1112);
#441=VERTEX_POINT('',#1115);
#442=VERTEX_POINT('',#1118);
#443=CIRCLE('',#672,0.002);
#444=CIRCLE('',#673,0.002);
#445=CIRCLE('',#674,0.00400000042590999);
#446=CIRCLE('',#675,0.00400000042591001);
#447=CIRCLE('',#677,0.000300000000000007);
#448=CIRCLE('',#678,0.0003);
#449=CIRCLE('',#679,0.0003);
#450=CIRCLE('',#680,0.0003);
#451=CIRCLE('',#682,0.00800000042591);
#452=CIRCLE('',#683,0.00800000042591001);
#453=CIRCLE('',#686,0.000300000000000007);
#454=CIRCLE('',#687,0.0003);
#455=CIRCLE('',#688,0.0003);
#456=CIRCLE('',#689,0.0003);
#457=CIRCLE('',#692,0.00400000042591001);
#458=CIRCLE('',#694,0.00400000042590999);
#459=CIRCLE('',#697,0.00800000042591);
#460=CIRCLE('',#699,0.00800000042591001);
#461=CIRCLE('',#703,0.001075);
#462=CIRCLE('',#704,0.001075);
#463=CIRCLE('',#706,0.002);
#464=CIRCLE('',#710,0.001075);
#465=CIRCLE('',#711,0.001075);
#466=CIRCLE('',#713,0.002);
#467=CIRCLE('',#725,0.00155);
#468=CIRCLE('',#726,0.00155);
#469=CIRCLE('',#727,0.00155);
#470=CIRCLE('',#728,0.00155);
#471=CIRCLE('',#729,0.00155);
#472=CIRCLE('',#732,0.00155);
#473=CIRCLE('',#734,0.00155);
#474=CIRCLE('',#736,0.00155);
#475=CIRCLE('',#738,0.00155);
#476=CIRCLE('',#740,0.00155);
#477=EDGE_LOOP('',(#129));
#478=EDGE_LOOP('',(#130));
#479=EDGE_LOOP('',(#131,#132,#133,#134,#135,#136));
#480=EDGE_LOOP('',(#137,#138,#139,#140));
#481=EDGE_LOOP('',(#141,#142,#143,#144,#145,#146,#147,#148));
#482=EDGE_LOOP('',(#149,#150,#151,#152,#153,#154));
#483=EDGE_LOOP('',(#155,#156,#157,#158,#159,#160));
#484=EDGE_LOOP('',(#161,#162,#163,#164,#165,#166,#167,#168));
#485=EDGE_LOOP('',(#169,#170,#171,#172));
#486=EDGE_LOOP('',(#173,#174,#175,#176,#177,#178));
#487=EDGE_LOOP('',(#179,#180,#181,#182));
#488=EDGE_LOOP('',(#183,#184,#185,#186));
#489=EDGE_LOOP('',(#187,#188,#189,#190));
#490=EDGE_LOOP('',(#191,#192,#193,#194));
#491=EDGE_LOOP('',(#195,#196,#197,#198));
#492=EDGE_LOOP('',(#199,#200,#201,#202));
#493=EDGE_LOOP('',(#203,#204,#205,#206,#207,#208,#209,#210,#211,#212,#213,
#214));
#494=EDGE_LOOP('',(#215));
#495=EDGE_LOOP('',(#216));
#496=EDGE_LOOP('',(#217));
#497=EDGE_LOOP('',(#218));
#498=EDGE_LOOP('',(#219));
#499=EDGE_LOOP('',(#220));
#500=EDGE_LOOP('',(#221));
#501=EDGE_LOOP('',(#222));
#502=EDGE_LOOP('',(#223));
#503=EDGE_LOOP('',(#224));
#504=EDGE_LOOP('',(#225));
#505=EDGE_LOOP('',(#226));
#506=EDGE_LOOP('',(#227));
#507=EDGE_LOOP('',(#228));
#508=EDGE_LOOP('',(#229,#230,#231,#232));
#509=EDGE_LOOP('',(#233,#234,#235,#236));
#510=EDGE_LOOP('',(#237,#238,#239,#240));
#511=EDGE_LOOP('',(#241,#242,#243,#244));
#512=EDGE_LOOP('',(#245,#246,#247,#248));
#513=EDGE_LOOP('',(#249,#250,#251,#252));
#514=EDGE_LOOP('',(#253,#254,#255,#256));
#515=EDGE_LOOP('',(#257,#258,#259,#260));
#516=EDGE_LOOP('',(#261));
#517=EDGE_LOOP('',(#262));
#518=EDGE_LOOP('',(#263));
#519=EDGE_LOOP('',(#264));
#520=EDGE_LOOP('',(#265));
#521=EDGE_LOOP('',(#266,#267,#268,#269));
#522=EDGE_LOOP('',(#270,#271,#272,#273));
#523=EDGE_LOOP('',(#274));
#524=EDGE_LOOP('',(#275));
#525=EDGE_LOOP('',(#276));
#526=EDGE_LOOP('',(#277));
#527=EDGE_LOOP('',(#278));
#528=EDGE_LOOP('',(#279));
#529=EDGE_LOOP('',(#280));
#530=EDGE_LOOP('',(#281));
#531=EDGE_LOOP('',(#282));
#532=EDGE_LOOP('',(#283));
#533=EDGE_LOOP('',(#284,#285,#286,#287,#288,#289,#290,#291));
#534=EDGE_LOOP('',(#292));
#535=EDGE_LOOP('',(#293));
#536=EDGE_LOOP('',(#294));
#537=EDGE_LOOP('',(#295));
#538=EDGE_LOOP('',(#296));
#539=FACE_BOUND('',#477,.T.);
#540=FACE_BOUND('',#478,.T.);
#541=FACE_BOUND('',#479,.T.);
#542=FACE_BOUND('',#480,.T.);
#543=FACE_BOUND('',#481,.T.);
#544=FACE_BOUND('',#482,.T.);
#545=FACE_BOUND('',#483,.T.);
#546=FACE_BOUND('',#484,.T.);
#547=FACE_BOUND('',#485,.T.);
#548=FACE_BOUND('',#486,.T.);
#549=FACE_BOUND('',#487,.T.);
#550=FACE_BOUND('',#488,.T.);
#551=FACE_BOUND('',#489,.T.);
#552=FACE_BOUND('',#490,.T.);
#553=FACE_BOUND('',#491,.T.);
#554=FACE_BOUND('',#492,.T.);
#555=FACE_BOUND('',#493,.T.);
#556=FACE_BOUND('',#494,.T.);
#557=FACE_BOUND('',#495,.T.);
#558=FACE_BOUND('',#496,.T.);
#559=FACE_BOUND('',#497,.T.);
#560=FACE_BOUND('',#498,.T.);
#561=FACE_BOUND('',#499,.T.);
#562=FACE_BOUND('',#500,.T.);
#563=FACE_BOUND('',#501,.T.);
#564=FACE_BOUND('',#502,.T.);
#565=FACE_BOUND('',#503,.T.);
#566=FACE_BOUND('',#504,.T.);
#567=FACE_BOUND('',#505,.T.);
#568=FACE_BOUND('',#506,.T.);
#569=FACE_BOUND('',#507,.T.);
#570=FACE_BOUND('',#508,.T.);
#571=FACE_BOUND('',#509,.T.);
#572=FACE_BOUND('',#510,.T.);
#573=FACE_BOUND('',#511,.T.);
#574=FACE_BOUND('',#512,.T.);
#575=FACE_BOUND('',#513,.T.);
#576=FACE_BOUND('',#514,.T.);
#577=FACE_BOUND('',#515,.T.);
#578=FACE_BOUND('',#516,.T.);
#579=FACE_BOUND('',#517,.T.);
#580=FACE_BOUND('',#518,.T.);
#581=FACE_BOUND('',#519,.T.);
#582=FACE_BOUND('',#520,.T.);
#583=FACE_BOUND('',#521,.T.);
#584=FACE_BOUND('',#522,.T.);
#585=FACE_BOUND('',#523,.T.);
#586=FACE_BOUND('',#524,.T.);
#587=FACE_BOUND('',#525,.T.);
#588=FACE_BOUND('',#526,.T.);
#589=FACE_BOUND('',#527,.T.);
#590=FACE_BOUND('',#528,.T.);
#591=FACE_BOUND('',#529,.T.);
#592=FACE_BOUND('',#530,.T.);
#593=FACE_BOUND('',#531,.T.);
#594=FACE_BOUND('',#532,.T.);
#595=FACE_BOUND('',#533,.T.);
#596=FACE_BOUND('',#534,.T.);
#597=FACE_BOUND('',#535,.T.);
#598=FACE_BOUND('',#536,.T.);
#599=FACE_BOUND('',#537,.T.);
#600=FACE_BOUND('',#538,.T.);
#601=PLANE('',#671);
#602=PLANE('',#676);
#603=PLANE('',#681);
#604=PLANE('',#684);
#605=PLANE('',#685);
#606=PLANE('',#690);
#607=PLANE('',#695);
#608=PLANE('',#700);
#609=PLANE('',#701);
#610=PLANE('',#707);
#611=PLANE('',#708);
#612=PLANE('',#714);
#613=PLANE('',#715);
#614=PLANE('',#716);
#615=PLANE('',#718);
#616=PLANE('',#720);
#617=PLANE('',#722);
#618=PLANE('',#724);
#619=PLANE('',#730);
#620=PLANE('',#741);
#621=ADVANCED_FACE('',(#539,#540,#541),#601,.F.);
#622=ADVANCED_FACE('',(#542,#543),#602,.F.);
#623=ADVANCED_FACE('',(#544),#603,.T.);
#624=ADVANCED_FACE('',(#545),#604,.T.);
#625=ADVANCED_FACE('',(#546,#547),#605,.T.);
#626=ADVANCED_FACE('',(#548),#606,.T.);
#627=ADVANCED_FACE('',(#549),#12,.F.);
#628=ADVANCED_FACE('',(#550),#13,.F.);
#629=ADVANCED_FACE('',(#551),#607,.F.);
#630=ADVANCED_FACE('',(#552),#14,.T.);
#631=ADVANCED_FACE('',(#553),#15,.T.);
#632=ADVANCED_FACE('',(#554),#608,.F.);
#633=ADVANCED_FACE('',(#555),#609,.F.);
#634=ADVANCED_FACE('',(#556,#557),#16,.F.);
#635=ADVANCED_FACE('',(#558,#559),#17,.T.);
#636=ADVANCED_FACE('',(#560,#561),#610,.T.);
#637=ADVANCED_FACE('',(#562),#611,.F.);
#638=ADVANCED_FACE('',(#563,#564),#18,.F.);
#639=ADVANCED_FACE('',(#565,#566),#19,.T.);
#640=ADVANCED_FACE('',(#567,#568),#612,.T.);
#641=ADVANCED_FACE('',(#569),#613,.F.);
#642=ADVANCED_FACE('',(#570),#614,.F.);
#643=ADVANCED_FACE('',(#571),#20,.F.);
#644=ADVANCED_FACE('',(#572),#615,.T.);
#645=ADVANCED_FACE('',(#573),#21,.F.);
#646=ADVANCED_FACE('',(#574),#616,.T.);
#647=ADVANCED_FACE('',(#575),#22,.F.);
#648=ADVANCED_FACE('',(#576),#617,.F.);
#649=ADVANCED_FACE('',(#577),#23,.F.);
#650=ADVANCED_FACE('',(#578,#579,#580,#581,#582,#583),#618,.F.);
#651=ADVANCED_FACE('',(#584),#619,.T.);
#652=ADVANCED_FACE('',(#585,#586),#24,.F.);
#653=ADVANCED_FACE('',(#587,#588),#25,.F.);
#654=ADVANCED_FACE('',(#589,#590),#26,.F.);
#655=ADVANCED_FACE('',(#591,#592),#27,.F.);
#656=ADVANCED_FACE('',(#593,#594),#28,.F.);
#657=ADVANCED_FACE('',(#595,#596,#597,#598,#599,#600),#620,.F.);
#658=CLOSED_SHELL('',(#621,#622,#623,#624,#625,#626,#627,#628,#629,#630,
#631,#632,#633,#634,#635,#636,#637,#638,#639,#640,#641,#642,#643,#644,#645,
#646,#647,#648,#649,#650,#651,#652,#653,#654,#655,#656,#657));
#659=STYLED_ITEM('',(#660),#667);
#660=PRESENTATION_STYLE_ASSIGNMENT((#661));
#661=SURFACE_STYLE_USAGE(.BOTH.,#662);
#662=SURFACE_SIDE_STYLE('',(#663));
#663=SURFACE_STYLE_FILL_AREA(#664);
#664=FILL_AREA_STYLE('',(#665));
#665=FILL_AREA_STYLE_COLOUR('',#666);
#666=COLOUR_RGB('',0.6,0.580392156862745,0.529411764705882);
#667=MANIFOLD_SOLID_BREP('Part 2411',#658);
#668=SHAPE_DEFINITION_REPRESENTATION(#1126,#669);
#669=SHAPE_REPRESENTATION('Part 2411',(#670),#1121);
#670=AXIS2_PLACEMENT_3D('',#936,#742,#743);
#671=AXIS2_PLACEMENT_3D('',#937,#744,#745);
#672=AXIS2_PLACEMENT_3D('',#938,#746,#747);
#673=AXIS2_PLACEMENT_3D('',#940,#748,#749);
#674=AXIS2_PLACEMENT_3D('',#947,#752,#753);
#675=AXIS2_PLACEMENT_3D('',#951,#755,#756);
#676=AXIS2_PLACEMENT_3D('',#954,#758,#759);
#677=AXIS2_PLACEMENT_3D('',#963,#764,#765);
#678=AXIS2_PLACEMENT_3D('',#968,#767,#768);
#679=AXIS2_PLACEMENT_3D('',#972,#770,#771);
#680=AXIS2_PLACEMENT_3D('',#976,#773,#774);
#681=AXIS2_PLACEMENT_3D('',#979,#776,#777);
#682=AXIS2_PLACEMENT_3D('',#985,#780,#781);
#683=AXIS2_PLACEMENT_3D('',#986,#782,#783);
#684=AXIS2_PLACEMENT_3D('',#989,#785,#786);
#685=AXIS2_PLACEMENT_3D('',#999,#792,#793);
#686=AXIS2_PLACEMENT_3D('',#1003,#795,#796);
#687=AXIS2_PLACEMENT_3D('',#1007,#798,#799);
#688=AXIS2_PLACEMENT_3D('',#1011,#801,#802);
#689=AXIS2_PLACEMENT_3D('',#1015,#804,#805);
#690=AXIS2_PLACEMENT_3D('',#1021,#809,#810);
#691=AXIS2_PLACEMENT_3D('',#1031,#816,#817);
#692=AXIS2_PLACEMENT_3D('',#1032,#818,#819);
#693=AXIS2_PLACEMENT_3D('',#1033,#820,#821);
#694=AXIS2_PLACEMENT_3D('',#1034,#822,#823);
#695=AXIS2_PLACEMENT_3D('',#1035,#824,#825);
#696=AXIS2_PLACEMENT_3D('',#1041,#829,#830);
#697=AXIS2_PLACEMENT_3D('',#1042,#831,#832);
#698=AXIS2_PLACEMENT_3D('',#1043,#833,#834);
#699=AXIS2_PLACEMENT_3D('',#1044,#835,#836);
#700=AXIS2_PLACEMENT_3D('',#1047,#838,#839);
#701=AXIS2_PLACEMENT_3D('',#1051,#842,#843);
#702=AXIS2_PLACEMENT_3D('',#1054,#846,#847);
#703=AXIS2_PLACEMENT_3D('',#1055,#848,#849);
#704=AXIS2_PLACEMENT_3D('',#1057,#850,#851);
#705=AXIS2_PLACEMENT_3D('',#1059,#852,#853);
#706=AXIS2_PLACEMENT_3D('',#1060,#854,#855);
#707=AXIS2_PLACEMENT_3D('',#1062,#856,#857);
#708=AXIS2_PLACEMENT_3D('',#1063,#858,#859);
#709=AXIS2_PLACEMENT_3D('',#1064,#860,#861);
#710=AXIS2_PLACEMENT_3D('',#1065,#862,#863);
#711=AXIS2_PLACEMENT_3D('',#1067,#864,#865);
#712=AXIS2_PLACEMENT_3D('',#1069,#866,#867);
#713=AXIS2_PLACEMENT_3D('',#1070,#868,#869);
#714=AXIS2_PLACEMENT_3D('',#1072,#870,#871);
#715=AXIS2_PLACEMENT_3D('',#1073,#872,#873);
#716=AXIS2_PLACEMENT_3D('',#1074,#874,#875);
#717=AXIS2_PLACEMENT_3D('',#1077,#878,#879);
#718=AXIS2_PLACEMENT_3D('',#1079,#881,#882);
#719=AXIS2_PLACEMENT_3D('',#1081,#884,#885);
#720=AXIS2_PLACEMENT_3D('',#1083,#887,#888);
#721=AXIS2_PLACEMENT_3D('',#1085,#890,#891);
#722=AXIS2_PLACEMENT_3D('',#1087,#893,#894);
#723=AXIS2_PLACEMENT_3D('',#1089,#896,#897);
#724=AXIS2_PLACEMENT_3D('',#1090,#898,#899);
#725=AXIS2_PLACEMENT_3D('',#1091,#900,#901);
#726=AXIS2_PLACEMENT_3D('',#1093,#902,#903);
#727=AXIS2_PLACEMENT_3D('',#1095,#904,#905);
#728=AXIS2_PLACEMENT_3D('',#1097,#906,#907);
#729=AXIS2_PLACEMENT_3D('',#1099,#908,#909);
#730=AXIS2_PLACEMENT_3D('',#1102,#911,#912);
#731=AXIS2_PLACEMENT_3D('',#1104,#914,#915);
#732=AXIS2_PLACEMENT_3D('',#1105,#916,#917);
#733=AXIS2_PLACEMENT_3D('',#1107,#918,#919);
#734=AXIS2_PLACEMENT_3D('',#1108,#920,#921);
#735=AXIS2_PLACEMENT_3D('',#1110,#922,#923);
#736=AXIS2_PLACEMENT_3D('',#1111,#924,#925);
#737=AXIS2_PLACEMENT_3D('',#1113,#926,#927);
#738=AXIS2_PLACEMENT_3D('',#1114,#928,#929);
#739=AXIS2_PLACEMENT_3D('',#1116,#930,#931);
#740=AXIS2_PLACEMENT_3D('',#1117,#932,#933);
#741=AXIS2_PLACEMENT_3D('',#1119,#934,#935);
#742=DIRECTION('',(0.,0.,1.));
#743=DIRECTION('',(1.,0.,0.));
#744=DIRECTION('',(0.,0.,-1.));
#745=DIRECTION('',(1.,0.,0.));
#746=DIRECTION('',(0.,0.,-1.));
#747=DIRECTION('',(-1.,0.,0.));
#748=DIRECTION('',(0.,0.,-1.));
#749=DIRECTION('',(-1.,0.,0.));
#750=DIRECTION('',(0.,1.,0.));
#751=DIRECTION('',(1.,0.,0.));
#752=DIRECTION('',(0.,0.,-1.));
#753=DIRECTION('',(-1.,0.,0.));
#754=DIRECTION('',(0.,1.,0.));
#755=DIRECTION('',(0.,0.,-1.));
#756=DIRECTION('',(-1.,0.,0.));
#757=DIRECTION('',(-1.,0.,0.));
#758=DIRECTION('',(-1.,0.,0.));
#759=DIRECTION('',(0.,0.,1.));
#760=DIRECTION('',(0.,1.,0.));
#761=DIRECTION('',(0.,0.,-1.));
#762=DIRECTION('',(0.,1.,0.));
#763=DIRECTION('',(0.,0.,-1.));
#764=DIRECTION('',(1.,0.,0.));
#765=DIRECTION('',(0.,0.,-1.));
#766=DIRECTION('',(0.,0.,1.));
#767=DIRECTION('',(1.,0.,0.));
#768=DIRECTION('',(0.,0.,-1.));
#769=DIRECTION('',(0.,1.,0.));
#770=DIRECTION('',(1.,0.,0.));
#771=DIRECTION('',(0.,0.,-1.));
#772=DIRECTION('',(0.,0.,1.));
#773=DIRECTION('',(1.,0.,0.));
#774=DIRECTION('',(0.,0.,-1.));
#775=DIRECTION('',(0.,1.,0.));
#776=DIRECTION('',(0.,0.,-1.));
#777=DIRECTION('',(1.,0.,0.));
#778=DIRECTION('',(0.,-1.,0.));
#779=DIRECTION('',(-1.,0.,0.));
#780=DIRECTION('',(0.,0.,1.));
#781=DIRECTION('',(-1.,0.,0.));
#782=DIRECTION('',(0.,0.,1.));
#783=DIRECTION('',(-1.,0.,0.));
#784=DIRECTION('',(1.,0.,0.));
#785=DIRECTION('',(0.,-1.,0.));
#786=DIRECTION('',(0.,0.,-1.));
#787=DIRECTION('',(0.,0.,1.));
#788=DIRECTION('',(-1.,0.,0.));
#789=DIRECTION('',(0.,0.,-1.));
#790=DIRECTION('',(0.,0.,-1.));
#791=DIRECTION('',(-1.,0.,0.));
#792=DIRECTION('',(-1.,0.,0.));
#793=DIRECTION('',(0.,0.,1.));
#794=DIRECTION('',(0.,0.,-1.));
#795=DIRECTION('',(-1.,0.,0.));
#796=DIRECTION('',(0.,0.,1.));
#797=DIRECTION('',(0.,-1.,0.));
#798=DIRECTION('',(-1.,0.,0.));
#799=DIRECTION('',(0.,0.,1.));
#800=DIRECTION('',(0.,0.,-1.));
#801=DIRECTION('',(-1.,0.,0.));
#802=DIRECTION('',(0.,0.,1.));
#803=DIRECTION('',(0.,-1.,0.));
#804=DIRECTION('',(-1.,0.,0.));
#805=DIRECTION('',(0.,0.,1.));
#806=DIRECTION('',(0.,0.,-1.));
#807=DIRECTION('',(0.,1.,0.));
#808=DIRECTION('',(0.,0.,-1.));
#809=DIRECTION('',(0.,1.,0.));
#810=DIRECTION('',(0.,0.,1.));
#811=DIRECTION('',(0.,0.,-1.));
#812=DIRECTION('',(1.,0.,0.));
#813=DIRECTION('',(0.,0.,-1.));
#814=DIRECTION('',(0.,0.,-1.));
#815=DIRECTION('',(-1.,0.,0.));
#816=DIRECTION('',(0.,0.,-1.));
#817=DIRECTION('',(-1.,0.,0.));
#818=DIRECTION('',(0.,0.,-1.));
#819=DIRECTION('',(-1.,0.,0.));
#820=DIRECTION('',(0.,0.,-1.));
#821=DIRECTION('',(-1.,0.,0.));
#822=DIRECTION('',(0.,0.,-1.));
#823=DIRECTION('',(-1.,0.,0.));
#824=DIRECTION('',(0.,-1.,0.));
#825=DIRECTION('',(0.,0.,-1.));
#826=DIRECTION('',(0.,0.,1.));
#827=DIRECTION('',(-1.,0.,0.));
#828=DIRECTION('',(0.,0.,-1.));
#829=DIRECTION('',(0.,0.,-1.));
#830=DIRECTION('',(-1.,0.,0.));
#831=DIRECTION('',(0.,0.,1.));
#832=DIRECTION('',(-1.,0.,0.));
#833=DIRECTION('',(0.,0.,-1.));
#834=DIRECTION('',(-1.,0.,0.));
#835=DIRECTION('',(0.,0.,1.));
#836=DIRECTION('',(-1.,0.,0.));
#837=DIRECTION('',(0.,0.,-1.));
#838=DIRECTION('',(0.,1.,0.));
#839=DIRECTION('',(0.,0.,1.));
#840=DIRECTION('',(1.,0.,0.));
#841=DIRECTION('',(0.,0.,-1.));
#842=DIRECTION('',(0.,0.,-1.));
#843=DIRECTION('',(1.,0.,0.));
#844=DIRECTION('',(0.,-1.,0.));
#845=DIRECTION('',(0.,-1.,0.));
#846=DIRECTION('',(0.,0.,-1.));
#847=DIRECTION('',(-1.,0.,0.));
#848=DIRECTION('',(0.,0.,1.));
#849=DIRECTION('',(1.,0.,0.));
#850=DIRECTION('',(0.,0.,1.));
#851=DIRECTION('',(1.,0.,0.));
#852=DIRECTION('',(0.,0.,-1.));
#853=DIRECTION('',(-1.,0.,0.));
#854=DIRECTION('',(0.,0.,1.));
#855=DIRECTION('',(1.,0.,0.));
#856=DIRECTION('',(0.,0.,1.));
#857=DIRECTION('',(1.,0.,0.));
#858=DIRECTION('',(0.,0.,-1.));
#859=DIRECTION('',(1.,0.,0.));
#860=DIRECTION('',(0.,0.,-1.));
#861=DIRECTION('',(-1.,0.,0.));
#862=DIRECTION('',(0.,0.,1.));
#863=DIRECTION('',(1.,0.,0.));
#864=DIRECTION('',(0.,0.,1.));
#865=DIRECTION('',(1.,0.,0.));
#866=DIRECTION('',(0.,0.,-1.));
#867=DIRECTION('',(-1.,0.,0.));
#868=DIRECTION('',(0.,0.,1.));
#869=DIRECTION('',(1.,0.,0.));
#870=DIRECTION('',(0.,0.,1.));
#871=DIRECTION('',(1.,0.,0.));
#872=DIRECTION('',(0.,0.,-1.));
#873=DIRECTION('',(1.,0.,0.));
#874=DIRECTION('',(0.,1.,0.));
#875=DIRECTION('',(0.,0.,1.));
#876=DIRECTION('',(1.,0.,0.));
#877=DIRECTION('',(1.,0.,0.));
#878=DIRECTION('',(1.,0.,0.));
#879=DIRECTION('',(0.,0.,-1.));
#880=DIRECTION('',(1.,0.,0.));
#881=DIRECTION('',(0.,0.,-1.));
#882=DIRECTION('',(-1.,0.,0.));
#883=DIRECTION('',(1.,0.,0.));
#884=DIRECTION('',(1.,0.,0.));
#885=DIRECTION('',(0.,0.,-1.));
#886=DIRECTION('',(1.,0.,0.));
#887=DIRECTION('',(0.,1.,0.));
#888=DIRECTION('',(0.,0.,1.));
#889=DIRECTION('',(1.,0.,0.));
#890=DIRECTION('',(1.,0.,0.));
#891=DIRECTION('',(0.,0.,-1.));
#892=DIRECTION('',(1.,0.,0.));
#893=DIRECTION('',(0.,0.,-1.));
#894=DIRECTION('',(-1.,0.,0.));
#895=DIRECTION('',(1.,0.,0.));
#896=DIRECTION('',(1.,0.,0.));
#897=DIRECTION('',(0.,0.,-1.));
#898=DIRECTION('',(-1.,0.,0.));
#899=DIRECTION('',(0.,0.,1.));
#900=DIRECTION('',(1.,0.,0.));
#901=DIRECTION('',(0.,0.,-1.));
#902=DIRECTION('',(1.,0.,0.));
#903=DIRECTION('',(0.,0.,-1.));
#904=DIRECTION('',(1.,0.,0.));
#905=DIRECTION('',(0.,0.,-1.));
#906=DIRECTION('',(1.,0.,0.));
#907=DIRECTION('',(0.,0.,-1.));
#908=DIRECTION('',(1.,0.,0.));
#909=DIRECTION('',(0.,0.,-1.));
#910=DIRECTION('',(0.,1.,0.));
#911=DIRECTION('',(0.,0.,1.));
#912=DIRECTION('',(1.,0.,0.));
#913=DIRECTION('',(0.,1.,0.));
#914=DIRECTION('',(1.,0.,0.));
#915=DIRECTION('',(0.,0.,-1.));
#916=DIRECTION('',(1.,0.,0.));
#917=DIRECTION('',(0.,0.,-1.));
#918=DIRECTION('',(1.,0.,0.));
#919=DIRECTION('',(0.,0.,-1.));
#920=DIRECTION('',(1.,0.,0.));
#921=DIRECTION('',(0.,0.,-1.));
#922=DIRECTION('',(1.,0.,0.));
#923=DIRECTION('',(0.,0.,-1.));
#924=DIRECTION('',(1.,0.,0.));
#925=DIRECTION('',(0.,0.,-1.));
#926=DIRECTION('',(1.,0.,0.));
#927=DIRECTION('',(0.,0.,-1.));
#928=DIRECTION('',(1.,0.,0.));
#929=DIRECTION('',(0.,0.,-1.));
#930=DIRECTION('',(1.,0.,0.));
#931=DIRECTION('',(0.,0.,-1.));
#932=DIRECTION('',(1.,0.,0.));
#933=DIRECTION('',(0.,0.,-1.));
#934=DIRECTION('',(1.,0.,0.));
#935=DIRECTION('',(0.,1.,0.));
#936=CARTESIAN_POINT('',(0.,0.,0.));
#937=CARTESIAN_POINT('',(2.77555756156289E-17,0.,-0.005));
#938=CARTESIAN_POINT('',(0.16956,0.058165,-0.005));
#939=CARTESIAN_POINT('',(0.16756,0.058165,-0.005));
#940=CARTESIAN_POINT('',(0.16877,-0.057335,-0.005));
#941=CARTESIAN_POINT('',(0.16677,-0.057335,-0.005));
#942=CARTESIAN_POINT('',(0.002,0.,-0.005));
#943=CARTESIAN_POINT('',(0.002,-0.062585,-0.005));
#944=CARTESIAN_POINT('',(0.002,0.062585,-0.005));
#945=CARTESIAN_POINT('',(2.2509771824275E-14,-0.062585,-0.005));
#946=CARTESIAN_POINT('',(0.170569999787045,-0.062585,-0.005));
#947=CARTESIAN_POINT('',(0.17056999957409,-0.05858499957409,-0.005));
#948=CARTESIAN_POINT('',(0.17457,-0.0585849997870451,-0.005));
#949=CARTESIAN_POINT('',(0.17457,-4.16333634234433E-17,-0.005));
#950=CARTESIAN_POINT('',(0.17457,0.058584999787045,-0.005));
#951=CARTESIAN_POINT('',(0.17056999957409,0.05858499957409,-0.005));
#952=CARTESIAN_POINT('',(0.170569999787045,0.062585,-0.005));
#953=CARTESIAN_POINT('',(2.2509771824275E-14,0.062585,-0.005));
#954=CARTESIAN_POINT('',(0.17857,0.,0.0105));
#955=CARTESIAN_POINT('',(0.17857,0.,-0.01));
#956=CARTESIAN_POINT('',(0.17857,-0.05858499957409,-0.01));
#957=CARTESIAN_POINT('',(0.17857,0.05858499957409,-0.01));
#958=CARTESIAN_POINT('',(0.17857,0.05858499957409,0.0105));
#959=CARTESIAN_POINT('',(0.17857,0.05858499957409,0.0105));
#960=CARTESIAN_POINT('',(0.17857,0.,0.0105));
#961=CARTESIAN_POINT('',(0.17857,-0.05858499957409,0.0105));
#962=CARTESIAN_POINT('',(0.17857,-0.05858499957409,0.0105));
#963=CARTESIAN_POINT('',(0.17857,0.0494746393084526,0.00549894843391409));
#964=CARTESIAN_POINT('',(0.17857,0.0497746393084526,0.0054989484339141));
#965=CARTESIAN_POINT('',(0.17857,0.0494746393084526,0.0057989484339141));
#966=CARTESIAN_POINT('',(0.17857,0.0497746393084526,0.00341934441528882));
#967=CARTESIAN_POINT('',(0.17857,0.0497746393084526,0.00133974039666355));
#968=CARTESIAN_POINT('',(0.17857,0.0494746393084526,0.00133974039666355));
#969=CARTESIAN_POINT('',(0.17857,0.0494746393084526,0.00103974039666355));
#970=CARTESIAN_POINT('',(0.17857,0.0429858639836311,0.00103974039666355));
#971=CARTESIAN_POINT('',(0.17857,0.0364970886588096,0.00103974039666355));
#972=CARTESIAN_POINT('',(0.17857,0.0364970886588096,0.00133974039666355));
#973=CARTESIAN_POINT('',(0.17857,0.0361970886588097,0.00133974039666355));
#974=CARTESIAN_POINT('',(0.17857,0.0361970886588097,0.00341934441528882));
#975=CARTESIAN_POINT('',(0.17857,0.0361970886588097,0.00549894843391409));
#976=CARTESIAN_POINT('',(0.17857,0.0364970886588096,0.0054989484339141));
#977=CARTESIAN_POINT('',(0.17857,0.0364970886588096,0.0057989484339141));
#978=CARTESIAN_POINT('',(0.17857,0.0429858639836311,0.0057989484339141));
#979=CARTESIAN_POINT('',(2.77555756156289E-17,0.,-0.01));
#980=CARTESIAN_POINT('',(0.,0.,-0.01));
#981=CARTESIAN_POINT('',(0.,0.066585,-0.01));
#982=CARTESIAN_POINT('',(0.,-0.066585,-0.01));
#983=CARTESIAN_POINT('',(4.50195436485501E-14,0.066585,-0.01));
#984=CARTESIAN_POINT('',(0.17056999957409,0.066585,-0.01));
#985=CARTESIAN_POINT('',(0.17056999957409,0.05858499957409,-0.01));
#986=CARTESIAN_POINT('',(0.17056999957409,-0.05858499957409,-0.01));
#987=CARTESIAN_POINT('',(0.17056999957409,-0.066585,-0.01));
#988=CARTESIAN_POINT('',(4.50195436485501E-14,-0.066585,-0.01));
#989=CARTESIAN_POINT('',(2.2509771824275E-14,0.062585,0.0105));
#990=CARTESIAN_POINT('',(0.,0.062585,0.0105));
#991=CARTESIAN_POINT('',(0.,0.062585,-0.001));
#992=CARTESIAN_POINT('',(0.,0.062585,0.0105));
#993=CARTESIAN_POINT('',(0.,0.062585,-0.001));
#994=CARTESIAN_POINT('',(0.002,0.062585,-0.001));
#995=CARTESIAN_POINT('',(0.002,0.062585,-0.001));
#996=CARTESIAN_POINT('',(0.170569999787045,0.062585,0.0105));
#997=CARTESIAN_POINT('',(0.170569999787045,0.062585,0.0105));
#998=CARTESIAN_POINT('',(2.2509771824275E-14,0.062585,0.0105));
#999=CARTESIAN_POINT('',(0.17457,-4.16333634234433E-17,0.0105));
#1000=CARTESIAN_POINT('',(0.17457,0.0497746393084526,0.0105));
#1001=CARTESIAN_POINT('',(0.17457,0.0497746393084526,0.0054989484339141));
#1002=CARTESIAN_POINT('',(0.17457,0.0497746393084526,0.00133974039666355));
#1003=CARTESIAN_POINT('',(0.17457,0.0494746393084526,0.00549894843391409));
#1004=CARTESIAN_POINT('',(0.17457,0.0494746393084526,0.0057989484339141));
#1005=CARTESIAN_POINT('',(0.17457,-4.16333634234433E-17,0.0057989484339141));
#1006=CARTESIAN_POINT('',(0.17457,0.0364970886588096,0.0057989484339141));
#1007=CARTESIAN_POINT('',(0.17457,0.0364970886588096,0.0054989484339141));
#1008=CARTESIAN_POINT('',(0.17457,0.0361970886588097,0.00549894843391409));
#1009=CARTESIAN_POINT('',(0.17457,0.0361970886588097,0.0105));
#1010=CARTESIAN_POINT('',(0.17457,0.0361970886588097,0.00133974039666355));
#1011=CARTESIAN_POINT('',(0.17457,0.0364970886588096,0.00133974039666355));
#1012=CARTESIAN_POINT('',(0.17457,0.0364970886588096,0.00103974039666355));
#1013=CARTESIAN_POINT('',(0.17457,-4.16333634234433E-17,0.00103974039666355));
#1014=CARTESIAN_POINT('',(0.17457,0.0494746393084526,0.00103974039666355));
#1015=CARTESIAN_POINT('',(0.17457,0.0494746393084526,0.00133974039666355));
#1016=CARTESIAN_POINT('',(0.17457,-0.0585849997870451,0.0105));
#1017=CARTESIAN_POINT('',(0.17457,-0.0585849997870451,0.0105));
#1018=CARTESIAN_POINT('',(0.17457,-4.16333634234433E-17,0.0105));
#1019=CARTESIAN_POINT('',(0.17457,0.058584999787045,0.0105));
#1020=CARTESIAN_POINT('',(0.17457,0.058584999787045,0.0105));
#1021=CARTESIAN_POINT('',(2.2509771824275E-14,-0.062585,0.0105));
#1022=CARTESIAN_POINT('',(0.,-0.062585,0.0105));
#1023=CARTESIAN_POINT('',(0.,-0.062585,0.0105));
#1024=CARTESIAN_POINT('',(0.,-0.062585,-0.001));
#1025=CARTESIAN_POINT('',(2.2509771824275E-14,-0.062585,0.0105));
#1026=CARTESIAN_POINT('',(0.170569999787045,-0.062585,0.0105));
#1027=CARTESIAN_POINT('',(0.170569999787045,-0.062585,0.0105));
#1028=CARTESIAN_POINT('',(0.002,-0.062585,-0.001));
#1029=CARTESIAN_POINT('',(0.002,-0.062585,-0.001));
#1030=CARTESIAN_POINT('',(0.,-0.062585,-0.001));
#1031=CARTESIAN_POINT('',(0.17056999957409,0.05858499957409,0.0105));
#1032=CARTESIAN_POINT('',(0.17056999957409,0.05858499957409,0.0105));
#1033=CARTESIAN_POINT('',(0.17056999957409,-0.05858499957409,0.0105));
#1034=CARTESIAN_POINT('',(0.17056999957409,-0.05858499957409,0.0105));
#1035=CARTESIAN_POINT('',(4.50195436485501E-14,0.066585,0.0105));
#1036=CARTESIAN_POINT('',(0.,0.066585,0.0105));
#1037=CARTESIAN_POINT('',(0.,0.066585,0.0105));
#1038=CARTESIAN_POINT('',(4.50195436485501E-14,0.066585,0.0105));
#1039=CARTESIAN_POINT('',(0.17056999957409,0.066585,0.0105));
#1040=CARTESIAN_POINT('',(0.17056999957409,0.066585,0.0105));
#1041=CARTESIAN_POINT('',(0.17056999957409,0.05858499957409,0.0105));
#1042=CARTESIAN_POINT('',(0.17056999957409,0.05858499957409,0.0105));
#1043=CARTESIAN_POINT('',(0.17056999957409,-0.05858499957409,0.0105));
#1044=CARTESIAN_POINT('',(0.17056999957409,-0.05858499957409,0.0105));
#1045=CARTESIAN_POINT('',(0.17056999957409,-0.066585,0.0105));
#1046=CARTESIAN_POINT('',(0.17056999957409,-0.066585,0.0105));
#1047=CARTESIAN_POINT('',(4.50195436485501E-14,-0.066585,0.0105));
#1048=CARTESIAN_POINT('',(4.50195436485501E-14,-0.066585,0.0105));
#1049=CARTESIAN_POINT('',(0.,-0.066585,0.0105));
#1050=CARTESIAN_POINT('',(0.,-0.066585,0.0105));
#1051=CARTESIAN_POINT('',(0.,0.,0.0105));
#1052=CARTESIAN_POINT('',(0.,0.,0.0105));
#1053=CARTESIAN_POINT('',(0.,0.,0.0105));
#1054=CARTESIAN_POINT('',(0.16956,0.058165,0.));
#1055=CARTESIAN_POINT('',(0.16956,0.058165,0.));
#1056=CARTESIAN_POINT('',(0.170635,0.058165,0.));
#1057=CARTESIAN_POINT('',(0.16956,0.058165,-0.005));
#1058=CARTESIAN_POINT('',(0.170635,0.058165,-0.005));
#1059=CARTESIAN_POINT('',(0.16956,0.058165,0.));
#1060=CARTESIAN_POINT('',(0.16956,0.058165,0.));
#1061=CARTESIAN_POINT('',(0.17156,0.058165,0.));
#1062=CARTESIAN_POINT('',(2.77555756156289E-17,0.,0.));
#1063=CARTESIAN_POINT('',(2.77555756156289E-17,0.,-0.005));
#1064=CARTESIAN_POINT('',(0.16877,-0.057335,0.));
#1065=CARTESIAN_POINT('',(0.16877,-0.057335,0.));
#1066=CARTESIAN_POINT('',(0.169845,-0.057335,0.));
#1067=CARTESIAN_POINT('',(0.16877,-0.057335,-0.005));
#1068=CARTESIAN_POINT('',(0.169845,-0.057335,-0.005));
#1069=CARTESIAN_POINT('',(0.16877,-0.057335,0.));
#1070=CARTESIAN_POINT('',(0.16877,-0.057335,0.));
#1071=CARTESIAN_POINT('',(0.17077,-0.057335,0.));
#1072=CARTESIAN_POINT('',(2.77555756156289E-17,0.,0.));
#1073=CARTESIAN_POINT('',(2.77555756156289E-17,0.,-0.005));
#1074=CARTESIAN_POINT('',(0.15357,0.0497746393084526,0.00341934441528882));
#1075=CARTESIAN_POINT('',(0.15357,0.0497746393084526,0.00133974039666355));
#1076=CARTESIAN_POINT('',(0.15357,0.0497746393084526,0.0054989484339141));
#1077=CARTESIAN_POINT('',(0.15357,0.0494746393084526,0.00549894843391409));
#1078=CARTESIAN_POINT('',(0.15357,0.0494746393084526,0.0057989484339141));
#1079=CARTESIAN_POINT('',(0.15357,0.0429858639836311,0.0057989484339141));
#1080=CARTESIAN_POINT('',(0.15357,0.0364970886588096,0.0057989484339141));
#1081=CARTESIAN_POINT('',(0.15357,0.0364970886588096,0.0054989484339141));
#1082=CARTESIAN_POINT('',(0.15357,0.0361970886588097,0.00549894843391409));
#1083=CARTESIAN_POINT('',(0.15357,0.0361970886588097,0.00341934441528882));
#1084=CARTESIAN_POINT('',(0.15357,0.0361970886588097,0.00133974039666355));
#1085=CARTESIAN_POINT('',(0.15357,0.0364970886588096,0.00133974039666355));
#1086=CARTESIAN_POINT('',(0.15357,0.0364970886588096,0.00103974039666355));
#1087=CARTESIAN_POINT('',(0.15357,0.0429858639836311,0.00103974039666355));
#1088=CARTESIAN_POINT('',(0.15357,0.0494746393084526,0.00103974039666355));
#1089=CARTESIAN_POINT('',(0.15357,0.0494746393084526,0.00133974039666355));
#1090=CARTESIAN_POINT('',(0.002,0.,-0.001));
#1091=CARTESIAN_POINT('',(0.002,-0.0499308089988868,-0.003));
#1092=CARTESIAN_POINT('',(0.002,-0.0499308089988868,-0.00455));
#1093=CARTESIAN_POINT('',(0.002,-0.0249210274488062,-0.003));
#1094=CARTESIAN_POINT('',(0.002,-0.0249210274488062,-0.00455));
#1095=CARTESIAN_POINT('',(0.002,0.,-0.003));
#1096=CARTESIAN_POINT('',(0.002,0.,-0.00455));
#1097=CARTESIAN_POINT('',(0.002,0.0277420382365722,-0.003));
#1098=CARTESIAN_POINT('',(0.002,0.0277420382365722,-0.00455));
#1099=CARTESIAN_POINT('',(0.002,0.0501570301032488,-0.003));
#1100=CARTESIAN_POINT('',(0.002,0.0501570301032488,-0.00455));
#1101=CARTESIAN_POINT('',(0.002,0.,-0.001));
#1102=CARTESIAN_POINT('',(0.,0.,-0.001));
#1103=CARTESIAN_POINT('',(0.,0.,-0.001));
#1104=CARTESIAN_POINT('',(-0.003,0.0501570301032488,-0.003));
#1105=CARTESIAN_POINT('',(0.,0.0501570301032488,-0.003));
#1106=CARTESIAN_POINT('',(0.,0.0501570301032488,-0.00455));
#1107=CARTESIAN_POINT('',(-0.003,0.0277420382365722,-0.003));
#1108=CARTESIAN_POINT('',(0.,0.0277420382365722,-0.003));
#1109=CARTESIAN_POINT('',(0.,0.0277420382365722,-0.00455));
#1110=CARTESIAN_POINT('',(-0.003,0.,-0.003));
#1111=CARTESIAN_POINT('',(0.,0.,-0.003));
#1112=CARTESIAN_POINT('',(0.,0.,-0.00455));
#1113=CARTESIAN_POINT('',(-0.003,-0.0249210274488062,-0.003));
#1114=CARTESIAN_POINT('',(0.,-0.0249210274488062,-0.003));
#1115=CARTESIAN_POINT('',(0.,-0.0249210274488062,-0.00455));
#1116=CARTESIAN_POINT('',(-0.003,-0.0499308089988868,-0.003));
#1117=CARTESIAN_POINT('',(0.,-0.0499308089988868,-0.003));
#1118=CARTESIAN_POINT('',(0.,-0.0499308089988868,-0.00455));
#1119=CARTESIAN_POINT('',(0.,0.,0.));
#1120=MECHANICAL_DESIGN_GEOMETRIC_PRESENTATION_REPRESENTATION('',(#659),
#1121);
#1121=(
GEOMETRIC_REPRESENTATION_CONTEXT(3)
GLOBAL_UNCERTAINTY_ASSIGNED_CONTEXT((#1122))
GLOBAL_UNIT_ASSIGNED_CONTEXT((#1125,#1124,#1123))
REPRESENTATION_CONTEXT('Part 2411','TOP_LEVEL_ASSEMBLY_PART')
);
#1122=UNCERTAINTY_MEASURE_WITH_UNIT(LENGTH_MEASURE(1.E-8),#1125,
'DISTANCE_ACCURACY_VALUE','Maximum Tolerance applied to model');
#1123=(
NAMED_UNIT(*)
SI_UNIT($,.STERADIAN.)
SOLID_ANGLE_UNIT()
);
#1124=(
NAMED_UNIT(*)
PLANE_ANGLE_UNIT()
SI_UNIT($,.RADIAN.)
);
#1125=(
LENGTH_UNIT()
NAMED_UNIT(*)
SI_UNIT($,.METRE.)
);
#1126=PRODUCT_DEFINITION_SHAPE('','',#1127);
#1127=PRODUCT_DEFINITION('','',#1129,#1128);
#1128=PRODUCT_DEFINITION_CONTEXT('',#1135,'design');
#1129=PRODUCT_DEFINITION_FORMATION_WITH_SPECIFIED_SOURCE('','',#1131,
 .NOT_KNOWN.);
#1130=PRODUCT_RELATED_PRODUCT_CATEGORY('','',(#1131));
#1131=PRODUCT('Part 2411','Part 2411','Part 2411',(#1133));
#1132=PRODUCT_CATEGORY('','');
#1133=PRODUCT_CONTEXT('',#1135,'mechanical');
#1134=APPLICATION_PROTOCOL_DEFINITION('international standard',
'ap242_managed_model_based_3d_engineering',2020,#1135);
#1135=APPLICATION_CONTEXT('managed model based 3d engineering');
ENDSEC;
END-ISO-10303-21;
