ISO-10303-21;
HEADER;
/* Generated by software containing ST-Developer
 * from STEP Tools, Inc. (www.steptools.com) 
 */
/* OPTION: using custom renumber hook */

FILE_DESCRIPTION(
/* description */ ('STEP AP242 Edition 2',
'CAx-IF Rec.Pracs.---Representation and Presentation of Product Manufa
cturing Information (PMI)---4.0---2014-10-13',
'CAx-IF Rec.Pracs.---3D Tessellated Geometry---0.4---2014-09-14','2;1',
'CAx-IF Rec.Pracs.---User Defined Attributes---1.5---2016-08-15'),
/* implementation_level */ '2;1');

FILE_NAME(
/* name */ 'Part Studio 1 - Part 2411',
/* time_stamp */ '2026-08-29T15:30:03Z',
/* author */ (''),
/* organization */ (''),
/* preprocessor_version */ 'ST-DEVELOPER v20',
/* originating_system */ 'ONSHAPE BY PTC INC, 1.220',
/* authorisation */ '  ');

FILE_SCHEMA (('AP242_MANAGED_MODEL_BASED_3D_ENGINEERING_MIM_LF { 1 0 10303 442 3 1 4 }'));
ENDSEC;

DATA;
#10=SHAPE_REPRESENTATION_RELATIONSHIP('','',#912,#11);
#11=ADVANCED_BREP_SHAPE_REPRESENTATION('',(#910),#1544);
#12=CIRCLE('',#924,0.00400000042591001);
#13=CIRCLE('',#925,0.00400000042591001);
#14=CIRCLE('',#928,0.00400000042590999);
#15=CIRCLE('',#929,0.00400000042590999);
#16=CIRCLE('',#932,0.00400000042591001);
#17=CIRCLE('',#933,0.00400000042591001);
#18=CIRCLE('',#936,0.000500000000000024);
#19=CIRCLE('',#937,0.000500000000000024);
#20=CIRCLE('',#940,0.000500000000000025);
#21=CIRCLE('',#941,0.000500000000000025);
#22=CIRCLE('',#944,0.0005);
#23=CIRCLE('',#945,0.0005);
#24=CIRCLE('',#948,0.0005);
#25=CIRCLE('',#949,0.0005);
#26=CIRCLE('',#951,0.00400000042590999);
#27=CIRCLE('',#952,0.00400000042590999);
#28=CIRCLE('',#955,0.0034);
#29=CIRCLE('',#956,0.0034);
#30=CIRCLE('',#958,0.0015);
#31=CIRCLE('',#959,0.0015);
#32=CIRCLE('',#961,0.0015);
#33=CIRCLE('',#962,0.0015);
#34=CIRCLE('',#964,0.0015);
#35=CIRCLE('',#965,0.0015);
#36=CIRCLE('',#967,0.0015);
#37=CIRCLE('',#968,0.0015);
#38=CIRCLE('',#970,0.001075);
#39=CIRCLE('',#971,0.001075);
#40=CIRCLE('',#973,0.0011);
#41=CIRCLE('',#974,0.0011);
#42=CIRCLE('',#976,0.0011);
#43=CIRCLE('',#977,0.0011);
#44=CIRCLE('',#979,0.0011);
#45=CIRCLE('',#980,0.0011);
#46=CIRCLE('',#984,0.002);
#47=CIRCLE('',#985,0.002);
#48=CIRCLE('',#986,0.002);
#49=CIRCLE('',#987,0.002);
#50=CIRCLE('',#988,0.002);
#51=CIRCLE('',#989,0.002);
#52=CIRCLE('',#991,0.002);
#53=CIRCLE('',#994,0.002);
#54=CIRCLE('',#997,0.0011);
#55=CIRCLE('',#998,0.0011);
#56=CIRCLE('',#1000,0.002);
#57=CIRCLE('',#1004,0.002);
#58=CIRCLE('',#1007,0.0011);
#59=CIRCLE('',#1008,0.0011);
#60=CIRCLE('',#1010,0.002);
#61=CIRCLE('',#1014,0.002);
#62=CYLINDRICAL_SURFACE('',#923,0.00400000042591001);
#63=CYLINDRICAL_SURFACE('',#927,0.00400000042590999);
#64=CYLINDRICAL_SURFACE('',#931,0.00400000042591001);
#65=CYLINDRICAL_SURFACE('',#935,0.000500000000000024);
#66=CYLINDRICAL_SURFACE('',#939,0.000500000000000025);
#67=CYLINDRICAL_SURFACE('',#943,0.0005);
#68=CYLINDRICAL_SURFACE('',#947,0.0005);
#69=CYLINDRICAL_SURFACE('',#950,0.00400000042590999);
#70=CYLINDRICAL_SURFACE('',#954,0.0034);
#71=CYLINDRICAL_SURFACE('',#957,0.0015);
#72=CYLINDRICAL_SURFACE('',#960,0.0015);
#73=CYLINDRICAL_SURFACE('',#963,0.0015);
#74=CYLINDRICAL_SURFACE('',#966,0.0015);
#75=CYLINDRICAL_SURFACE('',#969,0.001075);
#76=CYLINDRICAL_SURFACE('',#972,0.0011);
#77=CYLINDRICAL_SURFACE('',#975,0.0011);
#78=CYLINDRICAL_SURFACE('',#978,0.0011);
#79=CYLINDRICAL_SURFACE('',#992,0.002);
#80=CYLINDRICAL_SURFACE('',#995,0.002);
#81=CYLINDRICAL_SURFACE('',#996,0.0011);
#82=CYLINDRICAL_SURFACE('',#999,0.002);
#83=CYLINDRICAL_SURFACE('',#1005,0.002);
#84=CYLINDRICAL_SURFACE('',#1006,0.0011);
#85=CYLINDRICAL_SURFACE('',#1009,0.002);
#86=CYLINDRICAL_SURFACE('',#1015,0.002);
#87=ORIENTED_EDGE('',*,*,#305,.T.);
#88=ORIENTED_EDGE('',*,*,#306,.F.);
#89=ORIENTED_EDGE('',*,*,#307,.F.);
#90=ORIENTED_EDGE('',*,*,#308,.T.);
#91=ORIENTED_EDGE('',*,*,#309,.T.);
#92=ORIENTED_EDGE('',*,*,#310,.F.);
#93=ORIENTED_EDGE('',*,*,#311,.F.);
#94=ORIENTED_EDGE('',*,*,#306,.T.);
#95=ORIENTED_EDGE('',*,*,#312,.F.);
#96=ORIENTED_EDGE('',*,*,#313,.F.);
#97=ORIENTED_EDGE('',*,*,#314,.T.);
#98=ORIENTED_EDGE('',*,*,#310,.T.);
#99=ORIENTED_EDGE('',*,*,#315,.T.);
#100=ORIENTED_EDGE('',*,*,#316,.F.);
#101=ORIENTED_EDGE('',*,*,#317,.F.);
#102=ORIENTED_EDGE('',*,*,#313,.T.);
#103=ORIENTED_EDGE('',*,*,#318,.T.);
#104=ORIENTED_EDGE('',*,*,#319,.F.);
#105=ORIENTED_EDGE('',*,*,#320,.F.);
#106=ORIENTED_EDGE('',*,*,#316,.T.);
#107=ORIENTED_EDGE('',*,*,#321,.T.);
#108=ORIENTED_EDGE('',*,*,#322,.F.);
#109=ORIENTED_EDGE('',*,*,#323,.F.);
#110=ORIENTED_EDGE('',*,*,#319,.T.);
#111=ORIENTED_EDGE('',*,*,#324,.F.);
#112=ORIENTED_EDGE('',*,*,#325,.F.);
#113=ORIENTED_EDGE('',*,*,#326,.T.);
#114=ORIENTED_EDGE('',*,*,#322,.T.);
#115=ORIENTED_EDGE('',*,*,#327,.F.);
#116=ORIENTED_EDGE('',*,*,#328,.F.);
#117=ORIENTED_EDGE('',*,*,#329,.T.);
#118=ORIENTED_EDGE('',*,*,#325,.T.);
#119=ORIENTED_EDGE('',*,*,#330,.T.);
#120=ORIENTED_EDGE('',*,*,#331,.F.);
#121=ORIENTED_EDGE('',*,*,#332,.F.);
#122=ORIENTED_EDGE('',*,*,#333,.T.);
#123=ORIENTED_EDGE('',*,*,#334,.T.);
#124=ORIENTED_EDGE('',*,*,#335,.F.);
#125=ORIENTED_EDGE('',*,*,#336,.F.);
#126=ORIENTED_EDGE('',*,*,#331,.T.);
#127=ORIENTED_EDGE('',*,*,#337,.T.);
#128=ORIENTED_EDGE('',*,*,#338,.F.);
#129=ORIENTED_EDGE('',*,*,#339,.F.);
#130=ORIENTED_EDGE('',*,*,#335,.T.);
#131=ORIENTED_EDGE('',*,*,#340,.T.);
#132=ORIENTED_EDGE('',*,*,#341,.F.);
#133=ORIENTED_EDGE('',*,*,#342,.F.);
#134=ORIENTED_EDGE('',*,*,#338,.T.);
#135=ORIENTED_EDGE('',*,*,#343,.T.);
#136=ORIENTED_EDGE('',*,*,#344,.F.);
#137=ORIENTED_EDGE('',*,*,#345,.F.);
#138=ORIENTED_EDGE('',*,*,#341,.T.);
#139=ORIENTED_EDGE('',*,*,#346,.T.);
#140=ORIENTED_EDGE('',*,*,#347,.F.);
#141=ORIENTED_EDGE('',*,*,#348,.F.);
#142=ORIENTED_EDGE('',*,*,#344,.T.);
#143=ORIENTED_EDGE('',*,*,#349,.T.);
#144=ORIENTED_EDGE('',*,*,#350,.F.);
#145=ORIENTED_EDGE('',*,*,#351,.F.);
#146=ORIENTED_EDGE('',*,*,#347,.T.);
#147=ORIENTED_EDGE('',*,*,#352,.F.);
#148=ORIENTED_EDGE('',*,*,#353,.F.);
#149=ORIENTED_EDGE('',*,*,#354,.T.);
#150=ORIENTED_EDGE('',*,*,#355,.T.);
#151=ORIENTED_EDGE('',*,*,#356,.F.);
#152=ORIENTED_EDGE('',*,*,#357,.F.);
#153=ORIENTED_EDGE('',*,*,#358,.T.);
#154=ORIENTED_EDGE('',*,*,#353,.T.);
#155=ORIENTED_EDGE('',*,*,#359,.F.);
#156=ORIENTED_EDGE('',*,*,#360,.F.);
#157=ORIENTED_EDGE('',*,*,#361,.T.);
#158=ORIENTED_EDGE('',*,*,#357,.T.);
#159=ORIENTED_EDGE('',*,*,#362,.F.);
#160=ORIENTED_EDGE('',*,*,#363,.F.);
#161=ORIENTED_EDGE('',*,*,#364,.T.);
#162=ORIENTED_EDGE('',*,*,#360,.T.);
#163=ORIENTED_EDGE('',*,*,#365,.F.);
#164=ORIENTED_EDGE('',*,*,#366,.F.);
#165=ORIENTED_EDGE('',*,*,#367,.T.);
#166=ORIENTED_EDGE('',*,*,#363,.T.);
#167=ORIENTED_EDGE('',*,*,#368,.F.);
#168=ORIENTED_EDGE('',*,*,#369,.F.);
#169=ORIENTED_EDGE('',*,*,#370,.T.);
#170=ORIENTED_EDGE('',*,*,#366,.T.);
#171=ORIENTED_EDGE('',*,*,#371,.F.);
#172=ORIENTED_EDGE('',*,*,#372,.F.);
#173=ORIENTED_EDGE('',*,*,#373,.T.);
#174=ORIENTED_EDGE('',*,*,#369,.T.);
#175=ORIENTED_EDGE('',*,*,#374,.T.);
#176=ORIENTED_EDGE('',*,*,#333,.F.);
#177=ORIENTED_EDGE('',*,*,#375,.F.);
#178=ORIENTED_EDGE('',*,*,#350,.T.);
#179=ORIENTED_EDGE('',*,*,#376,.F.);
#180=ORIENTED_EDGE('',*,*,#355,.F.);
#181=ORIENTED_EDGE('',*,*,#377,.T.);
#182=ORIENTED_EDGE('',*,*,#372,.T.);
#183=ORIENTED_EDGE('',*,*,#378,.T.);
#184=ORIENTED_EDGE('',*,*,#379,.F.);
#185=ORIENTED_EDGE('',*,*,#380,.T.);
#186=ORIENTED_EDGE('',*,*,#381,.F.);
#187=ORIENTED_EDGE('',*,*,#382,.T.);
#188=ORIENTED_EDGE('',*,*,#383,.F.);
#189=ORIENTED_EDGE('',*,*,#384,.T.);
#190=ORIENTED_EDGE('',*,*,#385,.F.);
#191=ORIENTED_EDGE('',*,*,#386,.T.);
#192=ORIENTED_EDGE('',*,*,#387,.F.);
#193=ORIENTED_EDGE('',*,*,#388,.T.);
#194=ORIENTED_EDGE('',*,*,#389,.F.);
#195=ORIENTED_EDGE('',*,*,#390,.T.);
#196=ORIENTED_EDGE('',*,*,#391,.F.);
#197=ORIENTED_EDGE('',*,*,#392,.T.);
#198=ORIENTED_EDGE('',*,*,#393,.F.);
#199=ORIENTED_EDGE('',*,*,#394,.T.);
#200=ORIENTED_EDGE('',*,*,#395,.F.);
#201=ORIENTED_EDGE('',*,*,#396,.F.);
#202=ORIENTED_EDGE('',*,*,#308,.F.);
#203=ORIENTED_EDGE('',*,*,#397,.T.);
#204=ORIENTED_EDGE('',*,*,#328,.T.);
#205=ORIENTED_EDGE('',*,*,#394,.F.);
#206=ORIENTED_EDGE('',*,*,#392,.F.);
#207=ORIENTED_EDGE('',*,*,#390,.F.);
#208=ORIENTED_EDGE('',*,*,#388,.F.);
#209=ORIENTED_EDGE('',*,*,#386,.F.);
#210=ORIENTED_EDGE('',*,*,#384,.F.);
#211=ORIENTED_EDGE('',*,*,#382,.F.);
#212=ORIENTED_EDGE('',*,*,#380,.F.);
#213=ORIENTED_EDGE('',*,*,#378,.F.);
#214=ORIENTED_EDGE('',*,*,#354,.F.);
#215=ORIENTED_EDGE('',*,*,#358,.F.);
#216=ORIENTED_EDGE('',*,*,#361,.F.);
#217=ORIENTED_EDGE('',*,*,#364,.F.);
#218=ORIENTED_EDGE('',*,*,#367,.F.);
#219=ORIENTED_EDGE('',*,*,#370,.F.);
#220=ORIENTED_EDGE('',*,*,#373,.F.);
#221=ORIENTED_EDGE('',*,*,#377,.F.);
#222=ORIENTED_EDGE('',*,*,#332,.T.);
#223=ORIENTED_EDGE('',*,*,#336,.T.);
#224=ORIENTED_EDGE('',*,*,#339,.T.);
#225=ORIENTED_EDGE('',*,*,#342,.T.);
#226=ORIENTED_EDGE('',*,*,#345,.T.);
#227=ORIENTED_EDGE('',*,*,#348,.T.);
#228=ORIENTED_EDGE('',*,*,#351,.T.);
#229=ORIENTED_EDGE('',*,*,#375,.T.);
#230=ORIENTED_EDGE('',*,*,#307,.T.);
#231=ORIENTED_EDGE('',*,*,#311,.T.);
#232=ORIENTED_EDGE('',*,*,#314,.F.);
#233=ORIENTED_EDGE('',*,*,#317,.T.);
#234=ORIENTED_EDGE('',*,*,#320,.T.);
#235=ORIENTED_EDGE('',*,*,#323,.T.);
#236=ORIENTED_EDGE('',*,*,#326,.F.);
#237=ORIENTED_EDGE('',*,*,#329,.F.);
#238=ORIENTED_EDGE('',*,*,#397,.F.);
#239=ORIENTED_EDGE('',*,*,#398,.F.);
#240=ORIENTED_EDGE('',*,*,#399,.F.);
#241=ORIENTED_EDGE('',*,*,#400,.F.);
#242=ORIENTED_EDGE('',*,*,#401,.F.);
#243=ORIENTED_EDGE('',*,*,#402,.F.);
#244=ORIENTED_EDGE('',*,*,#403,.F.);
#245=ORIENTED_EDGE('',*,*,#387,.T.);
#246=ORIENTED_EDGE('',*,*,#385,.T.);
#247=ORIENTED_EDGE('',*,*,#383,.T.);
#248=ORIENTED_EDGE('',*,*,#381,.T.);
#249=ORIENTED_EDGE('',*,*,#379,.T.);
#250=ORIENTED_EDGE('',*,*,#352,.T.);
#251=ORIENTED_EDGE('',*,*,#376,.T.);
#252=ORIENTED_EDGE('',*,*,#371,.T.);
#253=ORIENTED_EDGE('',*,*,#368,.T.);
#254=ORIENTED_EDGE('',*,*,#365,.T.);
#255=ORIENTED_EDGE('',*,*,#362,.T.);
#256=ORIENTED_EDGE('',*,*,#359,.T.);
#257=ORIENTED_EDGE('',*,*,#356,.T.);
#258=ORIENTED_EDGE('',*,*,#330,.F.);
#259=ORIENTED_EDGE('',*,*,#374,.F.);
#260=ORIENTED_EDGE('',*,*,#349,.F.);
#261=ORIENTED_EDGE('',*,*,#346,.F.);
#262=ORIENTED_EDGE('',*,*,#343,.F.);
#263=ORIENTED_EDGE('',*,*,#340,.F.);
#264=ORIENTED_EDGE('',*,*,#337,.F.);
#265=ORIENTED_EDGE('',*,*,#334,.F.);
#266=ORIENTED_EDGE('',*,*,#305,.F.);
#267=ORIENTED_EDGE('',*,*,#396,.T.);
#268=ORIENTED_EDGE('',*,*,#327,.T.);
#269=ORIENTED_EDGE('',*,*,#324,.T.);
#270=ORIENTED_EDGE('',*,*,#321,.F.);
#271=ORIENTED_EDGE('',*,*,#318,.F.);
#272=ORIENTED_EDGE('',*,*,#315,.F.);
#273=ORIENTED_EDGE('',*,*,#312,.T.);
#274=ORIENTED_EDGE('',*,*,#309,.F.);
#275=ORIENTED_EDGE('',*,*,#404,.T.);
#276=ORIENTED_EDGE('',*,*,#404,.F.);
#277=ORIENTED_EDGE('',*,*,#403,.T.);
#278=ORIENTED_EDGE('',*,*,#405,.T.);
#279=ORIENTED_EDGE('',*,*,#405,.F.);
#280=ORIENTED_EDGE('',*,*,#402,.T.);
#281=ORIENTED_EDGE('',*,*,#406,.T.);
#282=ORIENTED_EDGE('',*,*,#407,.F.);
#283=ORIENTED_EDGE('',*,*,#408,.F.);
#284=ORIENTED_EDGE('',*,*,#401,.T.);
#285=ORIENTED_EDGE('',*,*,#406,.F.);
#286=ORIENTED_EDGE('',*,*,#408,.T.);
#287=ORIENTED_EDGE('',*,*,#407,.T.);
#288=ORIENTED_EDGE('',*,*,#409,.T.);
#289=ORIENTED_EDGE('',*,*,#409,.F.);
#290=ORIENTED_EDGE('',*,*,#400,.T.);
#291=ORIENTED_EDGE('',*,*,#410,.T.);
#292=ORIENTED_EDGE('',*,*,#411,.F.);
#293=ORIENTED_EDGE('',*,*,#412,.F.);
#294=ORIENTED_EDGE('',*,*,#399,.T.);
#295=ORIENTED_EDGE('',*,*,#410,.F.);
#296=ORIENTED_EDGE('',*,*,#412,.T.);
#297=ORIENTED_EDGE('',*,*,#411,.T.);
#298=ORIENTED_EDGE('',*,*,#413,.T.);
#299=ORIENTED_EDGE('',*,*,#413,.F.);
#300=ORIENTED_EDGE('',*,*,#398,.T.);
#301=ORIENTED_EDGE('',*,*,#395,.T.);
#302=ORIENTED_EDGE('',*,*,#393,.T.);
#303=ORIENTED_EDGE('',*,*,#391,.T.);
#304=ORIENTED_EDGE('',*,*,#389,.T.);
#305=EDGE_CURVE('',#414,#415,#498,.T.);
#306=EDGE_CURVE('',#416,#415,#499,.T.);
#307=EDGE_CURVE('',#417,#416,#500,.T.);
#308=EDGE_CURVE('',#417,#414,#501,.T.);
#309=EDGE_CURVE('',#415,#418,#502,.T.);
#310=EDGE_CURVE('',#419,#418,#503,.T.);
#311=EDGE_CURVE('',#416,#419,#504,.T.);
#312=EDGE_CURVE('',#420,#418,#505,.T.);
#313=EDGE_CURVE('',#421,#420,#506,.T.);
#314=EDGE_CURVE('',#421,#419,#507,.T.);
#315=EDGE_CURVE('',#420,#422,#508,.T.);
#316=EDGE_CURVE('',#423,#422,#509,.T.);
#317=EDGE_CURVE('',#421,#423,#510,.T.);
#318=EDGE_CURVE('',#422,#424,#511,.T.);
#319=EDGE_CURVE('',#425,#424,#512,.T.);
#320=EDGE_CURVE('',#423,#425,#513,.T.);
#321=EDGE_CURVE('',#424,#426,#514,.T.);
#322=EDGE_CURVE('',#427,#426,#515,.T.);
#323=EDGE_CURVE('',#425,#427,#516,.T.);
#324=EDGE_CURVE('',#428,#426,#517,.T.);
#325=EDGE_CURVE('',#429,#428,#518,.T.);
#326=EDGE_CURVE('',#429,#427,#519,.T.);
#327=EDGE_CURVE('',#430,#428,#520,.T.);
#328=EDGE_CURVE('',#431,#430,#521,.T.);
#329=EDGE_CURVE('',#431,#429,#522,.T.);
#330=EDGE_CURVE('',#432,#433,#523,.T.);
#331=EDGE_CURVE('',#434,#433,#524,.T.);
#332=EDGE_CURVE('',#435,#434,#525,.T.);
#333=EDGE_CURVE('',#435,#432,#526,.T.);
#334=EDGE_CURVE('',#433,#436,#12,.T.);
#335=EDGE_CURVE('',#437,#436,#527,.T.);
#336=EDGE_CURVE('',#434,#437,#13,.T.);
#337=EDGE_CURVE('',#436,#438,#528,.T.);
#338=EDGE_CURVE('',#439,#438,#529,.T.);
#339=EDGE_CURVE('',#437,#439,#530,.T.);
#340=EDGE_CURVE('',#438,#440,#14,.T.);
#341=EDGE_CURVE('',#441,#440,#531,.T.);
#342=EDGE_CURVE('',#439,#441,#15,.T.);
#343=EDGE_CURVE('',#440,#442,#532,.T.);
#344=EDGE_CURVE('',#443,#442,#533,.T.);
#345=EDGE_CURVE('',#441,#443,#534,.T.);
#346=EDGE_CURVE('',#442,#444,#16,.T.);
#347=EDGE_CURVE('',#445,#444,#535,.T.);
#348=EDGE_CURVE('',#443,#445,#17,.T.);
#349=EDGE_CURVE('',#444,#446,#536,.T.);
#350=EDGE_CURVE('',#447,#446,#537,.T.);
#351=EDGE_CURVE('',#445,#447,#538,.T.);
#352=EDGE_CURVE('',#448,#449,#18,.T.);
#353=EDGE_CURVE('',#450,#448,#539,.T.);
#354=EDGE_CURVE('',#450,#451,#19,.T.);
#355=EDGE_CURVE('',#451,#449,#540,.T.);
#356=EDGE_CURVE('',#452,#448,#541,.T.);
#357=EDGE_CURVE('',#453,#452,#542,.T.);
#358=EDGE_CURVE('',#453,#450,#543,.T.);
#359=EDGE_CURVE('',#454,#452,#20,.T.);
#360=EDGE_CURVE('',#455,#454,#544,.T.);
#361=EDGE_CURVE('',#455,#453,#21,.T.);
#362=EDGE_CURVE('',#456,#454,#545,.T.);
#363=EDGE_CURVE('',#457,#456,#546,.T.);
#364=EDGE_CURVE('',#457,#455,#547,.T.);
#365=EDGE_CURVE('',#458,#456,#22,.T.);
#366=EDGE_CURVE('',#459,#458,#548,.T.);
#367=EDGE_CURVE('',#459,#457,#23,.T.);
#368=EDGE_CURVE('',#460,#458,#549,.T.);
#369=EDGE_CURVE('',#461,#460,#550,.T.);
#370=EDGE_CURVE('',#461,#459,#551,.T.);
#371=EDGE_CURVE('',#462,#460,#24,.T.);
#372=EDGE_CURVE('',#463,#462,#552,.T.);
#373=EDGE_CURVE('',#463,#461,#25,.T.);
#374=EDGE_CURVE('',#446,#432,#26,.T.);
#375=EDGE_CURVE('',#447,#435,#27,.T.);
#376=EDGE_CURVE('',#449,#462,#553,.T.);
#377=EDGE_CURVE('',#451,#463,#554,.T.);
#378=EDGE_CURVE('',#464,#464,#28,.T.);
#379=EDGE_CURVE('',#465,#465,#29,.T.);
#380=EDGE_CURVE('',#466,#466,#30,.T.);
#381=EDGE_CURVE('',#467,#467,#31,.T.);
#382=EDGE_CURVE('',#468,#468,#32,.T.);
#383=EDGE_CURVE('',#469,#469,#33,.T.);
#384=EDGE_CURVE('',#470,#470,#34,.T.);
#385=EDGE_CURVE('',#471,#471,#35,.T.);
#386=EDGE_CURVE('',#472,#472,#36,.T.);
#387=EDGE_CURVE('',#473,#473,#37,.T.);
#388=EDGE_CURVE('',#474,#474,#38,.T.);
#389=EDGE_CURVE('',#475,#475,#39,.T.);
#390=EDGE_CURVE('',#476,#476,#40,.T.);
#391=EDGE_CURVE('',#477,#477,#41,.T.);
#392=EDGE_CURVE('',#478,#478,#42,.T.);
#393=EDGE_CURVE('',#479,#479,#43,.T.);
#394=EDGE_CURVE('',#480,#480,#44,.T.);
#395=EDGE_CURVE('',#481,#481,#45,.T.);
#396=EDGE_CURVE('',#414,#430,#555,.T.);
#397=EDGE_CURVE('',#417,#431,#556,.T.);
#398=EDGE_CURVE('',#482,#482,#46,.F.);
#399=EDGE_CURVE('',#483,#483,#47,.F.);
#400=EDGE_CURVE('',#484,#484,#48,.F.);
#401=EDGE_CURVE('',#485,#485,#49,.F.);
#402=EDGE_CURVE('',#486,#486,#50,.F.);
#403=EDGE_CURVE('',#487,#487,#51,.F.);
#404=EDGE_CURVE('',#488,#488,#52,.T.);
#405=EDGE_CURVE('',#489,#489,#53,.T.);
#406=EDGE_CURVE('',#490,#490,#54,.T.);
#407=EDGE_CURVE('',#491,#491,#55,.T.);
#408=EDGE_CURVE('',#492,#492,#56,.T.);
#409=EDGE_CURVE('',#493,#493,#57,.T.);
#410=EDGE_CURVE('',#494,#494,#58,.T.);
#411=EDGE_CURVE('',#495,#495,#59,.T.);
#412=EDGE_CURVE('',#496,#496,#60,.T.);
#413=EDGE_CURVE('',#497,#497,#61,.T.);
#414=VERTEX_POINT('',#1296);
#415=VERTEX_POINT('',#1297);
#416=VERTEX_POINT('',#1299);
#417=VERTEX_POINT('',#1301);
#418=VERTEX_POINT('',#1305);
#419=VERTEX_POINT('',#1307);
#420=VERTEX_POINT('',#1311);
#421=VERTEX_POINT('',#1313);
#422=VERTEX_POINT('',#1317);
#423=VERTEX_POINT('',#1319);
#424=VERTEX_POINT('',#1323);
#425=VERTEX_POINT('',#1325);
#426=VERTEX_POINT('',#1329);
#427=VERTEX_POINT('',#1331);
#428=VERTEX_POINT('',#1335);
#429=VERTEX_POINT('',#1337);
#430=VERTEX_POINT('',#1341);
#431=VERTEX_POINT('',#1343);
#432=VERTEX_POINT('',#1347);
#433=VERTEX_POINT('',#1348);
#434=VERTEX_POINT('',#1350);
#435=VERTEX_POINT('',#1352);
#436=VERTEX_POINT('',#1356);
#437=VERTEX_POINT('',#1358);
#438=VERTEX_POINT('',#1362);
#439=VERTEX_POINT('',#1364);
#440=VERTEX_POINT('',#1368);
#441=VERTEX_POINT('',#1370);
#442=VERTEX_POINT('',#1374);
#443=VERTEX_POINT('',#1376);
#444=VERTEX_POINT('',#1380);
#445=VERTEX_POINT('',#1382);
#446=VERTEX_POINT('',#1386);
#447=VERTEX_POINT('',#1388);
#448=VERTEX_POINT('',#1392);
#449=VERTEX_POINT('',#1393);
#450=VERTEX_POINT('',#1395);
#451=VERTEX_POINT('',#1397);
#452=VERTEX_POINT('',#1401);
#453=VERTEX_POINT('',#1403);
#454=VERTEX_POINT('',#1407);
#455=VERTEX_POINT('',#1409);
#456=VERTEX_POINT('',#1413);
#457=VERTEX_POINT('',#1415);
#458=VERTEX_POINT('',#1419);
#459=VERTEX_POINT('',#1421);
#460=VERTEX_POINT('',#1425);
#461=VERTEX_POINT('',#1427);
#462=VERTEX_POINT('',#1431);
#463=VERTEX_POINT('',#1433);
#464=VERTEX_POINT('',#1443);
#465=VERTEX_POINT('',#1445);
#466=VERTEX_POINT('',#1448);
#467=VERTEX_POINT('',#1450);
#468=VERTEX_POINT('',#1453);
#469=VERTEX_POINT('',#1455);
#470=VERTEX_POINT('',#1458);
#471=VERTEX_POINT('',#1460);
#472=VERTEX_POINT('',#1463);
#473=VERTEX_POINT('',#1465);
#474=VERTEX_POINT('',#1468);
#475=VERTEX_POINT('',#1470);
#476=VERTEX_POINT('',#1473);
#477=VERTEX_POINT('',#1475);
#478=VERTEX_POINT('',#1478);
#479=VERTEX_POINT('',#1480);
#480=VERTEX_POINT('',#1483);
#481=VERTEX_POINT('',#1485);
#482=VERTEX_POINT('',#1492);
#483=VERTEX_POINT('',#1494);
#484=VERTEX_POINT('',#1496);
#485=VERTEX_POINT('',#1498);
#486=VERTEX_POINT('',#1500);
#487=VERTEX_POINT('',#1502);
#488=VERTEX_POINT('',#1505);
#489=VERTEX_POINT('',#1509);
#490=VERTEX_POINT('',#1513);
#491=VERTEX_POINT('',#1515);
#492=VERTEX_POINT('',#1518);
#493=VERTEX_POINT('',#1523);
#494=VERTEX_POINT('',#1527);
#495=VERTEX_POINT('',#1529);
#496=VERTEX_POINT('',#1532);
#497=VERTEX_POINT('',#1537);
#498=LINE('',#1295,#557);
#499=LINE('',#1298,#558);
#500=LINE('',#1300,#559);
#501=LINE('',#1302,#560);
#502=LINE('',#1304,#561);
#503=LINE('',#1306,#562);
#504=LINE('',#1308,#563);
#505=LINE('',#1310,#564);
#506=LINE('',#1312,#565);
#507=LINE('',#1314,#566);
#508=LINE('',#1316,#567);
#509=LINE('',#1318,#568);
#510=LINE('',#1320,#569);
#511=LINE('',#1322,#570);
#512=LINE('',#1324,#571);
#513=LINE('',#1326,#572);
#514=LINE('',#1328,#573);
#515=LINE('',#1330,#574);
#516=LINE('',#1332,#575);
#517=LINE('',#1334,#576);
#518=LINE('',#1336,#577);
#519=LINE('',#1338,#578);
#520=LINE('',#1340,#579);
#521=LINE('',#1342,#580);
#522=LINE('',#1344,#581);
#523=LINE('',#1346,#582);
#524=LINE('',#1349,#583);
#525=LINE('',#1351,#584);
#526=LINE('',#1353,#585);
#527=LINE('',#1357,#586);
#528=LINE('',#1361,#587);
#529=LINE('',#1363,#588);
#530=LINE('',#1365,#589);
#531=LINE('',#1369,#590);
#532=LINE('',#1373,#591);
#533=LINE('',#1375,#592);
#534=LINE('',#1377,#593);
#535=LINE('',#1381,#594);
#536=LINE('',#1385,#595);
#537=LINE('',#1387,#596);
#538=LINE('',#1389,#597);
#539=LINE('',#1394,#598);
#540=LINE('',#1398,#599);
#541=LINE('',#1400,#600);
#542=LINE('',#1402,#601);
#543=LINE('',#1404,#602);
#544=LINE('',#1408,#603);
#545=LINE('',#1412,#604);
#546=LINE('',#1414,#605);
#547=LINE('',#1416,#606);
#548=LINE('',#1420,#607);
#549=LINE('',#1424,#608);
#550=LINE('',#1426,#609);
#551=LINE('',#1428,#610);
#552=LINE('',#1432,#611);
#553=LINE('',#1439,#612);
#554=LINE('',#1440,#613);
#555=LINE('',#1487,#614);
#556=LINE('',#1488,#615);
#557=VECTOR('',#1024,1.);
#558=VECTOR('',#1025,1.);
#559=VECTOR('',#1026,1.);
#560=VECTOR('',#1027,1.);
#561=VECTOR('',#1030,1.);
#562=VECTOR('',#1031,1.);
#563=VECTOR('',#1032,1.);
#564=VECTOR('',#1035,1.);
#565=VECTOR('',#1036,1.);
#566=VECTOR('',#1037,1.);
#567=VECTOR('',#1040,1.);
#568=VECTOR('',#1041,1.);
#569=VECTOR('',#1042,1.);
#570=VECTOR('',#1045,1.);
#571=VECTOR('',#1046,1.);
#572=VECTOR('',#1047,1.);
#573=VECTOR('',#1050,1.);
#574=VECTOR('',#1051,1.);
#575=VECTOR('',#1052,1.);
#576=VECTOR('',#1055,1.);
#577=VECTOR('',#1056,1.);
#578=VECTOR('',#1057,1.);
#579=VECTOR('',#1060,1.);
#580=VECTOR('',#1061,1.);
#581=VECTOR('',#1062,1.);
#582=VECTOR('',#1065,1.);
#583=VECTOR('',#1066,1.);
#584=VECTOR('',#1067,1.);
#585=VECTOR('',#1068,1.);
#586=VECTOR('',#1073,1.);
#587=VECTOR('',#1078,1.);
#588=VECTOR('',#1079,1.);
#589=VECTOR('',#1080,1.);
#590=VECTOR('',#1085,1.);
#591=VECTOR('',#1090,1.);
#592=VECTOR('',#1091,1.);
#593=VECTOR('',#1092,1.);
#594=VECTOR('',#1097,1.);
#595=VECTOR('',#1102,1.);
#596=VECTOR('',#1103,1.);
#597=VECTOR('',#1104,1.);
#598=VECTOR('',#1109,1.);
#599=VECTOR('',#1112,1.);
#600=VECTOR('',#1115,1.);
#601=VECTOR('',#1116,1.);
#602=VECTOR('',#1117,1.);
#603=VECTOR('',#1122,1.);
#604=VECTOR('',#1127,1.);
#605=VECTOR('',#1128,1.);
#606=VECTOR('',#1129,1.);
#607=VECTOR('',#1134,1.);
#608=VECTOR('',#1139,1.);
#609=VECTOR('',#1140,1.);
#610=VECTOR('',#1141,1.);
#611=VECTOR('',#1146,1.);
#612=VECTOR('',#1157,1.);
#613=VECTOR('',#1158,1.);
#614=VECTOR('',#1215,1.);
#615=VECTOR('',#1216,1.);
#616=EDGE_LOOP('',(#87,#88,#89,#90));
#617=EDGE_LOOP('',(#91,#92,#93,#94));
#618=EDGE_LOOP('',(#95,#96,#97,#98));
#619=EDGE_LOOP('',(#99,#100,#101,#102));
#620=EDGE_LOOP('',(#103,#104,#105,#106));
#621=EDGE_LOOP('',(#107,#108,#109,#110));
#622=EDGE_LOOP('',(#111,#112,#113,#114));
#623=EDGE_LOOP('',(#115,#116,#117,#118));
#624=EDGE_LOOP('',(#119,#120,#121,#122));
#625=EDGE_LOOP('',(#123,#124,#125,#126));
#626=EDGE_LOOP('',(#127,#128,#129,#130));
#627=EDGE_LOOP('',(#131,#132,#133,#134));
#628=EDGE_LOOP('',(#135,#136,#137,#138));
#629=EDGE_LOOP('',(#139,#140,#141,#142));
#630=EDGE_LOOP('',(#143,#144,#145,#146));
#631=EDGE_LOOP('',(#147,#148,#149,#150));
#632=EDGE_LOOP('',(#151,#152,#153,#154));
#633=EDGE_LOOP('',(#155,#156,#157,#158));
#634=EDGE_LOOP('',(#159,#160,#161,#162));
#635=EDGE_LOOP('',(#163,#164,#165,#166));
#636=EDGE_LOOP('',(#167,#168,#169,#170));
#637=EDGE_LOOP('',(#171,#172,#173,#174));
#638=EDGE_LOOP('',(#175,#176,#177,#178));
#639=EDGE_LOOP('',(#179,#180,#181,#182));
#640=EDGE_LOOP('',(#183));
#641=EDGE_LOOP('',(#184));
#642=EDGE_LOOP('',(#185));
#643=EDGE_LOOP('',(#186));
#644=EDGE_LOOP('',(#187));
#645=EDGE_LOOP('',(#188));
#646=EDGE_LOOP('',(#189));
#647=EDGE_LOOP('',(#190));
#648=EDGE_LOOP('',(#191));
#649=EDGE_LOOP('',(#192));
#650=EDGE_LOOP('',(#193));
#651=EDGE_LOOP('',(#194));
#652=EDGE_LOOP('',(#195));
#653=EDGE_LOOP('',(#196));
#654=EDGE_LOOP('',(#197));
#655=EDGE_LOOP('',(#198));
#656=EDGE_LOOP('',(#199));
#657=EDGE_LOOP('',(#200));
#658=EDGE_LOOP('',(#201,#202,#203,#204));
#659=EDGE_LOOP('',(#205));
#660=EDGE_LOOP('',(#206));
#661=EDGE_LOOP('',(#207));
#662=EDGE_LOOP('',(#208));
#663=EDGE_LOOP('',(#209));
#664=EDGE_LOOP('',(#210));
#665=EDGE_LOOP('',(#211));
#666=EDGE_LOOP('',(#212));
#667=EDGE_LOOP('',(#213));
#668=EDGE_LOOP('',(#214,#215,#216,#217,#218,#219,#220,#221));
#669=EDGE_LOOP('',(#222,#223,#224,#225,#226,#227,#228,#229));
#670=EDGE_LOOP('',(#230,#231,#232,#233,#234,#235,#236,#237,#238));
#671=EDGE_LOOP('',(#239));
#672=EDGE_LOOP('',(#240));
#673=EDGE_LOOP('',(#241));
#674=EDGE_LOOP('',(#242));
#675=EDGE_LOOP('',(#243));
#676=EDGE_LOOP('',(#244));
#677=EDGE_LOOP('',(#245));
#678=EDGE_LOOP('',(#246));
#679=EDGE_LOOP('',(#247));
#680=EDGE_LOOP('',(#248));
#681=EDGE_LOOP('',(#249));
#682=EDGE_LOOP('',(#250,#251,#252,#253,#254,#255,#256,#257));
#683=EDGE_LOOP('',(#258,#259,#260,#261,#262,#263,#264,#265));
#684=EDGE_LOOP('',(#266,#267,#268,#269,#270,#271,#272,#273,#274));
#685=EDGE_LOOP('',(#275));
#686=EDGE_LOOP('',(#276));
#687=EDGE_LOOP('',(#277));
#688=EDGE_LOOP('',(#278));
#689=EDGE_LOOP('',(#279));
#690=EDGE_LOOP('',(#280));
#691=EDGE_LOOP('',(#281));
#692=EDGE_LOOP('',(#282));
#693=EDGE_LOOP('',(#283));
#694=EDGE_LOOP('',(#284));
#695=EDGE_LOOP('',(#285));
#696=EDGE_LOOP('',(#286));
#697=EDGE_LOOP('',(#287));
#698=EDGE_LOOP('',(#288));
#699=EDGE_LOOP('',(#289));
#700=EDGE_LOOP('',(#290));
#701=EDGE_LOOP('',(#291));
#702=EDGE_LOOP('',(#292));
#703=EDGE_LOOP('',(#293));
#704=EDGE_LOOP('',(#294));
#705=EDGE_LOOP('',(#295));
#706=EDGE_LOOP('',(#296));
#707=EDGE_LOOP('',(#297));
#708=EDGE_LOOP('',(#298));
#709=EDGE_LOOP('',(#299));
#710=EDGE_LOOP('',(#300));
#711=EDGE_LOOP('',(#301));
#712=EDGE_LOOP('',(#302));
#713=EDGE_LOOP('',(#303));
#714=EDGE_LOOP('',(#304));
#715=FACE_BOUND('',#616,.T.);
#716=FACE_BOUND('',#617,.T.);
#717=FACE_BOUND('',#618,.T.);
#718=FACE_BOUND('',#619,.T.);
#719=FACE_BOUND('',#620,.T.);
#720=FACE_BOUND('',#621,.T.);
#721=FACE_BOUND('',#622,.T.);
#722=FACE_BOUND('',#623,.T.);
#723=FACE_BOUND('',#624,.T.);
#724=FACE_BOUND('',#625,.T.);
#725=FACE_BOUND('',#626,.T.);
#726=FACE_BOUND('',#627,.T.);
#727=FACE_BOUND('',#628,.T.);
#728=FACE_BOUND('',#629,.T.);
#729=FACE_BOUND('',#630,.T.);
#730=FACE_BOUND('',#631,.T.);
#731=FACE_BOUND('',#632,.T.);
#732=FACE_BOUND('',#633,.T.);
#733=FACE_BOUND('',#634,.T.);
#734=FACE_BOUND('',#635,.T.);
#735=FACE_BOUND('',#636,.T.);
#736=FACE_BOUND('',#637,.T.);
#737=FACE_BOUND('',#638,.T.);
#738=FACE_BOUND('',#639,.T.);
#739=FACE_BOUND('',#640,.T.);
#740=FACE_BOUND('',#641,.T.);
#741=FACE_BOUND('',#642,.T.);
#742=FACE_BOUND('',#643,.T.);
#743=FACE_BOUND('',#644,.T.);
#744=FACE_BOUND('',#645,.T.);
#745=FACE_BOUND('',#646,.T.);
#746=FACE_BOUND('',#647,.T.);
#747=FACE_BOUND('',#648,.T.);
#748=FACE_BOUND('',#649,.T.);
#749=FACE_BOUND('',#650,.T.);
#750=FACE_BOUND('',#651,.T.);
#751=FACE_BOUND('',#652,.T.);
#752=FACE_BOUND('',#653,.T.);
#753=FACE_BOUND('',#654,.T.);
#754=FACE_BOUND('',#655,.T.);
#755=FACE_BOUND('',#656,.T.);
#756=FACE_BOUND('',#657,.T.);
#757=FACE_BOUND('',#658,.T.);
#758=FACE_BOUND('',#659,.T.);
#759=FACE_BOUND('',#660,.T.);
#760=FACE_BOUND('',#661,.T.);
#761=FACE_BOUND('',#662,.T.);
#762=FACE_BOUND('',#663,.T.);
#763=FACE_BOUND('',#664,.T.);
#764=FACE_BOUND('',#665,.T.);
#765=FACE_BOUND('',#666,.T.);
#766=FACE_BOUND('',#667,.T.);
#767=FACE_BOUND('',#668,.T.);
#768=FACE_BOUND('',#669,.T.);
#769=FACE_BOUND('',#670,.T.);
#770=FACE_BOUND('',#671,.T.);
#771=FACE_BOUND('',#672,.T.);
#772=FACE_BOUND('',#673,.T.);
#773=FACE_BOUND('',#674,.T.);
#774=FACE_BOUND('',#675,.T.);
#775=FACE_BOUND('',#676,.T.);
#776=FACE_BOUND('',#677,.T.);
#777=FACE_BOUND('',#678,.T.);
#778=FACE_BOUND('',#679,.T.);
#779=FACE_BOUND('',#680,.T.);
#780=FACE_BOUND('',#681,.T.);
#781=FACE_BOUND('',#682,.T.);
#782=FACE_BOUND('',#683,.T.);
#783=FACE_BOUND('',#684,.T.);
#784=FACE_BOUND('',#685,.T.);
#785=FACE_BOUND('',#686,.T.);
#786=FACE_BOUND('',#687,.T.);
#787=FACE_BOUND('',#688,.T.);
#788=FACE_BOUND('',#689,.T.);
#789=FACE_BOUND('',#690,.T.);
#790=FACE_BOUND('',#691,.T.);
#791=FACE_BOUND('',#692,.T.);
#792=FACE_BOUND('',#693,.T.);
#793=FACE_BOUND('',#694,.T.);
#794=FACE_BOUND('',#695,.T.);
#795=FACE_BOUND('',#696,.T.);
#796=FACE_BOUND('',#697,.T.);
#797=FACE_BOUND('',#698,.T.);
#798=FACE_BOUND('',#699,.T.);
#799=FACE_BOUND('',#700,.T.);
#800=FACE_BOUND('',#701,.T.);
#801=FACE_BOUND('',#702,.T.);
#802=FACE_BOUND('',#703,.T.);
#803=FACE_BOUND('',#704,.T.);
#804=FACE_BOUND('',#705,.T.);
#805=FACE_BOUND('',#706,.T.);
#806=FACE_BOUND('',#707,.T.);
#807=FACE_BOUND('',#708,.T.);
#808=FACE_BOUND('',#709,.T.);
#809=FACE_BOUND('',#710,.T.);
#810=FACE_BOUND('',#711,.T.);
#811=FACE_BOUND('',#712,.T.);
#812=FACE_BOUND('',#713,.T.);
#813=FACE_BOUND('',#714,.T.);
#814=PLANE('',#914);
#815=PLANE('',#915);
#816=PLANE('',#916);
#817=PLANE('',#917);
#818=PLANE('',#918);
#819=PLANE('',#919);
#820=PLANE('',#920);
#821=PLANE('',#921);
#822=PLANE('',#922);
#823=PLANE('',#926);
#824=PLANE('',#930);
#825=PLANE('',#934);
#826=PLANE('',#938);
#827=PLANE('',#942);
#828=PLANE('',#946);
#829=PLANE('',#953);
#830=PLANE('',#981);
#831=PLANE('',#982);
#832=PLANE('',#983);
#833=PLANE('',#990);
#834=PLANE('',#993);
#835=PLANE('',#1001);
#836=PLANE('',#1002);
#837=PLANE('',#1003);
#838=PLANE('',#1011);
#839=PLANE('',#1012);
#840=PLANE('',#1013);
#841=PLANE('',#1016);
#842=PLANE('',#1017);
#843=PLANE('',#1018);
#844=PLANE('',#1019);
#845=ADVANCED_FACE('',(#715),#814,.F.);
#846=ADVANCED_FACE('',(#716),#815,.F.);
#847=ADVANCED_FACE('',(#717),#816,.T.);
#848=ADVANCED_FACE('',(#718),#817,.F.);
#849=ADVANCED_FACE('',(#719),#818,.F.);
#850=ADVANCED_FACE('',(#720),#819,.F.);
#851=ADVANCED_FACE('',(#721),#820,.T.);
#852=ADVANCED_FACE('',(#722),#821,.T.);
#853=ADVANCED_FACE('',(#723),#822,.F.);
#854=ADVANCED_FACE('',(#724),#62,.T.);
#855=ADVANCED_FACE('',(#725),#823,.F.);
#856=ADVANCED_FACE('',(#726),#63,.T.);
#857=ADVANCED_FACE('',(#727),#824,.F.);
#858=ADVANCED_FACE('',(#728),#64,.T.);
#859=ADVANCED_FACE('',(#729),#825,.F.);
#860=ADVANCED_FACE('',(#730),#65,.F.);
#861=ADVANCED_FACE('',(#731),#826,.T.);
#862=ADVANCED_FACE('',(#732),#66,.F.);
#863=ADVANCED_FACE('',(#733),#827,.T.);
#864=ADVANCED_FACE('',(#734),#67,.F.);
#865=ADVANCED_FACE('',(#735),#828,.T.);
#866=ADVANCED_FACE('',(#736),#68,.F.);
#867=ADVANCED_FACE('',(#737),#69,.T.);
#868=ADVANCED_FACE('',(#738),#829,.T.);
#869=ADVANCED_FACE('',(#739,#740),#70,.F.);
#870=ADVANCED_FACE('',(#741,#742),#71,.F.);
#871=ADVANCED_FACE('',(#743,#744),#72,.F.);
#872=ADVANCED_FACE('',(#745,#746),#73,.F.);
#873=ADVANCED_FACE('',(#747,#748),#74,.F.);
#874=ADVANCED_FACE('',(#749,#750),#75,.F.);
#875=ADVANCED_FACE('',(#751,#752),#76,.F.);
#876=ADVANCED_FACE('',(#753,#754),#77,.F.);
#877=ADVANCED_FACE('',(#755,#756),#78,.F.);
#878=ADVANCED_FACE('',(#757),#830,.T.);
#879=ADVANCED_FACE('',(#758,#759,#760,#761,#762,#763,#764,#765,#766,#767,
#768,#769),#831,.T.);
#880=ADVANCED_FACE('',(#770,#771,#772,#773,#774,#775,#776,#777,#778,#779,
#780,#781,#782,#783),#832,.F.);
#881=ADVANCED_FACE('',(#784),#833,.T.);
#882=ADVANCED_FACE('',(#785,#786),#79,.T.);
#883=ADVANCED_FACE('',(#787),#834,.T.);
#884=ADVANCED_FACE('',(#788,#789),#80,.T.);
#885=ADVANCED_FACE('',(#790,#791),#81,.F.);
#886=ADVANCED_FACE('',(#792,#793),#82,.T.);
#887=ADVANCED_FACE('',(#794,#795),#835,.T.);
#888=ADVANCED_FACE('',(#796),#836,.F.);
#889=ADVANCED_FACE('',(#797),#837,.T.);
#890=ADVANCED_FACE('',(#798,#799),#83,.T.);
#891=ADVANCED_FACE('',(#800,#801),#84,.F.);
#892=ADVANCED_FACE('',(#802,#803),#85,.T.);
#893=ADVANCED_FACE('',(#804,#805),#838,.T.);
#894=ADVANCED_FACE('',(#806),#839,.F.);
#895=ADVANCED_FACE('',(#807),#840,.T.);
#896=ADVANCED_FACE('',(#808,#809),#86,.T.);
#897=ADVANCED_FACE('',(#810),#841,.F.);
#898=ADVANCED_FACE('',(#811),#842,.F.);
#899=ADVANCED_FACE('',(#812),#843,.F.);
#900=ADVANCED_FACE('',(#813),#844,.F.);
#901=CLOSED_SHELL('',(#845,#846,#847,#848,#849,#850,#851,#852,#853,#854,
#855,#856,#857,#858,#859,#860,#861,#862,#863,#864,#865,#866,#867,#868,#869,
#870,#871,#872,#873,#874,#875,#876,#877,#878,#879,#880,#881,#882,#883,#884,
#885,#886,#887,#888,#889,#890,#891,#892,#893,#894,#895,#896,#897,#898,#899,
#900));
#902=STYLED_ITEM('',(#903),#910);
#903=PRESENTATION_STYLE_ASSIGNMENT((#904));
#904=SURFACE_STYLE_USAGE(.BOTH.,#905);
#905=SURFACE_SIDE_STYLE('',(#906));
#906=SURFACE_STYLE_FILL_AREA(#907);
#907=FILL_AREA_STYLE('',(#908));
#908=FILL_AREA_STYLE_COLOUR('',#909);
#909=COLOUR_RGB('',0.6,0.580392156862745,0.529411764705882);
#910=MANIFOLD_SOLID_BREP('Part 2411',#901);
#911=SHAPE_DEFINITION_REPRESENTATION(#1549,#912);
#912=SHAPE_REPRESENTATION('Part 2411',(#913),#1544);
#913=AXIS2_PLACEMENT_3D('',#1293,#1020,#1021);
#914=AXIS2_PLACEMENT_3D('',#1294,#1022,#1023);
#915=AXIS2_PLACEMENT_3D('',#1303,#1028,#1029);
#916=AXIS2_PLACEMENT_3D('',#1309,#1033,#1034);
#917=AXIS2_PLACEMENT_3D('',#1315,#1038,#1039);
#918=AXIS2_PLACEMENT_3D('',#1321,#1043,#1044);
#919=AXIS2_PLACEMENT_3D('',#1327,#1048,#1049);
#920=AXIS2_PLACEMENT_3D('',#1333,#1053,#1054);
#921=AXIS2_PLACEMENT_3D('',#1339,#1058,#1059);
#922=AXIS2_PLACEMENT_3D('',#1345,#1063,#1064);
#923=AXIS2_PLACEMENT_3D('',#1354,#1069,#1070);
#924=AXIS2_PLACEMENT_3D('',#1355,#1071,#1072);
#925=AXIS2_PLACEMENT_3D('',#1359,#1074,#1075);
#926=AXIS2_PLACEMENT_3D('',#1360,#1076,#1077);
#927=AXIS2_PLACEMENT_3D('',#1366,#1081,#1082);
#928=AXIS2_PLACEMENT_3D('',#1367,#1083,#1084);
#929=AXIS2_PLACEMENT_3D('',#1371,#1086,#1087);
#930=AXIS2_PLACEMENT_3D('',#1372,#1088,#1089);
#931=AXIS2_PLACEMENT_3D('',#1378,#1093,#1094);
#932=AXIS2_PLACEMENT_3D('',#1379,#1095,#1096);
#933=AXIS2_PLACEMENT_3D('',#1383,#1098,#1099);
#934=AXIS2_PLACEMENT_3D('',#1384,#1100,#1101);
#935=AXIS2_PLACEMENT_3D('',#1390,#1105,#1106);
#936=AXIS2_PLACEMENT_3D('',#1391,#1107,#1108);
#937=AXIS2_PLACEMENT_3D('',#1396,#1110,#1111);
#938=AXIS2_PLACEMENT_3D('',#1399,#1113,#1114);
#939=AXIS2_PLACEMENT_3D('',#1405,#1118,#1119);
#940=AXIS2_PLACEMENT_3D('',#1406,#1120,#1121);
#941=AXIS2_PLACEMENT_3D('',#1410,#1123,#1124);
#942=AXIS2_PLACEMENT_3D('',#1411,#1125,#1126);
#943=AXIS2_PLACEMENT_3D('',#1417,#1130,#1131);
#944=AXIS2_PLACEMENT_3D('',#1418,#1132,#1133);
#945=AXIS2_PLACEMENT_3D('',#1422,#1135,#1136);
#946=AXIS2_PLACEMENT_3D('',#1423,#1137,#1138);
#947=AXIS2_PLACEMENT_3D('',#1429,#1142,#1143);
#948=AXIS2_PLACEMENT_3D('',#1430,#1144,#1145);
#949=AXIS2_PLACEMENT_3D('',#1434,#1147,#1148);
#950=AXIS2_PLACEMENT_3D('',#1435,#1149,#1150);
#951=AXIS2_PLACEMENT_3D('',#1436,#1151,#1152);
#952=AXIS2_PLACEMENT_3D('',#1437,#1153,#1154);
#953=AXIS2_PLACEMENT_3D('',#1438,#1155,#1156);
#954=AXIS2_PLACEMENT_3D('',#1441,#1159,#1160);
#955=AXIS2_PLACEMENT_3D('',#1442,#1161,#1162);
#956=AXIS2_PLACEMENT_3D('',#1444,#1163,#1164);
#957=AXIS2_PLACEMENT_3D('',#1446,#1165,#1166);
#958=AXIS2_PLACEMENT_3D('',#1447,#1167,#1168);
#959=AXIS2_PLACEMENT_3D('',#1449,#1169,#1170);
#960=AXIS2_PLACEMENT_3D('',#1451,#1171,#1172);
#961=AXIS2_PLACEMENT_3D('',#1452,#1173,#1174);
#962=AXIS2_PLACEMENT_3D('',#1454,#1175,#1176);
#963=AXIS2_PLACEMENT_3D('',#1456,#1177,#1178);
#964=AXIS2_PLACEMENT_3D('',#1457,#1179,#1180);
#965=AXIS2_PLACEMENT_3D('',#1459,#1181,#1182);
#966=AXIS2_PLACEMENT_3D('',#1461,#1183,#1184);
#967=AXIS2_PLACEMENT_3D('',#1462,#1185,#1186);
#968=AXIS2_PLACEMENT_3D('',#1464,#1187,#1188);
#969=AXIS2_PLACEMENT_3D('',#1466,#1189,#1190);
#970=AXIS2_PLACEMENT_3D('',#1467,#1191,#1192);
#971=AXIS2_PLACEMENT_3D('',#1469,#1193,#1194);
#972=AXIS2_PLACEMENT_3D('',#1471,#1195,#1196);
#973=AXIS2_PLACEMENT_3D('',#1472,#1197,#1198);
#974=AXIS2_PLACEMENT_3D('',#1474,#1199,#1200);
#975=AXIS2_PLACEMENT_3D('',#1476,#1201,#1202);
#976=AXIS2_PLACEMENT_3D('',#1477,#1203,#1204);
#977=AXIS2_PLACEMENT_3D('',#1479,#1205,#1206);
#978=AXIS2_PLACEMENT_3D('',#1481,#1207,#1208);
#979=AXIS2_PLACEMENT_3D('',#1482,#1209,#1210);
#980=AXIS2_PLACEMENT_3D('',#1484,#1211,#1212);
#981=AXIS2_PLACEMENT_3D('',#1486,#1213,#1214);
#982=AXIS2_PLACEMENT_3D('',#1489,#1217,#1218);
#983=AXIS2_PLACEMENT_3D('',#1490,#1219,#1220);
#984=AXIS2_PLACEMENT_3D('',#1491,#1221,#1222);
#985=AXIS2_PLACEMENT_3D('',#1493,#1223,#1224);
#986=AXIS2_PLACEMENT_3D('',#1495,#1225,#1226);
#987=AXIS2_PLACEMENT_3D('',#1497,#1227,#1228);
#988=AXIS2_PLACEMENT_3D('',#1499,#1229,#1230);
#989=AXIS2_PLACEMENT_3D('',#1501,#1231,#1232);
#990=AXIS2_PLACEMENT_3D('',#1503,#1233,#1234);
#991=AXIS2_PLACEMENT_3D('',#1504,#1235,#1236);
#992=AXIS2_PLACEMENT_3D('',#1506,#1237,#1238);
#993=AXIS2_PLACEMENT_3D('',#1507,#1239,#1240);
#994=AXIS2_PLACEMENT_3D('',#1508,#1241,#1242);
#995=AXIS2_PLACEMENT_3D('',#1510,#1243,#1244);
#996=AXIS2_PLACEMENT_3D('',#1511,#1245,#1246);
#997=AXIS2_PLACEMENT_3D('',#1512,#1247,#1248);
#998=AXIS2_PLACEMENT_3D('',#1514,#1249,#1250);
#999=AXIS2_PLACEMENT_3D('',#1516,#1251,#1252);
#1000=AXIS2_PLACEMENT_3D('',#1517,#1253,#1254);
#1001=AXIS2_PLACEMENT_3D('',#1519,#1255,#1256);
#1002=AXIS2_PLACEMENT_3D('',#1520,#1257,#1258);
#1003=AXIS2_PLACEMENT_3D('',#1521,#1259,#1260);
#1004=AXIS2_PLACEMENT_3D('',#1522,#1261,#1262);
#1005=AXIS2_PLACEMENT_3D('',#1524,#1263,#1264);
#1006=AXIS2_PLACEMENT_3D('',#1525,#1265,#1266);
#1007=AXIS2_PLACEMENT_3D('',#1526,#1267,#1268);
#1008=AXIS2_PLACEMENT_3D('',#1528,#1269,#1270);
#1009=AXIS2_PLACEMENT_3D('',#1530,#1271,#1272);
#1010=AXIS2_PLACEMENT_3D('',#1531,#1273,#1274);
#1011=AXIS2_PLACEMENT_3D('',#1533,#1275,#1276);
#1012=AXIS2_PLACEMENT_3D('',#1534,#1277,#1278);
#1013=AXIS2_PLACEMENT_3D('',#1535,#1279,#1280);
#1014=AXIS2_PLACEMENT_3D('',#1536,#1281,#1282);
#1015=AXIS2_PLACEMENT_3D('',#1538,#1283,#1284);
#1016=AXIS2_PLACEMENT_3D('',#1539,#1285,#1286);
#1017=AXIS2_PLACEMENT_3D('',#1540,#1287,#1288);
#1018=AXIS2_PLACEMENT_3D('',#1541,#1289,#1290);
#1019=AXIS2_PLACEMENT_3D('',#1542,#1291,#1292);
#1020=DIRECTION('',(0.,0.,1.));
#1021=DIRECTION('',(1.,0.,0.));
#1022=DIRECTION('',(-1.,1.41442178695007E-7,0.));
#1023=DIRECTION('',(-1.41442178695007E-7,-1.,0.));
#1024=DIRECTION('',(1.41442178695007E-7,1.,0.));
#1025=DIRECTION('',(0.,0.,-1.));
#1026=DIRECTION('',(1.41442178695007E-7,1.,0.));
#1027=DIRECTION('',(0.,0.,-1.));
#1028=DIRECTION('',(-0.999999999998762,1.5732575477649E-6,0.));
#1029=DIRECTION('',(-1.5732575477649E-6,-0.999999999998763,0.));
#1030=DIRECTION('',(1.5732575477649E-6,0.999999999998763,0.));
#1031=DIRECTION('',(0.,0.,-1.));
#1032=DIRECTION('',(1.5732575477649E-6,0.999999999998763,0.));
#1033=DIRECTION('',(-0.00177533139727753,-0.999998424097973,0.));
#1034=DIRECTION('',(0.999998424097973,-0.00177533139727753,0.));
#1035=DIRECTION('',(-0.999998424097973,0.00177533139727753,0.));
#1036=DIRECTION('',(0.,0.,-1.));
#1037=DIRECTION('',(-0.999998424097973,0.00177533139727753,0.));
#1038=DIRECTION('',(0.,1.,0.));
#1039=DIRECTION('',(0.,0.,1.));
#1040=DIRECTION('',(1.,0.,0.));
#1041=DIRECTION('',(0.,0.,-1.));
#1042=DIRECTION('',(1.,0.,0.));
#1043=DIRECTION('',(1.,0.,0.));
#1044=DIRECTION('',(0.,0.,-1.));
#1045=DIRECTION('',(0.,-1.,0.));
#1046=DIRECTION('',(0.,0.,-1.));
#1047=DIRECTION('',(0.,-1.,0.));
#1048=DIRECTION('',(0.999999939199296,0.000348713927961672,0.));
#1049=DIRECTION('',(-0.000348713927961672,0.999999939199296,0.));
#1050=DIRECTION('',(0.000348713927961672,-0.999999939199296,0.));
#1051=DIRECTION('',(0.,0.,-1.));
#1052=DIRECTION('',(0.000348713927961672,-0.999999939199296,0.));
#1053=DIRECTION('',(-1.,0.,0.));
#1054=DIRECTION('',(0.,0.,1.));
#1055=DIRECTION('',(0.,1.,0.));
#1056=DIRECTION('',(0.,0.,-1.));
#1057=DIRECTION('',(0.,1.,0.));
#1058=DIRECTION('',(0.,1.,0.));
#1059=DIRECTION('',(0.,0.,1.));
#1060=DIRECTION('',(1.,0.,0.));
#1061=DIRECTION('',(0.,0.,-1.));
#1062=DIRECTION('',(1.,0.,0.));
#1063=DIRECTION('',(-1.,0.,0.));
#1064=DIRECTION('',(0.,0.,1.));
#1065=DIRECTION('',(0.,1.,0.));
#1066=DIRECTION('',(0.,0.,-1.));
#1067=DIRECTION('',(0.,1.,0.));
#1068=DIRECTION('',(0.,0.,-1.));
#1069=DIRECTION('',(0.,0.,-1.));
#1070=DIRECTION('',(-1.,0.,0.));
#1071=DIRECTION('',(0.,0.,1.));
#1072=DIRECTION('',(1.,0.,0.));
#1073=DIRECTION('',(0.,0.,-1.));
#1074=DIRECTION('',(0.,0.,1.));
#1075=DIRECTION('',(1.,0.,0.));
#1076=DIRECTION('',(0.,-1.,0.));
#1077=DIRECTION('',(0.,0.,-1.));
#1078=DIRECTION('',(-1.,0.,0.));
#1079=DIRECTION('',(0.,0.,-1.));
#1080=DIRECTION('',(-1.,0.,0.));
#1081=DIRECTION('',(0.,0.,-1.));
#1082=DIRECTION('',(-1.,0.,0.));
#1083=DIRECTION('',(0.,0.,1.));
#1084=DIRECTION('',(1.,0.,0.));
#1085=DIRECTION('',(0.,0.,-1.));
#1086=DIRECTION('',(0.,0.,1.));
#1087=DIRECTION('',(1.,0.,0.));
#1088=DIRECTION('',(1.,0.,0.));
#1089=DIRECTION('',(0.,0.,-1.));
#1090=DIRECTION('',(0.,-1.,0.));
#1091=DIRECTION('',(0.,0.,-1.));
#1092=DIRECTION('',(0.,-1.,0.));
#1093=DIRECTION('',(0.,0.,-1.));
#1094=DIRECTION('',(-1.,0.,0.));
#1095=DIRECTION('',(0.,0.,1.));
#1096=DIRECTION('',(1.,0.,0.));
#1097=DIRECTION('',(0.,0.,-1.));
#1098=DIRECTION('',(0.,0.,1.));
#1099=DIRECTION('',(1.,0.,0.));
#1100=DIRECTION('',(0.,1.,0.));
#1101=DIRECTION('',(0.,0.,1.));
#1102=DIRECTION('',(1.,0.,0.));
#1103=DIRECTION('',(0.,0.,-1.));
#1104=DIRECTION('',(1.,0.,0.));
#1105=DIRECTION('',(0.,0.,-1.));
#1106=DIRECTION('',(-1.,0.,0.));
#1107=DIRECTION('',(0.,0.,1.));
#1108=DIRECTION('',(1.,0.,0.));
#1109=DIRECTION('',(0.,0.,-1.));
#1110=DIRECTION('',(0.,0.,1.));
#1111=DIRECTION('',(1.,0.,0.));
#1112=DIRECTION('',(0.,0.,-1.));
#1113=DIRECTION('',(-1.,0.,0.));
#1114=DIRECTION('',(0.,0.,1.));
#1115=DIRECTION('',(0.,1.,0.));
#1116=DIRECTION('',(0.,0.,-1.));
#1117=DIRECTION('',(0.,1.,0.));
#1118=DIRECTION('',(0.,0.,-1.));
#1119=DIRECTION('',(-1.,0.,0.));
#1120=DIRECTION('',(0.,0.,1.));
#1121=DIRECTION('',(1.,0.,0.));
#1122=DIRECTION('',(0.,0.,-1.));
#1123=DIRECTION('',(0.,0.,1.));
#1124=DIRECTION('',(1.,0.,0.));
#1125=DIRECTION('',(0.,1.,0.));
#1126=DIRECTION('',(0.,0.,1.));
#1127=DIRECTION('',(1.,0.,0.));
#1128=DIRECTION('',(0.,0.,-1.));
#1129=DIRECTION('',(1.,0.,0.));
#1130=DIRECTION('',(0.,0.,-1.));
#1131=DIRECTION('',(-1.,0.,0.));
#1132=DIRECTION('',(0.,0.,1.));
#1133=DIRECTION('',(1.,0.,0.));
#1134=DIRECTION('',(0.,0.,-1.));
#1135=DIRECTION('',(0.,0.,1.));
#1136=DIRECTION('',(1.,0.,0.));
#1137=DIRECTION('',(1.,0.,0.));
#1138=DIRECTION('',(0.,0.,-1.));
#1139=DIRECTION('',(0.,-1.,0.));
#1140=DIRECTION('',(0.,0.,-1.));
#1141=DIRECTION('',(0.,-1.,0.));
#1142=DIRECTION('',(0.,0.,-1.));
#1143=DIRECTION('',(-1.,0.,0.));
#1144=DIRECTION('',(0.,0.,1.));
#1145=DIRECTION('',(1.,0.,0.));
#1146=DIRECTION('',(0.,0.,-1.));
#1147=DIRECTION('',(0.,0.,1.));
#1148=DIRECTION('',(1.,0.,0.));
#1149=DIRECTION('',(0.,0.,-1.));
#1150=DIRECTION('',(-1.,0.,0.));
#1151=DIRECTION('',(0.,0.,1.));
#1152=DIRECTION('',(1.,0.,0.));
#1153=DIRECTION('',(0.,0.,1.));
#1154=DIRECTION('',(1.,0.,0.));
#1155=DIRECTION('',(0.,-1.,0.));
#1156=DIRECTION('',(0.,0.,-1.));
#1157=DIRECTION('',(-1.,0.,0.));
#1158=DIRECTION('',(-1.,0.,0.));
#1159=DIRECTION('',(0.,0.,-1.));
#1160=DIRECTION('',(-1.,0.,0.));
#1161=DIRECTION('',(0.,0.,1.));
#1162=DIRECTION('',(1.,0.,0.));
#1163=DIRECTION('',(0.,0.,1.));
#1164=DIRECTION('',(1.,0.,0.));
#1165=DIRECTION('',(0.,0.,-1.));
#1166=DIRECTION('',(-1.,0.,0.));
#1167=DIRECTION('',(0.,0.,1.));
#1168=DIRECTION('',(1.,0.,0.));
#1169=DIRECTION('',(0.,0.,1.));
#1170=DIRECTION('',(1.,0.,0.));
#1171=DIRECTION('',(0.,0.,-1.));
#1172=DIRECTION('',(-1.,0.,0.));
#1173=DIRECTION('',(0.,0.,1.));
#1174=DIRECTION('',(1.,0.,0.));
#1175=DIRECTION('',(0.,0.,1.));
#1176=DIRECTION('',(1.,0.,0.));
#1177=DIRECTION('',(0.,0.,-1.));
#1178=DIRECTION('',(-1.,0.,0.));
#1179=DIRECTION('',(0.,0.,1.));
#1180=DIRECTION('',(1.,0.,0.));
#1181=DIRECTION('',(0.,0.,1.));
#1182=DIRECTION('',(1.,0.,0.));
#1183=DIRECTION('',(0.,0.,-1.));
#1184=DIRECTION('',(-1.,0.,0.));
#1185=DIRECTION('',(0.,0.,1.));
#1186=DIRECTION('',(1.,0.,0.));
#1187=DIRECTION('',(0.,0.,1.));
#1188=DIRECTION('',(1.,0.,0.));
#1189=DIRECTION('',(0.,0.,-1.));
#1190=DIRECTION('',(-1.,0.,0.));
#1191=DIRECTION('',(0.,0.,1.));
#1192=DIRECTION('',(1.,0.,0.));
#1193=DIRECTION('',(0.,0.,1.));
#1194=DIRECTION('',(1.,0.,0.));
#1195=DIRECTION('',(0.,0.,-1.));
#1196=DIRECTION('',(-1.,0.,0.));
#1197=DIRECTION('',(0.,0.,1.));
#1198=DIRECTION('',(1.,0.,0.));
#1199=DIRECTION('',(0.,0.,1.));
#1200=DIRECTION('',(1.,0.,0.));
#1201=DIRECTION('',(0.,0.,-1.));
#1202=DIRECTION('',(-1.,0.,0.));
#1203=DIRECTION('',(0.,0.,1.));
#1204=DIRECTION('',(1.,0.,0.));
#1205=DIRECTION('',(0.,0.,1.));
#1206=DIRECTION('',(1.,0.,0.));
#1207=DIRECTION('',(0.,0.,-1.));
#1208=DIRECTION('',(-1.,0.,0.));
#1209=DIRECTION('',(0.,0.,1.));
#1210=DIRECTION('',(1.,0.,0.));
#1211=DIRECTION('',(0.,0.,1.));
#1212=DIRECTION('',(1.,0.,0.));
#1213=DIRECTION('',(1.,1.48631103417944E-10,0.));
#1214=DIRECTION('',(-1.48631103417944E-10,1.,0.));
#1215=DIRECTION('',(1.48631103417944E-10,-1.,0.));
#1216=DIRECTION('',(1.48631103417944E-10,-1.,0.));
#1217=DIRECTION('',(0.,0.,1.));
#1218=DIRECTION('',(1.,0.,0.));
#1219=DIRECTION('',(0.,0.,1.));
#1220=DIRECTION('',(1.,0.,0.));
#1221=DIRECTION('',(0.,0.,1.));
#1222=DIRECTION('',(1.,0.,0.));
#1223=DIRECTION('',(0.,0.,1.));
#1224=DIRECTION('',(1.,0.,0.));
#1225=DIRECTION('',(0.,0.,1.));
#1226=DIRECTION('',(1.,0.,0.));
#1227=DIRECTION('',(0.,0.,1.));
#1228=DIRECTION('',(1.,0.,0.));
#1229=DIRECTION('',(0.,0.,1.));
#1230=DIRECTION('',(1.,0.,0.));
#1231=DIRECTION('',(0.,0.,1.));
#1232=DIRECTION('',(1.,0.,0.));
#1233=DIRECTION('',(0.,0.,-1.));
#1234=DIRECTION('',(1.,0.,0.));
#1235=DIRECTION('',(0.,0.,-1.));
#1236=DIRECTION('',(-1.,0.,0.));
#1237=DIRECTION('',(0.,0.,1.));
#1238=DIRECTION('',(1.,0.,0.));
#1239=DIRECTION('',(0.,0.,-1.));
#1240=DIRECTION('',(1.,0.,0.));
#1241=DIRECTION('',(0.,0.,-1.));
#1242=DIRECTION('',(-1.,0.,0.));
#1243=DIRECTION('',(0.,0.,1.));
#1244=DIRECTION('',(1.,0.,0.));
#1245=DIRECTION('',(0.,0.,1.));
#1246=DIRECTION('',(1.,0.,0.));
#1247=DIRECTION('',(0.,0.,-1.));
#1248=DIRECTION('',(-1.,0.,0.));
#1249=DIRECTION('',(0.,0.,-1.));
#1250=DIRECTION('',(-1.,0.,0.));
#1251=DIRECTION('',(0.,0.,1.));
#1252=DIRECTION('',(1.,0.,0.));
#1253=DIRECTION('',(0.,0.,-1.));
#1254=DIRECTION('',(-1.,0.,0.));
#1255=DIRECTION('',(0.,0.,-1.));
#1256=DIRECTION('',(1.,0.,0.));
#1257=DIRECTION('',(0.,0.,1.));
#1258=DIRECTION('',(1.,0.,0.));
#1259=DIRECTION('',(0.,0.,-1.));
#1260=DIRECTION('',(1.,0.,0.));
#1261=DIRECTION('',(0.,0.,-1.));
#1262=DIRECTION('',(-1.,0.,0.));
#1263=DIRECTION('',(0.,0.,1.));
#1264=DIRECTION('',(1.,0.,0.));
#1265=DIRECTION('',(0.,0.,1.));
#1266=DIRECTION('',(1.,0.,0.));
#1267=DIRECTION('',(0.,0.,-1.));
#1268=DIRECTION('',(-1.,0.,0.));
#1269=DIRECTION('',(0.,0.,-1.));
#1270=DIRECTION('',(-1.,0.,0.));
#1271=DIRECTION('',(0.,0.,1.));
#1272=DIRECTION('',(1.,0.,0.));
#1273=DIRECTION('',(0.,0.,-1.));
#1274=DIRECTION('',(-1.,0.,0.));
#1275=DIRECTION('',(0.,0.,-1.));
#1276=DIRECTION('',(1.,0.,0.));
#1277=DIRECTION('',(0.,0.,1.));
#1278=DIRECTION('',(1.,0.,0.));
#1279=DIRECTION('',(0.,0.,-1.));
#1280=DIRECTION('',(1.,0.,0.));
#1281=DIRECTION('',(0.,0.,-1.));
#1282=DIRECTION('',(-1.,0.,0.));
#1283=DIRECTION('',(0.,0.,1.));
#1284=DIRECTION('',(1.,0.,0.));
#1285=DIRECTION('',(0.,0.,-1.));
#1286=DIRECTION('',(1.,0.,0.));
#1287=DIRECTION('',(0.,0.,-1.));
#1288=DIRECTION('',(1.,0.,0.));
#1289=DIRECTION('',(0.,0.,-1.));
#1290=DIRECTION('',(1.,0.,0.));
#1291=DIRECTION('',(0.,0.,-1.));
#1292=DIRECTION('',(1.,0.,0.));
#1293=CARTESIAN_POINT('',(0.,0.,0.));
#1294=CARTESIAN_POINT('',(-0.163551255337738,-0.00644500000025,0.01051));
#1295=CARTESIAN_POINT('',(-0.163551255337738,-0.00644500000025,0.00751));
#1296=CARTESIAN_POINT('',(-0.163551261812238,-0.0522198889279,0.00751));
#1297=CARTESIAN_POINT('',(-0.163551248863238,0.0393298889274,0.00751));
#1298=CARTESIAN_POINT('',(-0.163551248863238,0.0393298889274,0.01051));
#1299=CARTESIAN_POINT('',(-0.163551248863238,0.0393298889274,0.01051));
#1300=CARTESIAN_POINT('',(-0.163551255337738,-0.00644500000025,0.01051));
#1301=CARTESIAN_POINT('',(-0.163551261812238,-0.0522198889279,0.01051));
#1302=CARTESIAN_POINT('',(-0.163551261812238,-0.0522198889279,0.01051));
#1303=CARTESIAN_POINT('',(-0.163551247602398,0.0401313092143179,0.01051));
#1304=CARTESIAN_POINT('',(-0.163551247602398,0.0401313092143179,0.00751));
#1305=CARTESIAN_POINT('',(-0.163551246341557,0.0409327295012357,0.00751));
#1306=CARTESIAN_POINT('',(-0.163551246341557,0.0409327295012357,0.01051));
#1307=CARTESIAN_POINT('',(-0.163551246341557,0.0409327295012357,0.01051));
#1308=CARTESIAN_POINT('',(-0.163551247602398,0.0401313092143179,0.01051));
#1309=CARTESIAN_POINT('',(-0.162751247602279,0.0409313092361178,0.01051));
#1310=CARTESIAN_POINT('',(-0.162751247602279,0.0409313092361178,0.00751));
#1311=CARTESIAN_POINT('',(0.1195669984615,0.0404301,0.00751));
#1312=CARTESIAN_POINT('',(0.1195669984615,0.0404301,0.01051));
#1313=CARTESIAN_POINT('',(0.1195669984615,0.0404301,0.01051));
#1314=CARTESIAN_POINT('',(-0.162751247602279,0.0409313092361178,0.01051));
#1315=CARTESIAN_POINT('',(0.120366998461756,0.0404301,0.01051));
#1316=CARTESIAN_POINT('',(0.120366998461756,0.0404301,0.00751));
#1317=CARTESIAN_POINT('',(0.121166998462013,0.0404301,0.00751));
#1318=CARTESIAN_POINT('',(0.121166998462013,0.0404301,0.01051));
#1319=CARTESIAN_POINT('',(0.121166998462013,0.0404301,0.01051));
#1320=CARTESIAN_POINT('',(0.120366998461756,0.0404301,0.01051));
#1321=CARTESIAN_POINT('',(0.121166998462013,0.03963010002155,0.01051));
#1322=CARTESIAN_POINT('',(0.121166998462013,0.03963010002155,0.00751));
#1323=CARTESIAN_POINT('',(0.121166998462013,0.0388301000431,0.00751));
#1324=CARTESIAN_POINT('',(0.121166998462013,0.0388301000431,0.01051));
#1325=CARTESIAN_POINT('',(0.121166998462013,0.0388301000431,0.01051));
#1326=CARTESIAN_POINT('',(0.121166998462013,0.03963010002155,0.01051));
#1327=CARTESIAN_POINT('',(0.121182873662625,-0.00669489444215002,0.01051));
#1328=CARTESIAN_POINT('',(0.121182873662625,-0.00669489444215002,0.00751));
#1329=CARTESIAN_POINT('',(0.121198748863238,-0.0522198889274,0.00751));
#1330=CARTESIAN_POINT('',(0.121198748863238,-0.0522198889274,0.01051));
#1331=CARTESIAN_POINT('',(0.121198748863238,-0.0522198889274,0.01051));
#1332=CARTESIAN_POINT('',(0.121182873662625,-0.00669489444215002,0.01051));
#1333=CARTESIAN_POINT('',(0.121198748863238,-0.0530198889492,0.01051));
#1334=CARTESIAN_POINT('',(0.121198748863238,-0.0530198889492,0.00751));
#1335=CARTESIAN_POINT('',(0.121198748863238,-0.053819888971,0.00751));
#1336=CARTESIAN_POINT('',(0.121198748863238,-0.053819888971,0.01051));
#1337=CARTESIAN_POINT('',(0.121198748863238,-0.053819888971,0.01051));
#1338=CARTESIAN_POINT('',(0.121198748863238,-0.0530198889492,0.01051));
#1339=CARTESIAN_POINT('',(0.120398748863119,-0.053819888971,0.01051));
#1340=CARTESIAN_POINT('',(0.120398748863119,-0.053819888971,0.00751));
#1341=CARTESIAN_POINT('',(-0.163551261812,-0.053819888971,0.00751));
#1342=CARTESIAN_POINT('',(-0.163551261812,-0.053819888971,0.01051));
#1343=CARTESIAN_POINT('',(-0.163551261812,-0.053819888971,0.01051));
#1344=CARTESIAN_POINT('',(0.120398748863119,-0.053819888971,0.01051));
#1345=CARTESIAN_POINT('',(0.17457,-4.16333634234433E-17,0.01051));
#1346=CARTESIAN_POINT('',(0.17457,-4.16333634234433E-17,0.00751));
#1347=CARTESIAN_POINT('',(0.17457,-0.0585849997870451,0.00751));
#1348=CARTESIAN_POINT('',(0.17457,0.058584999787045,0.00751));
#1349=CARTESIAN_POINT('',(0.17457,0.058584999787045,0.01051));
#1350=CARTESIAN_POINT('',(0.17457,0.058584999787045,0.01051));
#1351=CARTESIAN_POINT('',(0.17457,-4.16333634234433E-17,0.01051));
#1352=CARTESIAN_POINT('',(0.17457,-0.0585849997870451,0.01051));
#1353=CARTESIAN_POINT('',(0.17457,-0.0585849997870451,0.01051));
#1354=CARTESIAN_POINT('',(0.17056999957409,0.05858499957409,0.01051));
#1355=CARTESIAN_POINT('',(0.17056999957409,0.05858499957409,0.00751));
#1356=CARTESIAN_POINT('',(0.170569999787045,0.062585,0.00751));
#1357=CARTESIAN_POINT('',(0.170569999787045,0.062585,0.01051));
#1358=CARTESIAN_POINT('',(0.170569999787045,0.062585,0.01051));
#1359=CARTESIAN_POINT('',(0.17056999957409,0.05858499957409,0.01051));
#1360=CARTESIAN_POINT('',(2.2509771824275E-14,0.062585,0.01051));
#1361=CARTESIAN_POINT('',(2.2509771824275E-14,0.062585,0.00751));
#1362=CARTESIAN_POINT('',(-0.170569999787,0.062585,0.00751));
#1363=CARTESIAN_POINT('',(-0.170569999787,0.062585,0.01051));
#1364=CARTESIAN_POINT('',(-0.170569999787,0.062585,0.01051));
#1365=CARTESIAN_POINT('',(2.2509771824275E-14,0.062585,0.01051));
#1366=CARTESIAN_POINT('',(-0.170569999574,0.05858499957409,0.01051));
#1367=CARTESIAN_POINT('',(-0.170569999574,0.05858499957409,0.00751));
#1368=CARTESIAN_POINT('',(-0.17457,0.0585849997870451,0.00751));
#1369=CARTESIAN_POINT('',(-0.17457,0.0585849997870451,0.01051));
#1370=CARTESIAN_POINT('',(-0.17457,0.0585849997870451,0.01051));
#1371=CARTESIAN_POINT('',(-0.170569999574,0.05858499957409,0.01051));
#1372=CARTESIAN_POINT('',(-0.17457,4.16333634234433E-17,0.01051));
#1373=CARTESIAN_POINT('',(-0.17457,4.16333634234433E-17,0.00751));
#1374=CARTESIAN_POINT('',(-0.17456999999991,-0.058584999787045,0.00751));
#1375=CARTESIAN_POINT('',(-0.17456999999991,-0.058584999787045,0.01051));
#1376=CARTESIAN_POINT('',(-0.17456999999991,-0.058584999787045,0.01051));
#1377=CARTESIAN_POINT('',(-0.17457,4.16333634234433E-17,0.01051));
#1378=CARTESIAN_POINT('',(-0.170569999574,-0.05858499957409,0.01051));
#1379=CARTESIAN_POINT('',(-0.170569999574,-0.05858499957409,0.00751));
#1380=CARTESIAN_POINT('',(-0.170569999787,-0.062585,0.00751));
#1381=CARTESIAN_POINT('',(-0.170569999787,-0.062585,0.01051));
#1382=CARTESIAN_POINT('',(-0.170569999787,-0.062585,0.01051));
#1383=CARTESIAN_POINT('',(-0.170569999574,-0.05858499957409,0.01051));
#1384=CARTESIAN_POINT('',(2.2509771824275E-14,-0.062585,0.01051));
#1385=CARTESIAN_POINT('',(2.2509771824275E-14,-0.062585,0.00751));
#1386=CARTESIAN_POINT('',(0.170569999787045,-0.062585,0.00751));
#1387=CARTESIAN_POINT('',(0.170569999787045,-0.062585,0.01051));
#1388=CARTESIAN_POINT('',(0.170569999787045,-0.062585,0.01051));
#1389=CARTESIAN_POINT('',(2.2509771824275E-14,-0.062585,0.01051));
#1390=CARTESIAN_POINT('',(0.16520375,-0.00430250000000005,0.01051));
#1391=CARTESIAN_POINT('',(0.16520375,-0.00430250000000005,0.00751));
#1392=CARTESIAN_POINT('',(0.16570375,-0.0043025,0.00751));
#1393=CARTESIAN_POINT('',(0.16520375,-0.0038025,0.00751));
#1394=CARTESIAN_POINT('',(0.16570375,-0.0043025,0.01051));
#1395=CARTESIAN_POINT('',(0.16570375,-0.0043025,0.01051));
#1396=CARTESIAN_POINT('',(0.16520375,-0.00430250000000005,0.01051));
#1397=CARTESIAN_POINT('',(0.16520375,-0.0038025,0.01051));
#1398=CARTESIAN_POINT('',(0.16520375,-0.0038025,0.01051));
#1399=CARTESIAN_POINT('',(0.16570375,-0.0111525,0.01051));
#1400=CARTESIAN_POINT('',(0.16570375,-0.0111525,0.00751));
#1401=CARTESIAN_POINT('',(0.16570375,-0.0180025,0.00751));
#1402=CARTESIAN_POINT('',(0.16570375,-0.0180025,0.01051));
#1403=CARTESIAN_POINT('',(0.16570375,-0.0180025,0.01051));
#1404=CARTESIAN_POINT('',(0.16570375,-0.0111525,0.01051));
#1405=CARTESIAN_POINT('',(0.16520375,-0.0180025,0.01051));
#1406=CARTESIAN_POINT('',(0.16520375,-0.0180025,0.00751));
#1407=CARTESIAN_POINT('',(0.16520375,-0.0185025,0.00751));
#1408=CARTESIAN_POINT('',(0.16520375,-0.0185025,0.01051));
#1409=CARTESIAN_POINT('',(0.16520375,-0.0185025,0.01051));
#1410=CARTESIAN_POINT('',(0.16520375,-0.0180025,0.01051));
#1411=CARTESIAN_POINT('',(0.15099375,-0.0185025,0.01051));
#1412=CARTESIAN_POINT('',(0.15099375,-0.0185025,0.00751));
#1413=CARTESIAN_POINT('',(0.13678375,-0.0185025,0.00751));
#1414=CARTESIAN_POINT('',(0.13678375,-0.0185025,0.01051));
#1415=CARTESIAN_POINT('',(0.13678375,-0.0185025,0.01051));
#1416=CARTESIAN_POINT('',(0.15099375,-0.0185025,0.01051));
#1417=CARTESIAN_POINT('',(0.13678375,-0.0180025,0.01051));
#1418=CARTESIAN_POINT('',(0.13678375,-0.0180025,0.00751));
#1419=CARTESIAN_POINT('',(0.13628375,-0.0180025,0.00751));
#1420=CARTESIAN_POINT('',(0.13628375,-0.0180025,0.01051));
#1421=CARTESIAN_POINT('',(0.13628375,-0.0180025,0.01051));
#1422=CARTESIAN_POINT('',(0.13678375,-0.0180025,0.01051));
#1423=CARTESIAN_POINT('',(0.13628375,-0.0111525,0.01051));
#1424=CARTESIAN_POINT('',(0.13628375,-0.0111525,0.00751));
#1425=CARTESIAN_POINT('',(0.13628375,-0.0043025,0.00751));
#1426=CARTESIAN_POINT('',(0.13628375,-0.0043025,0.01051));
#1427=CARTESIAN_POINT('',(0.13628375,-0.0043025,0.01051));
#1428=CARTESIAN_POINT('',(0.13628375,-0.0111525,0.01051));
#1429=CARTESIAN_POINT('',(0.13678375,-0.0043025,0.01051));
#1430=CARTESIAN_POINT('',(0.13678375,-0.0043025,0.00751));
#1431=CARTESIAN_POINT('',(0.13678375,-0.0038025,0.00751));
#1432=CARTESIAN_POINT('',(0.13678375,-0.0038025,0.01051));
#1433=CARTESIAN_POINT('',(0.13678375,-0.0038025,0.01051));
#1434=CARTESIAN_POINT('',(0.13678375,-0.0043025,0.01051));
#1435=CARTESIAN_POINT('',(0.17056999957409,-0.05858499957409,0.01051));
#1436=CARTESIAN_POINT('',(0.17056999957409,-0.05858499957409,0.00751));
#1437=CARTESIAN_POINT('',(0.17056999957409,-0.05858499957409,0.01051));
#1438=CARTESIAN_POINT('',(0.15099375,-0.0038025,0.01051));
#1439=CARTESIAN_POINT('',(0.15099375,-0.0038025,0.00751));
#1440=CARTESIAN_POINT('',(0.15099375,-0.0038025,0.01051));
#1441=CARTESIAN_POINT('',(0.15092375,0.019695,0.01051));
#1442=CARTESIAN_POINT('',(0.15092375,0.019695,0.01051));
#1443=CARTESIAN_POINT('',(0.15432375,0.019695,0.01051));
#1444=CARTESIAN_POINT('',(0.15092375,0.019695,0.00751));
#1445=CARTESIAN_POINT('',(0.15432375,0.019695,0.00751));
#1446=CARTESIAN_POINT('',(0.13579375,-0.0275784599674,0.01051));
#1447=CARTESIAN_POINT('',(0.13579375,-0.0275784599674,0.01051));
#1448=CARTESIAN_POINT('',(0.13729375,-0.0275784599674,0.01051));
#1449=CARTESIAN_POINT('',(0.13579375,-0.0275784599674,0.00751));
#1450=CARTESIAN_POINT('',(0.13729375,-0.0275784599674,0.00751));
#1451=CARTESIAN_POINT('',(0.16619375,-0.0275784599674,0.01051));
#1452=CARTESIAN_POINT('',(0.16619375,-0.0275784599674,0.01051));
#1453=CARTESIAN_POINT('',(0.16769375,-0.0275784599674,0.01051));
#1454=CARTESIAN_POINT('',(0.16619375,-0.0275784599674,0.00751));
#1455=CARTESIAN_POINT('',(0.16769375,-0.0275784599674,0.00751));
#1456=CARTESIAN_POINT('',(0.13579375,0.0010475,0.01051));
#1457=CARTESIAN_POINT('',(0.13579375,0.0010475,0.01051));
#1458=CARTESIAN_POINT('',(0.13729375,0.0010475,0.01051));
#1459=CARTESIAN_POINT('',(0.13579375,0.0010475,0.00751));
#1460=CARTESIAN_POINT('',(0.13729375,0.0010475,0.00751));
#1461=CARTESIAN_POINT('',(0.16619375,0.0010475,0.01051));
#1462=CARTESIAN_POINT('',(0.16619375,0.0010475,0.01051));
#1463=CARTESIAN_POINT('',(0.16769375,0.0010475,0.01051));
#1464=CARTESIAN_POINT('',(0.16619375,0.0010475,0.00751));
#1465=CARTESIAN_POINT('',(0.16769375,0.0010475,0.00751));
#1466=CARTESIAN_POINT('',(-0.16964,-0.057265,0.01051));
#1467=CARTESIAN_POINT('',(-0.16964,-0.057265,0.01051));
#1468=CARTESIAN_POINT('',(-0.168565,-0.057265,0.01051));
#1469=CARTESIAN_POINT('',(-0.16964,-0.057265,0.00751));
#1470=CARTESIAN_POINT('',(-0.168565,-0.057265,0.00751));
#1471=CARTESIAN_POINT('',(0.16877,-0.057335,0.01051));
#1472=CARTESIAN_POINT('',(0.16877,-0.057335,0.01051));
#1473=CARTESIAN_POINT('',(0.16987,-0.057335,0.01051));
#1474=CARTESIAN_POINT('',(0.16877,-0.057335,0.00751));
#1475=CARTESIAN_POINT('',(0.16987,-0.057335,0.00751));
#1476=CARTESIAN_POINT('',(0.16956,0.058165,0.01051));
#1477=CARTESIAN_POINT('',(0.16956,0.058165,0.01051));
#1478=CARTESIAN_POINT('',(0.17066,0.058165,0.01051));
#1479=CARTESIAN_POINT('',(0.16956,0.058165,0.00751));
#1480=CARTESIAN_POINT('',(0.17066,0.058165,0.00751));
#1481=CARTESIAN_POINT('',(-0.16844,0.056425,0.01051));
#1482=CARTESIAN_POINT('',(-0.16844,0.056425,0.01051));
#1483=CARTESIAN_POINT('',(-0.16734,0.056425,0.01051));
#1484=CARTESIAN_POINT('',(-0.16844,0.056425,0.00751));
#1485=CARTESIAN_POINT('',(-0.16734,0.056425,0.00751));
#1486=CARTESIAN_POINT('',(-0.163551261812119,-0.05301988894945,0.01051));
#1487=CARTESIAN_POINT('',(-0.163551261812119,-0.05301988894945,0.00751));
#1488=CARTESIAN_POINT('',(-0.163551261812119,-0.05301988894945,0.01051));
#1489=CARTESIAN_POINT('',(2.77555756156289E-17,0.,0.01051));
#1490=CARTESIAN_POINT('',(2.77555756156289E-17,0.,0.00751));
#1491=CARTESIAN_POINT('',(0.16956,0.058165,0.00751));
#1492=CARTESIAN_POINT('',(0.17156,0.058165,0.00751));
#1493=CARTESIAN_POINT('',(-0.01387,0.057985,0.00751));
#1494=CARTESIAN_POINT('',(-0.01187,0.057985,0.00751));
#1495=CARTESIAN_POINT('',(-0.16844,0.056425,0.00751));
#1496=CARTESIAN_POINT('',(-0.16644,0.056425,0.00751));
#1497=CARTESIAN_POINT('',(-0.04149,-0.059015,0.00751));
#1498=CARTESIAN_POINT('',(-0.03949,-0.059015,0.00751));
#1499=CARTESIAN_POINT('',(0.16877,-0.057335,0.00751));
#1500=CARTESIAN_POINT('',(0.17077,-0.057335,0.00751));
#1501=CARTESIAN_POINT('',(-0.16964,-0.057265,0.00751));
#1502=CARTESIAN_POINT('',(-0.16764,-0.057265,0.00751));
#1503=CARTESIAN_POINT('',(-4.00000000000123E-5,-0.000424999999999995,0.00151));
#1504=CARTESIAN_POINT('',(-0.16964,-0.057265,0.00151));
#1505=CARTESIAN_POINT('',(-0.17164,-0.057265,0.00151));
#1506=CARTESIAN_POINT('',(-0.16964,-0.057265,0.00151));
#1507=CARTESIAN_POINT('',(-4.00000000000123E-5,-0.000424999999999995,0.00151));
#1508=CARTESIAN_POINT('',(0.16877,-0.057335,0.00151));
#1509=CARTESIAN_POINT('',(0.16677,-0.057335,0.00151));
#1510=CARTESIAN_POINT('',(0.16877,-0.057335,0.00151));
#1511=CARTESIAN_POINT('',(-0.04149,-0.059015,0.00151));
#1512=CARTESIAN_POINT('',(-0.04149,-0.059015,0.00151));
#1513=CARTESIAN_POINT('',(-0.04259,-0.059015,0.00151));
#1514=CARTESIAN_POINT('',(-0.04149,-0.059015,0.00751));
#1515=CARTESIAN_POINT('',(-0.04259,-0.059015,0.00751));
#1516=CARTESIAN_POINT('',(-0.04149,-0.059015,0.00151));
#1517=CARTESIAN_POINT('',(-0.04149,-0.059015,0.00151));
#1518=CARTESIAN_POINT('',(-0.04349,-0.059015,0.00151));
#1519=CARTESIAN_POINT('',(-4.00000000000123E-5,-0.000424999999999995,0.00151));
#1520=CARTESIAN_POINT('',(2.77555756156289E-17,0.,0.00751));
#1521=CARTESIAN_POINT('',(-4.00000000000123E-5,-0.000424999999999995,0.00151));
#1522=CARTESIAN_POINT('',(-0.16844,0.056425,0.00151));
#1523=CARTESIAN_POINT('',(-0.17044,0.056425,0.00151));
#1524=CARTESIAN_POINT('',(-0.16844,0.056425,0.00151));
#1525=CARTESIAN_POINT('',(-0.01387,0.057985,0.00151));
#1526=CARTESIAN_POINT('',(-0.01387,0.057985,0.00151));
#1527=CARTESIAN_POINT('',(-0.01497,0.057985,0.00151));
#1528=CARTESIAN_POINT('',(-0.01387,0.057985,0.00751));
#1529=CARTESIAN_POINT('',(-0.01497,0.057985,0.00751));
#1530=CARTESIAN_POINT('',(-0.01387,0.057985,0.00151));
#1531=CARTESIAN_POINT('',(-0.01387,0.057985,0.00151));
#1532=CARTESIAN_POINT('',(-0.01587,0.057985,0.00151));
#1533=CARTESIAN_POINT('',(-4.00000000000123E-5,-0.000424999999999995,0.00151));
#1534=CARTESIAN_POINT('',(2.77555756156289E-17,0.,0.00751));
#1535=CARTESIAN_POINT('',(-4.00000000000123E-5,-0.000424999999999995,0.00151));
#1536=CARTESIAN_POINT('',(0.16956,0.058165,0.00151));
#1537=CARTESIAN_POINT('',(0.16756,0.058165,0.00151));
#1538=CARTESIAN_POINT('',(0.16956,0.058165,0.00151));
#1539=CARTESIAN_POINT('',(-4.00000000000123E-5,-0.000424999999999995,0.00751));
#1540=CARTESIAN_POINT('',(-4.00000000000123E-5,-0.000424999999999995,0.00751));
#1541=CARTESIAN_POINT('',(-4.00000000000123E-5,-0.000424999999999995,0.00751));
#1542=CARTESIAN_POINT('',(-4.00000000000123E-5,-0.000424999999999995,0.00751));
#1543=MECHANICAL_DESIGN_GEOMETRIC_PRESENTATION_REPRESENTATION('',(#902),
#1544);
#1544=(
GEOMETRIC_REPRESENTATION_CONTEXT(3)
GLOBAL_UNCERTAINTY_ASSIGNED_CONTEXT((#1545))
GLOBAL_UNIT_ASSIGNED_CONTEXT((#1548,#1547,#1546))
REPRESENTATION_CONTEXT('Part 2411','TOP_LEVEL_ASSEMBLY_PART')
);
#1545=UNCERTAINTY_MEASURE_WITH_UNIT(LENGTH_MEASURE(1.E-8),#1548,
'DISTANCE_ACCURACY_VALUE','Maximum Tolerance applied to model');
#1546=(
NAMED_UNIT(*)
SI_UNIT($,.STERADIAN.)
SOLID_ANGLE_UNIT()
);
#1547=(
NAMED_UNIT(*)
PLANE_ANGLE_UNIT()
SI_UNIT($,.RADIAN.)
);
#1548=(
LENGTH_UNIT()
NAMED_UNIT(*)
SI_UNIT($,.METRE.)
);
#1549=PRODUCT_DEFINITION_SHAPE('','',#1550);
#1550=PRODUCT_DEFINITION('','',#1552,#1551);
#1551=PRODUCT_DEFINITION_CONTEXT('',#1558,'design');
#1552=PRODUCT_DEFINITION_FORMATION_WITH_SPECIFIED_SOURCE('','',#1554,
 .NOT_KNOWN.);
#1553=PRODUCT_RELATED_PRODUCT_CATEGORY('','',(#1554));
#1554=PRODUCT('Part 2411','Part 2411','Part 2411',(#1556));
#1555=PRODUCT_CATEGORY('','');
#1556=PRODUCT_CONTEXT('',#1558,'mechanical');
#1557=APPLICATION_PROTOCOL_DEFINITION('international standard',
'ap242_managed_model_based_3d_engineering',2020,#1558);
#1558=APPLICATION_CONTEXT('managed model based 3d engineering');
ENDSEC;
END-ISO-10303-21;
